<svg xmlns="http://www.w3.org/2000/svg" width="165" height="127" viewBox="0 0 165 127"><defs><linearGradient id="8vfja" x1="87.01" x2="87.01" y1="114.35" y2="0" gradientUnits="userSpaceOnUse"><stop offset="0" stop-color="gray" stop-opacity=".25"/><stop offset=".54" stop-color="gray" stop-opacity=".12"/><stop offset="1" stop-color="gray" stop-opacity=".1"/></linearGradient><linearGradient id="8vfjb" x1="8078.12" x2="8078.12" y1="60966.12" y2="26798.04" gradientUnits="userSpaceOnUse"><stop offset="0" stop-color="gray" stop-opacity=".25"/><stop offset=".54" stop-color="gray" stop-opacity=".12"/><stop offset="1" stop-color="gray" stop-opacity=".1"/></linearGradient></defs><g><g><g/><g opacity=".1"><path fill="#6176ff" d="M103.504 20.474c-6.87 4.334-15.78 4.052-23.587 1.799-7.806-2.253-14.98-6.271-22.583-9.126A79.915 79.915 0 0 0 37.49 8.486c-9.694-1-20.52.217-27.276 7.224-7.522 7.804-6.945 21.882 1.191 29.043 4.138 3.643 9.558 5.431 14.285 8.276 4.726 2.844 9.098 7.57 8.697 13.06-.372 5.084-4.704 8.985-9.186 11.433-3.466 1.891-7.734 3.956-8.151 7.874-.403 3.791 3.184 6.762 6.61 8.451 11.179 5.511 24.95 5.458 36.084-.14 3.972-1.996 7.625-4.651 11.79-6.207 10.94-4.086 22.992.027 34.575 1.532a76.425 76.425 0 0 0 29.407-1.931c5.735-1.527 11.493-3.86 15.523-8.21 2.905-3.136 4.711-7.104 6.416-11.022a410.36 410.36 0 0 0 5.225-12.626c1.004-2.545 1.992-5.138 2.25-7.861.469-4.933-1.508-9.808-4.203-13.972-6.402-9.886-17.175-16.836-28.841-18.601-11.665-1.765-24.011 1.685-33.061 9.227"/></g><g opacity=".1"><path fill="#6176ff" d="M22.054 127.004c12.18 0 22.054-1.926 22.054-4.302 0-2.376-9.874-4.302-22.054-4.302C9.874 118.4 0 120.326 0 122.702c0 2.376 9.874 4.302 22.054 4.302z"/></g><g opacity=".1"><path fill="#6176ff" d="M87.57 118.014c25.532 0 46.23-1.926 46.23-4.302 0-2.376-20.698-4.302-46.23-4.302-25.532 0-46.23 1.926-46.23 4.302 0 2.376 20.698 4.302 46.23 4.302z"/></g><g/><g><path fill="#6176ff" d="M154.433 53.309c-1.113 1.076-6.293 2.19-6.293 2.19s1.272-5.13 2.383-6.208a2.81 2.81 0 0 1 3.969.059 2.796 2.796 0 0 1-.06 3.959z"/></g><g><path fill="#6176ff" d="M151.505 62.6c-1.521.3-6.475-1.575-6.475-1.575s3.862-3.617 5.381-3.919a2.814 2.814 0 0 1 2.933 1.167 2.797 2.797 0 0 1-1.84 4.326z"/></g><g><path fill="#6176ff" d="M140.823 72.638c-1.462-.506-4.793-4.618-4.793-4.618s5.165-1.18 6.629-.674a2.81 2.81 0 0 1 1.656 1.414A2.796 2.796 0 0 1 143 72.548a2.813 2.813 0 0 1-2.178.09z"/></g><g><path fill="#6176ff" d="M131.046 78.43c-1.529-.251-5.506-3.746-5.506-3.746s4.89-2.032 6.42-1.783a2.81 2.81 0 0 1 1.823 1.131 2.796 2.796 0 0 1-1.643 4.357c-.358.084-.73.096-1.094.036z"/></g><g><path fill="#6176ff" d="M140.71 57.022c0 1.546 2.804 6.031 2.804 6.031s2.808-4.483 2.81-6.03a2.798 2.798 0 0 0-.846-1.936 2.811 2.811 0 0 0-3.922 0 2.798 2.798 0 0 0-.846 1.936z"/></g><g><path fill="#6176ff" d="M129.345 63.929c.463 1.475 4.482 4.917 4.482 4.917s1.336-5.115.873-6.59a2.804 2.804 0 0 0-1.378-1.646 2.815 2.815 0 0 0-3.792 1.182 2.796 2.796 0 0 0-.192 2.137z"/></g><g><path fill="#6176ff" d="M119.225 72.163c.206 1.533 3.587 5.603 3.587 5.603s2.182-4.816 1.976-6.349a2.799 2.799 0 0 0-1.079-1.853 2.811 2.811 0 0 0-3.934.527 2.795 2.795 0 0 0-.55 2.072z"/></g><g opacity=".25"><path d="M154.433 53.309c-1.113 1.076-6.293 2.19-6.293 2.19s1.272-5.13 2.383-6.208a2.81 2.81 0 0 1 3.969.059 2.796 2.796 0 0 1-.06 3.959z"/></g><g opacity=".25"><path d="M151.505 62.6c-1.521.3-6.475-1.575-6.475-1.575s3.862-3.617 5.381-3.919a2.814 2.814 0 0 1 2.933 1.167 2.797 2.797 0 0 1-1.84 4.326z"/></g><g opacity=".25"><path d="M140.823 72.638c-1.462-.506-4.793-4.618-4.793-4.618s5.165-1.18 6.629-.674a2.81 2.81 0 0 1 1.656 1.414A2.796 2.796 0 0 1 143 72.548a2.813 2.813 0 0 1-2.178.09z"/></g><g opacity=".25"><path d="M131.046 78.43c-1.529-.251-5.506-3.746-5.506-3.746s4.89-2.032 6.42-1.783a2.81 2.81 0 0 1 1.823 1.131 2.796 2.796 0 0 1-1.643 4.357c-.358.084-.73.096-1.094.036z"/></g><g opacity=".25"><path d="M140.71 57.022c0 1.546 2.804 6.031 2.804 6.031s2.808-4.483 2.81-6.03a2.798 2.798 0 0 0-.846-1.936 2.811 2.811 0 0 0-3.922 0 2.798 2.798 0 0 0-.846 1.936z"/></g><g opacity=".25"><path d="M129.345 63.929c.463 1.475 4.482 4.917 4.482 4.917s1.336-5.115.873-6.59a2.804 2.804 0 0 0-1.378-1.646 2.815 2.815 0 0 0-3.792 1.182 2.796 2.796 0 0 0-.192 2.137z"/></g><g opacity=".25"><path d="M119.225 72.163c.206 1.533 3.587 5.603 3.587 5.603s2.182-4.816 1.976-6.349a2.799 2.799 0 0 0-1.079-1.853 2.811 2.811 0 0 0-3.934.527 2.795 2.795 0 0 0-.55 2.072z"/></g><g/><g><path fill="#6176ff" d="M139.667 41.295c-.58 1.435-4.863 4.538-4.863 4.538s-.923-5.204-.343-6.645a2.812 2.812 0 0 1 5.11.01c.298.656.33 1.403.09 2.082z"/></g><g><path fill="#6176ff" d="M140.757 50.962c-1.267.89-6.557 1.18-6.557 1.18s2.062-4.863 3.33-5.76a2.811 2.811 0 0 1 3.884.697 2.794 2.794 0 0 1-.657 3.883z"/></g><g><path fill="#6176ff" d="M135.087 64.459c-1.544.13-6.257-2.284-6.257-2.284s4.242-3.166 5.787-3.295a2.812 2.812 0 0 1 2.729 1.505 2.794 2.794 0 0 1-1.207 3.772 2.811 2.811 0 0 1-1.052.302z"/></g><g><path fill="#6176ff" d="M128.494 73.71c-1.5.387-6.554-1.196-6.554-1.196s3.646-3.837 5.145-4.224a2.812 2.812 0 0 1 2.128.297 2.794 2.794 0 0 1 .996 3.833 2.806 2.806 0 0 1-1.715 1.29z"/></g><g><path fill="#6176ff" d="M128.62 50.225c.63 1.413 5.015 4.376 5.015 4.376s.745-5.232.118-6.645a2.813 2.813 0 0 0-5.185.127 2.794 2.794 0 0 0 .053 2.142z"/></g><g><path fill="#6176ff" d="M121.044 61.14c1.023 1.16 6.097 2.683 6.097 2.683s-.858-5.216-1.88-6.378a2.812 2.812 0 0 0-4.915 1.664c-.049.742.2 1.473.691 2.031z"/></g><g><path fill="#6176ff" d="M115.135 72.755c.812 1.318 5.555 3.673 5.555 3.673s.039-5.286-.772-6.603a2.806 2.806 0 0 0-3.86-.921 2.8 2.8 0 0 0-.923 3.851z"/></g><g><path fill="url(#8vfja)" d="M45.79 0v114.346h82.438V0z"/></g><g><path fill="#f6f7f9" d="M127.502 1H46.51v4.359h80.992z"/></g><g opacity=".2"><g opacity=".04"><path fill="#6176ff" d="M127.502 1H46.51v4.359h80.992z"/></g></g><g><path fill="#f6f7f9" d="M127.502 5.36H46.51v107.981h80.992z"/></g><g><path fill="#f6f7f9" d="M48.64 3.918a.74.74 0 1 0 .003-1.48.74.74 0 0 0-.002 1.48z"/></g><g><path fill="#f6f7f9" d="M50.65 3.918a.74.74 0 1 0 .003-1.48.74.74 0 0 0-.002 1.48z"/></g><g><path fill="#f6f7f9" d="M52.66 3.918a.74.74 0 1 0 .003-1.48.74.74 0 0 0-.002 1.48z"/></g><g opacity=".2"><g opacity=".04"><path fill="#6176ff" d="M113.05 12.02H60.97v2.034h52.08z"/></g></g><g><path fill="#6176ff" d="M113.05 12.02h-6.92v2.034h6.92z"/></g><g opacity=".2"><g opacity=".04"><path fill="#6176ff" d="M86.284 53.59H53.51v23.42h32.774z"/></g></g><g opacity=".2"><g opacity=".04"><path fill="#6176ff" d="M86.284 23.21H53.51v23.42h32.774z"/></g></g><g opacity=".2"><g opacity=".04"><path fill="#6176ff" d="M86.284 83.57H53.51v23.42h32.774z"/></g></g><g opacity=".2"><g opacity=".04"><path fill="#6176ff" d="M120.514 53.59H87.74v23.42h32.774z"/></g></g><g opacity=".2"><g opacity=".04"><path fill="#6176ff" d="M120.514 23.21H87.74v23.42h32.774z"/></g></g><g opacity=".2"><g opacity=".04"><path fill="#6176ff" d="M120.514 83.57H87.74v23.42h32.774z"/></g></g><g><path fill="#3acc6c" d="M151.357 102.84s1.16 1.512-.535 3.794c-1.694 2.283-3.086 4.215-2.526 5.635 0 0 2.556-4.24 4.637-4.299 2.081-.058.713-2.58-1.576-5.13z"/></g><g opacity=".1"><path d="M151.353 102.84c.101.146.18.305.237.473 2.03 2.38 3.111 4.6 1.16 4.657-1.816.052-3.998 3.294-4.52 4.112.017.063.038.126.062.187 0 0 2.555-4.24 4.637-4.299 2.081-.058.713-2.58-1.576-5.13z"/></g><g><path fill="#ffd037" d="M153.508 104.771c0 .532-.06.963-.133.963-.073 0-.135-.431-.135-.963 0-.531.075-.282.15-.282.074 0 .118-.251.118.282z"/></g><g><path fill="#ffd037" d="M154.254 105.405c-.468.254-.878.408-.912.343-.034-.064.315-.324.783-.578.468-.255.285-.068.325 0 .041.068.272-.015-.196.235z"/></g><g><path fill="#3acc6c" d="M145.233 102.84s-1.16 1.512.535 3.794c1.694 2.283 3.086 4.215 2.526 5.635 0 0-2.556-4.24-4.637-4.299-2.081-.058-.716-2.58 1.576-5.13z"/></g><g opacity=".1"><path d="M145.233 102.84a1.861 1.861 0 0 0-.237.473c-2.031 2.38-3.112 4.6-1.16 4.657 1.818.052 3.998 3.294 4.52 4.112a1.474 1.474 0 0 1-.062.187s-2.556-4.24-4.637-4.299c-2.081-.058-.716-2.58 1.576-5.13z"/></g><g><path fill="#ffd037" d="M143.08 104.771c0 .532.06.963.135.963.075 0 .133-.431.133-.963 0-.531-.075-.282-.148-.282s-.12-.251-.12.282z"/></g><g><path fill="#ffd037" d="M142.34 105.405c.469.254.877.408.912.343.036-.064-.317-.324-.784-.578-.468-.255-.285-.068-.325 0-.041.068-.272-.015.196.235z"/></g><g opacity=".1"><path fill="#6176ff" d="M148.29 123.842c6.694 0 12.12-.831 12.12-1.856 0-1.025-5.426-1.856-12.12-1.856-6.694 0-12.12.83-12.12 1.856 0 1.025 5.426 1.856 12.12 1.856z"/></g><g><path fill="#65617d" d="M154.53 110.232l-.058.472-.082.667-.034.277-.08.668-.037.28-.08.665-.928 7.586c-.083.677-1.191 1.204-2.53 1.204h-4.82c-1.338 0-2.436-.527-2.527-1.204l-.93-7.589-.08-.666-.035-.279-.083-.668-.034-.277-.081-.668-.059-.471c-.045-.375.56-.699 1.312-.699h9.857c.755 0 1.356.324 1.31.702z"/></g><g><path fill="#9d9cb5" d="M154.47 110.71l-.08.666H142.19l-.081-.666z"/></g><g><path fill="#9d9cb5" d="M154.36 111.65l-.081.668h-11.966l-.083-.668z"/></g><g><path fill="#9d9cb5" d="M154.236 112.6l-.081.668h-11.734l-.081-.668z"/></g><g><path fill="#6176ff" d="M96.116 27.73s-.297-.74 1.708-.556c2.005.185 7.761.824 10.25.265 2.49-.56 3.973-.738 3.825 0-.148.737-4.307 2.403-4.307 2.403l-5.386.556-3.973-.63-2.133-1.26z"/></g><g opacity=".1"><path d="M111.908 27.44c-.15.737-4.307 2.404-4.307 2.404l-5.386.556-3.972-.63-2.132-1.259.015-.778a.323.323 0 0 1 .113-.358c.184-.162.613-.289 1.594-.198 2.007.185 7.761.822 10.25.263 2.028-.456 3.39-.658 3.737-.324a.323.323 0 0 1 .088.324z"/></g><g><path fill="#6176ff" d="M115.11 38.66a23.275 23.275 0 0 0-9.557 4.222 1.77 1.77 0 0 0-.762-.903 2.68 2.68 0 0 0-.773-.324c-.249-.063-.488.088-.707.305a3.991 3.991 0 0 0-.629.928c-3.787-2.593-9.532-4.248-9.532-4.248v-.518c0-.103.018-.226.037-.365.02-.14.044-.263.075-.413.488-2.474 2.414-8.126 2.414-8.126H97.855l4.224.875 4.753-.29 4.786-.993.62-.13c1.036.81 2.21 6.483 2.672 8.899.058.306.104.559.138.745.04.21.062.336.062.336z"/></g><g><path fill="#6176ff" d="M93.933 37.595c.125-2.375 2.016-7.52 2.336-8.375h-.596s-2.04 5.997-2.455 8.338v.018c-.011.063-.023.124-.03.183-.02.14-.033.262-.038.364v.52s5.745 1.656 9.532 4.247a3.99 3.99 0 0 1 .629-.928c-1.448-1.313-6.938-3.453-9.378-4.367z"/></g><g><path fill="#6176ff" d="M115.044 38.324l-.052-.283-.087-.462c-.46-2.419-1.636-8.093-2.67-8.899l-.621.13c.377 1.01 2.806 7.603 2.6 8.89-4.062.81-8.18 3.445-9.424 4.286.35.205.62.523.762.903a23.275 23.275 0 0 1 9.557-4.223s-.025-.125-.065-.342z"/></g><g opacity=".1"><path d="M94.083 37.443c.124-2.374 2.016-7.52 2.336-8.373h-.597s-2.041 5.997-2.455 8.336v.018a4.146 4.146 0 0 0-.067.55v.518s5.743 1.655 9.532 4.248a3.92 3.92 0 0 1 .627-.928c-1.447-1.31-6.936-3.454-9.376-4.369z"/></g><g><path fill="#6176ff" d="M93.933 37.595c.125-2.375 2.016-7.52 2.336-8.375h-.596s-2.04 5.997-2.455 8.338v.018c-.011.063-.023.124-.03.183-.02.14-.033.262-.038.364v.52s5.745 1.656 9.532 4.247a3.99 3.99 0 0 1 .629-.928c-1.448-1.313-6.938-3.453-9.378-4.367z"/></g><g opacity=".1"><path d="M114.902 38.174l-.052-.283-.086-.462c-.46-2.417-1.636-8.092-2.671-8.899l-.62.131c.378 1.01 2.807 7.604 2.6 8.89-4.061.811-8.18 3.445-9.423 4.285.35.205.62.525.762.904a23.25 23.25 0 0 1 9.555-4.224l-.065-.342z"/></g><g><path fill="#6176ff" d="M115.044 38.324l-.052-.283-.087-.462c-.46-2.419-1.636-8.093-2.67-8.899l-.621.13c.377 1.01 2.806 7.603 2.6 8.89-4.062.81-8.18 3.445-9.424 4.286.35.205.62.523.762.903a23.275 23.275 0 0 1 9.557-4.223s-.025-.125-.065-.342z"/></g><g opacity=".1"><path d="M95.35 32.149s3.77 2.366 4.65-1.099l.839.224s.276 3.84-5.739 1.648z"/></g><g><path fill="#6176ff" d="M95.35 31.849s3.77 2.366 4.65-1.099l.839.224s.276 3.84-5.739 1.648z"/></g><g opacity=".1"><path d="M107.21 31.16s.487 2.832 5.652 1.46l-.182-.535s-3.527 1.458-4.805-1.075z"/></g><g><path fill="#6176ff" d="M107.21 30.86s.487 2.832 5.652 1.46l-.182-.535s-3.527 1.458-4.805-1.075z"/></g><g opacity=".1"><path d="M103.77 31.124v5.91h.916s1.268-.456 1.238-3.113c-.029-2.656-.222-3.371-.222-3.371z"/></g><g><path fill="#6176ff" d="M103.62 30.974v5.91h.916s1.268-.456 1.238-3.113c-.029-2.656-.224-3.371-.224-3.371z"/></g><g opacity=".1"><path d="M112.231 28.981c-.374.694-3.766 1.833-4.366 2.03l-.09.029s-.215.055-.574.13c-1.092.226-3.526.648-5.362.278-.266-.052-.542-.108-.823-.162l-.65-.14c-2.112-.47-4.298-1.082-4.686-1.622 0 0 .106-1.762.461-1.715.356.047 4.329 1.715 4.329 1.715l.057.008c.102.013.334.042.66.08 1.29.14 4.009.364 5.471-.026.07-.02.135-.04.198-.062.11-.037.226-.076.345-.12 1.881-.664 4.699-1.854 4.699-1.854s.744.668.331 1.431z"/></g><g opacity=".1"><path d="M111.908 27.448c-.15.737-4.307 2.403-4.307 2.403l-5.386.556-3.972-.629-2.132-1.259.015-.778a.323.323 0 0 1 .113-.358c.707.214 4.225 1.69 4.225 1.69l.056.009c.103.012.335.042.662.079 1.29.141 4.008.365 5.47-.026a8.89 8.89 0 0 0 .543-.182c1.7-.6 4.169-1.632 4.625-1.823a.324.324 0 0 1 .088.318z"/></g><g><path fill="#6176ff" d="M112.231 28.683c-.374.694-3.766 1.831-4.366 2.028l-.09.03s-.215.054-.574.128c-1.092.227-3.526.649-5.362.28-.266-.053-.542-.11-.823-.163l-.65-.14c-2.112-.47-4.298-1.082-4.686-1.622 0 0 .106-1.762.461-1.713.356.049 4.329 1.713 4.329 1.713l.057.008c.102.013.334.044.66.08 1.29.14 4.009.364 5.471-.026a8.876 8.876 0 0 0 .543-.182c1.881-.664 4.699-1.854 4.699-1.854s.744.673.331 1.433z"/></g><g opacity=".1"><path d="M104.415 31.146a.594.594 0 1 0 .001-1.187.594.594 0 0 0-.001 1.187z"/></g><g><path fill="#6176ff" d="M104.415 30.996a.594.594 0 1 0 .001-1.187.594.594 0 0 0-.001 1.187z"/></g><g opacity=".1"><path d="M101.332 29.3l-.162 1.672-.65-.14.162-1.612c.091.016.325.047.65.08z"/></g><g><path fill="#6176ff" d="M101.182 29.3l-.162 1.672-.65-.14.162-1.612c.09.016.325.047.65.08z"/></g><g opacity=".1"><path d="M107.719 30.71l-.091.03s-.213.054-.574.128l-.554-1.586a8.902 8.902 0 0 0 .544-.182z"/></g><g><path fill="#6176ff" d="M107.869 30.71l-.091.03s-.215.054-.574.128l-.554-1.586a8.908 8.908 0 0 0 .543-.182z"/></g><g opacity=".5"><g opacity=".25"><path fill="#6176ff" d="M65.971 26.382c.76.005 1.506.212 2.16.598 0 0 1.979.24 3.057 0 1.08-.24 1.625-1.076 1.83-.838.205.239.21 2.483.21 2.483l-.93 2.484-2.099 1.554-3.327-.956-1.102-2.81z"/></g><g opacity=".05"><path d="M73.227 28.634l-.929 2.483L70.2 32.67l-3.327-.956-1.102-2.812.21-2.513h.048c.744.02 1.47.226 2.112.6 0 0 1.98.24 3.058 0 1.025-.227 1.565-.995 1.787-.865a.1.1 0 0 1 .034.026c.208.236.208 2.483.208 2.483z"/></g><g opacity=".05"><path d="M73.227 28.627l-.929 2.484-2.099 1.554-3.327-.956-1.102-2.812.21-2.513h.048c.186.793.975 3.295 3.49 3.472 2.587.18 3.321-2.89 3.474-3.736a.1.1 0 0 1 .034.026c.201.235.201 2.481.201 2.481z"/></g><g opacity=".25"><path fill="#6176ff" d="M65.964 26.38s.54 3.5 3.539 3.708c2.999.21 3.507-3.948 3.507-3.948s4.348 1.421 5.362 3.957c1.014 2.535 1.77 4.569 1.77 4.569s-.326.567-.691.627c-.366.06-2.848 1.765-2.848 1.765s-.03 4.847.24 5.145c.27.298.18 1.585-.63 1.525-.811-.06-6.416-1.316-11.21-.269 0 0-2.009.718-1.95-.449.058-1.167.149-5.743.149-5.743s-3.029-1.316-3.207-1.316c-.179 0-.63-.237-.151-1.016.479-.78 1.08-3.44 1.08-3.44s1.202-3.818 5.04-5.115z"/></g><g opacity=".05"><path d="M75.29 32.67s.9.658.69 1.167"/></g><g opacity=".05"><path d="M76.613 33.3a1.617 1.617 0 0 0 0 .893"/></g><g opacity=".05"><path d="M77.209 34.94s.12.81-.239.896"/></g><g opacity=".05"><path d="M64.977 32.46s-1.678 1.459-1.11 2.034"/></g><g opacity=".05"><path d="M63.93 35.99s-.027 1.525.436 1.645"/></g><g opacity=".05"><path d="M68.75 41.098s1.137-.776 1.44-.747"/></g><g opacity=".05"><path d="M69.89 41.913s1.232-.869 1.561-.81"/></g></g><g opacity=".5"><g opacity=".25"><path fill="#6176ff" d="M96.64 55.83s9.81.464 14.688.178l-.108 1.284-8.63 1.135-2.554-.785z"/></g><g opacity=".05"><path d="M111.334 56.008l-.107 1.284-8.63 1.135-2.555-.785-3.402-1.812s.201.011.56.026c2.129.092 9.793.39 14 .162z"/></g><g opacity=".25"><path fill="#6176ff" d="M114.723 74.263c-1.895 1.134-8.47.035-8.47.035l-1.823-6.483-2.037 6.595c-2.894 1.034-8.863-.464-8.863-.464l2.323-14.263.402-1.966.378-1.887 3.682 1.105s1.106.75 5.717.535c4.611-.214 5.289-1.458 5.289-1.458.203.058.396.773.591 1.66.283 1.298.57 2.96.91 3.51.578.924 1.9 13.08 1.9 13.08z"/></g><g opacity=".05"><path d="M111.924 57.81c-4.11 2.251-7.65 2.19-7.65 2.19-.875.106-8.014-2.145-8.014-2.145l.379-1.885 3.681 1.105s1.107.75 5.718.535c4.61-.214 5.288-1.458 5.288-1.458.21.056.403.77.598 1.658z"/></g><g opacity=".05"><path d="M111.334 56.008l-.107 1.284-8.63 1.135-2.555-.785-3.402-1.812s.201.011.56.026l3.12.937s1.106.749 5.717.535c3.622-.162 4.818-.973 5.164-1.312z"/></g><g opacity=".25"><path fill="#6176ff" d="M111.924 57.67c-4.11 2.251-7.65 2.19-7.65 2.19-.875.106-8.014-2.145-8.014-2.145l.379-1.885 3.681 1.105s1.107.75 5.718.535c4.61-.214 5.288-1.458 5.288-1.458.21.055.403.77.598 1.658z"/></g><g opacity=".05"><path d="M104.965 59.519a.375.375 0 1 0 .001-.75.375.375 0 0 0 0 .75z"/></g><g opacity=".25"/><g opacity=".05"><path d="M95.37 65.7s.661 1.961 1.126 1.926"/></g><g opacity=".05"><path d="M94.94 67.63s.411 1.177.84 1.373"/></g><g opacity=".05"><path d="M94.94 68.86s.65.82 1.035 1.016"/></g><g opacity=".05"><path d="M112.39 61.44s.608.91 0 1.105"/></g><g opacity=".05"><path d="M112.673 62.916c-.705-.835-.27 1.135-.27 1.135"/></g><g opacity=".05"><path d="M113.026 63.94s-1.072 1.587-.858 1.765"/></g><g opacity=".05"><path d="M98.842 61.475c-1.314 0-2.686-.593-2.762-.628l.058-.132c.026.013 2.65 1.15 4.07.297.537-.324.837-.895.896-1.702l.143.011c-.062.856-.387 1.46-.965 1.812-.44.243-.938.361-1.44.342z"/></g><g opacity=".25"><path fill="#6176ff" d="M98.842 61.335c-1.314 0-2.686-.593-2.762-.628l.058-.13c.026.011 2.65 1.148 4.07.295.537-.324.837-.895.896-1.702l.143.011c-.062.856-.387 1.46-.965 1.812-.44.243-.938.361-1.44.342z"/></g><g opacity=".05"><path d="M109.631 61.587a2.229 2.229 0 0 1-.975-.209c-1.066-.512-1.238-1.767-1.246-1.82l.143-.018c0 .013.17 1.233 1.167 1.71.887.426 2.146.162 3.736-.81l.073.121c-1.132.684-2.102 1.026-2.898 1.026z"/></g><g opacity=".25"><path fill="#6176ff" d="M109.631 61.437a2.229 2.229 0 0 1-.975-.209c-1.066-.512-1.238-1.767-1.246-1.82l.143-.018c0 .013.17 1.233 1.167 1.71.887.426 2.146.162 3.736-.81l.073.121c-1.132.684-2.102 1.026-2.898 1.026z"/></g></g><g><path fill="#6176ff" d="M66.8 56.04s1.844 2.57 3.097 2.32c1.252-.25 1.376-.524 2.489-2.32l.913 2.096-1.076 2.593-1.273 1.645-2.7-.423-.875-2.943z"/></g><g opacity=".1"><path d="M73.299 58.139l-1.076 2.593-1.273 1.646-2.7-.423-.875-2.944-.575-2.966s.162.224.416.531c.619.738 1.797 1.963 2.68 1.783 1.236-.246 1.374-.517 2.446-2.246l.044-.073z"/></g><g opacity=".1"><path d="M73.299 58.134l-1.076 2.594-1.273 1.645-2.7-.423-.875-2.944-.575-2.966s.162.224.416.532c.403 1.296 1.269 3.376 2.68 3.358 1.595-.018 2.238-2.652 2.446-3.817l.044-.073z"/></g><g><path fill="#6176ff" d="M65.825 55.97s-.625-.075-.3.698c.324.773.924 3.316.625 3.84-.299.524-.15 1.945-1.45 2.22l.374 1.47s.075 3.243-.074 3.717c-.15.475-.176 3.091-.125 3.365.05.274.026 2.07-.174 2.146-.2.076-.325.947.325 1.096.65.15 3.423.225 3.923.374.5.15 4.05 0 4.05 0s1.499-.199 1.874-.324.45-.423.325-.997c-.125-.573-.7-4.737-.575-5.26.125-.524.151-5.637.151-5.637s-.975-.324-.975-1.272-.375-3.491.4-5.086c0 0-.626-.428-.725-.352-.099.076-1.043-.198-1.043-.198s-.487 4.34-2.526 4.364c-2.04.024-2.948-4.364-2.948-4.364s.018-.399-1.132.2z"/></g><g opacity=".1"><path d="M68.77 69.88s.42 1.023 1.123 1.172"/></g><g opacity=".1"><path d="M68.12 70.68s1.358 1.097 1.3 1.323"/></g><g opacity=".1"><path d="M65.39 64.2s1.076.723 1.076 1.246"/></g><g opacity=".1"><path d="M66.119 66.47s-.3-1.046-.499-1.27"/></g><g opacity=".1"><path d="M65.62 66.87s.45.898.499 1.148"/></g><g opacity=".1"><path d="M74.343 65.05s-1.399.425-1.275.948"/></g><g opacity=".1"><path d="M73.06 69.88s1.833-2.12 1.282-2.07"/></g><g opacity=".1"><g opacity=".01"><path d="M73.79 61.403c0-.438-.08-1.216-.09-2.083-.01.995.09 1.916.09 2.407 0 .927.931 1.256.975 1.27v-.323s-.975-.323-.975-1.271z"/></g><g opacity=".01"><path d="M75.191 73.901c.02.085.034.171.044.258.021-.195.006-.392-.044-.582-.107-.486-.542-3.608-.588-4.827-.049.833.475 4.607.588 5.151z"/></g><g opacity=".01"><path d="M64.85 70.662c0-.89.05-2.116.148-2.43.08-.254.096-1.288.094-2.202 0 .82-.024 1.653-.094 1.877-.11.353-.152 1.874-.148 2.755z"/></g><g opacity=".01"><path d="M65.824 56.294c1.149-.598 1.124-.2 1.124-.2s.9 4.39 2.947 4.364c2.048-.026 2.535-4.364 2.535-4.364s.95.274 1.05.198c.099-.076.432.162.615.279.034-.086.07-.17.11-.251 0 0-.625-.428-.725-.352-.101.076-1.05-.198-1.05-.198s-.487 4.34-2.526 4.364c-2.04.024-2.948-4.364-2.948-4.364s.025-.399-1.124.2c0 0-.509-.059-.367.5.081-.209.359-.176.359-.176z"/></g><g opacity=".01"><path d="M64.692 73.753c.162-.06.206-1.17.196-1.783-.008.616-.065 1.409-.196 1.459-.132.05-.195.324-.145.588.026-.14.078-.241.145-.264z"/></g><g opacity=".01"><path d="M66.14 60.836a1.39 1.39 0 0 0 .077-.666.853.853 0 0 1-.076.342c-.3.524-.151 1.945-1.451 2.22l.078.305c1.215-.314 1.079-1.687 1.373-2.2z"/></g></g><g><path fill="#6176ff" d="M73.368 86.456c-.614 1.115-6.848 0-6.848 0l.016-.112.124-.864h6.568l.126.862z"/></g><g opacity=".1"><path d="M73.368 86.46c-.614 1.115-6.848 0-6.848 0l.016-.112c.3 0 4.81-.107 6.824 0z"/></g><g><path fill="#6176ff" d="M66.518 86.459s-1.117.278-2.851 4.963c-1.734 4.684-2.348 10.736-2.348 10.736s-.975 1.647 3.186 1.757c0 0-.334 1.088 2.013.92 2.348-.166 2.01-.164 2.01-.164s1.51-.949 2.18-.782c.671.167 1.09.224 1.817.837.726.612 3.048.363 3.075-.11a4.357 4.357 0 0 0 0-.7s3.55.225 2.88-2.341c-.672-2.566-1.23-6.777-1.23-6.777s-1.817-8.226-3.887-8.338c-2.07-.112-6.845-.001-6.845-.001z"/></g><g opacity=".1"><path d="M65.77 89.696l-1.315 14.223.111.01 1.315-14.222z"/></g><g opacity=".1"><path d="M68.525 89.686l-.057 14.975h.112l.057-14.975z"/></g><g opacity=".1"><path d="M72.033 89.683l-.112.004.56 15.031.113-.004z"/></g><g opacity=".1"><path d="M75.545 103.92c-.195-8.566-1.657-14.43-1.675-14.482l.109-.028c.014.058 1.485 5.934 1.678 14.515z"/></g><g opacity=".1"><path d="M66.717 87.3s-.195.112 0 .648"/></g><g opacity=".1"><path d="M67.276 87.3s-.531.334 0 .893"/></g><g opacity=".1"><path d="M72.25 87.3s.726.697.559.893"/></g><g opacity=".1"><path d="M72.83 87.13s.114.836.533 1.06"/></g><g opacity=".5"><g opacity=".25"><path fill="#6176ff" d="M102.5 85.79s2.742-1.09 3.928.24-.813 2.947-.813 2.947l-.838 1.67-1.972-.216-.465-2.308z"/></g><g opacity=".05"><path d="M105.615 88.971l-.838 1.67-1.972-.21-.465-2.306.162-2.333.044-.016c.348-.128 2.696-.945 3.818.18a.868.868 0 0 1 .067.068c1.183 1.323-.816 2.947-.816 2.947z"/></g><g opacity=".05"><path d="M105.615 88.965l-.838 1.67-1.972-.21-.465-2.306.162-2.333.044-.016c.34 1.856 1.246 2.639 1.4 2.755l.022.017.557-.046c1.084-.596 1.656-2.014 1.84-2.55a.868.868 0 0 1 .066.067c1.183 1.328-.816 2.952-.816 2.952z"/></g><g opacity=".25"><path fill="#6176ff" d="M110.405 95.33s-.605 7.68-.44 8.606c.164.927-.35.997-.35.997s-2.187.486-2.6.162c-.412-.324-1.115-.387-1.115-.387s-1.625.37-2.35.094c-.724-.277-1.93-.162-1.93-.162s-.93.557-1.186.44c-.257-.116-.582-.07-1.326-.277-.744-.207-1.163-.395-.768-1.67.395-1.276.048-5.314.024-5.802-.024-.488-.255-1.67-.582-3.08-.326-1.41.558-1.113.558-1.113 2.071-1.067 1.21-3.156.885-4.083-.325-.927.185-.973.44-.973.256 0 1.234-.834 1.234-.834l.396-.355 1.209-1.083c.3 2.028 1.275 2.879 1.438 3.005l.022.018.558-.047c1.348-.74 1.906-2.756 1.906-2.756.162.276.524.59.929.882.53.374 1.081.715 1.652 1.021.975.58.257 1.16.257 1.16-1.186 4.037.487 4.215.487 4.215 1.233.182.652 2.021.652 2.021z"/></g><g opacity=".05"><path d="M101.27 88.09s-.35.186-.35.394"/></g><g opacity=".05"><path d="M101.483 88.48s-.465.486-.383.627"/></g><g opacity=".05"><path d="M101.483 89.11s-.35.371-.21.58"/></g><g opacity=".05"><path d="M103.808 89.091l-1.462 1.409c-.054-1.566-.812-2.819-1.186-3.347l1.209-1.083c.295 2.044 1.278 2.895 1.44 3.021z"/></g><g opacity=".25"><path fill="#6176ff" d="M103.947 88.811l-1.463 1.41c-.052-1.567-.812-2.818-1.184-3.348l1.209-1.083c.3 2.044 1.275 2.895 1.438 3.021z"/></g><g opacity=".05"><path d="M107.505 87.187c-.585.91-1.672 3.316-1.672 3.316l-1.163-1.438c1.349-.742 1.906-2.755 1.906-2.755.162.27.525.584.93.877z"/></g><g opacity=".25"><path fill="#6176ff" d="M107.362 86.904c-.583.912-1.672 3.318-1.672 3.318l-1.16-1.437c1.349-.74 1.906-2.755 1.906-2.755.162.267.525.582.926.874z"/></g><g opacity=".05"><path d="M106.502 101.78s-.249 2.107-.392 2.227"/></g><g opacity=".05"><path d="M108.55 102.15s.28 1.507.163 1.856"/></g><g opacity=".05"><path d="M102.593 102.24s-.255 1.415 0 1.577"/></g><g opacity=".05"><path d="M101.09 102.03s-.211 1.671-.163 1.973"/></g><g opacity=".05"><path d="M108.897 93.89s-.65.51-.605.648"/></g><g opacity=".05"><path d="M109.367 94.21s-1.245 1.044-.623.927"/></g></g><g><path fill="url(#8vfjb)" d="M40.42 64.31l.008-.011-.014-.011-.088-.059.018.013a.291.291 0 0 0-.384.085l-.035.05-1.974 2.833-.345.504c-1.041-.313-2.733 1.003-3.589 1.759-.053.047-.104.09-.15.133-.068-.153-.108-.25-.108-.25-.042.464-1.683 1.159-2.067 1.412-.174.105-.37.17-.572.191.056-1.762-1.31-3.616-1.31-3.616l-3.34-4.239a3.733 3.733 0 0 1 .428-2.41h.016c-.126.356-.197.73-.21 1.107.008.287.275 1.678.65 1.621a.205.205 0 0 0 .192-.09c.299-.348.325-.938.31-1.484-.005.16-.023.32-.053.478.024-.453-.028-.933-.028-1.275 0-.136 0-.27.01-.407h.04v0h.043a4.491 4.491 0 0 0 2.039-.943 1.095 1.095 0 0 0 .767-.359.743.743 0 0 1-.145.694c.447-.02.825-.368.998-.775.147-.415.19-.86.126-1.296a8.996 8.996 0 0 1-.096-1.318c.031-.238.044-.478.04-.718a1.38 1.38 0 0 0-.04-.217h.013a.326.326 0 0 0 .233-.091c.185-.143.245-.422.292-.636.128-.492.186-1 .172-1.509-.01.154-.029.31-.052.464.041-.583-.04-1.15-.427-1.574-.266-.29-.638-.46-.996-.63a.73.73 0 0 1-.325-.232.937.937 0 0 1-.1-.402c-.126-.853-.93-1.446-1.73-1.783-1.03-.447-2.275-.639-3.258-.107-.488.258-.862.661-1.3.99-.55.417-1.183.709-1.77 1.072-.586.363-1.137.823-1.424 1.449-.43.972-.108 2.074-.054 3.13.086 1.661-.6 3.403-1.958 4.376-.163.1-.308.225-.43.371a.463.463 0 0 0-.036.53c.07.091.18.143.257.229.154.175.123.442.063.666a4.175 4.175 0 0 1-1.137 1.922c.024.172.237.24.41.266.46.068.925.101 1.39.1h.2l-.067.17c-.252.662-.578 1.68-.47 2.302.163.983.683 5.474.426 6.262-.256.788.413 6.5.413 6.5s.09.44.244 1.098c-.402.944-.86 1.99-1.089 2.41-.461.842-.234 5.137 1.357 7.047 0 0 .65.927.487 1.262-.162.336.03.927.03.927l.251 5.558a14.362 14.362 0 0 1-.117 1.7c-.679.837-1.725 2.06-2.218 2.258-.762.31-6.445 7.187-6.445 7.187s.046.083.135.218l-.162.184-1.09 1.261-.087.1c-.204-.04-1.568-.286-2.648-.364h-.107v-.02a4.055 4.055 0 0 0-1.138.032.367.367 0 0 0-.188.097c-.369.45-.567 7.524-.567 7.524s.393 3.542 1.625 3.74a.651.651 0 0 0 .195.035h.053c.878-.065 1.28-.566 1.463-.91.053-.102.094-.21.121-.324 0 0-.143-.63.24-1.5.384-.87 1.1-2.403 1.1-2.403s1.3-1.363 1.068-2.024c.036-.054.078-.112.124-.178.487-.694 1.475-2.064 2.274-2.978.052-.061.104-.118.163-.175a4 4 0 0 0 .906.261s1.222-.476 1.675-1.543c.194-.454.953-1.258 1.76-2.031l-.026.206-.028 6.765c.263.18.543.334.835.46v.161c.006.964-.052 1.927-.175 2.884l-.024.15c-.101-.07-.189-.095-.244-.04-.25.253-.406 1.867-.42 2.611v.075c-.041.742-.466 1.822.811 1.877.956.04 5.074.102 7.278.134a4.906 4.906 0 0 0 3.25-1.149c.7-.598 1.123-1.31.17-1.833a2.547 2.547 0 0 0-.189-.094l-2.112-.324-3.608-1.838s-.022-1.112-.455-.928a1.22 1.22 0 0 0-.366.145c-.021-.04-.044-.085-.065-.13a4.134 4.134 0 0 1-.445-1.874c0-.058 0-.118.008-.178.106-.096.206-.198.299-.306 0 0-.028-2.527.257-3.004.284-.476 1.165-5.307 1.165-5.307s.027-.897.596-1.43c.569-.534.369-2.079.369-2.079s.796-.421 1.05-1.796c.256-1.374 1.081-4.376 1.081-4.376s1.705-4.436 1.593-7.242c-.113-2.806.162-4.268.162-4.268l.354-6.522v-.1c.142.106.237.194.237.194v-.071c.052.043.082.07.082.07s.182-2.959.12-4.132c.994-.337 2.508-.892 2.6-1.174.126-.42 1.832-1.747 1.832-1.747a.283.283 0 0 1-.104-.04c.054-.023.109-.053.163-.083 1.117-.597 3.194-2.34 2.844-3.404l2.275-3.256a.552.552 0 0 0-.057-.693z"/></g><g><path fill="#ecb4b6" d="M35.124 72.175a1.484 1.484 0 0 1-.544.206c-.71.021-1.3-1.896-1.3-1.896s.201-.204.523-.486c.952-.845 2.949-2.404 3.885-1.532 1.056.974-1.334 3.049-2.564 3.708z"/></g><g><path fill="#ecb4b6" d="M24.332 117.905l-2.62 2.822s-2.425.027-1.95-1.307c.094-.289.162-.586.201-.888.12-.947.176-1.901.17-2.856 0-.626-.01-1.065-.01-1.065s3.817-1.668 3.427.07a3.26 3.26 0 0 0-.078.661c-.001.644.148 1.28.436 1.856.118.249.26.486.424.707z"/></g><g opacity=".1"><path d="M24.332 117.907l-2.62 2.822s-2.425.027-1.95-1.307c.094-.289.162-.586.201-.888.346.267.843 1.055.843 1.055s1.672.486 2.132-.972c.257-.81.663-1.22.975-1.417.116.249.256.485.419.707z"/></g><g><path fill="#c17174" d="M30.413 122.157a4.774 4.774 0 0 1-3.191 1.134c-2.161-.03-6.199-.094-7.136-.133-1.254-.055-.838-1.123-.798-1.859v-.073c.015-.737.163-2.335.413-2.585.25-.25 1.106 1.112 1.106 1.112s1.672.486 2.132-.973c.46-1.458 1.394-1.6 1.394-1.6.424-.183.445.918.445.918l3.539 1.82 2.076.324c.067.031.127.062.184.093.939.525.523 1.228-.164 1.822z"/></g><g opacity=".25"><path fill="#fff" d="M23.873 119.345a.153.153 0 1 0 0-.305.153.153 0 0 0 0 .305z"/></g><g opacity=".25"><path fill="#fff" d="M25.313 120.055a.153.153 0 1 0 0-.305.153.153 0 0 0 0 .305z"/></g><g opacity=".25"><path fill="#fff" d="M26.053 120.385a.153.153 0 1 0 0-.305.153.153 0 0 0 0 .305z"/></g><g opacity=".25"><path fill="#fff" d="M27.583 120.975a.153.153 0 1 0 0-.305.153.153 0 0 0 0 .305z"/></g><g opacity=".25"><path fill="#fff" d="M26.803 120.725a.153.153 0 1 0 0-.305.153.153 0 0 0 0 .305z"/></g><g><path fill="#c17174" d="M30.413 122.157a4.774 4.774 0 0 1-3.191 1.135c-2.161-.031-6.199-.094-7.136-.133-1.254-.055-.838-1.124-.798-1.86l7.875.487s3.225-.486 3.412-1.446c.94.52.525 1.224-.162 1.817z"/></g><g opacity=".25"><path fill="#fff" d="M30.413 122.157a4.774 4.774 0 0 1-3.191 1.135c-2.161-.031-6.199-.094-7.136-.133-1.254-.055-.838-1.124-.798-1.86l7.875.487s3.225-.486 3.412-1.446c.94.52.525 1.224-.162 1.817z"/></g><g><path fill="#ecb4b6" d="M15.754 110.818c-.29.236-.555.5-.79.79-.781.905-1.748 2.27-2.227 2.947a33.81 33.81 0 0 0-.298.433l-1.046-.154s-1.127-1.723-1.113-1.763c.015-.04.894-1.892.894-1.892l.34-.397 1.07-1.248.487-.564s3.627 1.167 2.683 1.848z"/></g><g opacity=".1"><path d="M12.737 114.557c-.185.265-.298.432-.298.432l-1.046-.154s-1.127-1.723-1.113-1.763c.015-.04.894-1.895.894-1.895l.34-.397.11.021h.266c-.934.973.068 3.112.068 3.112s.433.04.779.644z"/></g><g><path fill="#c17174" d="M11.568 116.737s-.697 1.501-1.074 2.364c-.377.862-.237 1.486-.237 1.486a1.456 1.456 0 0 1-.119.324 1.638 1.638 0 0 1-1.426.901h-.069c-1.27-.032-1.673-3.712-1.673-3.712s.195-7.003.557-7.456a.348.348 0 0 1 .184-.097c.37-.064.747-.074 1.12-.03 1.148.082 2.625.364 2.625.364h.265c-.935.973.068 3.114.068 3.114s.447.04.794.666c.348.626-1.015 2.076-1.015 2.076z"/></g><g opacity=".25"><path fill="#fff" d="M10.033 114.805a.153.153 0 1 0 0-.305.153.153 0 0 0 0 .305z"/></g><g opacity=".25"><path fill="#fff" d="M9.963 116.015a.153.153 0 1 0 0-.305.153.153 0 0 0 0 .305z"/></g><g><path fill="#c17174" d="M10.038 120.881a1.638 1.638 0 0 1-1.426.901h-.067c-1.27-.032-1.675-3.712-1.675-3.712s.195-7.003.557-7.456a.348.348 0 0 1 .184-.097c.37-.064.747-.074 1.12-.03-.022 1.259-.082 5.238 0 5.634.08.395.8 3.705 1.307 4.76z"/></g><g opacity=".25"><path fill="#fff" d="M10.038 120.881a1.638 1.638 0 0 1-1.426.901h-.067c-1.27-.032-1.675-3.712-1.675-3.712s.195-7.003.557-7.456a.348.348 0 0 1 .184-.097c.37-.064.747-.074 1.12-.03-.022 1.259-.082 5.238 0 5.634.08.395.8 3.705 1.307 4.76z"/></g><g><path fill="#c17174" d="M8.545 121.785c-1.27-.032-1.675-3.712-1.675-3.712s.195-7.004.557-7.456a.348.348 0 0 1 .184-.097c.266.395.5 1.27.29 3.196-.397 3.649.08 3.88.08 3.88s.597 3.1.564 4.189z"/></g><g opacity=".1"><path d="M8.545 121.785c-1.27-.032-1.675-3.712-1.675-3.712s.195-7.004.557-7.456a.348.348 0 0 1 .184-.097c.266.395.5 1.27.29 3.196-.397 3.649.08 3.88.08 3.88s.597 3.1.564 4.189z"/></g><g opacity=".1"><path d="M35.124 72.177a1.484 1.484 0 0 1-.544.206c-.71.02-1.3-1.897-1.3-1.897s.201-.204.523-.486c.233.519.873 1.917 1.321 2.177z"/></g><g><path fill="#ff748e" d="M30.57 71.485s.585.042.96-.208c.376-.25 1.986-.938 2.028-1.397 0 0 .96 2.334 1.505 2.418 0 0-1.672 1.313-1.797 1.73-.125.416-3.386 1.44-3.386 1.44z"/></g><g opacity=".1"><path d="M30.57 71.485s.585.042.96-.208c.376-.25 1.986-.938 2.028-1.397 0 0 .96 2.334 1.505 2.418 0 0-1.672 1.313-1.797 1.73-.125.416-3.386 1.44-3.386 1.44z"/></g><g opacity=".1"><path d="M15.751 110.818c-.29.236-.554.5-.79.79-1.26-.526-2.072-1.602-2.381-2.074l.487-.564s3.628 1.167 2.684 1.848z"/></g><g><path fill="#5e5a6b" d="M21.72 99s-2.044 2.725-2.791 3.031c-.748.306-6.319 7.116-6.319 7.116s1.197 2.196 3.399 2.556c0 0 1.197-.472 1.644-1.529.447-1.056 3.956-4.042 3.956-4.042z"/></g><g opacity=".1"><path d="M21.72 99s-2.044 2.725-2.791 3.031c-.748.306-6.319 7.116-6.319 7.116s1.197 2.196 3.399 2.556c0 0 1.197-.472 1.644-1.529.447-1.056 3.956-4.042 3.956-4.042z"/></g><g opacity=".1"><path d="M15.53 108.112a8.932 8.932 0 0 0 1.86 0"/></g><g opacity=".1"><path d="M15.02 108.82s1.462.833 2.028.417"/></g><g opacity=".1"><path d="M23.557 114.684a3.259 3.259 0 0 0-.078.66c-1.13 1.024-2.49.708-3.34.335 0-.626-.009-1.065-.009-1.065s3.816-1.674 3.427.07z"/></g><g><path fill="#5e5a6b" d="M30.327 78.42l-.04.767-.348 6.46s-.28 1.445-.163 4.223c.117 2.779-1.566 7.181-1.566 7.181s-.812 2.974-1.06 4.336c-.246 1.361-1.03 1.783-1.03 1.783s.196 1.528-.362 2.057c-.557.528-.585 1.416-.585 1.416s-.864 4.782-1.137 5.255c-.273.473-.252 2.974-.252 2.974-1.81 2.14-4.456.195-4.456.195l.027-6.7s.752-6.17 1.31-7.032c.557-.862.557-3.224.557-3.224l-.249-5.51s-.198-.584-.027-.918c.17-.334-.476-1.25-.476-1.25-1.562-1.892-1.787-6.145-1.33-6.97.456-.825 1.806-4.169 1.806-4.169l1.863-1.084 3.368.099z"/></g><g opacity=".1"><path d="M22.4 111.18s.44 1.522.794 1.689"/></g><g opacity=".1"><path d="M23.01 106.11s1.137.898 1.625.896"/></g><g><path fill="#ecb4b6" d="M29.884 68.488v1.835l-1.213-.522-1.21-.52-2.636-2.585s-2.085-1.35-3.2-2.58c-.636-.703-.956-1.366-.396-1.716.272-.177.517-.392.73-.637a11.965 11.965 0 0 0 1.452-2.14c.018-.03.036-.06.052-.092.543-.993.902-1.841.902-1.841s1.527.486 2.509 1.18c.08.055.154.112.225.17.548.448.82.973.316 1.485-.13.134-.25.277-.36.428-.081.112-.156.229-.224.35-.029.055-.058.109-.084.162a3.73 3.73 0 0 0-.335 2.225z"/></g><g><path fill="#464353" d="M29.66 55.398c.064.11.152.204.21.316.099.247.13.515.093.778-.032.416-.005.834.08 1.242.087.366.248.72.26 1.096.019.53-.257 1.02-.524 1.48a1.07 1.07 0 0 0 .764-.356.737.737 0 0 1-.14.686c.437-.021.812-.365.975-.767.148-.415.191-.86.125-1.296a8.828 8.828 0 0 1-.094-1.305 4.76 4.76 0 0 0 .037-.712c-.04-.471-.325-.881-.61-1.264l-.566-.775a.4.4 0 0 0-.163-.147c-.534-.227-.596.755-.447 1.024z"/></g><g opacity=".1"><path d="M27.423 60.518c-.13.134-.25.277-.359.428-.081.112-.156.23-.224.35-.03.055-.058.109-.084.162a4.395 4.395 0 0 1-3.284-1.77c-.018-.024-.036-.048-.052-.074.018-.031.036-.062.052-.093.543-.993.902-1.841.902-1.841s1.527.486 2.508 1.18c.08.055.155.112.226.17.541.45.814.97.315 1.488z"/></g><g><path fill="#ecb4b6" d="M31.385 56.923a4.37 4.37 0 0 1-1.015 2.801 4.389 4.389 0 0 1-3.373 1.576H26.834a4.394 4.394 0 0 1-3.935-2.811 4.367 4.367 0 0 1 1.053-4.713 4.39 4.39 0 0 1 4.759-.878 4.369 4.369 0 0 1 2.673 4.025z"/></g><g opacity=".1"><path d="M27.57 67.749s2.21 1.243 1.644.194L26.33 63.69l3.274 4.196s2.09 2.865.947 4.837c0 0-.162 1.64.028 2.03.19.388-.055 4.538-.055 4.538s-.782-.723-1.2-.585c-.417.138-3.364.384-3.364.384z"/></g><g opacity=".1"><path d="M30.33 78.423l-.041.768c-.265-.19-.634-.405-.88-.324-.417.14-3.369.39-3.369.39l.135-.957z"/></g><g><path fill="#464353" d="M27.655 67.749s2.211 1.243 1.644.194l-2.884-4.253 3.274 4.196s2.09 2.865.947 4.837c0 0-.162 1.64.028 2.03.19.388-.055 4.538-.055 4.538s-.78-.723-1.198-.585c-.417.138-3.371.39-3.371.39z"/></g><g opacity=".1"><path d="M28.832 69.881c-.128 1.337-.679 2.927-.679 2.927s-.39 3.947-.895 5.12c-.505 1.174-.28 2.78-.557 5.755-.101 1.071-.447 1.807-.913 2.303-.767.81-1.862.987-2.727.937l-.204-.016c-1.394-.138-2.731-6.837-2.731-6.837s-.64-5.7-.39-6.484c.25-.784-.247-5.22-.415-6.193-.107-.617.213-1.62.46-2.279.145-.38.263-.648.263-.648s.475-1.501 1.255-2.28a1.15 1.15 0 0 1 .827-.346 2.072 2.072 0 0 1 1.067.349s5.072 5.17 5.545 6.365c.132.335.145.812.094 1.327z"/></g><g><path fill="#ff748e" d="M28.664 69.798c-.13 1.336-.68 2.926-.68 2.926s-.39 3.948-.893 5.115c-.502 1.167-.278 2.78-.557 5.754-.1 1.07-.447 1.806-.913 2.303-.767.81-1.862.986-2.726.937l-.205-.016c-1.394-.14-2.731-6.838-2.731-6.838s-.64-5.698-.39-6.476c.25-.778-.25-5.225-.418-6.2-.107-.616.213-1.62.46-2.279.145-.379.263-.64.263-.64s.475-1.5 1.255-2.279a1.137 1.137 0 0 1 .827-.345c.367.013.723.125 1.031.324l.036.023s5.072 5.17 5.545 6.365c.132.332.15.81.096 1.326z"/></g><g opacity=".1"><path d="M22.99 90.14s-1.15 1.021-1.547.973"/></g><g opacity=".1"><path d="M23.291 91.126s-1.212.56-1.574.648"/></g><g opacity=".1"><path d="M27.98 75.776s1.797.021 2.068.584"/></g><g opacity=".1"><path d="M27.73 76.76s1.38.292 1.797.626"/></g><g opacity=".1"><path d="M25.411 73.36s-.162 5.649-.783 6.38"/></g><g opacity=".1"><path d="M23.868 89.333s-1.154 4.982 1.16 5.29c2.313.308 1.598-5.673 1.598-5.673z"/></g><g><path fill="#ecb4b6" d="M23.775 89.25s-1.147 4.982 1.162 5.293c2.308.311 1.597-5.673 1.597-5.673z"/></g><g opacity=".1"><path d="M31.357 56.448a1.685 1.685 0 0 1-.163-.303c-.307-.639-1.096-.324-1.675-.021l-.308.397c-.141.165-.26.347-.353.543-.06.159-.109.321-.148.486-.08.282-.196.551-.302.827a9.59 9.59 0 0 0-.616 2.86c-.262.047-.529.07-.796.07h-.02v-.019c.03-.11.054-.222.077-.334a5.77 5.77 0 0 0 .044-1.912v-.043c-.021-.14-.049-.283-.06-.424-.054.097-.106.196-.163.296-.349.649-.716 1.297-1.376 1.58-.267.106-.55.169-.837.189a4.784 4.784 0 0 0-1.046.173.65.65 0 0 0-.304.183.893.893 0 0 0-.152.457c-.036.216-.09.428-.163.634a5.555 5.555 0 0 1-1.365 2.03l-.15.145a2.829 2.829 0 0 1-.904.624 2.767 2.767 0 0 1-.957.143c.145-.38.263-.64.263-.64s.475-1.501 1.254-2.28a1.137 1.137 0 0 1 .827-.344 12.24 12.24 0 0 0 1.505-2.232 4.371 4.371 0 0 1 1.933-6.672 4.396 4.396 0 0 1 5.294 1.718c.363.565.59 1.207.664 1.874z"/></g><g><path fill="#464353" d="M31.633 53.03c-.26-.288-.626-.456-.975-.623a.743.743 0 0 1-.317-.23.962.962 0 0 1-.098-.397c-.122-.847-.911-1.432-1.696-1.775-1.01-.443-2.224-.632-3.194-.107-.471.256-.843.656-1.269.982-.54.412-1.16.7-1.735 1.06-.575.36-1.124.81-1.397 1.436-.423.956-.106 2.054-.052 3.098.082 1.646-.589 3.366-1.92 4.34-.161.098-.304.223-.423.368a.461.461 0 0 0-.034.524c.066.09.177.142.25.227.153.173.122.437.062.661a4.135 4.135 0 0 1-1.115 1.901c.023.172.23.238.401.264.452.067.907.1 1.363.1a2.296 2.296 0 0 0 1.906-.767c.813-.762 1.5-1.714 1.683-2.81a.925.925 0 0 1 .153-.456.687.687 0 0 1 .304-.183c.606-.208 1.3-.106 1.883-.362.76-.324 1.137-1.135 1.535-1.877.013.141.04.284.062.426a5.75 5.75 0 0 1-.114 2.289c-.108.423-.266.845-.255 1.28.008.325.338 2.019.772 1.511.434-.507.275-1.629.275-2.258a9.63 9.63 0 0 1 .638-3.444c.104-.274.223-.545.302-.827a4.43 4.43 0 0 1 .147-.486c.094-.195.213-.378.354-.543l.31-.397c.578-.306 1.368-.618 1.675.021.117.245.18.515.488.277.18-.14.238-.418.286-.629.193-.883.352-1.922-.255-2.593z"/></g><g opacity=".1"><path d="M25.75 68.326c-.118-2.993-4.318-3.612-5.298-.78a.41.41 0 0 0-.02.058c-.64 1.917-.361 6.773-.361 6.773s.082 3.261.39 4.346c.307 1.084 1.17 4.196 1.17 4.7 0 .504.8 2.419 1.137 2.558.336.14.506 1.222.59 1.417.082.194.324 2.724.324 2.724s3.149-.194 3.204-.695c.055-.5-.697-2.947-.697-2.947s-.554-1-.625-1.805c-.072-.806-.507-1.172-.421-1.728.086-.556-.252-.833-.252-1.195 0-.361-.25-1.334-.25-1.334s-.53-.418-.445-.917c.084-.5-.753-1.501-.53-1.863.223-.361.278-1.25.278-1.25s.28-4.003.474-5.087c.195-1.085 1.337-2.835 1.337-2.835l-.004-.14z"/></g><g opacity=".1"><path d="M25.624 85.895c-.767.81-1.862.986-2.727.937-.1-.38-.247-.846-.46-.934-.337-.139-1.137-2.057-1.137-2.556 0-.499-.862-3.614-1.17-4.7-.307-1.086-.39-4.344-.39-4.344s-.279-4.863.363-6.775c0-.018.011-.038.02-.057.974-2.833 5.179-2.213 5.298.781v.138s-1.138 1.75-1.338 2.835c-.2 1.084-.47 5.086-.47 5.086s-.058.89-.28 1.251c-.223.362.612 1.364.53 1.863-.083.499.445.917.445.917s.25.973.25 1.336c0 .363.335.638.252 1.194-.083.556.362.918.433 1.723.06.452.188.892.38 1.305z"/></g><g><path fill="#ff748e" d="M25.59 68.246c-.118-2.993-4.318-3.612-5.298-.78l-.02.056c-.64 1.92-.361 6.775-.361 6.775s.082 3.26.39 4.344c.307 1.084 1.17 4.198 1.17 4.7 0 .503.8 2.419 1.137 2.558.336.14.506 1.224.59 1.419.082.194.324 2.723.324 2.723s3.149-.195 3.204-.694c.055-.5-.695-2.947-.695-2.947s-.556-1.002-.627-1.807c-.072-.806-.517-1.167-.432-1.723.084-.556-.252-.835-.252-1.196 0-.362-.25-1.334-.25-1.334s-.53-.417-.446-.918c.085-.5-.752-1.5-.53-1.862.223-.361.278-1.25.278-1.25s.28-4.003.475-5.088c.195-1.084 1.337-2.834 1.337-2.834s.01-.052.007-.142z"/></g><g opacity=".1"><path d="M20.42 75.944c.083-.084 1.672-1.835 2.172-1.21"/></g><g opacity=".1"><path d="M20.56 77.298c.062-.064 1.587-.125 1.964-.973"/></g><g opacity=".1"><g opacity=".01"><path d="M18.82 61.926a.43.43 0 0 1 .082.15.647.647 0 0 0-.083-.566c-.075-.086-.183-.137-.252-.227l-.013-.023a.429.429 0 0 0 .013.44c.077.09.177.142.252.226z"/></g><g opacity=".01"><path d="M20.947 56.531v-.473c-.029-.567-.135-1.15-.162-1.718-.034.697.122 1.428.162 2.135v.056z"/></g><g opacity=".01"><path d="M27.462 63.493c-.387.452-.69-.85-.757-1.363-.01.09-.016.18-.015.27.01.323.338 2.017.772 1.51.294-.344.325-.929.305-1.469-.02.414-.086.796-.305 1.052z"/></g><g opacity=".01"><path d="M27.06 58.824c.033.218.053.438.06.659.014-.36-.006-.72-.06-1.077-.021-.14-.049-.283-.062-.426-.4.749-.773 1.55-1.533 1.879-.59.254-1.277.154-1.883.361a.65.65 0 0 0-.304.183.903.903 0 0 0-.153.457c-.185 1.096-.874 2.047-1.685 2.81a2.29 2.29 0 0 1-1.906.766c-.455 0-.91-.033-1.361-.099a1.03 1.03 0 0 1-.205-.053 3.95 3.95 0 0 1-.198.205c.023.172.232.239.403.265.45.067.906.1 1.361.098a2.296 2.296 0 0 0 1.906-.766c.813-.762 1.5-1.713 1.685-2.81a.908.908 0 0 1 .153-.456.67.67 0 0 1 .304-.183c.606-.208 1.3-.106 1.883-.362.76-.324 1.137-1.134 1.533-1.877.013.141.041.284.062.426z"/></g><g opacity=".01"><path d="M31.94 55.208c-.047.21-.107.486-.288.629-.305.236-.367-.033-.487-.277-.307-.639-1.097-.325-1.675-.021l-.31.397a2.47 2.47 0 0 0-.353.543c-.06.158-.108.32-.146.486-.082.282-.199.551-.304.825a9.68 9.68 0 0 0-.637 3.444v.172a9.657 9.657 0 0 1 .635-3.198c.106-.274.223-.544.304-.827.038-.165.087-.327.146-.486.093-.195.212-.378.353-.543l.31-.397c.579-.306 1.368-.617 1.675.021.119.245.18.516.488.277.18-.14.24-.418.287-.629.123-.488.177-.99.163-1.494-.026.363-.08.723-.161 1.078z"/></g></g><g><path fill="#464353" d="M35.738 70.985l.086.059a.344.344 0 0 1-.09-.486l3.874-5.599a.342.342 0 0 1 .479-.087l-.086-.06a.553.553 0 0 1 .141.768l-3.634 5.263a.556.556 0 0 1-.77.142z"/></g><g><path fill="#9f9eff" d="M40.042 64.833l.066.045-4.264 6.175-.065-.045a.282.282 0 0 1-.073-.392l3.942-5.71a.283.283 0 0 1 .393-.071z"/></g><g><path fill="#464353" d="M39.563 65.677l-.012-.008a.028.028 0 0 0-.038.007l-.316.458a.028.028 0 0 0 .007.038l.012.008c.012.009.03.006.038-.007l.316-.458a.028.028 0 0 0-.007-.038z"/></g><g><path fill="#3acc6c" d="M121.752 45.713a2.795 2.795 0 0 1-1.728 2.59 2.812 2.812 0 0 1-3.06-.602 2.797 2.797 0 0 1 1.982-4.781 2.81 2.81 0 0 1 1.982.818c.526.523.822 1.233.824 1.975zm-3.131 1.481l2.083-2.076a.181.181 0 0 0 0-.255l-.257-.256a.179.179 0 0 0-.255 0l-1.698 1.694-.793-.788a.184.184 0 0 0-.256 0l-.255.256a.178.178 0 0 0 0 .255l1.176 1.173a.179.179 0 0 0 .255 0z"/></g><g><path fill="#3acc6c" d="M87.762 76.43a2.794 2.794 0 0 1-1.732 2.585 2.812 2.812 0 0 1-3.058-.606 2.797 2.797 0 0 1 1.984-4.779 2.81 2.81 0 0 1 1.984.82c.526.525.822 1.237.822 1.98zm-1.042-.596a.18.18 0 0 0 0-.256l-.263-.246a.18.18 0 0 0-.257 0l-1.697 1.686-.793-.791a.179.179 0 0 0-.255 0l-.257.254a.183.183 0 0 0 0 .256l1.176 1.174a.18.18 0 0 0 .257 0z"/></g><g><path fill="#3acc6c" d="M87.762 107.01a2.794 2.794 0 0 1-1.732 2.585 2.812 2.812 0 0 1-3.058-.606 2.797 2.797 0 0 1 1.984-4.779 2.81 2.81 0 0 1 1.984.82c.526.525.822 1.237.822 1.98zm-3.131 1.48l2.09-2.076a.18.18 0 0 0 0-.256l-.256-.254a.18.18 0 0 0-.256 0l-1.698 1.694-.793-.791a.179.179 0 0 0-.255 0l-.257.254a.183.183 0 0 0 0 .256l1.176 1.174a.18.18 0 0 0 .257 0z"/></g></g></g></svg>