<svg xmlns="http://www.w3.org/2000/svg" width="174" height="127" viewBox="0 0 174 127"><g><g><g/><g><path fill="#e6e6e6" d="M173.998 123.373c-.558 5.04-29.832 4.617-29.788 0"/></g><g><path fill="#ffb8b8" d="M153.887 110.442l-1.187 2.555-2.176-.196-1.384-4.522 2.175-1.179z"/></g><g><path fill="#ffb8b8" d="M161.356 116.325l.046 1.78-3.362.197v-2.162z"/></g><g><path fill="#2f2e41" d="M160.221 83.902l-.79 15.726 1.977 17.103-5.933.786-3.758-21.624-1.187-14.743z"/></g><g><path fill="#2f2e41" d="M169.517 78.2s2.374 15.53-2.57 20.64c-4.945 5.111-11.67 14.154-11.67 14.154l-4.747-5.897 12.065-12.778-2.374-8.65-9.691-4.52 1.582-10.812 14.24-.197z"/></g><g><path fill="#ffb8b8" d="M157.841 42.23c2.403 0 4.352-1.937 4.352-4.325 0-2.389-1.949-4.325-4.352-4.325-2.403 0-4.351 1.936-4.351 4.325 0 2.388 1.948 4.324 4.351 4.324z"/></g><g><path fill="#ffb8b8" d="M161.6 38.89s.198 6.094 1.187 6.88c.989.787-3.56 4.128-3.56 4.128l-2.967-4.717v-4.325z"/></g><g><path fill="#d0cde1" d="M159.63 47.144l2.4-3.604 1.357 1.835 1.978 5.504-1.582 21.427-9.296.197L153.3 47.93l2.967-3.538z"/></g><g><path fill="#2f2e41" d="M149.537 48.517l-1.582-.197s-.396.197-.594 1.573c-.198 1.376-2.571 13.563-2.571 13.563l3.165 14.94 3.56-4.717-2.176-8.257 2.176-8.256z"/></g><g><path fill="#2f2e41" d="M169.713 48.32h1.187l2.967 15.923-2.769 12.384-2.77-4.521.792-4.914-.395-4.325-1.385-2.556z"/></g><g><path fill="#2f2e41" d="M152.105 112.208s1.187-.394 1.187.393c0 .786-.791 3.145-.791 3.145s1.187 7.273-.593 6.88c-1.78-.393-3.165-3.735-3.363-4.718-.198-.983-1.186-6.094-1.186-6.094s-1.583-3.735-.594-3.931c.99-.197 3.758-.983 3.758-.983s-1.582 4.914 1.582 5.308z"/></g><g><path fill="#2f2e41" d="M157.847 118.303s3.165-1.966 3.758-.393a16.43 16.43 0 0 1 .791 3.538s.791 2.556-2.373 2.163c-3.165-.394-2.77-.394-2.967-1.573-.198-1.18.791-3.735.791-3.735z"/></g><g><path fill="#2f2e41" d="M160.414 37.902l-.792-.196s-.593-3.342-1.977-2.949c-1.385.393-4.945.787-4.945-.786s3.362-2.949 5.34-2.752c1.978.196 5.34.786 5.143 3.735-.198 2.948-1.474 5.817-1.474 5.817l-.104-1.748z"/></g><g><path fill="#d0cde1" d="M156.267 49.501l3.363-2.359-3.363-2.752-1.167 1.392z"/></g><g><path fill="#d0cde1" d="M162.597 49.31l-2.967-2.162 2.373-3.538 1.385 1.77z"/></g><g><path fill="#2f2e41" d="M148.15 48.326l6.33-2.555 1.483-1.081 4.45 19.56 2.966-8.847-.89-11.303 8.209 4.226-2.77 13.368-.395 5.11 1.187 4.129s4.153 2.949 2.769 6.094c-1.385 3.145-2.967 3.342-2.967 3.342s-6.725-6.29-7.12-7.863c-.396-1.573-.99-4.325-.99-4.325s-3.362 12.58-7.317 12.384c-3.956-.196-3.956-4.324-3.956-4.324l.989-4.325 1.582-4.521-.791-7.47z"/></g><g><path fill="#e6e6e6" d="M137.942.08H.06v87.767h137.882z"/></g><g><path fill="#fff" d="M133.997 11.09H4v33.458h129.997z"/></g><g><path fill="#e6e6e6" d="M63.831 15.92H36.34v1.568h27.491z"/></g><g><path fill="#6176ff" d="M78.793 21.64H36.34v1.568h42.453z"/></g><g><path fill="#e6e6e6" d="M70.938 27.03H36.34v1.568h34.598z"/></g><g><path fill="#e6e6e6" d="M56.538 32.4H36.34v1.568h20.198z"/></g><g><path fill="#e6e6e6" d="M66.824 37.77H36.34v1.568h30.484z"/></g><g><path fill="#e6e6e6" d="M27.176 15.36H23.81v3.346h3.366z"/></g><g><path fill="#6176ff" d="M27.176 20.75H23.81v3.346h3.366z"/></g><g><path fill="#e6e6e6" d="M27.176 26.14H23.81v3.346h3.366z"/></g><g><path fill="#e6e6e6" d="M27.176 31.53H23.81v3.346h3.366z"/></g><g><path fill="#e6e6e6" d="M27.176 36.92H23.81v3.346h3.366z"/></g><g><path fill="#e6e6e6" d="M115.821 22.98H104.6v11.152h11.221z"/></g><g><path fill="#fff" d="M133.997 49.19H4v33.458h129.997z"/></g><g><path fill="#e6e6e6" d="M32.966 52.16H29.6v3.346h3.366z"/></g><g><path fill="#6176ff" d="M27.176 52.16H23.81v3.346h3.366z"/></g><g><path fill="#e6e6e6" d="M80.878 59.48a12.705 12.705 0 0 0-4.154-4.259 12.819 12.819 0 0 0-11.555-1.06 12.746 12.746 0 0 0-4.869 3.43l-.82-.712a13.834 13.834 0 0 1 5.284-3.725 13.912 13.912 0 0 1 12.543 1.151 13.789 13.789 0 0 1 4.509 4.624z"/></g><g><path fill="#6176ff" d="M81.394 73.587l-.904-.604a12.616 12.616 0 0 0 .39-13.501l.938-.552a13.693 13.693 0 0 1-.424 14.657z"/></g><g><path fill="#6176ff" d="M59.598 75.096a13.702 13.702 0 0 1-3.528-9.087 13.7 13.7 0 0 1 3.414-9.129l.82.712a12.621 12.621 0 0 0-3.144 8.41 12.623 12.623 0 0 0 3.25 8.371z"/></g><g><path fill="#6176ff" d="M69.908 79.673a13.93 13.93 0 0 1-5.645-1.2 13.853 13.853 0 0 1-4.663-3.38l.811-.723a12.747 12.747 0 0 0 4.704 3.29 12.817 12.817 0 0 0 11.18-.774 12.715 12.715 0 0 0 4.199-3.906l.904.604a13.797 13.797 0 0 1-4.979 4.473 13.894 13.894 0 0 1-6.51 1.616z"/></g><g><path fill="#e6e6e6" d="M115.821 59.41H104.6v11.152h11.221z"/></g><g><path fill="#e6e6e6" d="M34.561 66.66H23.34v11.152h11.221z"/></g><g><path fill="#6176ff" d="M137.882 0H0v5.822h137.882z"/></g><g><path fill="#fff" d="M4.356 4.058c.6 0 1.085-.483 1.085-1.079S4.955 1.9 4.356 1.9c-.6 0-1.086.483-1.086 1.08 0 .595.486 1.078 1.086 1.078z"/></g><g><path fill="#fff" d="M8.476 4.058c.6 0 1.085-.483 1.085-1.079S9.075 1.9 8.476 1.9c-.6 0-1.086.483-1.086 1.08 0 .595.486 1.078 1.086 1.078z"/></g><g><path fill="#fff" d="M12.596 4.058c.6 0 1.085-.483 1.085-1.079S13.195 1.9 12.596 1.9c-.6 0-1.086.483-1.086 1.08 0 .595.486 1.078 1.086 1.078z"/></g></g></g></svg>