<svg xmlns="http://www.w3.org/2000/svg" width="616" height="420" viewBox="0 0 616 420"><g><g><path fill="#325cfd" d="M0 219.725C0 98.375 98.374 0 219.725 0H616v420H200.275C89.666 420 0 330.334 0 219.725z"/></g><g><g/><g><path fill="#f2f2f2" d="M211.157 166.22c-.302 0-.647 0-.906.043-6.294.474-11.251 5.69-11.251 12.114v42.85c0 6.38 4.957 11.639 11.251 12.113.302.043.604.043.906.043h3.922V166.22z"/></g><g><path fill="#41596b" d="M224.269 149.24c-5.044 0-9.139 4.095-9.139 9.139v82.854c0 5.044 4.095 9.139 9.139 9.139h54.575V149.24H224.27z"/></g><g><path fill="#f2f2f2" d="M272.288 250.374v68.629H236.25l-2.544-14.485-1.25-7.026-1.724-9.527-1.207-7.027-1.725-9.527-1.207-7.027-1.638-9.311-.905-5.173a11.5 11.5 0 0 0 3.233.474h45.005z"/></g><g><g><path fill="#325cfd" d="M249.179 267.915a3.55 3.55 0 0 0-3.535-3.535H226.59l1.25 7.027h17.847c1.94 0 3.492-1.595 3.492-3.492z"/></g><g><path fill="#325cfd" d="M253.8 284.432a3.477 3.477 0 0 0-3.492-3.492H229.53l1.207 7.027h19.528a3.523 3.523 0 0 0 3.535-3.535z"/></g><g><path fill="#325cfd" d="M254.833 297.49H232.46l1.25 7.027h21.123c1.94 0 3.535-1.595 3.535-3.492a3.523 3.523 0 0 0-3.535-3.535z"/></g></g><g><path fill="#41596b" d="M374.37 100.958a12.626 12.626 0 0 0-6.94 11.294v175.063c0 4.785 2.673 9.139 6.94 11.295 8.019 3.362 16.856-2.544 16.856-11.209V112.209c0-8.708-8.837-14.614-16.856-11.251z"/></g><g><path fill="#f2f2f2" d="M367.43 288.742V113.679c0-.69.087-1.38.173-2.069L278.8 150.623v101.132l88.803 39.013c-.13-.646-.172-1.293-.172-2.026z"/></g><g><path fill="#325cfd" d="M391.22 162.17v75.224c15.562-5.432 26.77-20.175 26.77-37.59 0-17.416-11.208-32.202-26.77-37.634z"/></g></g></g></svg>