<svg xmlns="http://www.w3.org/2000/svg" width="616" height="420" viewBox="0 0 616 420"><g><g><path fill="#325cfd" d="M0 219.725C0 98.375 98.374 0 219.725 0H616v420H200.275C89.666 420 0 330.334 0 219.725z"/></g><g><g/><g><path fill="#334a5e" d="M343.862 279.451l-.258-.431h-70.256l-.259.431-4.784 8.017-8.405 14.18h97.151l-8.405-14.18z"/></g><g><path fill="#41596b" d="M199 244.54v25.818c0 5.043 4.095 9.138 9.138 9.138h200.724c5.043 0 9.138-4.095 9.138-9.138V244.54z"/></g><g><path fill="#f2f2f2" d="M408.819 100.02H208.138c-5.043 0-9.138 4.095-9.138 9.138V244.54h218.957V109.158c0-5.043-4.095-9.138-9.138-9.138z"/></g><g><path fill="#325cfd" d="M400.412 115.58H216.54v113.358h183.872z"/></g><g><path fill="#41596b" d="M359.594 301.65H257.357c-9.569 0-17.327 7.758-17.327 17.327h136.891c0-9.569-7.758-17.327-17.327-17.327z"/></g><g><path fill="#334a5e" d="M308.475 271.65a9.655 9.655 0 1 0-9.655-9.655 9.655 9.655 0 0 0 9.655 9.655z"/></g><g><path fill="#fff" d="M258.74 141.183l80.859 80.859 18.62-18.663-80.859-80.859z"/></g><g><g><path fill="#f2f2f2" d="M264.473 135.41l-5.733 5.776 80.859 80.859 5.776-5.776z"/></g><g><path fill="#f2f2f2" d="M295.323 140.417l-3.17-3.17-9.02 9.021 3.17 3.17z"/></g><g><path fill="#f2f2f2" d="M304.932 150.073l-3.17-3.17-6.308 6.31 3.17 3.17z"/></g><g><path fill="#f2f2f2" d="M276.194 133.947l3.17 3.17 6.308-6.31-3.17-3.17z"/></g><g><path fill="#f2f2f2" d="M314.594 159.694l-3.17-3.17-9.02 9.022 3.169 3.17z"/></g><g><path fill="#f2f2f2" d="M324.207 169.355l-3.17-3.17-6.308 6.31 3.17 3.169z"/></g><g><path fill="#f2f2f2" d="M333.87 178.976l-3.17-3.17-9.022 9.021 3.17 3.17z"/></g><g><path fill="#f2f2f2" d="M343.478 188.637l-3.17-3.17-6.308 6.309 3.17 3.17z"/></g><g><path fill="#f2f2f2" d="M353.11 198.227l-3.17-3.17-9.021 9.021 3.17 3.17z"/></g></g><g><path fill="#41596b" d="M353.692 145.71l-71.549 71.548-18.663-18.663 65.773-65.773 5.776-5.776c2.543-2.543 5.948-3.836 9.31-3.836s6.724 1.293 9.31 3.836c5.172 5.172 5.172 13.534.043 18.663z"/></g><g><path fill="#ffd05c" d="M263.482 198.6l-2.457 13.706-1.595 9.052 9.008-1.638 13.707-2.457z"/></g><g><path fill="#41596b" d="M268.438 219.714l-9.008 1.637 1.595-9.051z"/></g><g><path fill="#f2705b" d="M353.696 127.046c-2.587-2.586-5.948-3.836-9.31-3.836s-6.767 1.293-9.31 3.836l-5.776 5.776 18.663 18.663 5.776-5.776c5.086-5.129 5.086-13.49-.043-18.663z"/></g><g><path fill="#65c5b8" d="M325.396 136.703l18.652 18.651 3.87-3.87-18.651-18.652z"/></g></g></g></svg>