<svg xmlns="http://www.w3.org/2000/svg" width="616" height="420" viewBox="0 0 616 420"><g><g><path fill="#325cfd" d="M0 219.725C0 98.375 98.374 0 219.725 0H616v420H200.275C89.666 420 0 330.334 0 219.725z"/></g><g><g><path fill="#334a5e" d="M343.862 279.471l-.258-.431h-70.256l-.259.431-4.784 8.019-8.405 14.183h97.151l-8.405-14.183z"/></g><g><path fill="#41596b" d="M199 244.55v25.823c0 5.044 4.095 9.14 9.138 9.14h200.724c5.043 0 9.138-4.096 9.138-9.14V244.55z"/></g><g><path fill="#f2f2f2" d="M408.819 100H208.138c-5.043 0-9.138 4.096-9.138 9.14v135.41h218.957V109.14c0-5.044-4.095-9.14-9.138-9.14z"/></g><g><path fill="#325cfd" d="M400.112 115.5H216.24v113.381h183.872z"/></g><g><path fill="#41596b" d="M359.594 301.67H257.357c-9.569 0-17.327 7.76-17.327 17.33h136.891c0-9.57-7.758-17.33-17.327-17.33z"/></g><g><path fill="#334a5e" d="M308.475 271.664c5.332 0 9.655-4.324 9.655-9.657 0-5.334-4.323-9.657-9.655-9.657-5.332 0-9.655 4.323-9.655 9.657 0 5.333 4.323 9.657 9.655 9.657z"/></g><g><g/><g><path fill="#41596b" d="M297.919 199.534c21.296 0 38.559-17.267 38.559-38.567S319.214 122.4 297.919 122.4c-21.296 0-38.559 17.267-38.559 38.567s17.263 38.567 38.559 38.567z"/></g><g><path fill="#f6f6f6" d="M297.915 190.162c16.124 0 29.195-13.074 29.195-29.201 0-16.127-13.071-29.201-29.195-29.201-16.124 0-29.195 13.074-29.195 29.201 0 16.127 13.071 29.2 29.195 29.2z"/></g><g><path fill="#e4e4e4" d="M297.918 131.76c-8.61 0-16.368 3.735-21.708 9.676 5.185-4.664 12.015-7.49 19.521-7.49 16.136 0 29.195 13.082 29.195 29.202a29.04 29.04 0 0 1-7.487 19.525c5.94-5.34 9.673-13.1 9.673-21.712 0-16.139-13.078-29.201-29.194-29.201z"/></g><g><path fill="#f6b44b" d="M336.646 186.105c-.58-.58-1.509-.58-2.07 0l-11.53 11.534c-.581.58-.581 1.51 0 2.07.58.58 1.508.58 2.07 0l11.53-11.533c.561-.561.561-1.49 0-2.07z"/></g><g><path fill="#334a5e" d="M331.95 188.732l-6.27 6.27-2.282-2.284-1.548-1.548a38.429 38.429 0 0 0 6.269-6.27z"/></g><g><path fill="#ffd05c" d="M338.084 189.816l-1.78-1.316-10.854 10.856 1.316 1.78 11.047 15.075 15.342-15.326z"/></g><g><path fill="#f6b44b" d="M353.152 200.89l-15.342 15.345c3.986 5.419 11.86 6.019 16.6 1.258 4.779-4.76 4.179-12.636-1.258-16.603z"/></g></g></g></g></svg>