<svg xmlns="http://www.w3.org/2000/svg" width="616" height="420" viewBox="0 0 616 420"><g><g><path fill="#325cfd" d="M0 219.725C0 98.375 98.374 0 219.725 0H616v420H200.275C89.666 420 0 330.334 0 219.725z"/></g><g><g/><g><path fill="#41596b" d="M408.861 100.32H208.139c-5.044 0-9.139 4.139-9.139 9.182v60.01h219v-60.01c0-5.043-4.095-9.182-9.139-9.182z"/></g><g><path fill="#f2f2f2" d="M199 169.52v140.022c0 5.044 4.095 9.139 9.14 9.139h200.678c5.043 0 9.139-4.095 9.139-9.139V169.52z"/></g><g><path fill="#e9002c" d="M225.773 147.876c7.143 0 12.933-5.79 12.933-12.933s-5.79-12.933-12.933-12.933-12.933 5.79-12.933 12.933 5.79 12.933 12.933 12.933z"/></g><g><path fill="#ffd05c" d="M266.123 147.876c7.143 0 12.933-5.79 12.933-12.933s-5.79-12.933-12.933-12.933-12.933 5.79-12.933 12.933 5.79 12.933 12.933 12.933z"/></g><g><path fill="#27ae60" d="M306.433 147.876c7.143 0 12.933-5.79 12.933-12.933s-5.79-12.933-12.933-12.933-12.933 5.79-12.933 12.933 5.79 12.933 12.933 12.933z"/></g><g><g><path fill="#325cfd" d="M260.605 285.607l-41.515-41.515 41.515-41.472 13.752 13.752-27.72 27.72 27.72 27.763z"/></g><g><path fill="#325cfd" d="M356.392 285.607l-13.752-13.752 27.72-27.763-27.72-27.72 13.752-13.752 41.515 41.472z"/></g></g><g><path fill="#325cfd" d="M301.176 292.724H281.69l34.143-97.214h19.486z"/></g><g><path fill="#cdd5df" d="M418 169.52H199v4.958h219z"/></g></g></g></svg>