<svg xmlns="http://www.w3.org/2000/svg" width="616" height="420" viewBox="0 0 616 420"><g><g><path fill="#325cfd" d="M0 219.725C0 98.375 98.374 0 219.725 0H616v420H200.275C89.666 420 0 330.334 0 219.725z"/></g><g><g/><g><g><path fill="#41596b" d="M270.35 319h-38.11l38.11-86.91h38.152z"/></g><g><path fill="#41596b" d="M346.653 319h38.109l-38.11-86.91H308.5z"/></g></g><g><path fill="#325cfd" d="M400.372 179.625c-6.768-45.05-45.653-79.625-92.6-79.625-51.733 0-93.722 41.99-93.722 93.722 0 51.732 41.99 93.678 93.722 93.678 46.947 0 85.875-34.531 92.644-79.624a95.307 95.307 0 0 0 1.034-14.098c0-4.742-.345-9.44-1.078-14.053z"/></g><g><path fill="#fff" d="M307.77 262.739c38.118 0 69.019-30.901 69.019-69.02 0-38.118-30.901-69.019-69.02-69.019-38.118 0-69.019 30.901-69.019 69.02 0 38.118 30.901 69.019 69.02 69.019z"/></g><g><path fill="#325cfd" d="M307.767 238.035c24.476 0 44.318-19.842 44.318-44.318 0-24.475-19.842-44.317-44.318-44.317s-44.317 19.842-44.317 44.317c0 24.476 19.841 44.318 44.317 44.318z"/></g><g><path fill="#fff" d="M307.765 213.34c10.833 0 19.615-8.782 19.615-19.615 0-10.833-8.782-19.615-19.615-19.615-10.833 0-19.615 8.782-19.615 19.615 0 10.833 8.782 19.615 19.615 19.615z"/></g><g opacity=".2"><path fill="#41596b" d="M401.442 193.717c0 4.785-.345 9.484-1.035 14.097h-3.363l-5.431-10.476h-80.746a3.137 3.137 0 0 1-3.147-3.147v-.948a3.137 3.137 0 0 1 3.147-3.147h80.746l5.431-10.476h3.32c.733 4.613 1.078 9.312 1.078 14.097z"/></g><g><path fill="#e9002c" d="M382.998 102.59l-21.728 21.728 4.828 15.131 15.132 4.829 21.728-21.771-15.089-4.828z"/></g><g><path fill="#41596b" d="M388.642 116.207a3.617 3.617 0 0 0-5.13 0l-75.055 75.055a3.617 3.617 0 0 0 0 5.13 3.617 3.617 0 0 0 5.13 0l75.055-75.055a3.617 3.617 0 0 0 0-5.13z"/></g></g></g></svg>