<svg width="146" height="25" viewBox="0 0 146 25" fill="none" xmlns="http://www.w3.org/2000/svg">
<path d="M10.48 6.528C12.08 6.528 13.5307 6.90133 14.832 7.648C16.1547 8.37333 17.1893 9.408 17.936 10.752C18.6827 12.0747 19.056 13.6213 19.056 15.392C19.056 17.1627 18.6827 18.72 17.936 20.064C17.1893 21.3867 16.1547 22.4213 14.832 23.168C13.5307 23.8933 12.08 24.256 10.48 24.256C8.112 24.256 6.30933 23.5093 5.072 22.016V24H0.304V0.255999H5.296V8.608C6.55467 7.22133 8.28267 6.528 10.48 6.528ZM9.616 20.16C10.896 20.16 11.9413 19.7333 12.752 18.88C13.584 18.0053 14 16.8427 14 15.392C14 13.9413 13.584 12.7893 12.752 11.936C11.9413 11.0613 10.896 10.624 9.616 10.624C8.336 10.624 7.28 11.0613 6.448 11.936C5.63733 12.7893 5.232 13.9413 5.232 15.392C5.232 16.8427 5.63733 18.0053 6.448 18.88C7.28 19.7333 8.336 20.16 9.616 20.16ZM22.3978 0.255999H27.3898V24H22.3978V0.255999ZM38.9668 6.528C41.6334 6.528 43.6814 7.168 45.1108 8.448C46.5401 9.70667 47.2548 11.616 47.2548 14.176V24H42.5828V21.856C41.6441 23.456 39.8948 24.256 37.3348 24.256C36.0121 24.256 34.8601 24.032 33.8788 23.584C32.9188 23.136 32.1828 22.5173 31.6708 21.728C31.1588 20.9387 30.9028 20.0427 30.9028 19.04C30.9028 17.44 31.5001 16.1813 32.6948 15.264C33.9108 14.3467 35.7774 13.888 38.2948 13.888H42.2628C42.2628 12.8 41.9321 11.968 41.2708 11.392C40.6094 10.7947 39.6174 10.496 38.2948 10.496C37.3774 10.496 36.4708 10.6453 35.5748 10.944C34.7001 11.2213 33.9534 11.6053 33.3348 12.096L31.5428 8.608C32.4814 7.94667 33.6014 7.43467 34.9028 7.072C36.2254 6.70933 37.5801 6.528 38.9668 6.528ZM38.5828 20.896C39.4361 20.896 40.1934 20.704 40.8548 20.32C41.5161 19.9147 41.9854 19.328 42.2628 18.56V16.8H38.8388C36.7908 16.8 35.7668 17.472 35.7668 18.816C35.7668 19.456 36.0121 19.968 36.5028 20.352C37.0148 20.7147 37.7081 20.896 38.5828 20.896ZM73.8208 6.528C75.9754 6.528 77.6821 7.168 78.9408 8.448C80.2208 9.70667 80.8608 11.6053 80.8608 14.144V24H75.8688V14.912C75.8688 13.5467 75.5808 12.5333 75.0048 11.872C74.4501 11.1893 73.6501 10.848 72.6048 10.848C71.4314 10.848 70.5034 11.232 69.8208 12C69.1381 12.7467 68.7968 13.8667 68.7968 15.36V24H63.8048V14.912C63.8048 12.2027 62.7168 10.848 60.5408 10.848C59.3888 10.848 58.4714 11.232 57.7888 12C57.1061 12.7467 56.7648 13.8667 56.7648 15.36V24H51.7728V6.784H56.5408V8.768C57.1808 8.04267 57.9594 7.488 58.8767 7.104C59.8154 6.72 60.8394 6.528 61.9488 6.528C63.1648 6.528 64.2634 6.77333 65.2448 7.264C66.2261 7.73333 67.0154 8.42667 67.6128 9.344C68.3168 8.448 69.2021 7.75467 70.2688 7.264C71.3568 6.77333 72.5408 6.528 73.8208 6.528ZM107.383 6.528C109.538 6.528 111.245 7.168 112.503 8.448C113.783 9.70667 114.423 11.6053 114.423 14.144V24H109.431V14.912C109.431 13.5467 109.143 12.5333 108.567 11.872C108.013 11.1893 107.213 10.848 106.167 10.848C104.994 10.848 104.066 11.232 103.383 12C102.701 12.7467 102.359 13.8667 102.359 15.36V24H97.3673V14.912C97.3673 12.2027 96.2793 10.848 94.1033 10.848C92.9513 10.848 92.0339 11.232 91.3513 12C90.6686 12.7467 90.3273 13.8667 90.3273 15.36V24H85.3353V6.784H90.1033V8.768C90.7433 8.04267 91.5219 7.488 92.4392 7.104C93.3779 6.72 94.4019 6.528 95.5113 6.528C96.7273 6.528 97.8259 6.77333 98.8073 7.264C99.7886 7.73333 100.578 8.42667 101.175 9.344C101.879 8.448 102.765 7.75467 103.831 7.264C104.919 6.77333 106.103 6.528 107.383 6.528ZM127.277 24.256C125.464 24.256 123.832 23.8827 122.381 23.136C120.952 22.368 119.832 21.312 119.021 19.968C118.211 18.624 117.805 17.0987 117.805 15.392C117.805 13.6853 118.211 12.16 119.021 10.816C119.832 9.472 120.952 8.42667 122.381 7.68C123.832 6.912 125.464 6.528 127.277 6.528C129.091 6.528 130.712 6.912 132.141 7.68C133.571 8.42667 134.691 9.472 135.501 10.816C136.312 12.16 136.717 13.6853 136.717 15.392C136.717 17.0987 136.312 18.624 135.501 19.968C134.691 21.312 133.571 22.368 132.141 23.136C130.712 23.8827 129.091 24.256 127.277 24.256ZM127.277 20.16C128.557 20.16 129.603 19.7333 130.413 18.88C131.245 18.0053 131.661 16.8427 131.661 15.392C131.661 13.9413 131.245 12.7893 130.413 11.936C129.603 11.0613 128.557 10.624 127.277 10.624C125.997 10.624 124.941 11.0613 124.109 11.936C123.277 12.7893 122.861 13.9413 122.861 15.392C122.861 16.8427 123.277 18.0053 124.109 18.88C124.941 19.7333 125.997 20.16 127.277 20.16Z" fill="white"/>
<path d="M141.942 24.256C141.067 24.256 140.331 23.9573 139.734 23.36C139.137 22.7627 138.838 22.016 138.838 21.12C138.838 20.2027 139.137 19.4667 139.734 18.912C140.331 18.336 141.067 18.048 141.942 18.048C142.817 18.048 143.553 18.336 144.15 18.912C144.747 19.4667 145.046 20.2027 145.046 21.12C145.046 22.016 144.747 22.7627 144.15 23.36C143.553 23.9573 142.817 24.256 141.942 24.256Z" fill="#E9002C"/>
</svg>
