<svg width="146" height="25" viewBox="0 0 146 25" fill="none" xmlns="http://www.w3.org/2000/svg">
<path d="M10.9175 6.528C12.5175 6.528 13.9682 6.90133 15.2695 7.648C16.5922 8.37333 17.6268 9.408 18.3735 10.752C19.1202 12.0747 19.4935 13.6213 19.4935 15.392C19.4935 17.1627 19.1202 18.72 18.3735 20.064C17.6268 21.3867 16.5922 22.4213 15.2695 23.168C13.9682 23.8933 12.5175 24.256 10.9175 24.256C8.5495 24.256 6.74683 23.5093 5.5095 22.016V24H0.7415V0.255999H5.7335V8.608C6.99217 7.22133 8.72017 6.528 10.9175 6.528ZM10.0535 20.16C11.3335 20.16 12.3788 19.7333 13.1895 18.88C14.0215 18.0053 14.4375 16.8427 14.4375 15.392C14.4375 13.9413 14.0215 12.7893 13.1895 11.936C12.3788 11.0613 11.3335 10.624 10.0535 10.624C8.7735 10.624 7.7175 11.0613 6.8855 11.936C6.07483 12.7893 5.6695 13.9413 5.6695 15.392C5.6695 16.8427 6.07483 18.0053 6.8855 18.88C7.7175 19.7333 8.7735 20.16 10.0535 20.16ZM22.8353 0.255999H27.8273V24H22.8353V0.255999ZM39.4043 6.528C42.0709 6.528 44.1189 7.168 45.5483 8.448C46.9776 9.70667 47.6923 11.616 47.6923 14.176V24H43.0203V21.856C42.0816 23.456 40.3323 24.256 37.7723 24.256C36.4496 24.256 35.2976 24.032 34.3163 23.584C33.3563 23.136 32.6203 22.5173 32.1083 21.728C31.5963 20.9387 31.3403 20.0427 31.3403 19.04C31.3403 17.44 31.9376 16.1813 33.1323 15.264C34.3483 14.3467 36.2149 13.888 38.7323 13.888H42.7003C42.7003 12.8 42.3696 11.968 41.7083 11.392C41.0469 10.7947 40.0549 10.496 38.7323 10.496C37.8149 10.496 36.9083 10.6453 36.0123 10.944C35.1376 11.2213 34.3909 11.6053 33.7723 12.096L31.9803 8.608C32.9189 7.94667 34.0389 7.43467 35.3403 7.072C36.6629 6.70933 38.0176 6.528 39.4043 6.528ZM39.0203 20.896C39.8736 20.896 40.6309 20.704 41.2923 20.32C41.9536 19.9147 42.4229 19.328 42.7003 18.56V16.8H39.2763C37.2283 16.8 36.2043 17.472 36.2043 18.816C36.2043 19.456 36.4496 19.968 36.9403 20.352C37.4523 20.7147 38.1456 20.896 39.0203 20.896ZM74.2583 6.528C76.4129 6.528 78.1196 7.168 79.3783 8.448C80.6583 9.70667 81.2983 11.6053 81.2983 14.144V24H76.3063V14.912C76.3063 13.5467 76.0183 12.5333 75.4423 11.872C74.8876 11.1893 74.0876 10.848 73.0423 10.848C71.8689 10.848 70.9409 11.232 70.2583 12C69.5756 12.7467 69.2343 13.8667 69.2343 15.36V24H64.2423V14.912C64.2423 12.2027 63.1543 10.848 60.9783 10.848C59.8263 10.848 58.9089 11.232 58.2263 12C57.5436 12.7467 57.2023 13.8667 57.2023 15.36V24H52.2103V6.784H56.9783V8.768C57.6183 8.04267 58.3969 7.488 59.3142 7.104C60.2529 6.72 61.2769 6.528 62.3863 6.528C63.6023 6.528 64.7009 6.77333 65.6823 7.264C66.6636 7.73333 67.4529 8.42667 68.0503 9.344C68.7543 8.448 69.6396 7.75467 70.7063 7.264C71.7943 6.77333 72.9783 6.528 74.2583 6.528ZM107.821 6.528C109.975 6.528 111.682 7.168 112.941 8.448C114.221 9.70667 114.861 11.6053 114.861 14.144V24H109.869V14.912C109.869 13.5467 109.581 12.5333 109.005 11.872C108.45 11.1893 107.65 10.848 106.605 10.848C105.431 10.848 104.503 11.232 103.821 12C103.138 12.7467 102.797 13.8667 102.797 15.36V24H97.8048V14.912C97.8048 12.2027 96.7168 10.848 94.5408 10.848C93.3888 10.848 92.4714 11.232 91.7888 12C91.1061 12.7467 90.7648 13.8667 90.7648 15.36V24H85.7728V6.784H90.5408V8.768C91.1808 8.04267 91.9594 7.488 92.8767 7.104C93.8154 6.72 94.8394 6.528 95.9488 6.528C97.1648 6.528 98.2634 6.77333 99.2448 7.264C100.226 7.73333 101.015 8.42667 101.613 9.344C102.317 8.448 103.202 7.75467 104.269 7.264C105.357 6.77333 106.541 6.528 107.821 6.528ZM127.715 24.256C125.901 24.256 124.269 23.8827 122.819 23.136C121.389 22.368 120.269 21.312 119.459 19.968C118.648 18.624 118.243 17.0987 118.243 15.392C118.243 13.6853 118.648 12.16 119.459 10.816C120.269 9.472 121.389 8.42667 122.819 7.68C124.269 6.912 125.901 6.528 127.715 6.528C129.528 6.528 131.149 6.912 132.579 7.68C134.008 8.42667 135.128 9.472 135.939 10.816C136.749 12.16 137.155 13.6853 137.155 15.392C137.155 17.0987 136.749 18.624 135.939 19.968C135.128 21.312 134.008 22.368 132.579 23.136C131.149 23.8827 129.528 24.256 127.715 24.256ZM127.715 20.16C128.995 20.16 130.04 19.7333 130.851 18.88C131.683 18.0053 132.099 16.8427 132.099 15.392C132.099 13.9413 131.683 12.7893 130.851 11.936C130.04 11.0613 128.995 10.624 127.715 10.624C126.435 10.624 125.379 11.0613 124.547 11.936C123.715 12.7893 123.299 13.9413 123.299 15.392C123.299 16.8427 123.715 18.0053 124.547 18.88C125.379 19.7333 126.435 20.16 127.715 20.16Z" fill="#325CFD"/>
<path d="M142.38 24.256C141.505 24.256 140.769 23.9573 140.172 23.36C139.574 22.7627 139.276 22.016 139.276 21.12C139.276 20.2027 139.574 19.4667 140.172 18.912C140.769 18.336 141.505 18.048 142.38 18.048C143.254 18.048 143.99 18.336 144.588 18.912C145.185 19.4667 145.484 20.2027 145.484 21.12C145.484 22.016 145.185 22.7627 144.588 23.36C143.99 23.9573 143.254 24.256 142.38 24.256Z" fill="#E9002C"/>
</svg>
