<svg width="125" height="21" viewBox="0 0 125 21" fill="none" xmlns="http://www.w3.org/2000/svg">
<path d="M9.34709 5.48351C10.717 5.48351 11.959 5.7971 13.0731 6.42431C14.2056 7.03359 15.0914 7.90271 15.7307 9.03167C16.37 10.1427 16.6896 11.4419 16.6896 12.9293C16.6896 14.4167 16.37 15.7248 15.7307 16.8537C15.0914 17.9648 14.2056 18.8339 13.0731 19.4611C11.959 20.0704 10.717 20.375 9.34709 20.375C7.3197 20.375 5.77632 19.7478 4.71696 18.4934V20.16H0.634766V0.215027H4.90874V7.23071C5.98637 6.06591 7.46582 5.48351 9.34709 5.48351ZM8.60737 16.9344C9.70326 16.9344 10.5982 16.576 11.2923 15.8592C12.0046 15.1244 12.3608 14.1479 12.3608 12.9293C12.3608 11.7107 12.0046 10.743 11.2923 10.0262C10.5982 9.29148 9.70326 8.92415 8.60737 8.92415C7.51148 8.92415 6.60737 9.29148 5.89504 10.0262C5.20097 10.743 4.85394 11.7107 4.85394 12.9293C4.85394 14.1479 5.20097 15.1244 5.89504 15.8592C6.60737 16.576 7.51148 16.9344 8.60737 16.9344ZM19.5507 0.215027H23.8247V20.16H19.5507V0.215027ZM33.7365 5.48351C36.0195 5.48351 37.773 6.02111 38.9968 7.09631C40.2205 8.15359 40.8324 9.75743 40.8324 11.9078V20.16H36.8324V18.359C36.0287 19.703 34.531 20.375 32.3392 20.375C31.2068 20.375 30.2205 20.1869 29.3803 19.8105C28.5584 19.4342 27.9283 18.9145 27.4899 18.2515C27.0515 17.5885 26.8324 16.8359 26.8324 15.9936C26.8324 14.6496 27.3438 13.5923 28.3666 12.8217C29.4077 12.0512 31.0058 11.6659 33.1611 11.6659H36.5584C36.5584 10.752 36.2753 10.0531 35.7091 9.56927C35.1428 9.06754 34.2935 8.81663 33.1611 8.81663C32.3757 8.81663 31.5995 8.94204 30.8324 9.19295C30.0835 9.42588 29.4442 9.74844 28.9146 10.1606L27.3803 7.23071C28.1839 6.67519 29.1428 6.24511 30.257 5.94047C31.3894 5.63583 32.5492 5.48351 33.7365 5.48351ZM33.4077 17.5526C34.1383 17.5526 34.7867 17.3913 35.3529 17.0688C35.9191 16.7283 36.3209 16.2355 36.5584 15.5904V14.112H33.6269C31.8735 14.112 30.9968 14.6765 30.9968 15.8054C30.9968 16.343 31.2068 16.7731 31.6269 17.0957C32.0652 17.4003 32.6588 17.5526 33.4077 17.5526ZM63.5772 5.48351C65.4219 5.48351 66.8831 6.02111 67.9608 7.09631C69.0567 8.15359 69.6046 9.74844 69.6046 11.8809V20.16H65.3307V12.5261C65.3307 11.3792 65.0841 10.528 64.5909 9.97247C64.116 9.399 63.4311 9.11231 62.5361 9.11231C61.5315 9.11231 60.737 9.43487 60.1526 10.08C59.5681 10.7072 59.2759 11.648 59.2759 12.9024V20.16H55.0019V12.5261C55.0019 10.2503 54.0704 9.11231 52.2074 9.11231C51.2211 9.11231 50.4356 9.43487 49.8512 10.08C49.2667 10.7072 48.9745 11.648 48.9745 12.9024V20.16H44.7005V5.69855H48.7827V7.36511C49.3307 6.75583 49.9973 6.28991 50.7826 5.96735C51.5863 5.64479 52.463 5.48351 53.4128 5.48351C54.4539 5.48351 55.3945 5.68959 56.2348 6.10175C57.0749 6.49599 57.7507 7.07839 58.2622 7.84895C58.8649 7.09631 59.6229 6.51391 60.5361 6.10175C61.4676 5.68959 62.4813 5.48351 63.5772 5.48351ZM92.3124 5.48351C94.1566 5.48351 95.6181 6.02111 96.696 7.09631C97.7919 8.15359 98.3398 9.74844 98.3398 11.8809V20.16H94.0658V12.5261C94.0658 11.3792 93.8193 10.528 93.3261 9.97247C92.8509 9.399 92.166 9.11231 91.2713 9.11231C90.2662 9.11231 89.4717 9.43487 88.8878 10.08C88.303 10.7072 88.011 11.648 88.011 12.9024V20.16H83.7369V12.5261C83.7369 10.2503 82.8054 9.11231 80.9424 9.11231C79.9561 9.11231 79.1706 9.43487 78.5862 10.08C78.0017 10.7072 77.7095 11.648 77.7095 12.9024V20.16H73.4355V5.69855H77.5177V7.36511C78.0657 6.75583 78.7323 6.28991 79.5176 5.96735C80.3213 5.64479 81.198 5.48351 82.1479 5.48351C83.189 5.48351 84.1295 5.68959 84.9698 6.10175C85.8099 6.49599 86.4854 7.07839 86.9974 7.84895C87.6001 7.09631 88.3578 6.51391 89.2713 6.10175C90.2028 5.68959 91.2165 5.48351 92.3124 5.48351ZM109.345 20.375C107.792 20.375 106.395 20.0615 105.153 19.4342C103.929 18.7891 102.97 17.9021 102.276 16.7731C101.582 15.6441 101.235 14.3629 101.235 12.9293C101.235 11.4956 101.582 10.2144 102.276 9.08543C102.97 7.95647 103.929 7.07839 105.153 6.45119C106.395 5.80607 107.792 5.48351 109.345 5.48351C110.897 5.48351 112.285 5.80607 113.509 6.45119C114.733 7.07839 115.692 7.95647 116.386 9.08543C117.08 10.2144 117.427 11.4956 117.427 12.9293C117.427 14.3629 117.08 15.6441 116.386 16.7731C115.692 17.9021 114.733 18.7891 113.509 19.4342C112.285 20.0615 110.897 20.375 109.345 20.375ZM109.345 16.9344C110.441 16.9344 111.336 16.576 112.03 15.8592C112.742 15.1244 113.098 14.1479 113.098 12.9293C113.098 11.7107 112.742 10.743 112.03 10.0262C111.336 9.29148 110.441 8.92415 109.345 8.92415C108.249 8.92415 107.345 9.29148 106.633 10.0262C105.92 10.743 105.564 11.7107 105.564 12.9293C105.564 14.1479 105.92 15.1244 106.633 15.8592C107.345 16.576 108.249 16.9344 109.345 16.9344Z" fill="white"/>
<path d="M121.901 20.3751C121.152 20.3751 120.521 20.1242 120.01 19.6224C119.498 19.1207 119.243 18.4935 119.243 17.7408C119.243 16.9703 119.498 16.352 120.01 15.8861C120.521 15.4023 121.152 15.1603 121.901 15.1603C122.649 15.1603 123.279 15.4023 123.791 15.8861C124.302 16.352 124.558 16.9703 124.558 17.7408C124.558 18.4935 124.302 19.1207 123.791 19.6224C123.279 20.1242 122.649 20.3751 121.901 20.3751Z" fill="#E9002C"/>
</svg>
