<svg width="670" height="564" viewBox="0 0 670 564" fill="none" xmlns="http://www.w3.org/2000/svg">
<path d="M61.104 96.88C72.624 100.912 81.648 107.248 88.176 115.888C94.704 124.336 97.968 134.608 97.968 146.704C97.968 164.368 90.864 178 76.656 187.6C62.448 197.2 41.904 202 15.024 202H-93.84V0.399986H9.26401C34.992 0.399986 54.576 5.19999 68.016 14.8C81.456 24.208 88.176 36.976 88.176 53.104C88.176 62.704 85.776 71.344 80.976 79.024C76.368 86.512 69.744 92.464 61.104 96.88ZM-37.392 41.584V80.464H1.776C20.976 80.464 30.576 73.936 30.576 60.88C30.576 48.016 20.976 41.584 1.776 41.584H-37.392ZM10.416 160.816C30.384 160.816 40.368 154 40.368 140.368C40.368 126.736 30.384 119.92 10.416 119.92H-37.392V160.816H10.416ZM127.504 0.399986H184.528V156.784H280.72V202H127.504V0.399986ZM440.607 162.832H355.359L339.519 202H281.343L370.335 0.399986H426.495L515.775 202H456.447L440.607 162.832ZM423.903 120.784L397.983 56.272L372.063 120.784H423.903ZM88.176 559L87.6 452.152L35.76 539.128H10.416L-41.136 455.032V559H-93.84V357.4H-46.896L23.952 473.752L93.072 357.4H140.016L140.592 559H88.176ZM362.957 559L362.381 452.152L310.541 539.128H285.197L233.645 455.032V559H180.941V357.4H227.885L298.733 473.752L367.853 357.4H414.797L415.373 559H362.957ZM557.387 563.032C536.075 563.032 516.875 558.52 499.787 549.496C482.891 540.472 469.547 527.992 459.755 512.056C450.155 496.12 445.355 478.168 445.355 458.2C445.355 438.232 450.155 420.28 459.755 404.344C469.547 388.408 482.891 375.928 499.787 366.904C516.875 357.88 536.075 353.368 557.387 353.368C578.699 353.368 597.803 357.88 614.699 366.904C631.787 375.928 645.131 388.408 654.731 404.344C664.523 420.28 669.419 438.232 669.419 458.2C669.419 478.168 664.523 496.12 654.731 512.056C645.131 527.992 631.787 540.472 614.699 549.496C597.803 558.52 578.699 563.032 557.387 563.032ZM557.387 515.8C567.563 515.8 576.779 513.4 585.035 508.6C593.291 503.8 599.819 497.08 604.619 488.44C609.419 479.608 611.819 469.528 611.819 458.2C611.819 446.872 609.419 436.888 604.619 428.248C599.819 419.416 593.291 412.6 585.035 407.8C576.779 403 567.563 400.6 557.387 400.6C547.211 400.6 537.995 403 529.739 407.8C521.483 412.6 514.955 419.416 510.155 428.248C505.355 436.888 502.955 446.872 502.955 458.2C502.955 469.528 505.355 479.608 510.155 488.44C514.955 497.08 521.483 503.8 529.739 508.6C537.995 513.4 547.211 515.8 557.387 515.8Z" fill="#A0A0A1"/>
</svg>
