<svg xmlns="http://www.w3.org/2000/svg" width="127" height="127" viewBox="0 0 127 127"><g><g><g/><g><path fill="#334a5e" d="M84.01 104.07l-.15-.25H43.119l-.15.25-2.774 4.649-4.874 8.223h56.339l-4.874-8.223z"/></g><g><path fill="#41596b" d="M0 83.82v14.972a5.302 5.302 0 0 0 5.299 5.299h116.402A5.302 5.302 0 0 0 127 98.792V83.82z"/></g><g><path fill="#f2f2f2" d="M121.676.01H5.299A5.302 5.302 0 0 0 0 5.309v78.51h126.975V5.308A5.302 5.302 0 0 0 121.676.01z"/></g><g><path fill="#6176ff" d="M116.799 9.04H10.17v65.737h106.629z"/></g><g><path fill="#41596b" d="M93.136 116.94H33.848c-5.549 0-10.048 4.5-10.048 10.048h79.384c0-5.549-4.499-10.048-10.048-10.048z"/></g><g><path fill="#334a5e" d="M63.489 99.548a5.599 5.599 0 1 0 0-11.198 5.599 5.599 0 0 0 0 11.198z"/></g><g><path fill="#fff" d="M34.64 23.883l46.89 46.89L92.33 59.952 45.438 13.06z"/></g><g><g><path fill="#f2f2f2" d="M37.964 20.53l-3.324 3.35 46.89 46.89 3.35-3.35z"/></g><g><path fill="#f2f2f2" d="M55.859 23.438L54.02 21.6l-5.232 5.231 1.838 1.839z"/></g><g><path fill="#f2f2f2" d="M61.431 29.038L59.593 27.2l-3.658 3.658 1.838 1.839z"/></g><g><path fill="#f2f2f2" d="M44.765 19.686l1.839 1.838 3.658-3.659-1.838-1.838z"/></g><g><path fill="#f2f2f2" d="M67.034 34.617l-1.838-1.838-5.232 5.232 1.839 1.838z"/></g><g><path fill="#f2f2f2" d="M72.609 40.22l-1.838-1.838-3.659 3.658 1.838 1.838z"/></g><g><path fill="#f2f2f2" d="M78.212 45.799l-1.838-1.839-5.232 5.232 1.838 1.838z"/></g><g><path fill="#f2f2f2" d="M83.784 51.401l-1.838-1.838-3.658 3.658 1.838 1.839z"/></g><g><path fill="#f2f2f2" d="M89.37 56.963l-1.839-1.839-5.231 5.232 1.838 1.838z"/></g></g><g><path fill="#41596b" d="M89.705 26.507L48.213 68 37.39 57.176l38.142-38.142 3.35-3.35a7.647 7.647 0 0 1 5.399-2.224c1.95 0 3.899.75 5.399 2.225 3 2.999 3 7.848.025 10.822z"/></g><g><path fill="#ffd05c" d="M37.39 57.18l-1.425 7.948-.925 5.25 5.224-.95 7.948-1.425z"/></g><g><path fill="#41596b" d="M40.264 69.42l-5.224.949.925-5.249z"/></g><g><path fill="#f2705b" d="M89.707 15.685a7.584 7.584 0 0 0-5.399-2.225c-1.95 0-3.924.75-5.399 2.225l-3.349 3.349 10.823 10.823 3.35-3.35c2.949-2.974 2.949-7.823-.026-10.822z"/></g><g><path fill="#65c5b8" d="M73.298 21.284l10.817 10.817 2.244-2.245L75.543 19.04z"/></g></g></g></svg>