<svg xmlns="http://www.w3.org/2000/svg" width="111" height="127" viewBox="0 0 111 127"><g><g><g/><g><g><path fill="#41596b" d="M33.37 127h-22.1l22.1-50.4h22.125z"/></g><g><path fill="#41596b" d="M77.625 127h22.1l-22.1-50.4H55.5z"/></g></g><g><path fill="#6176ff" d="M108.77 46.175C104.845 20.05 82.295 0 55.07 0 25.07 0 .72 24.35.72 54.35s24.35 54.325 54.35 54.325c27.225 0 49.8-20.025 53.725-46.175.4-2.675.6-5.4.6-8.175 0-2.75-.2-5.475-.625-8.15z"/></g><g><path fill="#fff" d="M55.075 94.38C77.18 94.38 95.1 76.46 95.1 54.355c0-22.105-17.92-40.025-40.025-40.025-22.105 0-40.025 17.92-40.025 40.025 0 22.105 17.92 40.025 40.025 40.025z"/></g><g><path fill="#6176ff" d="M55.08 80.05c14.194 0 25.7-11.506 25.7-25.7 0-14.194-11.506-25.7-25.7-25.7-14.194 0-25.7 11.506-25.7 25.7 0 14.194 11.506 25.7 25.7 25.7z"/></g><g><path fill="#fff" d="M55.075 65.72c6.282 0 11.375-5.093 11.375-11.375S61.357 42.97 55.075 42.97 43.7 48.063 43.7 54.345 48.793 65.72 55.075 65.72z"/></g><g opacity=".2"><path fill="#41596b" d="M109.4 54.355c0 2.775-.2 5.5-.6 8.175h-1.95l-3.15-6.075H56.875c-1 0-1.825-.8-1.825-1.825v-.55c0-1 .8-1.825 1.825-1.825H103.7l3.15-6.075h1.925c.425 2.675.625 5.4.625 8.175z"/></g><g><path fill="#e9002c" d="M98.7 1.5L86.1 14.1l2.8 8.775 8.775 2.8 12.6-12.625-8.75-2.8z"/></g><g><path fill="#41596b" d="M101.979 9.399a2.097 2.097 0 0 0-2.975 0L55.479 52.924a2.097 2.097 0 0 0 0 2.975c.825.825 2.15.825 2.975 0l43.525-43.525a2.097 2.097 0 0 0 0-2.975z"/></g></g></g></svg>