<svg xmlns="http://www.w3.org/2000/svg" width="127" height="127" viewBox="0 0 127 127"><g><g><g/><g><path fill="#41596b" d="M121.7.19H5.3C2.375.19 0 2.59 0 5.515v34.8h127v-34.8C127 2.59 124.625.19 121.7.19z"/></g><g><path fill="#f2f2f2" d="M0 40.31v81.2c0 2.925 2.375 5.3 5.3 5.3h116.375c2.925 0 5.3-2.375 5.3-5.3v-81.2z"/></g><g><path fill="#e9002c" d="M15.52 27.76a7.5 7.5 0 1 0 0-15 7.5 7.5 0 0 0 0 15z"/></g><g><path fill="#ffd05c" d="M38.92 27.76a7.5 7.5 0 1 0 0-15 7.5 7.5 0 0 0 0 15z"/></g><g><path fill="#27ae60" d="M62.3 27.76a7.5 7.5 0 1 0 0-15 7.5 7.5 0 0 0 0 15z"/></g><g><g><path fill="#6176ff" d="M35.725 107.635L11.65 83.56l24.075-24.05 7.975 7.975L27.625 83.56 43.7 99.66z"/></g><g><path fill="#6176ff" d="M91.275 107.635L83.3 99.66l16.075-16.1L83.3 67.485l7.975-7.975 24.075 24.05z"/></g></g><g><path fill="#6176ff" d="M59.25 111.765h-11.3l19.8-56.375h11.3z"/></g><g><path fill="#cdd5df" d="M127 40.31H0v2.875h127z"/></g></g></g></svg>