<svg xmlns="http://www.w3.org/2000/svg" width="24" height="18" viewBox="0 0 24 18"><g><g><g/><g><g/><g><g><g><g><path fill="#fff" d="M.497 1.46C3.79 4.25 9.57 9.158 11.269 10.688c.228.206.473.311.727.311.253 0 .497-.103.725-.31 1.7-1.53 7.48-6.439 10.774-9.229a.5.5 0 0 0 .07-.69 1.986 1.986 0 0 0-1.57-.77h-20C1.384 0 .81.28.428.77a.5.5 0 0 0 .07.69z"/></g><g><path fill="#fff" d="M23.71 2.977a.498.498 0 0 0-.533.072c-2.157 1.828-5 4.245-7.143 6.088a.5.5 0 0 0 .014.77c1.991 1.594 4.993 3.789 7.16 5.348a.498.498 0 0 0 .52.04.5.5 0 0 0 .272-.445V3.43a.5.5 0 0 0-.29-.453z"/></g><g><path fill="#fff" d="M.792 15.255c2.168-1.56 5.17-3.754 7.161-5.35a.5.5 0 0 0 .014-.768C5.823 7.293 2.98 4.877.823 3.048A.5.5 0 0 0 0 3.43v11.42a.5.5 0 0 0 .792.405z"/></g><g><path fill="#fff" d="M23.383 16.61c-2.093-1.498-5.95-4.29-8.251-6.158a.501.501 0 0 0-.644.011c-.451.395-.83.727-1.097.968-.823.743-1.966.743-2.791-.001-.267-.24-.645-.574-1.097-.967a.498.498 0 0 0-.643-.01C6.566 12.313 2.706 15.108.609 16.61a.502.502 0 0 0-.075.747c.378.408.911.642 1.462.642h20c.55 0 1.083-.234 1.462-.642a.5.5 0 0 0-.075-.747z"/></g></g></g></g></g></g></g></svg>