<svg width="36" height="36" viewBox="0 0 36 36" fill="none" xmlns="http://www.w3.org/2000/svg">
<circle cx="18" cy="18" r="16.5" stroke="white" stroke-width="3"/>
<g clip-path="url(#clip0)">
<path d="M26.7123 17.3006L20.2119 10.8C20.0263 10.6145 19.779 10.5126 19.5153 10.5126C19.2513 10.5126 19.0041 10.6146 18.8186 10.8L18.2284 11.3904C18.043 11.5756 17.9408 11.8231 17.9408 12.087C17.9408 12.3507 18.043 12.6065 18.2284 12.7917L22.0206 16.5923H9.97243C9.42922 16.5923 9 17.0176 9 17.561V18.3955C9 18.9389 9.42922 19.407 9.97243 19.407H22.0636L18.2285 23.2289C18.0431 23.4144 17.941 23.6552 17.941 23.919C17.941 24.1826 18.0431 24.4268 18.2285 24.6122L18.8187 25.2007C19.0043 25.3862 19.2514 25.4873 19.5154 25.4873C19.7791 25.4873 20.0264 25.3849 20.212 25.1993L26.7124 18.6989C26.8984 18.5128 27.0007 18.2643 27 18.0001C27.0006 17.7351 26.8984 17.4865 26.7123 17.3006Z" fill="white"/>
</g>
<defs>
<clipPath id="clip0">
<rect x="9" y="9" width="18" height="18" fill="white"/>
</clipPath>
</defs>
</svg>
