<svg xmlns="http://www.w3.org/2000/svg" width="127" height="127" viewBox="0 0 127 127"><g><g><g/><g><path fill="#f2f2f2" d="M7.05 38.4c-.175 0-.375 0-.525.025C2.875 38.7 0 41.725 0 45.45v24.849c0 3.7 2.875 6.75 6.525 7.024.175.025.35.025.525.025h2.275V38.4z"/></g><g><path fill="#41596b" d="M14.65 28.55a5.302 5.302 0 0 0-5.3 5.3v48.048c0 2.925 2.375 5.3 5.3 5.3h31.648V28.55H14.65z"/></g><g><path fill="#f2f2f2" d="M42.504 87.205v39.798h-20.9l-1.474-8.4-.725-4.074-1-5.525-.7-4.075-1-5.524-.7-4.075-.95-5.4-.525-3c.6.175 1.225.275 1.875.275h26.099z"/></g><g><g><path fill="#325cfd" d="M29.1 97.38a2.06 2.06 0 0 0-2.05-2.05H16l.725 4.075h10.35a2.032 2.032 0 0 0 2.024-2.025z"/></g><g><path fill="#325cfd" d="M31.774 106.955c0-1.125-.9-2.025-2.025-2.025H17.7l.7 4.075h11.325c1.124 0 2.05-.9 2.05-2.05z"/></g><g><path fill="#325cfd" d="M32.374 114.53H19.4l.725 4.075h12.25c1.124 0 2.05-.925 2.05-2.025 0-1.125-.9-2.05-2.05-2.05z"/></g></g><g><path fill="#41596b" d="M101.695.555a7.322 7.322 0 0 0-4.025 6.55v101.521a7.32 7.32 0 0 0 4.025 6.549c4.65 1.95 9.774-1.475 9.774-6.499V7.08c0-5.05-5.124-8.475-9.774-6.525z"/></g><g><path fill="#f2f2f2" d="M97.678 109.451V7.93c0-.4.05-.8.1-1.2L46.28 29.354v58.647l51.498 22.625a5.88 5.88 0 0 1-.1-1.175z"/></g><g><path fill="#325cfd" d="M111.47 36.05v43.623c9.025-3.15 15.524-11.7 15.524-21.799 0-10.1-6.5-18.674-15.524-21.824z"/></g></g></g></svg>