<svg xmlns="http://www.w3.org/2000/svg" width="127" height="127" viewBox="0 0 127 127"><g><g><g><path fill="#334a5e" d="M84.01 104.07l-.15-.25H43.119l-.15.25-2.774 4.65-4.874 8.225h56.339l-4.874-8.225z"/></g><g><path fill="#41596b" d="M0 83.82v14.975c0 2.925 2.375 5.3 5.299 5.3h116.402a5.303 5.303 0 0 0 5.299-5.3V83.82z"/></g><g><path fill="#f2f2f2" d="M121.676 0H5.299A5.302 5.302 0 0 0 0 5.3v78.526h126.975V5.3c0-2.925-2.375-5.3-5.299-5.3z"/></g><g><path fill="#325cfd" d="M116.629 8.99H10v65.75h106.629z"/></g><g><path fill="#41596b" d="M93.136 116.95H33.848c-5.549 0-10.048 4.5-10.048 10.05h79.384c0-5.55-4.499-10.05-10.048-10.05z"/></g><g><path fill="#334a5e" d="M63.489 99.55a5.6 5.6 0 0 0 5.599-5.6 5.6 5.6 0 1 0-5.6 5.6z"/></g><g><g/><g><path fill="#41596b" d="M57.36 57.72c12.35 0 22.361-10.013 22.361-22.365 0-12.352-10.01-22.365-22.36-22.365S35 23.003 35 35.355c0 12.352 10.011 22.366 22.36 22.366z"/></g><g><path fill="#f6f6f6" d="M57.36 52.288c9.35 0 16.93-7.582 16.93-16.934S66.71 18.42 57.36 18.42s-16.93 7.582-16.93 16.934 7.58 16.934 16.93 16.934z"/></g><g><path fill="#e4e4e4" d="M57.358 18.42a16.888 16.888 0 0 0-12.588 5.611 16.855 16.855 0 0 1 11.32-4.343c9.358 0 16.931 7.586 16.931 16.934a16.84 16.84 0 0 1-4.342 11.323 16.895 16.895 0 0 0 5.61-12.591c0-9.36-7.585-16.934-16.93-16.934z"/></g><g><path fill="#f6b44b" d="M79.82 49.932a.84.84 0 0 0-1.2 0l-6.688 6.689a.84.84 0 0 0 0 1.2.84.84 0 0 0 1.2 0l6.688-6.688a.86.86 0 0 0 0-1.2z"/></g><g><path fill="#334a5e" d="M77.097 51.462l-3.636 3.636-1.323-1.324-.898-.898a22.286 22.286 0 0 0 3.635-3.636z"/></g><g><path fill="#ffd05c" d="M80.656 52.083l-1.032-.763-6.294 6.295.763 1.033 6.406 8.742 8.897-8.888z"/></g><g><path fill="#f6b44b" d="M89.397 58.51L80.5 67.409c2.311 3.142 6.878 3.49 9.626.73 2.772-2.761 2.424-7.328-.729-9.629z"/></g></g></g></g></svg>