<svg width="29" height="36" viewBox="0 0 29 36" fill="none" xmlns="http://www.w3.org/2000/svg">
<path d="M17.048 13.928C19.192 13.928 21.144 14.36 22.904 15.224C24.664 16.088 26.056 17.32 27.08 18.92C28.104 20.488 28.616 22.312 28.616 24.392C28.616 26.632 28.056 28.6 26.936 30.296C25.816 31.992 24.28 33.304 22.328 34.232C20.408 35.128 18.264 35.576 15.896 35.576C11.192 35.576 7.512 34.136 4.856 31.256C2.2 28.376 0.872 24.264 0.872 18.92C0.872 15.112 1.592 11.848 3.032 9.128C4.472 6.408 6.472 4.344 9.032 2.936C11.624 1.528 14.616 0.823999 18.008 0.823999C19.8 0.823999 21.512 1.032 23.144 1.448C24.808 1.832 26.216 2.392 27.368 3.128L24.488 8.84C22.824 7.72 20.728 7.16 18.2 7.16C15.352 7.16 13.096 7.992 11.432 9.656C9.768 11.32 8.872 13.736 8.744 16.904C10.728 14.92 13.496 13.928 17.048 13.928ZM15.464 29.768C17.128 29.768 18.472 29.32 19.496 28.424C20.552 27.528 21.08 26.312 21.08 24.776C21.08 23.24 20.552 22.024 19.496 21.128C18.472 20.2 17.096 19.736 15.368 19.736C13.672 19.736 12.28 20.216 11.192 21.176C10.104 22.104 9.56 23.304 9.56 24.776C9.56 26.248 10.088 27.448 11.144 28.376C12.2 29.304 13.64 29.768 15.464 29.768Z" fill="white" fill-opacity="0.2"/>
</svg>
