<svg width="28" height="35" viewBox="0 0 28 35" fill="none" xmlns="http://www.w3.org/2000/svg">
<path d="M13.392 13.024C18.128 13.024 21.616 13.968 23.856 15.856C26.128 17.744 27.264 20.272 27.264 23.44C27.264 25.488 26.752 27.36 25.728 29.056C24.704 30.72 23.136 32.064 21.024 33.088C18.944 34.08 16.368 34.576 13.296 34.576C10.928 34.576 8.592 34.272 6.288 33.664C4.016 33.024 2.08 32.128 0.48 30.976L3.552 25.024C4.832 25.984 6.304 26.736 7.968 27.28C9.632 27.792 11.344 28.048 13.104 28.048C15.056 28.048 16.592 27.664 17.712 26.896C18.832 26.128 19.392 25.056 19.392 23.68C19.392 22.24 18.8 21.152 17.616 20.416C16.464 19.68 14.448 19.312 11.568 19.312H2.976L4.704 0.399998H25.2V6.64H11.184L10.656 13.024H13.392Z" fill="white" fill-opacity="0.2"/>
</svg>
