<svg xmlns="http://www.w3.org/2000/svg" width="769" height="659" viewBox="0 0 769 659"><g><g><g><path fill="#6176ff" d="M0 344.759C0 154.354 154.354 0 344.759 0H769v659H314.241C140.69 659 0 518.31 0 344.759z"/></g><g><path fill="#ff6584" d="M272.355 291.214c27.949 0 50.605-22.64 50.605-50.567s-22.656-50.567-50.605-50.567c-27.948 0-50.605 22.64-50.605 50.567s22.657 50.567 50.605 50.567z"/></g><g><path fill="#6176ff" d="M687 225.01v133a196.157 196.157 0 0 1-14.952 75.12 196.28 196.28 0 0 1-42.584 63.684 196.442 196.442 0 0 1-63.732 42.551 196.553 196.553 0 0 1-75.177 14.941H129v-133c0-71.07 37.8-133.325 94.414-167.773a195.039 195.039 0 0 1 30.66-15.162 192.99 192.99 0 0 1 19.138-6.34c.127-.042.259-.078.386-.108a184.191 184.191 0 0 1 5.785-1.482 196.663 196.663 0 0 1 36.758-5.215c1.452-.065 2.904-.12 4.369-.15.524-.018 1.054-.03 1.591-.03 1.108-.024 2.223-.036 3.344-.036z"/></g><g><path fill="#f2f2f2" d="M389.5 469c-143.571 0-260.012 47.871-260.5 107h521c-.488-59.129-116.929-107-260.5-107z"/></g><g opacity=".1"><g opacity=".01"><path d="M341.107 534.062c26.625 0 48.208-5.991 48.208-13.381 0-7.39-21.583-13.381-48.208-13.381-26.624 0-48.207 5.99-48.207 13.38 0 7.39 21.583 13.382 48.207 13.382z"/></g></g><g opacity=".1"><g opacity=".01"><path d="M445.357 509.972c26.624 0 48.208-5.991 48.208-13.381 0-7.39-21.583-13.381-48.208-13.381-26.624 0-48.207 5.99-48.207 13.38 0 7.39 21.583 13.382 48.207 13.382z"/></g></g><g opacity=".1"><g opacity=".01"><path d="M341.117 532.725c23.961 0 43.386-5.391 43.386-12.042s-19.425-12.043-43.386-12.043c-23.962 0-43.387 5.392-43.387 12.043 0 6.65 19.425 12.042 43.387 12.042z"/></g></g><g opacity=".1"><g opacity=".01"><path d="M445.357 508.635c23.961 0 43.386-5.391 43.386-12.042s-19.425-12.043-43.386-12.043c-23.962 0-43.387 5.392-43.387 12.043 0 6.65 19.425 12.042 43.387 12.042z"/></g></g><g><path fill="#f2f2f2" d="M212.158 282.83a4.217 4.217 0 0 0 4.218-4.215 4.217 4.217 0 0 0-4.218-4.215 4.217 4.217 0 0 0-4.218 4.215 4.217 4.217 0 0 0 4.218 4.215z"/></g><g><path fill="#f2f2f2" d="M574.918 447.82a4.217 4.217 0 0 0 4.218-4.215 4.217 4.217 0 0 0-4.218-4.215 4.217 4.217 0 0 0-4.218 4.215 4.217 4.217 0 0 0 4.218 4.215z"/></g><g><path fill="#f2f2f2" d="M389.218 162.43a4.217 4.217 0 0 0 4.218-4.215 4.217 4.217 0 0 0-4.218-4.215 4.217 4.217 0 0 0-4.218 4.215 4.217 4.217 0 0 0 4.218 4.215z"/></g><g><path fill="#f2f2f2" d="M376.058 312.34a4.217 4.217 0 0 0 4.218-4.215 4.217 4.217 0 0 0-4.218-4.215 4.217 4.217 0 0 0-4.218 4.215 4.217 4.217 0 0 0 4.218 4.215z"/></g><g><path fill="#f2f2f2" d="M115.218 249.43a4.217 4.217 0 0 0 4.218-4.215 4.217 4.217 0 0 0-4.218-4.215 4.217 4.217 0 0 0-4.218 4.215 4.217 4.217 0 0 0 4.218 4.215z"/></g><g><path fill="#ff6584" d="M585.16 285.247a2.41 2.41 0 1 0 .002-4.819 2.41 2.41 0 0 0-.002 4.82z"/></g><g><path fill="#ff6584" d="M420.41 85.817a2.41 2.41 0 1 0 .002-4.819 2.41 2.41 0 0 0-.002 4.82z"/></g><g><path fill="#ff6584" d="M221.8 405.667a2.41 2.41 0 1 0 .002-4.819 2.41 2.41 0 0 0-.002 4.82z"/></g><g><path fill="#ff6584" d="M77.41 352.817a2.41 2.41 0 1 0 .002-4.819 2.41 2.41 0 0 0-.002 4.82z"/></g><g><path fill="#f2f2f2" d="M185.64 454.037h-1.098v-1.097h-.214v1.097h-1.098v.214h1.098v1.098h.214v-1.098h1.098z"/></g><g><path fill="#f2f2f2" d="M538.16 364.917h-1.098v-1.097h-.214v1.097h-1.098v.214h1.098v1.098h.214v-1.098h1.098z"/></g><g><path fill="#f2f2f2" d="M629.15 346.857h-1.098v-1.097h-.214v1.097h-1.098v.214h1.098v1.098h.214v-1.098h1.098z"/></g><g><path fill="#f2f2f2" d="M433.31 395.027h-1.098v-1.097h-.214v1.097H430.9v.214h1.098v1.098h.214v-1.098h1.098z"/></g><g><path fill="#f2f2f2" d="M196.36 148.097h-1.098V147h-.214v1.097h-1.098v.214h1.098v1.098h.214v-1.098h1.098z"/></g><g><path fill="#f2f2f2" d="M353.36 52.097h-1.098V51h-.214v1.097h-1.098v.214h1.098v1.098h.214V52.31h1.098z"/></g><g><path fill="#f2f2f2" d="M495.36 143.097h-1.098V142h-.214v1.097h-1.098v.214h1.098v1.098h.214v-1.098h1.098z"/></g><g><path fill="#f2f2f2" d="M602.64 401.047h-1.098v-1.097h-.214v1.097h-1.098v.214h1.098v1.098h.214v-1.098h1.098z"/></g><g><path fill="#f2f2f2" d="M398.36 426.937h-1.098v-1.097h-.214v1.097h-1.098v.214h1.098v1.098h.214v-1.098h1.098z"/></g><g><path fill="#f2f2f2" d="M161.41 180.007h-1.098v-1.097h-.214v1.097H159v.214h1.098v1.098h.214v-1.098h1.098z"/></g><g><path fill="#f2f2f2" d="M318.41 84.007h-1.098V82.91h-.214v1.097H316v.214h1.098v1.098h.214V84.22h1.098z"/></g><g><path fill="#f2f2f2" d="M460.41 175.007h-1.098v-1.097h-.214v1.097H458v.214h1.098v1.098h.214v-1.098h1.098z"/></g><g><path fill="#f2f2f2" d="M475.49 428.147h-1.098v-1.097h-.214v1.097h-1.098v.214h1.098v1.098h.214v-1.098h1.098z"/></g><g><path fill="#f2f2f2" d="M238.54 181.217h-1.098v-1.097h-.214v1.097h-1.098v.214h1.098v1.098h.214v-1.098h1.098z"/></g><g><path fill="#f2f2f2" d="M395.54 85.217h-1.098V84.12h-.214v1.097h-1.098v.214h1.098v1.098h.214V85.43h1.098z"/></g><g><path fill="#f2f2f2" d="M537.54 176.217h-1.098v-1.097h-.214v1.097h-1.098v.214h1.098v1.098h.214v-1.098h1.098z"/></g><g><path fill="#f2f2f2" d="M186.85 325.777h-1.098v-1.097h-.214v1.097h-1.098v.214h1.098v1.098h.214v-1.098h1.098z"/></g><g><path fill="#e6e6e6" d="M538.682 242.91h-1.732v34.962h1.732z"/></g><g><path fill="#e6e6e6" d="M497.636 335.85L481.7 372.543l3.118 5.192-1.04 1.73 7.275 3.809v-2.077l2.772-.693 11.778-21.461z"/></g><g><path fill="#e6e6e6" d="M485.167 379.12s-11.778 18.346 1.386 21.116c13.164 2.769 2.425-19.385 2.425-19.385z"/></g><g><path fill="#fff" d="M502.137 370.809l-4.157 13.5-1.732 17.308-3.118 6.23 3.464 28.04 5.543 5.538 2.425 27.693v12.462l6.582 11.423-8.476 12.021a3.827 3.827 0 0 0 1.06 5.435 3.831 3.831 0 0 0 1.947.605c1.871.049 4.338-.479 7.547-2.138 10.047-5.192 9.7-10.039 9.7-10.039s6.236 0 6.582-4.846c.347-4.846-3.81-39.462-3.81-39.462l-3.811-14.885v-40.5h1.386l.692 34.615 3.118 12.808.347 5.539 4.503 55.385s20.093 5.539 21.132 1.039c1.04-4.5-7.621-7.269-7.621-7.269l5.196-10.039v-19.385l-1.732-4.154-3.118-28.039 5.196-5.538 2.772-3.462v-27.693l-3.465-10.73-1.039-9-5.543-13.847s-25.288-8.308-41.57 1.385z"/></g><g><path fill="#e9002c" d="M547.176 292.58a26.293 26.293 0 0 1-10.91 21.326 26.339 26.339 0 0 1-40.522-13.398 26.29 26.29 0 0 1 3.972-23.62l.007-.006a26.325 26.325 0 0 1 13.2-9.39 26.345 26.345 0 0 1 16.201.111 26.324 26.324 0 0 1 13.068 9.571 26.292 26.292 0 0 1 4.984 15.406z"/></g><g opacity=".1"><g opacity=".01"><path d="M543.434 281.676l-2.148 12.292c-16.14-41.864-41.813-16.148-42.256-15.698a26.345 26.345 0 0 1 35.569-6.298 26.315 26.315 0 0 1 8.835 9.704z"/></g></g><g><path fill="#fff" d="M544.124 280.286l-2.148 12.292c-16.14-41.864-41.813-16.148-42.256-15.698a26.345 26.345 0 0 1 35.569-6.298 26.315 26.315 0 0 1 8.835 9.704z"/></g><g><path fill="#fff" d="M540.516 275.101l3.609 12.519s-7.492 22.438-42.234 23.22l-1.138 3.205-3.81 1.038-1.733 7.27 4.85 46.039s-2.079 4.5 1.386 4.154c0 0 22.863-7.616 42.61-.692 0 0 4.156 1.73 3.117-2.077 0 0 13.857-8.654 12.818-17.655-1.04-9 1.04-50.885 1.04-50.885s2.078-12.116-4.158-14.885c0 0-9.158-12.809-16.357-11.25z"/></g><g><path fill="#e6e6e6" d="M532.918 362.57s-21.705 2.178-15.697 14.205c6.008 12.028 16.707-10.146 16.707-10.146z"/></g><g><path fill="#e6e6e6" d="M544.053 308.852s-3.81 4.5-2.425 11.77c1.386 7.27 6.582 23.539 6.582 23.539l-18.36 16.962 5.543 7.615 24.942-12.808 5.543-3.462a143.525 143.525 0 0 0-10.18-40.728l-.906-2.195s-6.582-2.77-10.739-.693z"/></g><g><path fill="#e6e6e6" d="M542.319 296.558a6.406 6.406 0 0 0 6.409-6.404 6.406 6.406 0 0 0-6.41-6.404 6.406 6.406 0 0 0-6.408 6.404 6.406 6.406 0 0 0 6.409 6.404z"/></g><g><path fill="#e6e6e6" d="M537.817 247.406a4.675 4.675 0 0 0 4.676-4.673 4.675 4.675 0 0 0-4.676-4.673 4.675 4.675 0 0 0-4.677 4.673 4.675 4.675 0 0 0 4.677 4.673z"/></g><g><path fill="#f2f2f2" d="M418.85 316.147h-1.098v-1.097h-.214v1.097h-1.098v.214h1.098v1.098h.214v-1.098h1.098z"/></g><g><path fill="#f2f2f2" d="M517.67 282.427h-1.098v-1.097h-.214v1.097h-1.098v.214h1.098v1.098h.214v-1.098h1.098z"/></g><g><path fill="#f2f2f2" d="M506.82 292.667h-1.098v-1.097h-.214v1.097h-1.098v.214h1.098v1.098h.214v-1.098h1.098z"/></g><g><path fill="#f2f2f2" d="M464.04 267.177a2.41 2.41 0 1 0 .002-4.819 2.41 2.41 0 0 0-.002 4.82z"/></g><g><path fill="#f2f2f2" d="M573.41 115.817a2.41 2.41 0 1 0 .002-4.819 2.41 2.41 0 0 0-.002 4.82z"/></g><g><path fill="#f2f2f2" d="M345.308 281.747c0 168.023-21.144 168.023-47.22 168.023-13.48 0-25.642 0-34.242-23.21-2.472-6.671-4.657-15.272-6.488-26.343-4.123-24.889-6.488-62.289-6.488-118.47 0-21.603 2.56-42.782 6.488-62.562a399.602 399.602 0 0 1 6.488-27.482 445.205 445.205 0 0 1 9.372-30.06 462.906 462.906 0 0 1 6.488-17.419C289.532 119.387 298.089 104 298.089 104s47.219 84.951 47.219 177.747z"/></g><g opacity=".1"><g opacity=".01"><path d="M279.708 144.22v292.939h-6.488v-275.52a462.877 462.877 0 0 1 6.488-17.419z"/></g></g><g><path fill="#3f3d56" d="M296.642 245.905c14.334 0 25.953-11.61 25.953-25.932 0-14.323-11.62-25.933-25.953-25.933s-25.952 11.61-25.952 25.933c0 14.322 11.62 25.932 25.952 25.932z"/></g><g><path fill="#e9002c" d="M353.6 433.92c-5.77-14.194-13.179-16.643-18.022-16.43v-2.3h-75.695v2.3c-4.843-.213-12.252 2.236-18.022 16.43-9.372 23.05 5.767 62.67 5.767 62.67s-8.09-55.256 18.776-55.62a31.787 31.787 0 0 0 8.428 7.641v14.861h43.387v-13.508a31.755 31.755 0 0 0 10.838-8.994c26.867.364 18.776 55.62 18.776 55.62s15.139-39.62 5.767-62.67z"/></g><g><path fill="#e9002c" d="M296.645 240.15c11.148 0 20.185-9.03 20.185-20.17 0-11.14-9.037-20.17-20.185-20.17-11.148 0-20.185 9.03-20.185 20.17 0 11.14 9.037 20.17 20.185 20.17z"/></g><g><path fill="#e9002c" d="M638.795 225.01h-1.205a49.407 49.407 0 0 0 14.583 34.718 49.482 49.482 0 0 0 34.823 14.38v-1.204a48.273 48.273 0 0 1-33.972-14.027 48.2 48.2 0 0 1-14.229-33.867z"/></g><g><path fill="#e9002c" d="M616.505 225.01H615.3a71.697 71.697 0 0 0 21.119 50.466 71.805 71.805 0 0 0 50.583 20.911v-1.204a70.605 70.605 0 0 1-49.73-20.56 70.497 70.497 0 0 1-20.767-49.613z"/></g><g><path fill="#e9002c" d="M593.595 225.01h-1.205c.15 52 42.53 94.258 94.607 94.258v-1.204c-51.413 0-93.251-41.716-93.402-93.054z"/></g></g></g></svg>