<svg xmlns="http://www.w3.org/2000/svg" width="36" height="36" viewBox="0 0 36 36"><defs><clipPath id="znlca"><path fill="#fff" d="M36 18c0 9.941-8.059 18-18 18S0 27.941 0 18 8.059 0 18 0s18 8.059 18 18z"/></clipPath></defs><g><g><g><path fill="none" stroke="#e9002c" stroke-miterlimit="50" stroke-width="4" d="M36 18c0 9.941-8.059 18-18 18S0 27.941 0 18 8.059 0 18 0s18 8.059 18 18z" clip-path="url(&quot;#znlca&quot;)"/></g><g><g/><g><path fill="#e9002c" d="M25 12.41L23.59 11 18 16.59 12.41 11 11 12.41 16.59 18 11 23.59 12.41 25 18 19.41 23.59 25 25 23.59 19.41 18z"/></g></g></g></g></svg>