<svg xmlns="http://www.w3.org/2000/svg" width="558" height="525" viewBox="0 0 558 525"><g><g><path fill="#ff6584" d="M143.355 240.214c27.949 0 50.605-22.64 50.605-50.567s-22.656-50.567-50.605-50.567c-27.948 0-50.605 22.64-50.605 50.567s22.657 50.567 50.605 50.567z"/></g><g><path fill="#f2f2f2" d="M260.5 418C116.929 418 .488 465.871 0 525h521c-.488-59.129-116.929-107-260.5-107z"/></g><g opacity=".1"><g opacity=".01"><path d="M212.107 483.062c26.625 0 48.208-5.991 48.208-13.381 0-7.39-21.583-13.381-48.208-13.381-26.624 0-48.207 5.99-48.207 13.38 0 7.39 21.583 13.382 48.207 13.382z"/></g></g><g opacity=".1"><g opacity=".01"><path d="M316.357 458.972c26.624 0 48.208-5.991 48.208-13.381 0-7.39-21.583-13.381-48.208-13.381-26.624 0-48.207 5.99-48.207 13.38 0 7.39 21.583 13.382 48.207 13.382z"/></g></g><g opacity=".1"><g opacity=".01"><path d="M212.117 481.725c23.961 0 43.386-5.391 43.386-12.042s-19.425-12.043-43.386-12.043c-23.962 0-43.387 5.392-43.387 12.043 0 6.65 19.425 12.042 43.387 12.042z"/></g></g><g opacity=".1"><g opacity=".01"><path d="M316.357 457.635c23.961 0 43.386-5.391 43.386-12.042s-19.425-12.043-43.386-12.043c-23.962 0-43.387 5.392-43.387 12.043 0 6.65 19.425 12.042 43.387 12.042z"/></g></g><g><path fill="#f2f2f2" d="M83.158 231.83a4.217 4.217 0 0 0 4.218-4.215 4.217 4.217 0 0 0-4.218-4.215 4.217 4.217 0 0 0-4.218 4.215 4.217 4.217 0 0 0 4.218 4.215z"/></g><g><path fill="#f2f2f2" d="M445.918 396.82a4.217 4.217 0 0 0 4.218-4.215 4.217 4.217 0 0 0-4.218-4.215 4.217 4.217 0 0 0-4.218 4.215 4.217 4.217 0 0 0 4.218 4.215z"/></g><g><path fill="#f2f2f2" d="M260.218 111.43a4.217 4.217 0 0 0 4.218-4.215 4.217 4.217 0 0 0-4.218-4.215 4.217 4.217 0 0 0-4.218 4.215 4.217 4.217 0 0 0 4.218 4.215z"/></g><g><path fill="#f2f2f2" d="M247.058 261.34a4.217 4.217 0 0 0 4.218-4.215 4.217 4.217 0 0 0-4.218-4.215 4.217 4.217 0 0 0-4.218 4.215 4.217 4.217 0 0 0 4.218 4.215z"/></g><g><path fill="#ff6584" d="M456.16 234.247a2.41 2.41 0 1 0 .002-4.819 2.41 2.41 0 0 0-.002 4.82z"/></g><g><path fill="#f2f2f2" d="M56.64 403.037h-1.098v-1.097h-.214v1.097H54.23v.214h1.098v1.098h.214v-1.098h1.098z"/></g><g><path fill="#f2f2f2" d="M409.16 313.917h-1.098v-1.097h-.214v1.097h-1.098v.214h1.098v1.098h.214v-1.098h1.098z"/></g><g><path fill="#f2f2f2" d="M500.15 295.857h-1.098v-1.097h-.214v1.097h-1.098v.214h1.098v1.098h.214v-1.098h1.098z"/></g><g><path fill="#f2f2f2" d="M304.31 344.027h-1.098v-1.097h-.214v1.097H301.9v.214h1.098v1.098h.214v-1.098h1.098z"/></g><g><path fill="#f2f2f2" d="M67.36 97.097h-1.098V96h-.214v1.097H64.95v.214h1.098v1.098h.214V97.31h1.098z"/></g><g><path fill="#f2f2f2" d="M224.36 1.097h-1.098V0h-.214v1.097h-1.098v.214h1.098V2.41h.214V1.31h1.098z"/></g><g><path fill="#f2f2f2" d="M366.36 92.097h-1.098V91h-.214v1.097h-1.098v.214h1.098v1.098h.214V92.31h1.098z"/></g><g><path fill="#f2f2f2" d="M473.64 350.047h-1.098v-1.097h-.214v1.097h-1.098v.214h1.098v1.098h.214v-1.098h1.098z"/></g><g><path fill="#f2f2f2" d="M269.36 375.937h-1.098v-1.097h-.214v1.097h-1.098v.214h1.098v1.098h.214v-1.098h1.098z"/></g><g><path fill="#f2f2f2" d="M32.41 129.007h-1.098v-1.097h-.214v1.097H30v.214h1.098v1.098h.214v-1.098h1.098z"/></g><g><path fill="#f2f2f2" d="M189.41 33.007h-1.098V31.91h-.214v1.097H187v.214h1.098v1.098h.214V33.22h1.098z"/></g><g><path fill="#f2f2f2" d="M331.41 124.007h-1.098v-1.097h-.214v1.097H329v.214h1.098v1.098h.214v-1.098h1.098z"/></g><g><path fill="#f2f2f2" d="M346.49 377.147h-1.098v-1.097h-.214v1.097h-1.098v.214h1.098v1.098h.214v-1.098h1.098z"/></g><g><path fill="#f2f2f2" d="M109.54 130.217h-1.098v-1.097h-.214v1.097h-1.098v.214h1.098v1.098h.214v-1.098h1.098z"/></g><g><path fill="#f2f2f2" d="M266.54 34.217h-1.098V33.12h-.214v1.097h-1.098v.214h1.098v1.098h.214V34.43h1.098z"/></g><g><path fill="#f2f2f2" d="M408.54 125.217h-1.098v-1.097h-.214v1.097h-1.098v.214h1.098v1.098h.214v-1.098h1.098z"/></g><g><path fill="#f2f2f2" d="M57.85 274.777h-1.098v-1.097h-.214v1.097H55.44v.214h1.098v1.098h.214v-1.098h1.098z"/></g><g><path fill="#e6e6e6" d="M409.682 191.91h-1.732v34.962h1.732z"/></g><g><path fill="#e6e6e6" d="M368.636 284.85L352.7 321.543l3.118 5.192-1.04 1.73 7.275 3.809v-2.077l2.772-.693 11.778-21.461z"/></g><g><path fill="#e6e6e6" d="M356.167 328.12s-11.778 18.346 1.386 21.116c13.164 2.769 2.425-19.385 2.425-19.385z"/></g><g><path fill="#fff" d="M373.137 319.809l-4.157 13.5-1.732 17.308-3.118 6.23 3.464 28.04 5.543 5.538 2.425 27.693v12.462l6.582 11.423-8.476 12.021a3.827 3.827 0 0 0 1.06 5.435 3.831 3.831 0 0 0 1.947.605c1.871.049 4.338-.479 7.547-2.138 10.047-5.192 9.7-10.039 9.7-10.039s6.236 0 6.582-4.846c.347-4.846-3.81-39.462-3.81-39.462l-3.811-14.885v-40.5h1.386l.692 34.615 3.118 12.808.347 5.539 4.503 55.385s20.093 5.539 21.132 1.039c1.04-4.5-7.621-7.269-7.621-7.269l5.196-10.039v-19.385l-1.732-4.154-3.118-28.039 5.196-5.538 2.772-3.462v-27.693l-3.465-10.73-1.039-9-5.543-13.847s-25.288-8.308-41.57 1.385z"/></g><g><path fill="#e9002c" d="M418.176 241.58a26.293 26.293 0 0 1-10.91 21.326 26.339 26.339 0 0 1-40.522-13.398 26.29 26.29 0 0 1 3.972-23.62l.007-.006a26.325 26.325 0 0 1 13.2-9.39 26.345 26.345 0 0 1 16.202.111 26.324 26.324 0 0 1 13.068 9.571 26.292 26.292 0 0 1 4.983 15.406z"/></g><g opacity=".1"><g opacity=".01"><path d="M414.434 230.676l-2.148 12.292c-16.14-41.864-41.813-16.148-42.256-15.698a26.345 26.345 0 0 1 35.569-6.298 26.315 26.315 0 0 1 8.835 9.704z"/></g></g><g><path fill="#fff" d="M415.124 229.286l-2.148 12.292c-16.14-41.864-41.813-16.148-42.256-15.698a26.345 26.345 0 0 1 35.569-6.298 26.315 26.315 0 0 1 8.835 9.704z"/></g><g><path fill="#fff" d="M411.516 224.101l3.609 12.519s-7.492 22.438-42.234 23.22l-1.138 3.205-3.81 1.038-1.733 7.27 4.85 46.039s-2.079 4.5 1.386 4.154c0 0 22.863-7.616 42.61-.692 0 0 4.157 1.73 3.117-2.077 0 0 13.857-8.654 12.818-17.654-1.04-9 1.04-50.886 1.04-50.886s2.078-12.115-4.158-14.885c0 0-9.158-12.809-16.357-11.25z"/></g><g><path fill="#e6e6e6" d="M403.918 311.57s-21.705 2.178-15.697 14.205c6.008 12.028 16.707-10.146 16.707-10.146z"/></g><g><path fill="#e6e6e6" d="M415.053 257.852s-3.81 4.5-2.425 11.77c1.386 7.27 6.582 23.539 6.582 23.539l-18.36 16.962 5.543 7.615 24.942-12.808 5.543-3.462a143.525 143.525 0 0 0-10.18-40.728l-.906-2.195s-6.582-2.77-10.739-.693z"/></g><g><path fill="#e6e6e6" d="M413.319 245.558a6.406 6.406 0 0 0 6.409-6.404 6.406 6.406 0 0 0-6.41-6.404 6.406 6.406 0 0 0-6.408 6.404 6.406 6.406 0 0 0 6.409 6.404z"/></g><g><path fill="#e6e6e6" d="M408.817 196.406a4.675 4.675 0 0 0 4.676-4.673 4.675 4.675 0 0 0-4.676-4.673 4.675 4.675 0 0 0-4.677 4.673 4.675 4.675 0 0 0 4.677 4.673z"/></g><g><path fill="#f2f2f2" d="M289.85 265.147h-1.098v-1.097h-.214v1.097h-1.098v.214h1.098v1.098h.214v-1.098h1.098z"/></g><g><path fill="#f2f2f2" d="M388.67 231.427h-1.098v-1.097h-.214v1.097h-1.098v.214h1.098v1.098h.214v-1.098h1.098z"/></g><g><path fill="#f2f2f2" d="M377.82 241.667h-1.098v-1.097h-.214v1.097h-1.098v.214h1.098v1.098h.214v-1.098h1.098z"/></g><g><path fill="#f2f2f2" d="M335.04 216.177a2.41 2.41 0 1 0 .002-4.819 2.41 2.41 0 0 0-.002 4.82z"/></g><g><path fill="#f2f2f2" d="M444.41 64.817a2.41 2.41 0 1 0 .002-4.819 2.41 2.41 0 0 0-.002 4.82z"/></g><g><path fill="#f2f2f2" d="M216.308 230.747c0 168.023-21.144 168.023-47.22 168.023-13.48 0-25.641 0-34.242-23.21-2.472-6.671-4.657-15.272-6.488-26.343-4.123-24.889-6.488-62.289-6.488-118.47 0-21.603 2.56-42.782 6.488-62.562a399.602 399.602 0 0 1 6.488-27.482 445.205 445.205 0 0 1 9.372-30.06 462.906 462.906 0 0 1 6.488-17.418C160.532 68.387 169.089 53 169.089 53s47.219 84.951 47.219 177.747z"/></g><g opacity=".1"><g opacity=".01"><path d="M150.708 93.22v292.939h-6.488v-275.52a462.877 462.877 0 0 1 6.488-17.419z"/></g></g><g><path fill="#3f3d56" d="M167.642 194.905c14.334 0 25.953-11.61 25.953-25.932 0-14.323-11.62-25.933-25.953-25.933s-25.952 11.61-25.952 25.933c0 14.322 11.62 25.932 25.952 25.932z"/></g><g><path fill="#e9002c" d="M224.6 382.92c-5.77-14.194-13.179-16.643-18.022-16.43v-2.3h-75.695v2.3c-4.843-.213-12.252 2.236-18.022 16.43-9.372 23.05 5.767 62.67 5.767 62.67s-8.09-55.256 18.776-55.62a31.787 31.787 0 0 0 8.428 7.641v14.861h43.387v-13.508a31.755 31.755 0 0 0 10.838-8.994c26.867.364 18.776 55.62 18.776 55.62s15.139-39.62 5.767-62.67z"/></g><g><path fill="#e9002c" d="M167.645 189.15c11.148 0 20.185-9.03 20.185-20.17 0-11.14-9.037-20.17-20.185-20.17-11.148 0-20.185 9.03-20.185 20.17 0 11.14 9.037 20.17 20.185 20.17z"/></g><g><path fill="#e9002c" d="M509.795 174.01h-1.205a49.407 49.407 0 0 0 14.583 34.718 49.482 49.482 0 0 0 34.824 14.38v-1.204a48.273 48.273 0 0 1-33.973-14.027 48.2 48.2 0 0 1-14.229-33.867z"/></g><g><path fill="#e9002c" d="M487.505 174.01H486.3a71.697 71.697 0 0 0 21.119 50.466 71.805 71.805 0 0 0 50.583 20.911v-1.204a70.605 70.605 0 0 1-49.73-20.56 70.497 70.497 0 0 1-20.767-49.613z"/></g><g><path fill="#e9002c" d="M464.595 174.01h-1.205c.15 52 42.53 94.258 94.607 94.258v-1.204c-51.413 0-93.251-41.716-93.402-93.054z"/></g></g></svg>