<svg xmlns="http://www.w3.org/2000/svg" width="577" height="331" viewBox="0 0 577 331"><defs><linearGradient id="m5i1a" x1="343.09" x2="343.09" y1="300.46" y2="147.52" gradientUnits="userSpaceOnUse"><stop offset="0" stop-color="gray" stop-opacity=".25"/><stop offset=".54" stop-color="gray" stop-opacity=".12"/><stop offset="1" stop-color="gray" stop-opacity=".1"/></linearGradient></defs><g><g><g><path fill="#325cfd" d="M0 0h411.5C502.903 0 577 74.097 577 165.5S502.903 331 411.5 331H0z"/></g><g><g/><g opacity=".1"><path fill="#e9002c" d="M348.406 301.997c18.45 0 33.406-1.477 33.406-3.299 0-1.821-14.956-3.298-33.406-3.298S315 296.877 315 298.698c0 1.822 14.957 3.299 33.406 3.299z"/></g><g><path fill="#f2f2f2" d="M259.164 32.997c14.713-5.478 32.624-.767 47.92 6.104 48.041 21.584 83.04 62.558 110.847 104.302 10.068 15.115 19.631 30.896 23.416 47.77 7.707 34.344-12.394 69.899-46.578 82.358-11.625 4.242-24.397 5.98-37.188 6.949-22.745 1.726-46.295 1.041-68.858-5.35-16.091-4.568-31.312-11.915-45.911-20.032-40.77-22.681-78.004-52.135-104.814-88.114-11.759-15.78-21.706-33.571-21.993-51.779-.287-18.208 11.56-36.504 31.051-39.6 8.059-1.28 16.583.052 24.899 1.422 12.244 2.02 24.654 4.144 36.757 3.263 12.505-.917 28.768-5.81 31.048-17.768 2.414-12.838 4.71-24.054 19.404-29.525z"/></g><g><path fill="#e9002c" d="M195.478 279.82s15.72-.949 13.866 10.085c0 0 .368 1.957-1.397 2.835 0 0-.026-.819-1.613-.542a7.091 7.091 0 0 1-1.706.085 3.557 3.557 0 0 1-2.088-.864s-4.42-1.827-6.137-9.064c0 0-1.274-1.575-1.221-1.983l2.65 1.135s-.905 1.919-.191 3.51c0 0 .084-3.438.596-3.36.1.017 1.378.653 1.378.653s-1.56 3.337-.385 5.765c0 0-.446-4.114.87-5.524l1.87 1.093s-1.824 3.449-.587 6.26c0 0-.325-4.315.977-5.996l1.694 1.305s-1.713 3.4-.667 5.736c0 0 .133-5.028 1.032-5.406 0 0 1.482 1.305 1.707 1.846 0 0-1.173 2.467-.446 3.769 0 0 .446-3.348.814-3.364 0 0 1.472 2.218 1.628 3.739 0 0-.065-2.261-1.273-3.951 0 0 1.427.245 2.26 1.171 0 0-.23-1.57-2.622-1.706 0 0-1.218-1.68-1.547-1.785 0 0 2.381-.199 3.824.444 0 0-1.27-1.481-4.26-.81l-1.671-1.363s3.137-.43 4.462.046c0 0-1.527-1.305-4.912-.356l-1.817-1.09s2.67-.577 4.263-.368c0 0-1.68-.907-4.797.075l-1.303-.584s1.954-.385 2.53-.447c.577-.062.603-.219.603-.219a6.771 6.771 0 0 0-3.677.408s-2.756-.988-2.707-1.178z"/></g><g opacity=".1"><path fill="#e9002c" d="M206.307 295.585c6.145 0 11.126-.843 11.126-1.883s-4.981-1.882-11.126-1.882-11.127.843-11.127 1.882c0 1.04 4.982 1.883 11.127 1.883z"/></g><g><path fill="#e9002c" d="M174.423 272.402s8.863-.536 7.818 5.686a1.513 1.513 0 0 1-.785 1.599s-.017-.46-.91-.304c-.316.055-.639.07-.96.046a1.972 1.972 0 0 1-1.18-.486s-2.488-1.034-3.465-5.112c0 0-.716-.891-.69-1.12l1.498.653s-.511 1.083-.11 1.98c0 0 .048-1.94.325-1.895.059 0 .778.375.778.375s-.879 1.882-.214 3.262c0 0-.255-2.32.488-3.115l1.052.616s-1.026 1.958-.326 3.53c0 0-.179-2.433.55-3.38l.955.744s-.977 1.915-.374 3.233c0 0 .075-2.835.583-3.047 0 0 .834.738.96 1.041 0 0-.65 1.39-.25 2.124 0 0 .25-1.886.46-1.896 0 0 .83 1.25.914 2.108a4.573 4.573 0 0 0-.716-2.228c.479.087.922.314 1.273.652 0 0-.127-.884-1.478-.962 0 0-.688-.95-.87-1.005 0 0 1.342-.114 2.156.248 0 0-.716-.835-2.404-.457l-.941-.77s1.769-.241 2.518.026c0 0-.863-.737-2.772-.199l-1.023-.616a9.291 9.291 0 0 1 2.4-.206s-.944-.512-2.703.043l-.733-.327s1.105-.218 1.427-.251c.323-.033.342-.124.342-.124a3.835 3.835 0 0 0-2.075.232s-1.544-.59-1.518-.698z"/></g><g opacity=".1"><path fill="#e9002c" d="M180.533 281.287c3.465 0 6.274-.476 6.274-1.063 0-.588-2.809-1.064-6.274-1.064-3.464 0-6.273.476-6.273 1.064 0 .587 2.809 1.063 6.273 1.063z"/></g><g><path fill="#e9002c" d="M392.467 278.384s10.7-.652 9.446 6.852a1.843 1.843 0 0 1-.952 1.931s-.02-.558-1.097-.369a4.817 4.817 0 0 1-1.163.056 2.392 2.392 0 0 1-1.42-.587s-3.01-1.243-4.18-6.17c0 0-.866-1.073-.83-1.347l1.805.77s-.616 1.305-.13 2.391c0 0 .058-2.342.403-2.284.072 0 .938.45.938.45s-1.062 2.284-.26 3.916c0 0-.303-2.8.593-3.759l1.27.74s-1.241 2.35-.398 4.265c0 0-.218-2.936.652-4.082l1.153.9s-1.166 2.314-.456 3.916c0 0 .094-3.42.707-3.68 0 0 1.006.89 1.16 1.256 0 0-.799 1.68-.304 2.567 0 0 .303-2.283.554-2.283 0 0 1.003 1.51 1.108 2.544a5.49 5.49 0 0 0-.864-2.688c.58.11 1.114.387 1.538.796 0 0-.156-1.067-1.788-1.161 0 0-.828-1.145-1.05-1.214 0 0 1.63-.137 2.607.3 0 0-.867-1.005-2.903-.548l-1.136-.93s2.133-.293 3.039.03c0 0-1.043-.891-3.346-.242l-1.237-.74s1.817-.392 2.902-.252c0 0-1.143-.616-3.257.053l-.886-.398s1.332-.265 1.723-.304c.39-.039.41-.15.41-.15a4.618 4.618 0 0 0-2.501.277s-1.883-.698-1.85-.822z"/></g><g opacity=".1"><path fill="#e9002c" d="M399.833 289.114c4.183 0 7.573-.574 7.573-1.282 0-.708-3.39-1.282-7.573-1.282-4.182 0-7.573.574-7.573 1.282 0 .708 3.39 1.282 7.573 1.282z"/></g><g><path fill="url(#m5i1a)" d="M380.715 203.108c-.808 1.24-1.615 4-1.576 4.48.039.48-2.26 3.037-2.912 3.836a16.21 16.21 0 0 0-1.417 2.359l-2.153 3.98a21.346 21.346 0 0 1-3.89-1.761c-.446.055-.771.084-.771.084a15.282 15.282 0 0 1-1.77-.27l.04.296c.378 2.986.651 5.449.651 5.449s-.726 2.64-1.739 1.84l-.055-.046c-.026.13-.052.274-.082.434-.257 1.455-.648 4.098-.511 6.199.208 3.076-.443 7.752-.443 7.752s-1.407-.115-3.479-.242l-.179.47c-.199.519-.42 1.09-.651 1.667-.013.033-.043.069-.043.101l-.088.225c-.02.05-.039.098-.062.147l-.078.2c-.032.074-.065.15-.094.224l-.062.15c-.042.105-.088.206-.13.304a.93.93 0 0 1-.043.1c-.035.083-.088.216-.104.249-.016.032-.042.065-.042.098l-.111.248c-.01.026-.033.049-.033.075-.146.326-.286.623-.416.88l-.017.03c-.036.075-.075.147-.11.215l-.017.03c-.039.071-.075.14-.11.202l-.111.176c-.929 1.397-1.58 3.915-1.58 3.915l-.847 5.158s-.176 1.25-.25 2.372c-.033.408-.033.78-.033 1.106.003.085-.007.264-.026.515v.111c-.079.937-.277 2.721-.522 4.809-.048.431-.097.865-.15 1.305.13 2.611.082 5.227-.143 7.83 0 0 .61 9.713.447 10.633-.095.532.355 1.719.749 2.737l.12-.108s2.16 2.297 2.12 4.894c-.038 2.597-.24 6.157-.24 6.157s-.2 1.442.244 1.84c.443.398 0 2.398 0 2.398s-3.805 3.487-6.997-.294c0 0-.625-2.16-.364-3.553.02-.104.045-.258.071-.431.039-1.511.16-3.02.362-4.518l.374-2.718c-.4-.039-1.01-2.199-.726-2.718.283-.518-.244-2.717-.244-2.717l-.955-2.953-.123.291-.017.039-.052.13-.016.043a10 10 0 0 0-.18.463v.019c-.019.049-.055.102-.055.154v.032c-.058.177-.114.337-.163.503l-.048.156v.036c-.043.144-.082.32-.114.47a.152.152 0 0 0 0 .033c-.026.045-.026.088-.026.13v.056l-.02.127v.039c-.013.074-.02.146-.02.215v.441a6.93 6.93 0 0 1-.293 3.116.188.188 0 0 0 0 .045l-.052.128-.03.078c-.022.059-.048.111-.07.16v.026c-.05.1-.11.196-.18.284v.019l.12 10.466s-1.488 2.307-4.93 1.827c-3.444-.479-2.949-4.234-2.467-4.835.482-.6.727-3.239.727-3.239s.606-4.313 1.01-5.873c.221-.851.618-1.2.944-1.344a9.91 9.91 0 0 1 .391-1.011c.353-.672.646-1.373.876-2.095.077-.24.096-.495.056-.744a2.44 2.44 0 0 1-.02-.492v-.16a.76.76 0 0 0 0-.088v-.19c.104-2.613.723-9.839 1.049-13.588-.538-2.77-.88-4.943-.801-5.22.201-.734-.326-5.954-.326-5.954s-.645-5.318-1.534-6.998c-.59-1.11-1.746-5.282-2.46-7.98l-.127-.49a5.53 5.53 0 0 1-2.185-.525s.534-4.636-.769-7.034c-.873-1.631-1.505-8.913-1.524-13.702v-.695c-1.075.89-1.828 2.146-2.078 2.022a59.009 59.009 0 0 1-7.398-4.893c-2.954-2.408 5.277-15.87 6.209-16.91.931-1.04 2.83-13.03 2.83-13.03a2.361 2.361 0 0 1-1.13.799c-.61.12-1.74.95-2.993 2.006-1.254 1.057-6.997 0-6.997 0-4.163.203-4.931-3.357-4.931-3.357s-2.062-4.805-2.144-6.525c-.081-1.719-3.195-8.632-3.195-8.632a6.707 6.707 0 0 1 2.785-2.51c-.228-.74-.554-1.373-1.007-1.568-1.293-.562-15.686-5.919-10.592-7.716 5.094-1.798 12.938 4.1 12.938 4.1s.4.138 1.052 1.46c.339.69.782 1.872 1.124 2.834l.104.297.228.023s1.86 4.049 1.86 4.998c0 .95 2.263 5.546 2.263 5.546s1.134 1.158.73 2.079c-.404.92.928.717.928.717l1.782-1.396s1.537-.989 2.264-1.162c.726-.172 1.98-1.477 1.98-1.477s1.46-.96 1.336-1.12c-.124-.16.798-.916 1.332-1.158.534-.241.778-.76 1.303-1.719.524-.96 1.329-.241 1.736-.401.407-.16 5.459.48 5.944.6.486.12 2.306.173 3.238-.48a2.437 2.437 0 0 1 2.046-.228c.181-.402.341-.814.478-1.233l.069-.212a8.7 8.7 0 0 1-3.831-3.186 8.72 8.72 0 0 1-1.459-4.768 8.601 8.601 0 0 1 2.156-5.706c.12-.14.251-.278.381-.408h-.02c-.484-.235-1.208-.747-1.208-1.328a.816.816 0 0 1 .238-.6c.192-.206.466-.31.652-.51a1.09 1.09 0 0 0 .263-.805c-.006-.365-.097-.763-.097-1.145-.007-.16.009-.32.045-.477.163-.655.798-1.04 1.489-1.164v.03c.264-.05.534-.062.801-.037.935.098 1.808.522 2.74.627 1.446.153 2.85-.464 4.26-.826 1.41-.362 3.124-.365 4.091.689.967 1.053.906 2.89 2.117 3.663.564.327 1.264.382 1.867.653a3.85 3.85 0 0 1 1.58 1.494 7.742 7.742 0 0 1 1.195 5.005c-.101.95-.378 1.87-.489 2.815a8.086 8.086 0 0 0 .196 2.937c.254.995.82 2.029 1.798 2.355.232.048.457.124.67.225.57.353.496 1.178.352 1.83l-.602 2.67c.567.427 1.446.24 1.997.69.215.195.374.442.462.719a3.92 3.92 0 0 1-.922 4.055c.02.052.052.098.052.15.036.111.066.228.092.35.488 2.319.325 2.6.651 2.997a27.585 27.585 0 0 0 1.977 2.989c.444.543.699 1.217.727 1.918 0 0 2.413 3.556 3.195 3.958.782.4 1.954 3.118 1.954 3.118s1.9 1.24 1.9 2.64c.03 1.166.15 2.329.354 3.478.04.199-.283 2.691-1.09 3.931zm-6.957-2.183c-.365-.55 0-1.63 0-1.63s-2.385-3.12-2.71-4.917c-.326-1.798-2.508-2.995-2.508-2.995-.01 0-1.13-.438-1.212 0a89.05 89.05 0 0 1-.283 1.396s.192 2.32-.652 3.24c-.844.92-.977 4.795-.977 4.795s-1.365 3.837-.713 5.038c.224.42.576 2.509.931 5.03.316-.052.619-.088.886-.11.26-.242 1.896-1.749 2.752-2.043.929-.32 1.821-2.956 1.86-3.556.04-.6.847-2.6 1.697-2.959.85-.359 1.294-.737.929-1.289z"/></g><g><path fill="#4c4981" d="M314.35 168.052a6.518 6.518 0 0 1 6.514-3.073v4.668h-2.83l-2.215-.56z"/></g><g opacity=".1"><path d="M314.35 168.052a6.518 6.518 0 0 1 6.514-3.073v4.668h-2.83l-2.215-.56z"/></g><g><path fill="#ae6e79" d="M321.082 166.215l-3.47 2.434s-.029-.486-.117-1.151c-.172-1.26-.56-3.149-1.397-3.514-1.274-.561-15.452-5.905-10.423-7.703 5.03-1.797 12.745 4.095 12.745 4.095s.398.137 1.033 1.451c.326.692.772 1.87 1.108 2.832.309.868.52 1.557.52 1.557z"/></g><g><path fill="#4c4981" d="M348.788 169.966l.394-.186 1.107 1.266-.905 1.934-1.544-.62.358-1.546z"/></g><g><path fill="#444053" d="M343.544 283.272s-.997-.117-1.394 1.439c-.398 1.556-.997 5.872-.997 5.872s-.238 2.633-.717 3.233c-.479.6-.954 4.35 2.43 4.826 3.384.476 4.86-1.824 4.86-1.824l-.12-10.463z"/></g><g><path fill="#444053" d="M355.351 283.75s2.13 2.284 2.091 4.874c-.039 2.59-.24 6.143-.24 6.143s-.196 1.44.24 1.837c.437.398 0 2.395 0 2.395s-3.745 3.481-6.892-.294c0 0-.612-2.156-.358-3.546.254-1.39.964-7.638.964-7.638z"/></g><g><path fill="#ae6e79" d="M360.63 236.036s-2.15 6.022-3.069 7.419c-.918 1.396-1.55 3.915-1.55 3.915l-.837 5.145a28.747 28.747 0 0 0-.28 3.47c.038 1.16-2.072 18.033-2.072 18.033l-3.345 4.27s-1.473 2.992-1.235 4.242-.16 3.233-.651 3.83c0 0-.078 3.915-.199 4.786-.12.871.44 3.354 0 3.791-.44.437-6.293.241-6.453-.48-.16-.72.717-4.189.717-4.189l.518-3.35s1.036-1.834.798-2.434c-.238-.6.436-1.993.476-2.114.039-.12 1.117-2.075.918-2.832-.199-.757 1.254-16.854 1.254-16.854l4.101-28.844z"/></g><g opacity=".1"><path d="M360.63 236.04s-.326.906-.773 2.097c-.71 1.88-1.732 4.466-2.296 5.321-.915 1.396-1.554 3.915-1.554 3.915l-.837 5.148a28.973 28.973 0 0 0-.277 3.472c0 .456-.306 3.37-.697 6.727a1796.417 1796.417 0 0 1-1.374 11.304l-3.345 4.271s-.17.326-.381.842c-.42.979-1.013 2.567-.854 3.386.238 1.237-.16 3.23-.651 3.83 0 0-.082 3.915-.199 4.787-.117.87.44 3.35 0 3.79-.44.441-6.293.242-6.453-.476-.16-.717.717-4.189.717-4.189l.518-3.354s1.036-1.833.795-2.433c-.241-.6.44-1.994.479-2.115.039-.12 1.117-2.075.918-2.831-.153-.578.652-10.03 1.026-14.512l.209-2.326 3.527-24.815.287-2 .286-2.029z"/></g><g><path fill="#ae6e79" d="M357.046 296.044c.036.44-5.619 1.08-6.427.6-.807-.48 0-6.424 0-6.424l.368-2.711c-.394-.042-.993-2.196-.716-2.714.277-.52-.238-2.712-.238-2.712l-.938-2.936-.573-1.797c-.932-2.059-2.28-7.932-3.117-12.316-.528-2.754-.864-4.924-.789-5.2.199-.719-.325-5.945-.325-5.945s-.652-5.308-1.512-6.982c-.583-1.11-1.72-5.275-2.423-7.964-.358-1.38-.606-2.371-.606-2.371s6.02-.506 9.67-.682c1.678-.082 2.857-.092 2.72.045-.136.137-.172.868-.166 1.925.017 2.737.398 7.553.802 8.848.557 1.795 1.114 7.178.876 7.7-.238.522-.16 3.99-.16 3.99.41 1.409.647 2.863.704 4.33a58.615 58.615 0 0 1-.137 7.793s.596 9.696.437 10.613c-.16.917 1.273 3.791 1.273 4.349 0 .558.397 4.349.397 4.349s.854 5.775.88 6.212z"/></g><g><path fill="#ae6e79" d="M360.188 179.499l-.684.74-.447.483-2.605 2.806-6.733.76-3.583-.959-.886-.238s0-1.801.16-3.96c.228-2.77.772-6.134 2.071-7.051.651-.51 1.17-1.17 1.515-1.922.26-.519.478-1.058.651-1.611.026-.072.046-.14.069-.213a18.04 18.04 0 0 0 .632-2.959s.86-.476 2.055-1.03c3.117-1.459 8.501-3.472 6.628 1.03a17.64 17.64 0 0 0-.703 2.023c-.03.101-.056.202-.078.3-.626 2.506-.212 4.026.254 4.865.078.145.169.283.27.414.127.175.28.33.453.46l.775 4.93.065.407z"/></g><g opacity=".1"><path d="M359.034 165.617c-.355.854.173-.699 0 0-1.42 1.011-4.765 3.892-6.645 3.892-1.27 0-1.651-.232-2.739-.725.33-1.032.564-2.092.7-3.167 0 0 11.274-6.225 8.684 0z"/></g><g><path fill="#ae6e79" d="M361.908 160.378a8.713 8.713 0 0 1-2.233 5.817 8.685 8.685 0 0 1-6.451 2.88 8.673 8.673 0 0 1-4.825-1.465 8.711 8.711 0 0 1-1.316-13.382 8.68 8.68 0 0 1 9.464-1.886 8.687 8.687 0 0 1 3.897 3.204 8.708 8.708 0 0 1 1.464 4.832z"/></g><g opacity=".1"><path d="M363.138 198.933l-1.238 3.233s-1.006.043-2.576.091c-5.3.17-16.977.385-17.498-.978a3.473 3.473 0 0 1-.183-1.074c-.068-2.078.9-5.269.9-5.269s.556-6.384.556-6.662c0-.277-.478-4.75-.478-4.75l.957-3.589 2.668-1.876s1.195 1.837 1.912 1.994c.717.156 1.674 1.04 1.674 1.04s2.349 1.436 3.108.637c.759-.8 6.65-4.31 6.65-4.31l3.108 3.432z"/></g><g><path fill="#fff" d="M363.138 199.433l-1.238 3.23s-1.006.045-2.576.094h-.153c-.678.023-1.453.046-2.28.062-4.212.098-10.013.124-13.045-.326-1.14-.163-1.886-.398-2.01-.717a2.886 2.886 0 0 1-.143-.594 5.833 5.833 0 0 1-.04-.48c-.068-2.078.9-5.269.9-5.269s.556-6.385.556-6.662c0-.277-.478-4.75-.478-4.75l.957-3.589 1.834-1.285.834-.588c.28.421.586.824.915 1.208.257.345.601.617.997.786.72.16 1.674 1.04 1.674 1.04s2.349 1.436 3.108.637c.576-.61 4.159-2.806 5.814-3.808.508-.31.837-.502.837-.502l.417.463 2.69 2.97z"/></g><g opacity=".1"><path d="M321.076 166.216l-3.469 2.434s-.03-.486-.117-1.152c1.713-.724 2.756-2.326 3.055-2.838.32.868.531 1.556.531 1.556z"/></g><g><path fill="#4c4981" d="M333.264 174.477l-.755-.202s-1.238 1.305-1.955 1.478c-.716.173-2.228 1.155-2.228 1.155l-1.755 1.396s-1.303.202-.916-.718c.388-.92-.716-2.075-.716-2.075s-2.231-4.587-2.231-5.546c0-.96-1.844-4.985-1.844-4.985s-2.313 4.509-6.534 3.073c0 0 3.068 6.9 3.146 8.617.079 1.716 2.111 6.502 2.111 6.502s.76 3.553 4.86 3.354c0 0 5.658 1.053 6.892 0 1.235-1.054 2.349-1.883 2.932-2.004.583-.12 1.114-.796 1.114-.796v-4.743z"/></g><g opacity=".1"><path d="M326.18 178.98s.997 3.713.358 4.11"/></g><g opacity=".1"><path d="M359.33 202.742c-5.3.17-16.976.382-17.498-.979a3.473 3.473 0 0 1-.182-1.073l17.312.913z"/></g><g opacity=".1"><path d="M360.632 236.036s-.325.907-.772 2.097c-2.198-.133-5.11-.274-7.876-.293-.977 0-1.934 0-2.84.032-1.922.06-3.583.216-4.641.516a12.29 12.29 0 0 1-4.137.535c-.358-1.38-.606-2.372-.606-2.372s6.02-.506 9.67-.682l.287-2.029z"/></g><g><path fill="#444053" d="M365.295 221.436l-.678 1.435s-.094.427-.215 1.106c-.254 1.462-.651 4.098-.501 6.199.198 3.073-.44 7.739-.44 7.739s-14.657-1.237-18.957 0c-4.3 1.236-6.417 0-6.417 0s.521-4.627-.755-7.021c-.87-1.632-1.482-8.914-1.502-13.703 0-2.209.11-3.882.388-4.222.876-1.076 4.618-11.849 4.618-11.849l.854.046 2.28.12 12.964.686 2.035.107.215.653z"/></g><g><path fill="#4c4981" d="M371.746 216.643l.12 1.28s-6.42-2.095-6.094-4.67c.326-2.574 0-2.283 0-2.283l5.16.437z"/></g><g opacity=".1"><path d="M371.746 216.643l.12 1.28s-6.42-2.095-6.094-4.67c.326-2.574 0-2.283 0-2.283l5.16.437z"/></g><g opacity=".1"><path d="M330.464 180.017c.655.558 1.428.96 2.26 1.178a1.471 1.471 0 0 1-.651-.326c-.46-.326-.896-.682-1.339-1.028-.358-.28-.804-.747-1.244-.861.288.379.614.726.974 1.037z"/></g><g opacity=".1"><path d="M330.558 181.694c.206.234.373.5.495.786a4.76 4.76 0 0 1-.036 2.47l-1.03-2.486c-.179-.424-.358-.848-.573-1.253-.094-.173-.687-.894-.619-1.044.183-.424 1.57 1.289 1.763 1.527z"/></g><g opacity=".1"><path d="M359.274 195.468a3.314 3.314 0 0 0 1.873-.878c-1.06.134-2.062.551-3.105.77a4.605 4.605 0 0 1-2.892-.268c1.199.588 2.847.607 4.124.376z"/></g><g opacity=".1"><path d="M356.282 188.155a.725.725 0 0 1-.537-.134 56.439 56.439 0 0 1-2.352-1.429c-.753-.486-1.661-.979-2.303-1.592 1.58 1.429 3.052 2.636 5.192 3.155z"/></g><g opacity=".1"><path d="M358.496 196.618a4.95 4.95 0 0 0 1.244-.1c.414-.087.78-.327 1.023-.673a.585.585 0 0 0-.433.069 7.298 7.298 0 0 1-4 .48c.648.276 1.479.221 2.166.224z"/></g><g opacity=".1"><path d="M350.948 215.146c-.829.25-1.681.418-2.544.499-.67.031-1.343.018-2.013-.04l-3.257-.205-1.628-.104c-.193 0-.978 0-.59-.388.196-.19 1.283-.069 1.564-.079.54-.017 1.083-.027 1.628-.029 1.078 0 2.16 0 3.238.065 1.208.059 2.397.15 3.602.28z"/></g><g opacity=".1"><path d="M347.172 216.763c-.553-.022-1.267.307-1.837.379-.637.075-1.28.1-1.922.075a10.702 10.702 0 0 1-3.703-.757c2.485.127 4.977.202 7.462.303z"/></g><g opacity=".1"><path d="M340.194 218.474c.241.05.478.115.71.196 1.375.392 2.837.046 4.235-.3-.349.525-.977.75-1.606.894a7.434 7.434 0 0 1-3.127.114c-.326-.065-1.143-.183-1.303-.522-.267-.499.785-.43 1.091-.382z"/></g><g opacity=".1"><path d="M347.899 221.048c.412.084.819.193 1.218.326 1.547.385 3.153-.144 4.707-.5a21.877 21.877 0 0 1 5.697-.528c-.342 0-.886.3-1.222.402a27.184 27.184 0 0 1-3.993.887 27.317 27.317 0 0 1-5.463.238c-.833-.045-2.28.04-2.993-.382a3.295 3.295 0 0 1 2.049-.443z"/></g><g opacity=".1"><path d="M348.488 171.836s.078 3.674-.518 5.35c-.19.523-.482 1.485-.802 2.565a355.28 355.28 0 0 0-1.022 3.589c-.294 1.05-.489 1.755-.489 1.755s-1.345 10.975-1.694 16.205c0 .091 0 .186-.02.274-.019.294-.051.6-.1.917-.775 5.194-5.248 13.203-6.75 13.843-.467.215-.895.51-1.263.87 0-2.208.11-3.882.388-4.22.876-1.078 4.618-11.85 4.618-11.85l.854.045a5.829 5.829 0 0 1-.04-.48c-.068-2.077.9-5.268.9-5.268s.557-6.385.557-6.662c0-.278-.48-4.75-.48-4.75l.958-3.59 1.834-1.285c.228-2.77.772-6.133 2.072-7.05.65-.51 1.17-1.169 1.514-1.922.258.036-.211-.192-.211-.192z"/></g><g><path fill="#4c4981" d="M349.182 169.778a2.368 2.368 0 0 0-2.016.228c-.918.653-2.71.597-3.189.48-.478-.118-5.456-.76-5.863-.6-.407.16-1.195-.558-1.713.4-.518.96-.756 1.475-1.274 1.714-.517.238-1.436.998-1.302 1.158.133.16-1.303 1.115-1.303 1.115l2.905 9.462s-1.873 11.967-2.788 13.004c-.915 1.038-9.042 14.482-6.133 16.877a57.88 57.88 0 0 0 7.29 4.894c.325.16 1.472-1.994 3.064-2.672 1.593-.679 6.534-9.657 6.84-14.763.307-5.106 1.714-16.476 1.714-16.476s1.713-6.225 2.31-7.901c.595-1.677.517-5.351.517-5.351z"/></g><g opacity=".1"><path d="M365.292 221.435l-.678 1.435s-.094.428-.215 1.106a.609.609 0 0 1-.325-.147c-.997-.799-6.84-6.822-7.13-12.169a96.853 96.853 0 0 1-.043-8.857c.02-.477.04-.764.04-.826 0 0 4.54-5.507 4.022-7.458-.518-1.95-1.713-12.397-1.713-12.397l-.176-1.37-.303-2.317-.723-5.605.749.176c.127.175.28.33.453.46l.775 4.93 2.69 2.969.44 18.074-1.238 3.23s-1.006.045-2.576.094h-.153z"/></g><g><path fill="#4c4981" d="M367.804 191.597s-1.114-.44-1.192 0c-.078.44-.28 1.393-.28 1.393s.198 2.317-.652 3.234c-.85.916-.977 4.786-.977 4.786s-1.342 3.83-.707 5.027c.231.434.59 2.61.948 5.22.228 1.632.453 3.423.651 5.06.362 2.976.632 5.439.632 5.439s-.72 2.633-1.716 1.834c-.997-.8-6.84-6.822-7.127-12.17a96.734 96.734 0 0 1-.052-8.626c.026-.682.052-1.067.052-1.067s4.54-5.507 4.023-7.46c-.518-1.955-1.714-12.398-1.714-12.398l-.208-1.615-.225-1.736-.052-.382-.72-5.546c.127.03 4.596 1.04 5.186 1.631.59.59 4.234 1.436 4.234 1.436a3.185 3.185 0 0 1 2.26 2.323c.036.11.062.228.089.349.478 2.316.325 2.593.651 2.995.326.401-3.104 10.273-3.104 10.273z"/></g><g opacity=".1"><path d="M365.621 216.32c-1.629-.326-4.045-1.08-3.99-2.744.049-1.556 1.918-2.117 3.335-2.316.228 1.625.453 3.422.655 5.06z"/></g><g><path fill="#ae6e79" d="M370.665 215.484c-.065.14-.326.261-.697.369-.871.208-1.756.353-2.648.434 0 0-5.537-.44-5.46-2.956.06-1.804 2.561-2.284 3.965-2.391.31-.03.623-.043.935-.04 0 0 4.143 4.069 3.905 4.584z"/></g><g opacity=".1"><path d="M370.67 215.484c-.065.14-.326.261-.697.369-1.443-1.935-3.456-4.418-4.443-4.636l.3-.277c.31-.03.622-.043.934-.04 0 0 4.144 4.069 3.906 4.584z"/></g><g><path fill="#4c4981" d="M369.275 181.06l1.628.241a28.351 28.351 0 0 0 1.955 2.992c.437.545.689 1.216.716 1.915 0 0 2.391 3.55 3.147 3.948.756.398 1.912 3.112 1.912 3.112s1.873 1.237 1.873 2.633c.033 1.164.153 2.325.358 3.471.042.2-.277 2.676-1.075 3.915-.798 1.24-1.596 3.974-1.554 4.464.043.489-2.23 3.034-2.866 3.83-.53.744-.996 1.532-1.394 2.355l-2.11 3.99s-4.463-6.583-6.095-6.942c0 0 1.83-1.756 2.746-2.075.915-.32 1.795-2.936 1.834-3.55.039-.613.837-2.594 1.67-2.936.834-.343 1.277-.718.92-1.279-.36-.561 0-1.631 0-1.631s-2.353-3.113-2.672-4.894c-.319-1.781-2.469-2.992-2.469-2.992l-1.234-3.034z"/></g><g opacity=".1"><path d="M375.198 195.95a5.164 5.164 0 0 1 3.215-1.22c-.756.13-1.55.297-2.104.825a4.971 4.971 0 0 0-.583.744c-.189.271-1.726 2.229-1.954 1.919-.381-.454 1.117-2.004 1.426-2.268z"/></g><g opacity=".1"><path d="M371.59 194.059a1.376 1.376 0 0 0 1.137-.806c.194-.45.314-.928.355-1.416.116-.817.28-1.626.492-2.424a1.124 1.124 0 0 0-.069-.979 3.314 3.314 0 0 0-.352-.724c-.293.326-.377 1.086-.498 1.524a47.87 47.87 0 0 0-.417 1.63c-.068.262-.609 3.195-.648 3.195z"/></g><g opacity=".1"><path d="M370.18 177.96c-.16.21-.346.401-.55.568-.652.519-1.515.956-1.597 1.775.023.266-.01.534-.097.786-.209.36-.72.327-1.127.258a1.952 1.952 0 0 1-.955-.352c-.426-.366-.466-1.018-.791-1.478a2.009 2.009 0 0 0-1.629-.721c-.609-.02-1.215.117-1.824.143a5.004 5.004 0 0 1-1.17-.078 4.846 4.846 0 0 1-1.173-.35 3.485 3.485 0 0 1-.386-.182 5.143 5.143 0 0 1-1.124-.783c-.596-.548-1.092-1.305-1.043-2.117.03-.5.254-.96.326-1.452.244-1.41-.69-2.74-1.703-3.749-.404-.401-.834-.79-1.238-1.197a5.968 5.968 0 0 1-1.456-2.082 6.208 6.208 0 0 1-.26-2.61c.09-.89.116-1.787.074-2.681-.3-3.171-3.003-5.602-5.706-6.923l-.121-.062a8.682 8.682 0 0 1 6.43-2.982 8.668 8.668 0 0 1 6.505 2.81 8.698 8.698 0 0 1 2.249 6.73 8.705 8.705 0 0 1-3.507 6.165c-.03.102-.055.203-.078.3-.625 2.506-.212 4.026.254 4.865.127.03 4.596 1.04 5.186 1.631.59.59 4.234 1.436 4.234 1.436a3.184 3.184 0 0 1 2.277 2.332z"/></g><g><path fill="#444053" d="M346.056 152.37c.179-.206.45-.31.632-.51.563-.613 0-1.614.205-2.423.221-.897 1.322-1.289 2.24-1.194.92.094 1.78.518 2.698.623 1.426.16 2.807-.46 4.198-.822 1.391-.362 3.072-.382 4.03.685.957 1.067.892 2.884 2.084 3.657.55.356 1.244.395 1.84.653a3.784 3.784 0 0 1 1.557 1.49 7.82 7.82 0 0 1 1.18 4.995c-.101.947-.375 1.867-.486 2.813a8.203 8.203 0 0 0 .196 2.936c.25.979.794 2.036 1.768 2.349.225.05.444.125.652.225.563.352.488 1.181.345 1.827l-.58 2.679c.557.424 1.424.241 1.955.688.212.195.37.442.456.718a3.921 3.921 0 0 1-1.17 4.287c-.651.518-1.514.956-1.596 1.771.025.266-.008.535-.097.786-.206.36-.72.327-1.127.258a1.952 1.952 0 0 1-.952-.352c-.43-.366-.465-1.018-.791-1.478a2.017 2.017 0 0 0-1.629-.721c-.612-.02-1.215.117-1.827.147a5.395 5.395 0 0 1-3.84-1.39c-.6-.551-1.091-1.305-1.046-2.12.03-.497.254-.96.326-1.453.24-1.406-.69-2.74-1.704-3.748-1.013-1.008-2.202-1.938-2.697-3.279-.619-1.66-.02-3.514-.185-5.275-.3-3.175-3-5.602-5.707-6.927-.603-.31-1.629-1.096-.928-1.895z"/></g><g opacity=".1"><path d="M367.364 179.762c-.43-.368-.466-1.017-.792-1.478a2.024 2.024 0 0 0-1.628-.724c-.613-.02-1.219.118-1.828.147a5.38 5.38 0 0 1-3.853-1.393c-.6-.548-1.088-1.305-1.042-2.117.029-.5.254-.963.325-1.452.245-1.41-.69-2.744-1.703-3.752-1.013-1.008-2.199-1.938-2.697-3.279-.616-1.657 0-3.51-.183-5.275-.303-3.175-3.003-5.602-5.706-6.927-.632-.31-1.658-1.096-.958-1.895.176-.206.446-.31.629-.51.563-.61 0-1.614.208-2.42.04-.16.11-.312.205-.447-.68.127-1.303.512-1.469 1.165-.198.809.359 1.81-.205 2.424-.182.199-.453.303-.632.505-.7.8.326 1.59.958 1.896 2.707 1.325 5.407 3.755 5.707 6.926.166 1.765-.434 3.618.185 5.279.495 1.338 1.684 2.284 2.697 3.279 1.013.995 1.955 2.339 1.704 3.748-.138.478-.246.962-.326 1.452-.046.813.446 1.57 1.046 2.118a5.366 5.366 0 0 0 3.85 1.393c.612-.03 1.215-.163 1.827-.147a2.022 2.022 0 0 1 1.629.724c.325.46.361 1.113.791 1.478.28.198.609.319.951.35.407.074.922.1 1.127-.255a.883.883 0 0 0 .091-.47 1.871 1.871 0 0 1-.908-.343z"/></g><g><path fill="#e9002c" d="M319.962 138.141h-22.547v22.237h22.53zm-.359-11.292c0-23.95 32.79-27.062 32.79-54.399 0-24.152-19.572-43.45-43.721-43.45a43.586 43.586 0 0 0-16.743 3.313 43.642 43.642 0 0 0-14.195 9.492 43.723 43.723 0 0 0-9.476 14.217 43.78 43.78 0 0 0-3.308 16.77h21.863c0-11.63 9.837-22.031 21.859-22.031 12.022 0 21.862 9.647 21.862 21.69 0 21.861-32.793 19.842-32.793 54.398z"/></g><g opacity=".1"><path fill="#e9002c" d="M207.572 148.003h-5.81v5.749h5.81zm-.088-2.91c0-6.173 8.453-6.975 8.47-14.022a11.3 11.3 0 0 0-3.398-7.85 11.264 11.264 0 0 0-15.81.061 11.3 11.3 0 0 0-3.336 7.877h5.635a5.77 5.77 0 0 1 1.669-3.974 5.751 5.751 0 0 1 3.953-1.703 5.601 5.601 0 0 1 3.975 1.628 5.618 5.618 0 0 1 1.66 3.967c0 5.641-8.453 5.122-8.453 14.029h5.636z"/></g><g opacity=".1"><path fill="#e9002c" d="M251.569 187.956h-5.811v5.733h5.81zm-.085-2.91c0-6.172 8.449-6.978 8.44-14.025a11.3 11.3 0 0 0-3.398-7.85 11.264 11.264 0 0 0-15.81.061 11.3 11.3 0 0 0-3.336 7.877h5.635a5.77 5.77 0 0 1 1.677-3.988 5.751 5.751 0 0 1 3.974-1.696 5.598 5.598 0 0 1 3.975 1.627 5.615 5.615 0 0 1 1.66 3.965c0 5.641-8.452 5.12-8.452 14.03z"/></g><g opacity=".1"><path fill="#e9002c" d="M278.323 118.843h-4.211v4.147h4.211zm-.061-2.12c0-4.473 6.12-5.057 6.126-10.163a8.189 8.189 0 0 0-2.415-5.776 8.162 8.162 0 0 0-11.553.046 8.19 8.19 0 0 0-2.37 5.795h4.085a4.18 4.18 0 0 1 1.211-2.886 4.166 4.166 0 0 1 2.873-1.231 4.06 4.06 0 0 1 3.768 2.495 4.08 4.08 0 0 1 .317 1.557c0 4.084-6.127 3.71-6.127 10.162z"/></g><g opacity=".1"><path fill="#e9002c" d="M350.26 126.496h-2.38v2.35h2.38zm-.035-1.19c0-2.529 3.462-2.871 3.45-5.74a4.63 4.63 0 0 0-1.408-3.186 4.615 4.615 0 0 0-6.445.025 4.63 4.63 0 0 0-1.382 3.198h2.31a2.364 2.364 0 0 1 2.309-2.327 2.277 2.277 0 0 1 2.13 1.404c.116.279.176.578.176.88 0 2.31-3.463 2.098-3.463 5.746z"/></g><g opacity=".1"><path fill="#e9002c" d="M386.668 233.336h-2.381v2.35h2.38zm-.023-1.19c0-2.529 3.462-2.858 3.45-5.74a4.63 4.63 0 0 0-1.408-3.186 4.615 4.615 0 0 0-6.445.025 4.63 4.63 0 0 0-1.382 3.198h2.31a2.36 2.36 0 0 1 2.309-2.327 2.294 2.294 0 0 1 2.31 2.284c0 2.31-3.467 2.095-3.467 5.745z"/></g></g></g></g></svg>