<svg xmlns="http://www.w3.org/2000/svg" width="577" height="331" viewBox="0 0 577 331"><g><g><g><path fill="#6176ff" d="M0 0h411.5C502.903 0 577 74.097 577 165.5S502.903 331 411.5 331H0z"/></g><g><g/><g><path fill="#e6e6e6" d="M439.002 131.5H286.84v4.451h152.162z"/></g><g><path fill="#e6e6e6" d="M337.968 94.27H299.42v38.444h38.548z"/></g><g><path fill="#ccc" d="M330.259 101.95H307.13v23.067h23.129z"/></g><g><path fill="#e6e6e6" d="M395.578 94.27h-9.738v38.444h9.738z"/></g><g><path fill="#ccc" d="M395.578 100.34h-9.738v4.451h9.738z"/></g><g><path fill="#ccc" d="M395.578 119.76h-9.738v4.451h9.738z"/></g><g><path fill="#e6e6e6" d="M380.568 94.27h-9.738v38.444h9.738z"/></g><g><path fill="#ccc" d="M380.568 100.34h-9.738v4.451h9.738z"/></g><g><path fill="#ccc" d="M380.568 119.76h-9.738v4.451h9.738z"/></g><g><path fill="#e6e6e6" d="M403.974 94.107l-8.727 4.309 17.103 34.453 8.727-4.31z"/></g><g><path fill="#ccc" d="M406.674 99.547l-8.727 4.309 1.98 3.99 8.728-4.31z"/></g><g><path fill="#ccc" d="M415.316 116.954l-8.727 4.31 1.98 3.99v-.001l8.727-4.31z"/></g><g><path fill="#e6e6e6" d="M313.818 109.7l4.904 8.471 4.904 8.472H304.01l4.904-8.472z"/></g><g><path fill="#e6e6e6" d="M322.338 111.32l4.904 8.471 4.904 8.472H312.53l4.904-8.472z"/></g><g><path fill="#e6e6e6" d="M325.79 108.835a2.837 2.837 0 0 0 2.84-2.832 2.837 2.837 0 0 0-2.84-2.833 2.837 2.837 0 0 0-2.84 2.833 2.837 2.837 0 0 0 2.84 2.832z"/></g><g><path fill="#e6e6e6" d="M286.84 74.841h152.162V70.39H286.84z"/></g><g><path fill="#e6e6e6" d="M387.87 71.605h38.548V33.16H387.87z"/></g><g><path fill="#ccc" d="M395.58 63.917h23.129V40.85H395.58z"/></g><g><path fill="#e6e6e6" d="M330.25 71.605h9.738V33.16h-9.738z"/></g><g><path fill="#ccc" d="M330.25 43.681h9.738V39.23h-9.738z"/></g><g><path fill="#ccc" d="M330.25 63.101h9.738V58.65h-9.738z"/></g><g><path fill="#e6e6e6" d="M345.27 71.605h9.738V33.16h-9.738z"/></g><g><path fill="#ccc" d="M345.27 43.681h9.738V39.23h-9.738z"/></g><g><path fill="#ccc" d="M345.27 63.101h9.738V58.65h-9.738z"/></g><g><path fill="#e6e6e6" d="M304.76 67.453l8.728 4.31 17.103-34.454L321.864 33z"/></g><g><path fill="#ccc" d="M317.183 42.43l8.728 4.309 1.98-3.99-8.727-4.309z"/></g><g><path fill="#ccc" d="M308.542 59.837l8.727 4.31 1.98-3.99-8.727-4.31z"/></g><g><path fill="#e6e6e6" d="M412.018 48.59l-4.904 8.471-4.904 8.472h19.616l-4.904-8.472z"/></g><g><path fill="#e6e6e6" d="M403.498 50.21l-4.904 8.471-4.904 8.472h19.616l-4.904-8.472z"/></g><g><path fill="#e6e6e6" d="M400.05 47.725a2.837 2.837 0 0 0 2.84-2.832 2.837 2.837 0 0 0-2.84-2.833 2.837 2.837 0 0 0-2.84 2.833 2.837 2.837 0 0 0 2.84 2.832z"/></g><g><path fill="#e6e6e6" d="M286.84 197.051h152.162V192.6H286.84z"/></g><g><path fill="#e6e6e6" d="M387.87 193.815h38.548V155.37H387.87z"/></g><g><path fill="#ccc" d="M395.58 186.127h23.129V163.06H395.58z"/></g><g><path fill="#e6e6e6" d="M330.25 193.815h9.738V155.37h-9.738z"/></g><g><path fill="#ccc" d="M330.25 165.891h9.738v-4.451h-9.738z"/></g><g><path fill="#ccc" d="M330.25 185.321h9.738v-4.451h-9.738z"/></g><g><path fill="#e6e6e6" d="M345.27 193.815h9.738V155.37h-9.738z"/></g><g><path fill="#ccc" d="M345.27 165.891h9.738v-4.451h-9.738z"/></g><g><path fill="#ccc" d="M345.27 185.321h9.738v-4.451h-9.738z"/></g><g><path fill="#e6e6e6" d="M304.76 189.666l8.728 4.31 17.104-34.454-8.728-4.309z"/></g><g><path fill="#ccc" d="M317.183 164.642l8.728 4.31 1.98-3.99-8.727-4.309z"/></g><g><path fill="#ccc" d="M308.542 182.05l8.727 4.31 1.98-3.99-8.727-4.309z"/></g><g><path fill="#e6e6e6" d="M412.018 170.8l-4.904 8.471-4.904 8.472h19.616l-4.904-8.472z"/></g><g><path fill="#e6e6e6" d="M403.498 172.42l-4.904 8.471-4.904 8.472h19.616l-4.904-8.472z"/></g><g><path fill="#e6e6e6" d="M400.05 169.936a2.837 2.837 0 0 0 2.84-2.833 2.837 2.837 0 0 0-2.84-2.833 2.837 2.837 0 0 0-2.84 2.833 2.837 2.837 0 0 0 2.84 2.833z"/></g><g><path fill="#e6e6e6" d="M256.247 299.003c98.995 0 179.247-5.684 179.247-12.696 0-7.013-80.252-12.697-179.247-12.697C157.252 273.61 77 279.294 77 286.307c0 7.012 80.252 12.696 179.247 12.696z"/></g><g><path fill="#e9002c" d="M396.286 293.418c-29.228-5.189-61.19-4.326-94.716 0 15.28-12.866 28.47-25.732 13.188-38.598 29.808 6.133 33.983 5.512 67.14 0-7.69 12.866 6.697 25.732 14.388 38.598z"/></g><g opacity=".2"><path d="M396.286 293.418c-29.228-5.189-61.19-4.326-94.716 0 15.28-12.866 28.47-25.732 13.188-38.598 29.808 6.133 33.983 5.512 67.14 0-7.69 12.866 6.697 25.732 14.388 38.598z"/></g><g><path fill="#e9002c" d="M389.157 287.93c-24.827-4.142-51.977-3.454-80.457 0 12.98-10.27 24.183-20.54 11.203-30.81 25.32 4.895 28.867 4.4 57.033 0-6.533 10.27 5.688 20.54 12.221 30.81z"/></g><g><path fill="#2f2e41" d="M379.699 271.377c7.306 0 13.229-5.907 13.229-13.194 0-7.286-5.923-13.193-13.23-13.193-7.305 0-13.228 5.907-13.228 13.193 0 7.287 5.923 13.194 13.229 13.194z"/></g><g><path fill="#a0616a" d="M319.647 242.88l9.167 1.524 4.583 13.204-13.24 8.126-15.277-22.854h14.258z"/></g><g><path fill="#a0616a" d="M345.617 263.2c11.812 0 21.388-9.55 21.388-21.33 0-11.78-9.576-21.33-21.388-21.33-11.812 0-21.387 9.55-21.387 21.33 0 11.78 9.575 21.33 21.387 21.33z"/></g><g><path fill="#2f2e41" d="M227.478 164.16s-51.941 5.586-61.107 4.57c-9.166-1.015-13.24-2.03-13.24-2.03s-6.11 8.125-3.055 11.68a22.024 22.024 0 0 0 6.11 5.079s5.602-1.524 9.676 0c4.073 1.523 45.32 8.125 52.45 2.031 7.129-6.094 9.166-21.33 9.166-21.33z"/></g><g><path fill="#2f2e41" d="M231.044 277.416s-34.118-9.65-40.23-52.31v-4.063s-6.75 11.811-9.165 14.22c-2.8 2.793-12.73 27.933-12.222 30.472.51 2.54 0 3.555 0 3.555l-14.767-1.524v-4.57s7.893-23.616 8.402-29.202c.51-5.587 19.605-44.438 19.605-44.438s7.13-14.728 19.35 0c12.222 14.728 13.24 24.885 13.24 24.885l15.787 30.472z"/></g><g><path fill="#2f2e41" d="M154.656 165.182l-16.295-5.586s-15.276-11.173-11.712 0c3.565 11.173 19.86 35.55 24.443 33.01 4.583-2.539 10.095-8.842 8.866-9.753-1.228-.911-9.375-7.514-5.301-17.67z"/></g><g><path fill="#2f2e41" d="M156.63 260.2l-13.153 6.407s-15.908 2.44-7.036 7.017c8.871 4.577 33.344 9.458 34.568 5.187 1.223-4.272.738-11.36-.549-11.172-1.287.188-10.158 1.104-13.83-7.439z"/></g><g><path fill="#575a89" d="M224.422 243.892s-6.62 28.44 4.583 34.535c11.203 6.094 89.624 7.11 95.734-4.063 6.111-11.173 3.056-11.173 3.056-11.173L311.5 244.908l13.239-1.016s0-4.063-4.582-4.57c-4.584-.508-18.842-5.587-31.063-2.032-12.222 3.555-19.35-7.11-19.35-7.11z"/></g><g><path fill="#3f3d56" d="M215.767 155.02l-8.657 47.23 59.58-7.11 10.693-42.66z"/></g><g><path fill="#fff" d="M217.55 156.8l-7.13 42.152 54.232-6.348 10.44-38.344z"/></g><g><path fill="#b3b3b3" d="M209.145 202.758l-2.037-.508-1.018 2.031 16.295 45.2 1.533-.584.504-2.97z"/></g><g><path fill="#d0cde1" d="M207.11 201.742l16.295 47.231 61.616-9.141-18.332-44.692z"/></g><g><path fill="#3f3d56" d="M215.25 200.219v2.539l45.32-5.079-.508-2.539z"/></g><g><path fill="#3f3d56" d="M216.27 205.3l7.13 19.807 46.339-5.586-8.148-18.791z"/></g><g><path fill="#a0616a" d="M274.32 233.232l-1.528-4.063s-11.712-20.315-17.823-16.252c-6.11 4.063 12.731 23.87 12.731 23.87h6.11z"/></g><g><path fill="#a0616a" d="M235.626 236.28l-1.527-6.095s-4.074-18.791 3.055-17.775c7.13 1.015 9.166 18.79 9.166 18.79l-.51 4.064z"/></g><g><path fill="#575a89" d="M247.847 233.743s-13.24-2.031-13.75 1.016c-.509 3.047-3.055 48.755 9.676 50.278 12.73 1.524 75.874 8.126 69.254-7.618-6.62-15.743-16.804-13.712-16.804-13.712l-43.284 4.57z"/></g><g><path fill="#575a89" d="M287.816 239.575l-13.494-9.395-8.912 6.856 11.203 12.189z"/></g><g opacity=".2"><path d="M251.66 248.72l2.037 19.299 35.136-2.032-30.553-.508z"/></g><g><path fill="#2f2e41" d="M356.171 271.136c14.062 0 25.461-11.369 25.461-25.393 0-14.024-11.399-25.393-25.46-25.393-14.063 0-25.462 11.369-25.462 25.393 0 14.024 11.4 25.393 25.461 25.393z"/></g><g><path fill="#e9002c" d="M225.18 171.526l31.572-1.096 3.055-11.6-32.59.98z"/></g><g><path fill="#e6e6e6" d="M217.04 178.125l47.867-1.523.509-2.032-47.867 1.68z"/></g><g><path fill="#e6e6e6" d="M216.02 183.205l47.867-1.523.51-2.032-47.868 1.68z"/></g><g><path fill="#e6e6e6" d="M215.51 187.275l47.867-1.523.51-2.032-47.868 1.68z"/></g></g></g></g></svg>