<svg xmlns="http://www.w3.org/2000/svg" width="346" height="293" viewBox="0 0 346 293"><g><g><g/><g opacity=".2"><path fill="#325cfd" d="M185.428 271.027C98.538 264.414-5.082 197.074.194 127.738 5.469 58.401 105.826-6.146 192.715.468c86.89 6.614 136.907 136.192 131.631 205.529-5.275 69.337-52.029 71.644-138.919 65.03z"/></g><g><path fill="#3f3d56" d="M165.341 25.46H.45v170.661h164.891z"/></g><g/><g><path fill="#e9002c" d="M113.16 94.403a34.43 34.43 0 0 1-6.432 41.225 34.413 34.413 0 0 1-55.762-11.985 34.43 34.43 0 0 1 11.068-40.229 34.413 34.413 0 0 1 21.673-7.034l-.364-14.704c-.15-.002-.301-.006-.452-.006a49.088 49.088 0 0 0-29.966 10.218 49.105 49.105 0 0 0-15.254 57.975 49.102 49.102 0 0 0 21.054 23.648 49.086 49.086 0 0 0 59.337-8.462 49.109 49.109 0 0 0 6.937-59.545z"/></g><g opacity=".3"><path fill="#e9002c" d="M113.157 94.407l11.839-8.899A49.085 49.085 0 0 0 83.34 61.68l.364 14.704a34.401 34.401 0 0 1 29.453 18.023z"/></g><g/><g/><g><path fill="#f2f2f2" d="M139.168 170.66H110.85v6.454h28.318z"/></g><g><path fill="#f2f2f2" d="M132.718 40.16H104.4v6.454h28.318z"/></g><g><path fill="#3f3d56" d="M346.001 24.02H181.11v68.838h164.891z"/></g><g><path fill="#ff6584" d="M247.724 77.089h-18.64a65.22 65.22 0 0 1 0-22.229h18.64a40.006 40.006 0 0 0 0 22.229z"/></g><g><path fill="#ff6584" d="M299.814 77.089h-18.64a65.22 65.22 0 0 1 0-22.229h18.64a40.004 40.004 0 0 0 0 22.229z"/></g><g><path fill="#e9002c" d="M221.254 62.029h-18.64a65.22 65.22 0 0 1 0-22.229h18.64a40.006 40.006 0 0 0 0 22.229z"/></g><g><path fill="#e9002c" d="M254.59 62.029h18.64a65.22 65.22 0 0 0 0-22.229h-18.64c2.1 7.26 2.1 14.968 0 22.229z"/></g><g><path fill="#e9002c" d="M305.85 62.029h18.64a65.22 65.22 0 0 0 0-22.229h-18.64c2.1 7.26 2.1 14.968 0 22.229z"/></g><g><path fill="#3f3d56" d="M314.452 271.77c0 7.15-33.4 21.23-74.38 21.23s-74.022-14.08-74.022-21.23 33.042-4.66 74.022-4.66c40.98 0 74.38-2.49 74.38 4.66z"/></g><g opacity=".1"><path d="M314.452 271.77c0 7.15-33.4 21.23-74.38 21.23s-74.022-14.08-74.022-21.23 33.042-4.66 74.022-4.66c40.98 0 74.38-2.49 74.38 4.66z"/></g><g><path fill="#3f3d56" d="M240.07 284.751c40.981 0 74.202-5.795 74.202-12.945s-33.221-12.946-74.201-12.946-74.201 5.796-74.201 12.946c0 7.15 33.22 12.945 74.2 12.945z"/></g><g opacity=".1"><path d="M240.08 281.943c32.071 0 58.07-4.536 58.07-10.131 0-5.596-25.998-10.132-58.07-10.132-32.071 0-58.07 4.536-58.07 10.132 0 5.595 25.999 10.13 58.07 10.13z"/></g><g><path fill="#e9002c" d="M214.444 195.039h-18.64a65.22 65.22 0 0 1 0-22.229h18.64a40.006 40.006 0 0 0 0 22.229z"/></g><g><path fill="#575a89" d="M273.417 82.48l2.563 1.282s13.884 34.825 9.185 43.157c-4.7 8.332-19.438 23.929-19.438 23.929l-2.777-7.905 11.357-24.627z"/></g><g opacity=".1"><path d="M273.417 82.48l2.563 1.282s13.884 34.825 9.185 43.157c-4.7 8.332-19.438 23.929-19.438 23.929l-2.777-7.905 11.357-24.627z"/></g><g><path fill="#f2f2f2" d="M270.643 256.61s3.632 8.332 1.709 8.973c-1.922.641-4.272.641-6.622.641-2.35 0-5.126-.854-5.554-1.709-.427-.855 1.71-6.41 1.71-6.41z"/></g><g><path fill="#f2f2f2" d="M221.725 260.876s2.35 7.477 1.282 7.905c-1.068.427-4.486 2.35-6.408 1.709-1.923-.641-4.913-2.137-5.554-2.778-.641-.64 0-4.059 0-4.059l2.99-4.273z"/></g><g><path fill="#2f2e41" d="M263.807 149.785l3.062 1.068s.783 7.264-.071 9.828c-.855 2.564-2.777 21.151-1.709 24.997 1.068 3.845.427 10.041.427 10.041s6.408 20.938 5.127 25.425c-1.282 4.486-1.068 10.896.213 14.1 1.282 3.205 2.35 4.487 1.71 7.05-.642 2.565-1.923 3.847-.642 5.983 1.282 2.137 3.845 2.778 2.564 4.7-1.282 1.923-2.564 3.419-2.136 4.701.427 1.282-11.322 3.632-12.39 1.709 0 0 3.418-2.991 0-4.7-3.417-1.71-2.35-8.12-2.35-8.12s-5.98-24.569-5.767-26.492c.214-1.923-9.398-31.833-9.398-31.833s-14.098 42.73-14.953 44.652c-.854 1.923 1.068 6.623 0 7.905s.428 4.487-1.068 5.769c-1.495 1.282 2.564 5.982 0 7.691-2.563 1.709-3.845 7.051-3.63 8.119.213 1.068-10.681-.214-10.681-1.709 0-1.496.213-2.778-.855-5.341-1.068-2.564-1.708-4.273-.854-5.128.854-.855 1.495-1.923.64-4.914-.854-2.991 1.282-12.178.642-13.887-.641-1.71-.428-13.247-.428-13.247s2.136-16.878 1.496-19.655c-.641-2.778 0-3.419.213-4.487.214-1.068 1.495-12.605 2.35-14.314.854-1.71 1.922-30.98 6.835-32.475 4.913-1.496 41.653 2.564 41.653 2.564z"/></g><g><path fill="#2f2e41" d="M265.52 264.3s7.69-1.282 8.117 0c.427 1.282 1.709 11.324-1.282 11.537-2.99.214-8.117.855-8.971-1.068-.855-1.923-4.913-3.205-4.913-3.205s-5.981-1.709-5.981-3.632c0-1.922.214-4.914 1.282-5.127 1.068-.214 5.34-2.564 5.34-3.419 0-.854 6.408 4.914 6.408 4.914z"/></g><g><path fill="#2f2e41" d="M217.449 267.712s5.553-1.71 6.835-.641c1.282 1.068 2.99 12.819 0 12.605-2.99-.214-10.894 1.068-11.32-.64-.428-1.71-6.196-2.137-6.196-2.137s-6.194-2.992-5.767-6.196c.427-3.205 1.068-4.273 3.631-4.487 2.564-.214 4.486-3.205 4.7-3.418.213-.214 2.097-1.776 2.33-.033.233 1.742 3.01 5.588 5.787 4.947z"/></g><g><path fill="#ffb9b9" d="M234.97 60.685c7.196 0 13.03-5.835 13.03-13.032 0-7.198-5.834-13.033-13.03-13.033s-13.03 5.835-13.03 13.033c0 7.197 5.834 13.032 13.03 13.032z"/></g><g><path fill="#ffb9b9" d="M246.288 50.65s.854 14.315 4.059 15.596c3.204 1.282-16.235 1.282-16.235 1.282s-.213-8.973-2.99-11.11c-2.777-2.136 15.166-5.768 15.166-5.768z"/></g><g><path fill="#575a89" d="M251.413 63.036s-13.244-4.914-17.943 2.778c0 0-14.952 7.05-16.02 11.323-1.068 4.273 8.971 36.32 8.971 36.32s0 26.493-2.136 29.27c-2.136 2.778-6.195 5.77-3.418 6.41 2.777.641 46.353 5.341 46.14 2.564-.215-2.778-2.991-5.128 0-6.837 2.99-1.71.426-3.632 2.349-9.187 1.922-5.555 6.622-51.49 6.622-51.49s-3.205-5.768-3.845-6.409c-.641-.64-20.72-14.742-20.72-14.742z"/></g><g><path fill="#ffb9b9" d="M213.18 156.62s-8.33 18.801-1.068 21.365c7.263 2.564 6.836-19.87 6.836-19.87z"/></g><g><path fill="#2f2e41" d="M241.223 50.076c-.756-1.513-1.886-3.26-3.575-3.167-.854.046-1.59.578-2.352.968-.76.39-1.736.632-2.432.135-1.018-.728-.702-2.453-1.613-3.31-.994-.937-2.993-.414-3.634-1.62-.343-.644-.066-1.443-.215-2.157-1.04.02-2.114.033-3.079-.358-.964-.39-1.8-1.297-1.772-2.337a2.674 2.674 0 0 1 .954-1.838c1.313-1.194 3.213-1.423 4.833-2.148 1.29-.576 2.41-1.474 3.678-2.098 2.181-1.073 4.698-1.281 7.121-1.096 3.675.281 7.392 1.501 10.057 4.048 2.665 2.546 4.075 6.564 2.926 10.067-.651 1.984-2.032 3.653-2.802 5.594a19.588 19.588 0 0 0-.976 4.104l-.54 3.318c.083-.516-1.05-1.811-1.422-2.12-.811-.672-1.99-.444-2.744-1.067-1.113-.92-1.758-3.605-2.413-4.918z"/></g><g opacity=".1"><path d="M222.366 75.642l-3.418 2.137s-5.554 33.543-4.913 38.243c.64 4.7-2.563 31.193-1.495 33.33 1.068 2.136 1.495 2.563 1.495 3.845s-2.99 5.982-1.068 6.837c1.923.855 8.972 2.35 8.972 0s-1.282-5.555 1.068-7.05c2.35-1.496 4.058-11.11 4.058-11.11s1.068-9.828 2.136-11.751 2.563-8.973 2.563-11.964c0-2.991 2.564-15.17 1.068-21.365-1.495-6.196-1.922-22.86-10.466-21.152z"/></g><g><path fill="#575a89" d="M220.876 75.002l-3.418 2.137s-5.554 33.543-4.913 38.243c.64 4.7-2.563 31.193-1.495 33.33 1.068 2.136 1.495 2.563 1.495 3.845s-2.99 5.982-1.068 6.837c1.923.854 8.972 2.35 8.972 0s-1.282-5.555 1.068-7.05c2.35-1.496 4.058-11.11 4.058-11.11s1.068-9.828 2.136-11.751 2.563-8.973 2.563-11.964c0-2.991 2.564-15.17 1.068-21.365-1.495-6.196-1.922-22.86-10.466-21.152z"/></g></g></g></svg>