<svg xmlns="http://www.w3.org/2000/svg" width="348" height="265" viewBox="0 0 348 265"><g><g><g/><g opacity=".2"><path fill="#325cfd" d="M168.367 234.297C93.464 228.579 4.139 170.366 8.687 110.426 13.234 50.486 99.747-5.313 174.649.404 249.552 6.122 292.668 118.14 288.12 178.08c-4.547 59.94-44.851 61.935-119.753 56.218z"/></g><g><path fill="#3f3d56" d="M174.647 243.926c86.353 0 156.357-4.301 156.357-9.608 0-5.306-70.004-9.608-156.357-9.608-86.354 0-156.357 4.302-156.357 9.608 0 5.307 70.003 9.608 156.357 9.608z"/></g><g opacity=".1"><path d="M174.651 240.518c73.554 0 133.182-2.845 133.182-6.354 0-3.51-59.628-6.354-133.182-6.354-73.554 0-133.181 2.845-133.181 6.354s59.627 6.354 133.181 6.354z"/></g><g><path fill="#3f3d56" d="M65.569 264.998c36.213 0 65.569-2.567 65.569-5.734s-29.356-5.734-65.569-5.734S0 256.097 0 259.264s29.356 5.734 65.569 5.734z"/></g><g opacity=".1"><path d="M65.57 262.964c30.846 0 55.851-1.698 55.851-3.792s-25.006-3.792-55.85-3.792c-30.846 0-55.851 1.698-55.851 3.792s25.005 3.792 55.85 3.792z"/></g><g><path fill="#3f3d56" d="M292.992 50.21H60.62v182.865h232.372z"/></g><g><path fill="#f2f2f2" d="M174.163 75.206h-57.326a.694.694 0 0 1-.697-.698.7.7 0 0 1 .697-.698h57.326a.695.695 0 0 1 .694.698.7.7 0 0 1-.694.698z"/></g><g><path fill="#f2f2f2" d="M236.919 82.876h-90.163a.695.695 0 0 1-.696-.698.699.699 0 0 1 .696-.698h90.163a.694.694 0 0 1 .696.698.7.7 0 0 1-.43.645.694.694 0 0 1-.266.053z"/></g><g><path fill="#f2f2f2" d="M174.442 90.556h-57.326a.695.695 0 0 1-.696-.698.699.699 0 0 1 .696-.698h57.326a.695.695 0 0 1 .695.698.699.699 0 0 1-.695.698z"/></g><g><path fill="#f2f2f2" d="M236.922 90.696h-57.326a.695.695 0 0 1-.696-.698.699.699 0 0 1 .696-.698h57.326a.695.695 0 0 1 .695.698.7.7 0 0 1-.695.698z"/></g><g><path fill="#f2f2f2" d="M174.582 98.226h-57.326a.695.695 0 0 1-.696-.698.699.699 0 0 1 .696-.698h57.326a.695.695 0 0 1 .695.698.7.7 0 0 1-.695.698z"/></g><g><path fill="#f2f2f2" d="M174.722 105.906h-57.326a.695.695 0 0 1-.696-.698.699.699 0 0 1 .696-.698h57.326a.695.695 0 0 1 .695.698.699.699 0 0 1-.695.698z"/></g><g><path fill="#f2f2f2" d="M200.744 75.336h-16.418a.695.695 0 0 1-.696-.698.699.699 0 0 1 .696-.698h16.418a.695.695 0 0 1 .696.698.699.699 0 0 1-.696.698z"/></g><g><path fill="#f2f2f2" d="M200.744 98.226h-16.418a.695.695 0 0 1-.696-.698.699.699 0 0 1 .696-.698h16.418a.695.695 0 0 1 .696.698.699.699 0 0 1-.696.698z"/></g><g><path fill="#f2f2f2" d="M200.746 105.766h-16.419a.694.694 0 0 1-.697-.698.7.7 0 0 1 .697-.698h16.419a.694.694 0 0 1 .697.698.699.699 0 0 1-.697.698z"/></g><g><path fill="#f2f2f2" d="M228.293 105.766h-16.419a.695.695 0 0 1-.694-.698.699.699 0 0 1 .694-.698h16.419a.693.693 0 0 1 .697.698.699.699 0 0 1-.697.698z"/></g><g><path fill="#f2f2f2" d="M133.124 82.876h-16.418a.695.695 0 0 1-.696-.698.699.699 0 0 1 .696-.698h16.418a.694.694 0 0 1 .696.698.699.699 0 0 1-.696.698z"/></g><g><path fill="#f2f2f2" d="M174.242 188.246h-57.326a.695.695 0 0 1-.696-.698.699.699 0 0 1 .696-.698h57.326a.694.694 0 0 1 .695.698.699.699 0 0 1-.695.698z"/></g><g><path fill="#f2f2f2" d="M173.962 203.596h-57.326a.695.695 0 0 1-.696-.698.699.699 0 0 1 .696-.698h57.326a.695.695 0 0 1 .695.698.699.699 0 0 1-.695.698z"/></g><g><path fill="#f2f2f2" d="M174.093 211.276h-57.326a.694.694 0 0 1-.697-.698.7.7 0 0 1 .697-.698h57.326a.694.694 0 0 1 .697.698.699.699 0 0 1-.697.698z"/></g><g><path fill="#f2f2f2" d="M198.584 203.736h-16.418a.695.695 0 0 1-.696-.698.699.699 0 0 1 .696-.698h16.418a.694.694 0 0 1 .696.698.699.699 0 0 1-.696.698z"/></g><g><path fill="#f2f2f2" d="M198.584 211.276h-16.418a.695.695 0 0 1-.696-.698.699.699 0 0 1 .696-.698h16.418a.694.694 0 0 1 .696.698.699.699 0 0 1-.696.698z"/></g><g><path fill="#f2f2f2" d="M226.134 203.736h-16.418a.695.695 0 0 1-.696-.698.699.699 0 0 1 .696-.698h16.418a.695.695 0 0 1 .696.698.7.7 0 0 1-.696.698z"/></g><g><path fill="#f2f2f2" d="M236.989 195.926h-90.163a.695.695 0 0 1-.696-.698.699.699 0 0 1 .696-.698h90.163a.695.695 0 0 1 .696.698.699.699 0 0 1-.696.698z"/></g><g><path fill="#f2f2f2" d="M133.194 195.926h-16.418a.695.695 0 0 1-.696-.698.699.699 0 0 1 .696-.698h16.418a.694.694 0 0 1 .696.698.699.699 0 0 1-.696.698z"/></g><g><path fill="#f2f2f2" d="M236.99 219.086h-90.163a.694.694 0 0 1-.697-.698.7.7 0 0 1 .697-.698h90.163a.695.695 0 0 1 .696.698.7.7 0 0 1-.696.698z"/></g><g><path fill="#f2f2f2" d="M133.186 219.086h-16.419a.694.694 0 0 1-.697-.698.7.7 0 0 1 .697-.698h16.419a.694.694 0 0 1 .697.698.699.699 0 0 1-.697.698z"/></g><g><path fill="#e9002c" d="M160.393 124.33l-22.263 22.05 22.263 22.052 5.009-5.025-16.836-16.887 16.975-17.026z"/></g><g><path fill="#e9002c" d="M193.228 124.33l22.263 22.05-22.263 22.052-5.009-5.025 16.836-16.887-16.975-17.026z"/></g><g><path fill="#e9002c" d="M66.801 57.649a2.785 2.785 0 0 0 2.781-2.79c0-1.54-1.245-2.789-2.78-2.789a2.785 2.785 0 0 0-2.782 2.79c0 1.54 1.245 2.789 2.781 2.789z"/></g><g><path fill="#e9002c" d="M74.221 57.649a2.785 2.785 0 0 0 2.781-2.79c0-1.54-1.245-2.789-2.78-2.789a2.785 2.785 0 0 0-2.782 2.79c0 1.54 1.245 2.789 2.781 2.789z"/></g><g><path fill="#e9002c" d="M81.641 57.649a2.785 2.785 0 0 0 2.781-2.79c0-1.54-1.245-2.789-2.781-2.789a2.785 2.785 0 0 0-2.781 2.79c0 1.54 1.245 2.789 2.781 2.789z"/></g><g opacity=".1"><path d="M292.992 59.51H60.62v.93h232.372z"/></g><g><path fill="#f2f2f2" d="M348 188.28c0 19.765-11.714 26.667-26.165 26.667-14.45 0-26.165-6.902-26.165-26.667s26.165-44.91 26.165-44.91 26.166 25.145 26.166 44.91z"/></g><g><path fill="#3f3d56" d="M320.886 211.923l.268-16.542 11.153-20.465-11.11 17.87.12-7.438 7.686-14.805-7.654 12.837.216-13.377 8.23-11.788-8.196 9.684.136-24.529-.851 32.472.07-1.34-8.368-12.847 8.234 15.42-.78 14.94-.023-.397-9.647-13.52 9.617 14.92-.097 1.869-.017.028.008.153-1.979 37.905h2.643l.317-19.578 9.595-14.885z"/></g><g><path fill="#2f2e41" d="M37.89 232.79c-.802.448-1.649.812-2.526 1.085-1.57.43-3.247.273-4.832.64-.65.15-1.356.464-1.562 1.1-.151.466.013.969.17 1.433 1.753 5.15 2.808 10.62 5.602 15.286a23.123 23.123 0 0 0 4.324 5.265c.635.574 1.354 1.136 2.204 1.226a2.232 2.232 0 0 0 2.05-.917 2.25 2.25 0 0 0 .228-2.239c-.25-.558-.716-.99-1.016-1.523a5.828 5.828 0 0 1-.563-2.167c-.276-2.203-.541-4.506.22-6.591.51-1.399 1.446-2.59 2.227-3.858.78-1.267 1.428-2.719 1.254-4.198-.118-1.01-.61-1.933-1.128-2.806-.52-.875-1.546-3.226-2.59-3.518-1.084-.303-3.116 1.296-4.061 1.782z"/></g><g><path fill="#2f2e41" d="M66.45 250.587c.017.499-.052.996-.204 1.471-.327.866-1.138 1.459-1.556 2.284-.583 1.146-.319 2.533.067 3.76.242.77.56 1.571 1.209 2.047a3.974 3.974 0 0 0 1.84.591c5.573.774 11.235.33 16.859.492 1.025.03 2.11.066 3.005-.437.895-.502 1.448-1.766.84-2.594-.547-.743-1.628-.736-2.548-.78a10.462 10.462 0 0 1-6.462-2.67 4.68 4.68 0 0 1-.906-1.046 6.438 6.438 0 0 1-.474-1.09 48.684 48.684 0 0 0-2.807-6.236c-.303-.563-.645-1.149-1.207-1.45a3.182 3.182 0 0 0-1.31-.287c-1.402-.09-5.032-.57-6.116.524-1.001 1.01-.207 4.138-.23 5.421z"/></g><g><path fill="#fbbebe" d="M75.083 125.741c4.945 0 8.954-4.02 8.954-8.98 0-4.96-4.009-8.981-8.954-8.981-4.944 0-8.953 4.02-8.953 8.98 0 4.96 4.009 8.981 8.953 8.981z"/></g><g><path fill="#fbbebe" d="M66.99 124.175c-.532 1.43-1.436 2.774-2.75 3.543l12.383 2.534c-.449-1.813-.508-3.701-.173-5.539.123-.444.148-.91.074-1.366-.233-.901-1.244-1.335-2.15-1.542-2.26-.517-4.258-.794-6.358-1.795-.642 1.102-.552 2.895-1.026 4.165z"/></g><g><path fill="#2f2e41" d="M64.137 124.354a9.659 9.659 0 0 1 8.44.221c1.587.84 2.902 2.106 4.193 3.356 1.19 1.152 2.46 2.47 2.545 4.128.041.802-.209 1.587-.335 2.381a8.008 8.008 0 0 0 .825 4.783 7.973 7.973 0 0 0 3.433 3.421c.984 1.644 1.187 3.635 1.202 5.552.057 7.264-2.228 14.618-.596 21.695.383 1.662.977 3.271 1.307 4.944.429 2.167.408 4.395.632 6.592.243 2.38.774 4.721 1.58 6.973-.539.86-1.66 1.189-2.67 1.12-1.01-.07-1.955-.51-2.856-.973-4.364-2.24-8.362-5.193-12.882-7.097-2.99-1.26-6.176-2.044-9.077-3.499s-5.6-3.763-6.486-6.892c-.384-1.353-.407-2.779-.428-4.186-.088-5.924-.17-11.912 1.115-17.695 1.134-5.1 3.32-9.978 3.796-15.181.155-1.694.159-3.507 1.102-4.92 1.333-1.998 4.212-2.515 5.16-4.723z"/></g><g><path fill="#2f2e41" d="M69.99 116.888c.527-.69 1.545-.784 2.388-.58.843.204 1.62.64 2.471.806a1.441 1.441 0 0 0 1.157-.163 1.69 1.69 0 0 0 .499-1.107c.298-1.78.368-3.59.207-5.387a1.6 1.6 0 0 1 .05-.755c.21-.51.853-.63 1.378-.794a4.117 4.117 0 0 0 2.115-1.634c.504-.765.74-1.677.67-2.592a1.683 1.683 0 0 0-.512-1.16c-.363-.296-.871-.314-1.34-.318-2.406-.02-4.813-.019-7.22.002-.89.007-1.826.03-2.599.475-.57.33-.995.86-1.508 1.274-1.336 1.082-3.145 1.302-4.771 1.857a4.728 4.728 0 0 0-2.091 1.25c-.541.62-.801 1.542-.461 2.292.174.313.369.613.583.9.959 1.539.32 3.534.463 5.344.18 2.258 3.512 5.923 5.772 6.458 3.649.863 1.541-4.685 2.749-6.168z"/></g><g><path fill="#2f2e41" d="M64.931 215.928c.23 1.649.526 3.304.447 4.968-.11 2.322-.946 4.56-1.1 6.88-.115 1.733.151 3.485-.089 5.205-.153 1.1-.511 2.162-.733 3.252a13.49 13.49 0 0 0 2.155 10.31c.152.254.367.464.625.608.247.092.512.127.775.103a55.44 55.44 0 0 0 7.778-.709.745.745 0 0 0 .5-.221.704.704 0 0 0 .108-.296c.477-2.46-.611-4.926-.888-7.416-.295-2.66.34-5.324.972-7.924a35.275 35.275 0 0 1 1.072-3.79c.305-.836.674-1.649.938-2.499.375-1.335.603-2.707.68-4.092.184-2.185.282-4.375.292-6.57.063-2.08-.11-4.16-.514-6.202-.58-2.584-1.769-4.984-2.947-7.355a4.638 4.638 0 0 0-1.736.828 38.71 38.71 0 0 1-4.743 2.628c-1.102.514-3.251.878-3.95 1.948-.69 1.055-.245 3.208-.193 4.372.09 1.998.274 3.988.551 5.971z"/></g><g opacity=".1"><path d="M64.931 215.928c.23 1.649.526 3.304.447 4.968-.11 2.322-.946 4.56-1.1 6.88-.115 1.733.151 3.485-.089 5.205-.153 1.1-.511 2.162-.733 3.252a13.49 13.49 0 0 0 2.155 10.31c.152.254.367.464.625.608.247.092.512.127.775.103a55.44 55.44 0 0 0 7.778-.709.745.745 0 0 0 .5-.221.704.704 0 0 0 .108-.296c.477-2.46-.611-4.926-.888-7.416-.295-2.66.34-5.324.972-7.924a35.275 35.275 0 0 1 1.072-3.79c.305-.836.674-1.649.938-2.499.375-1.335.603-2.707.68-4.092.184-2.185.282-4.375.292-6.57.063-2.08-.11-4.16-.514-6.202-.58-2.584-1.769-4.984-2.947-7.355a4.638 4.638 0 0 0-1.736.828 38.71 38.71 0 0 1-4.743 2.628c-1.102.514-3.251.878-3.95 1.948-.69 1.055-.245 3.208-.193 4.372.09 1.998.274 3.988.551 5.971z"/></g><g><path fill="#2f2e41" d="M52.826 180.7c-1.189 3.21.56 6.68 2.078 9.748 3.74 7.559 6.338 15.624 8.922 23.654.193.602.387 1.258.171 1.852a2.424 2.424 0 0 1-.872 1.037c-1.781 1.357-4.05 1.84-6.172 2.551a27.828 27.828 0 0 0-5.854 2.752c-1.537.956-2.978 2.06-4.416 3.16l-4.577 3.507c-.296.201-.555.452-.765.743-.441.695-.26 1.601-.04 2.395a40.815 40.815 0 0 0 2.24 6.135c.15.434.435.808.813 1.068.714.385 1.588-.126 2.134-.728.545-.602 1.017-1.35 1.786-1.609.768-.258 1.613.054 2.416-.059 1.297-.182 2.159-1.381 3.094-2.301 3.82-3.76 10.2-3.488 14.403-6.812.608-.545 1.251-1.05 1.926-1.509.71-.42 1.516-.652 2.253-1.025 2.243-1.132 3.652-3.474 4.407-5.875.756-2.402.97-4.937 1.514-7.395.28-1.272.65-2.529.774-3.825.08-1.205.054-2.415-.078-3.616l-1.517-18.818c-.123-1.532-.247-3.066-.487-4.584-4.504.162-9.005.343-13.512.397-3.586.042-7.238.294-10.64-.843z"/></g><g><path fill="#2f2e41" d="M51.175 185.1c.611.987 2.098.966 3.122.426s1.82-1.448 2.846-1.984c1.38-.72 3.012-.693 4.566-.65 2.461.07 4.952.145 7.32.821 2.449.7 4.833 2.047 7.365 1.778.44-.047.922-.173 1.162-.547.14-.27.206-.574.191-.879l.083-2.219c.05-.384-.01-.774-.176-1.124a1.88 1.88 0 0 0-.84-.644c-3.603-1.75-7.713-2.076-11.715-2.213-2.034-.07-4.07-.099-6.106-.087-1.727.011-3.801-.24-5.48.223-2.255.622-3.482 5.255-2.338 7.1z"/></g><g><path fill="#e9002c" d="M73.806 126.993c-4.722-.042-9.001-3.168-13.723-3.244-.57-.04-1.142.059-1.666.288-.658.332-1.091.975-1.59 1.518-1.397 1.517-3.419 2.326-4.853 3.806-1.345 1.388-2.093 3.456-1.562 5.317.531 1.86 2.535 3.288 4.412 2.84a11.404 11.404 0 0 1 4.43-6.037 22.496 22.496 0 0 1 3.463-1.823c2.122-.964 4.495-1.947 6.71-1.224.818.31 1.588.73 2.29 1.252l3.694 2.489c-.43-1.703-.817-3.613-1.605-5.182z"/></g><g><path fill="#e9002c" d="M54.28 135.868c-.627.784.277 1.921.138 2.917-.091.662-.634 1.167-.86 1.796-.235.65-.11 1.372-.2 2.058-.088.5-.22.99-.393 1.466a26.408 26.408 0 0 0-.83 4.347l-.827 6.192c-.143.931-.23 1.87-.261 2.813a8.426 8.426 0 0 1-.14 2.104c-.183.676-.588 1.268-.861 1.914-.273.645-.399 1.426-.03 2.022-1.234 1.03-1.6 3.054-.738 4.412.164.212.292.449.38.702.047.354-.01.714-.168 1.035l-.835 2.234c-.214.572-.282 1.442.313 1.573a5.274 5.274 0 0 0-1.129 1.787 2.134 2.134 0 0 0 .301 2.016c.208.183.384.398.524.638.081.333.06.684-.061 1.005a3.7 3.7 0 0 0 .455 2.893 2.588 2.588 0 0 0 2.602 1.118c1.671-.378 3.174-.975 4.86-.665 3.629.668 7.27 1.339 10.786 2.465 4.012 1.285 7.897 3.169 12.09 3.564.276.057.563.012.808-.126a1.22 1.22 0 0 0 .374-.77l1.296-6.096a62.92 62.92 0 0 0 1.191-6.827c.148-1.482.19-2.972.232-4.461l.334-11.85a11.872 11.872 0 0 0-.68-5.15l-1.921-6.152c-1.096-3.51-3.612-6.624-4.507-10.192-.567-2.258-.986-4.68-2.506-6.44-2.166-2.51-5.915-2.9-9.197-2.468-1.482.195-2.977.53-4.26 1.302-1.482.892-2.574 2.296-3.631 3.668-.871 1.131-1.757 2.04-2.649 3.156z"/></g><g><path fill="#fbbebe" d="M61.936 170.726c.27 1.17.839 2.248 1.186 3.396.582 1.925.533 3.997 1.114 5.922.244.808.597 1.583.772 2.409.409 1.925-.187 3.916-.928 5.739-.74 1.822-1.642 3.62-1.882 5.572-.17 1.376.074 2.93 1.131 3.822 1.098.927 2.693.864 4.122.74a4.321 4.321 0 0 0 1.496-.312c1.093-.518 1.553-1.816 1.809-3.001.856-3.974.612-8.092.363-12.15l-.65-10.61c-.126-2.042-.26-4.128-.888-6.089-.228-.713-.626-2.155-1.276-2.61-.644-.452-2.481-.472-3.278-.51-3.738-.176-3.696 5.058-3.09 7.682z"/></g><g><path fill="#2f2e41" d="M66.083 131.545c-.763-.4-1.725-.228-2.463.218a7.602 7.602 0 0 0-1.845 1.798c-1.65 2.02-3.397 4.337-3.152 6.937.092.974.464 1.897.716 2.843 1.106 4.146-.117 8.532.023 12.823.082 2.479.62 4.917 1.155 7.339.11.494.284 1.066.761 1.233.358.125.745-.036 1.1-.171a8.743 8.743 0 0 1 8.022 1.014c.885-.474.553-1.972.355-2.959-.59-2.93.21-5.955 1.183-8.782.972-2.827 2.135-5.65 2.296-8.636.183-3.384-.935-6.686-2.039-9.888-.24-.7-.504-1.432-1.062-1.915a4.217 4.217 0 0 0-1.608-.737c-1.172-.347-2.359-.548-3.442-1.117z"/></g></g></g></svg>