<svg xmlns="http://www.w3.org/2000/svg" width="405" height="270" viewBox="0 0 405 270"><defs><clipPath id="w2lla"><path fill="#fff" d="M219.664 40.307c.194-.28.301-.613.308-.954 0-2.068-4.201-3.743-9.382-3.743s-9.382 1.675-9.382 3.743c.006.393.142.773.387 1.08-5.766.645-9.655 1.859-9.655 3.242 0 2.072 8.611 3.747 19.213 3.747 10.603 0 19.217-1.675 19.217-3.747 0-1.48-4.366-2.755-10.706-3.368z"/></clipPath><clipPath id="w2llb"><path fill="#fff" d="M286.002 16.906c.31-.444.48-.97.488-1.512 0-3.282-6.666-5.944-14.89-5.944-8.223 0-14.89 2.662-14.89 5.944.017.615.233 1.209.618 1.689C248.17 18.11 242 20.033 242 22.238c0 3.281 13.656 5.943 30.497 5.943 16.842 0 30.498-2.662 30.498-5.943 0-2.338-6.925-4.359-16.993-5.332z"/></clipPath><clipPath id="w2llc"><path fill="#fff" d="M166.532 16.906c.31-.444.48-.97.488-1.512 0-3.282-6.666-5.944-14.89-5.944-8.223 0-14.89 2.662-14.89 5.944.017.615.233 1.209.618 1.689-9.157 1.027-15.328 2.95-15.328 5.155 0 3.281 13.656 5.943 30.497 5.943 16.842 0 30.497-2.662 30.497-5.943 0-2.338-6.924-4.359-16.992-5.332z"/></clipPath><linearGradient id="w2lld" x1="355.96" x2="355.96" y1="260.81" y2="144.56" gradientUnits="userSpaceOnUse"><stop offset="0" stop-color="gray" stop-opacity=".25"/><stop offset=".54" stop-color="gray" stop-opacity=".12"/><stop offset="1" stop-color="gray" stop-opacity=".1"/></linearGradient></defs><g><g><g/><g opacity=".2"><g opacity=".04"><path fill="#3f3d56" d="M331.97 225.708a219.708 219.708 0 0 1-8.299 4.766c-.437.238-.875.475-1.313.72a209.394 209.394 0 0 1-6.458 3.329 15.746 15.746 0 0 1 1.708-5.641c.393-.766.862-1.49 1.4-2.162 2.152-2.676 5.098-4.171 8.126-3.735a7.886 7.886 0 0 1 4.836 2.723z"/></g><g opacity=".04"><path fill="#3f3d56" d="M336.95 221.597a14.78 14.78 0 0 1-.205 1.139c-1.567 1.008-3.156 2-4.768 2.972a219.644 219.644 0 0 1-8.299 4.765c-.438.238-.875.476-1.313.72a8.75 8.75 0 0 1-1.435-1.329 11.173 11.173 0 0 1-1.906-3.13 15.662 15.662 0 0 1 2.153-15.104c2.153-2.676 5.099-4.17 8.127-3.735 3.028.436 5.453 2.709 6.752 5.879a15.109 15.109 0 0 1 .894 7.823z"/></g><g opacity=".04"><path fill="#3f3d56" d="M339.12 206.506c.977-6.825-2.441-12.965-7.635-13.715s-10.196 4.176-11.174 11c-.977 6.826 2.441 12.967 7.635 13.716 5.194.75 10.197-4.176 11.174-11z"/></g><g opacity=".04"><path fill="#325cfd" d="M393.339 80.285a45.592 45.592 0 0 1-6.817 18.314l-26.705-4.038 24.126 7.64a46.295 46.295 0 0 1-4.245 4.683 45.843 45.843 0 0 1 5.637 29.346 45.751 45.751 0 0 1-13.638 26.566 45.613 45.613 0 0 1 6.067 24.668c-11.348 13.26-25.194 25.154-41.02 35.301a192.675 192.675 0 0 1-4.769 2.972 220.334 220.334 0 0 1-8.299 4.766c-.929-.18-1.844-.386-2.748-.624a42.723 42.723 0 0 1-3.304-.983 45.485 45.485 0 0 1-19.266-12.795 45.745 45.745 0 0 1-10.525-20.643 45.86 45.86 0 0 1 .925-23.172 45.71 45.71 0 0 1 12.139-19.73 46.566 46.566 0 0 1-1.303-2.425c-.122-.237-.236-.475-.358-.72a45.623 45.623 0 0 1-4.378-22.298l.054-.796c.032-.428.072-.86.115-1.29.065-.604.14-1.213.226-1.822v-.058a45.49 45.49 0 0 1 4.442-14.102L332.24 125.5l-29.658-21.358a45.703 45.703 0 0 1 6.315-7.506 45.86 45.86 0 0 1-4.114-36.23 45.74 45.74 0 0 1 8.93-16.323 45.53 45.53 0 0 1 14.676-11.39 45.344 45.344 0 0 1 36.287-1.542 45.487 45.487 0 0 1 15.582 10.105 45.7 45.7 0 0 1 10.271 15.507l-36.55 19.628 38.52-13.497a45.72 45.72 0 0 1 .839 17.391z"/></g><g opacity=".02"><path d="M377.76 187.435c-11.35 13.26-25.195 25.153-41.021 35.3-1.567 1.009-3.156 2-4.769 2.973a220.239 220.239 0 0 1-8.299 4.765c-.929-.18-1.844-.385-2.748-.623a43.596 43.596 0 0 1-3.304-.983 45.493 45.493 0 0 1-19.248-12.795 45.752 45.752 0 0 1-10.518-20.63 45.86 45.86 0 0 1 .92-23.158 45.715 45.715 0 0 1 12.119-19.726 46.378 46.378 0 0 1-1.303-2.424c-.122-.237-.236-.475-.358-.72a45.622 45.622 0 0 1-4.378-22.298l.054-.796c.032-.428.072-.86.115-1.29.065-.604.14-1.213.226-1.822v-.058c.28-.972 3.983-.154 9.623 1.801l1.191.426c1.249.45 2.58.947 3.979 1.49a276.97 276.97 0 0 1 9.985 4.118l.233.101.496.216c23.93 10.418 55.411 27.132 50.898 31.447a45.61 45.61 0 0 1 6.106 24.686z"/></g></g><g opacity=".2"><g opacity=".04"><path fill="#3f3d56" d="M114.423 245.91a194.732 194.732 0 0 1-4.488-1.613 228.941 228.941 0 0 1-10.215-4.053 7.45 7.45 0 0 1 2.278-1.268c2.99-1.03 6.272-.046 8.945 2.324a15.232 15.232 0 0 1 3.48 4.61z"/></g><g opacity=".04"><path fill="#3f3d56" d="M110.941 241.293a12.073 12.073 0 0 1-1.008 2.997 228.91 228.91 0 0 1-10.215-4.052 218.541 218.541 0 0 1-8.61-3.858 16.456 16.456 0 0 1-.166-2.597c.012-.906.108-1.808.287-2.695.718-3.54 2.748-6.361 5.74-7.392 2.993-1.03 6.272-.046 8.945 2.327.648.576 1.24 1.21 1.773 1.895a16.806 16.806 0 0 1 2.684 5.072 16.289 16.289 0 0 1 .57 8.303z"/></g><g opacity=".04"><path fill="#3f3d56" d="M99.99 233.476c5.162-1.638 7.577-8.586 5.394-15.52-2.183-6.933-8.136-11.225-13.298-9.587-5.162 1.638-7.577 8.586-5.395 15.52 2.183 6.933 8.137 11.225 13.299 9.587z"/></g><g opacity=".04"><path fill="#3f3d56" d="M94.946 218.2c5.162-1.639 7.577-8.587 5.394-15.52-2.182-6.934-8.136-11.226-13.298-9.588-5.162 1.638-7.577 8.586-5.394 15.52 2.182 6.932 8.136 11.225 13.298 9.587z"/></g><g opacity=".04"><path fill="#325cfd" d="M107.671 227.919a46.22 46.22 0 0 1-8.285 3.807 45.559 45.559 0 0 1-4.954 1.409c-1.165.264-2.331.479-3.499.645-1.45.209-2.895.345-4.337.41-17.337-8.645-32.902-19.221-46.184-31.299-.19-.511-.359-1.026-.542-1.549a49.282 49.282 0 0 1 .165-31.555 48.129 48.129 0 0 1-18.844-24.991 49.453 49.453 0 0 1-2.511-15.49h37.576l-37.21-5.972a49.15 49.15 0 0 1 2.31-10.086A48.108 48.108 0 0 1 2.514 88.256c-8.346-25.255 4.775-52.592 29.306-61.071 16.422-5.67 33.79-1.44 45.986 9.546L53.354 72.666l29.112-31.094a48.684 48.684 0 0 1 8.87 16 49.384 49.384 0 0 1 2.252 20.533l-26.417 8.89 25.725-4.297a48.871 48.871 0 0 1-1.726 6.426 48.12 48.12 0 0 1 18.844 24.988 49.46 49.46 0 0 1 2.511 15.072v1.732a49.163 49.163 0 0 1-2.658 14.769 47.443 47.443 0 0 1 9.687 8.663 48.633 48.633 0 0 1 9.142 16.325c7.345 22.226-1.952 46.083-21.025 57.246z"/></g><g opacity=".02"><path d="M107.672 227.92a46.383 46.383 0 0 1-8.285 3.807 45.489 45.489 0 0 1-4.954 1.409c-1.165.264-2.331.479-3.498.645-1.45.208-2.896.345-4.338.41-17.337-8.645-32.901-19.221-46.184-31.3-.19-.51-.359-1.026-.542-1.548a49.282 49.282 0 0 1 .165-31.555 48.13 48.13 0 0 1-18.843-24.992c-1.288-3.894 52.426-7.038 76.9-4.023l.57.072c7.427.961 11.987 2.521 11.194 4.83a47.42 47.42 0 0 1 9.688 8.663c.071.08.14.159.204.242a48.634 48.634 0 0 1 8.938 16.083c7.355 22.237-1.941 46.094-21.015 57.257z"/></g></g><g opacity=".1"><path fill="#325cfd" d="M219.664 40.307c.194-.28.301-.613.308-.954 0-2.068-4.201-3.743-9.382-3.743s-9.382 1.675-9.382 3.743c.006.393.142.773.387 1.08-5.766.645-9.655 1.859-9.655 3.242 0 2.072 8.611 3.747 19.213 3.747 10.603 0 19.217-1.675 19.217-3.747 0-1.48-4.366-2.755-10.706-3.368z"/><path fill="none" stroke="#325cfd" stroke-miterlimit="50" stroke-width="2" d="M219.664 40.307c.194-.28.301-.613.308-.954 0-2.068-4.201-3.743-9.382-3.743s-9.382 1.675-9.382 3.743c.006.393.142.773.387 1.08-5.766.645-9.655 1.859-9.655 3.242 0 2.072 8.611 3.747 19.213 3.747 10.603 0 19.217-1.675 19.217-3.747 0-1.48-4.366-2.755-10.706-3.368z" clip-path="url(&quot;#w2lla&quot;)"/></g><g opacity=".1"><path fill="#325cfd" d="M286.002 16.906c.31-.444.48-.97.488-1.512 0-3.282-6.666-5.944-14.89-5.944-8.223 0-14.89 2.662-14.89 5.944.017.615.233 1.209.618 1.689C248.17 18.11 242 20.033 242 22.238c0 3.281 13.656 5.943 30.497 5.943 16.842 0 30.498-2.662 30.498-5.943 0-2.338-6.925-4.359-16.993-5.332z"/><path fill="none" stroke="#325cfd" stroke-miterlimit="50" stroke-width="2" d="M286.002 16.906c.31-.444.48-.97.488-1.512 0-3.282-6.666-5.944-14.89-5.944-8.223 0-14.89 2.662-14.89 5.944.017.615.233 1.209.618 1.689C248.17 18.11 242 20.033 242 22.238c0 3.281 13.656 5.943 30.497 5.943 16.842 0 30.498-2.662 30.498-5.943 0-2.338-6.925-4.359-16.993-5.332z" clip-path="url(&quot;#w2llb&quot;)"/></g><g opacity=".1"><path fill="#325cfd" d="M166.532 16.906c.31-.444.48-.97.488-1.512 0-3.282-6.666-5.944-14.89-5.944-8.223 0-14.89 2.662-14.89 5.944.017.615.233 1.209.618 1.689-9.157 1.027-15.328 2.95-15.328 5.155 0 3.281 13.656 5.943 30.497 5.943 16.842 0 30.497-2.662 30.497-5.943 0-2.338-6.924-4.359-16.992-5.332z"/><path fill="none" stroke="#325cfd" stroke-miterlimit="50" stroke-width="2" d="M166.532 16.906c.31-.444.48-.97.488-1.512 0-3.282-6.666-5.944-14.89-5.944-8.223 0-14.89 2.662-14.89 5.944.017.615.233 1.209.618 1.689-9.157 1.027-15.328 2.95-15.328 5.155 0 3.281 13.656 5.943 30.497 5.943 16.842 0 30.497-2.662 30.497-5.943 0-2.338-6.924-4.359-16.992-5.332z" clip-path="url(&quot;#w2llc&quot;)"/></g><g opacity=".1"><path fill="#325cfd" d="M128.78 47.945c.836-.486 1.966-.022 2.54.76.574.782.736 1.801.88 2.749.319 2.128.552 4.574-.88 6.18 2.34-7.12 9.067-12.578 16.505-13.374"/><path fill="none" stroke="#325cfd" stroke-miterlimit="50" stroke-width="3" d="M128.78 47.945c.836-.486 1.966-.022 2.54.76.574.782.736 1.801.88 2.749.319 2.128.552 4.574-.88 6.18 2.34-7.12 9.067-12.578 16.505-13.374"/></g><g opacity=".1"><path fill="#325cfd" d="M222.59 12.63c.538-.314 1.263 0 1.633.486.328.535.522 1.142.566 1.768.205 1.37.36 2.94-.566 3.963a12.924 12.924 0 0 1 4.079-5.811 12.847 12.847 0 0 1 6.523-2.766"/><path fill="none" stroke="#325cfd" stroke-miterlimit="50" stroke-width="3" d="M222.59 12.63c.538-.314 1.263 0 1.633.486.328.535.522 1.142.566 1.768.205 1.37.36 2.94-.566 3.963a12.924 12.924 0 0 1 4.079-5.811 12.847 12.847 0 0 1 6.523-2.766"/></g><g opacity=".1"><path fill="#325cfd" d="M317.67 2.91c.538-.314 1.263 0 1.633.486.328.535.522 1.142.566 1.768.205 1.37.36 2.94-.567 3.963a12.924 12.924 0 0 1 4.08-5.811A12.847 12.847 0 0 1 329.905.55"/><path fill="none" stroke="#325cfd" stroke-miterlimit="50" stroke-width="3" d="M317.67 2.91c.538-.314 1.263 0 1.633.486.328.535.522 1.142.566 1.768.205 1.37.36 2.94-.567 3.963a12.924 12.924 0 0 1 4.08-5.811A12.847 12.847 0 0 1 329.905.55"/></g><g opacity=".1"><path fill="#325cfd" d="M208.739 270c108.391 0 196.259-7.178 196.259-16.03 0-8.853-87.868-16.03-196.259-16.03-108.39 0-196.259 7.177-196.259 16.03 0 8.852 87.868 16.03 196.259 16.03z"/></g><g><path fill="#fff" d="M357.114 70.08H56.067c-3.66 0-6.627 2.979-6.627 6.653v167.522c0 3.675 2.967 6.654 6.627 6.654h301.047c3.66 0 6.627-2.979 6.627-6.654V76.733c0-3.674-2.967-6.653-6.627-6.653z"/></g><g><path fill="#3f3d56" d="M363.741 76.734v9.546H49.44v-9.546a6.676 6.676 0 0 1 1.937-4.712 6.625 6.625 0 0 1 4.69-1.952h301.047a6.608 6.608 0 0 1 4.69 1.953 6.673 6.673 0 0 1 1.937 4.711z"/></g><g opacity=".6"><g opacity=".36"><path fill="#e9002c" d="M128.957 112.41H78.633c-3.343 0-6.053 2.72-6.053 6.077v30.352c0 3.356 2.71 6.077 6.053 6.077h50.324c3.343 0 6.053-2.721 6.053-6.077v-30.352c0-3.356-2.71-6.077-6.053-6.077z"/></g><g opacity=".36"><path fill="#fff" d="M97.71 148.894a11.523 11.523 0 0 1-4.702-6.236 11.57 11.57 0 0 1 .345-7.812 12.29 12.29 0 0 1-1.117-12.395 12.234 12.234 0 0 1 4.185-4.896 12.158 12.158 0 0 1 12.373-.772 12.217 12.217 0 0 1 4.756 4.338 12.282 12.282 0 0 1 .42 12.439 11.567 11.567 0 0 1 1.154 8.403 11.525 11.525 0 0 1-4.886 6.92 14.663 14.663 0 0 1 5.716 6.372H91.99a14.662 14.662 0 0 1 5.72-6.36z"/></g></g><g><path fill="#e9002c" d="M229.417 182.29h-50.324c-3.343 0-6.053 2.72-6.053 6.077v30.352c0 3.356 2.71 6.076 6.053 6.076h50.324c3.343 0 6.053-2.72 6.053-6.076v-30.352c0-3.356-2.71-6.077-6.053-6.077z"/></g><g><path fill="#fff" d="M210.348 220.944a14.19 14.19 0 0 1 4.467 4.211h-21.463a14.19 14.19 0 0 1 4.467-4.21 11.523 11.523 0 0 1-4.7-6.237 11.57 11.57 0 0 1 .344-7.812 12.29 12.29 0 0 1-1.117-12.395 12.234 12.234 0 0 1 4.185-4.896 12.158 12.158 0 0 1 12.373-.772 12.216 12.216 0 0 1 4.756 4.338 12.281 12.281 0 0 1 .42 12.439 11.568 11.568 0 0 1 1.154 8.403 11.526 11.526 0 0 1-4.886 6.92z"/></g><g opacity=".6"><g opacity=".36"><path fill="#e9002c" d="M229.417 112.41h-50.324c-3.343 0-6.053 2.72-6.053 6.077v30.352c0 3.356 2.71 6.077 6.053 6.077h50.324c3.343 0 6.053-2.721 6.053-6.077v-30.352c0-3.356-2.71-6.077-6.053-6.077z"/></g><g opacity=".36"><path fill="#fff" d="M216.406 136.92a11.569 11.569 0 0 1-.651 6.76 11.517 11.517 0 0 1-4.332 5.22 14.661 14.661 0 0 1 5.715 6.372h-23.963a14.662 14.662 0 0 1 5.715-6.372 11.52 11.52 0 0 1-4.5-5.667 11.57 11.57 0 0 1-.243-7.243 4.055 4.055 0 0 1-.47.025 4.654 4.654 0 0 1-3.204-1.325 4.694 4.694 0 0 1-.248-6.455 4.658 4.658 0 0 1 3.093-1.568 4.694 4.694 0 0 1 .732-4.814 4.648 4.648 0 0 1 5.878-1.062 4.678 4.678 0 0 1 2.062 2.425 4.656 4.656 0 0 1 5.5-.62 4.651 4.651 0 0 1 5.51.614c.486.45.87 1 1.128 1.613 1.218 0 2.387.477 3.258 1.33a4.692 4.692 0 0 1 1.406 3.238 4.69 4.69 0 0 1 .86 4.412 4.685 4.685 0 0 1-1.224 1.968 4.66 4.66 0 0 1-2.014 1.137z"/></g></g><g opacity=".6"><g opacity=".36"><path fill="#e9002c" d="M334.547 182.29h-50.324c-3.343 0-6.053 2.72-6.053 6.077v30.352c0 3.356 2.71 6.076 6.053 6.076h50.324c3.343 0 6.053-2.72 6.053-6.076v-30.352c0-3.356-2.71-6.077-6.053-6.077z"/></g><g opacity=".36"><path fill="#fff" d="M321.527 208.96a11.569 11.569 0 0 1-.652 6.76 11.516 11.516 0 0 1-4.332 5.22 14.191 14.191 0 0 1 4.467 4.21h-21.463a14.192 14.192 0 0 1 4.467-4.21 11.52 11.52 0 0 1-4.503-5.666 11.57 11.57 0 0 1-.244-7.244 4.055 4.055 0 0 1-.47.025 4.654 4.654 0 0 1-3.204-1.325 4.694 4.694 0 0 1-.248-6.455 4.658 4.658 0 0 1 3.093-1.568 4.694 4.694 0 0 1 .732-4.814 4.649 4.649 0 0 1 5.878-1.062 4.677 4.677 0 0 1 2.062 2.425 4.656 4.656 0 0 1 5.5-.62 4.652 4.652 0 0 1 5.51.614c.486.45.87 1 1.128 1.613 1.218 0 2.387.477 3.258 1.33a4.692 4.692 0 0 1 1.407 3.238 4.691 4.691 0 0 1 .859 4.412 4.685 4.685 0 0 1-1.224 1.968 4.66 4.66 0 0 1-2.014 1.137z"/></g></g><g><path fill="#e9002c" d="M334.547 112.41h-50.324c-3.343 0-6.053 2.72-6.053 6.077v30.352c0 3.356 2.71 6.077 6.053 6.077h50.324c3.343 0 6.053-2.721 6.053-6.077v-30.352c0-3.356-2.71-6.077-6.053-6.077z"/></g><g><path fill="#fff" d="M321.181 155.27h-23.963a14.663 14.663 0 0 1 5.715-6.373 11.525 11.525 0 0 1-4.845-6.757c-.72-2.78-.38-5.73.952-8.271-1.51-1.124-2.4-2.504-2.4-3.995 0-3.779 5.701-6.844 12.737-6.844 7.036 0 12.737 3.065 12.737 6.844 0 1.578-.994 3.026-2.662 4.186a11.568 11.568 0 0 1 .827 8.183 11.524 11.524 0 0 1-4.817 6.654 14.662 14.662 0 0 1 5.72 6.372z"/></g><g opacity=".6"><g opacity=".36"><path fill="#e9002c" d="M128.957 182.29H78.633c-3.343 0-6.053 2.72-6.053 6.077v30.352c0 3.356 2.71 6.076 6.053 6.076h50.324c3.343 0 6.053-2.72 6.053-6.076v-30.352c0-3.356-2.71-6.077-6.053-6.077z"/></g><g opacity=".36"><path fill="#e9002c" d="M109.162 220.947a14.193 14.193 0 0 1 4.467 4.211H92.166a14.192 14.192 0 0 1 4.467-4.21 11.525 11.525 0 0 1-4.845-6.758c-.72-2.78-.38-5.73.952-8.271-1.51-1.124-2.4-2.522-2.4-3.995 0-3.779 5.701-6.844 12.737-6.844 7.036 0 12.737 3.065 12.737 6.844 0 1.578-.994 3.026-2.662 4.186a11.569 11.569 0 0 1 .827 8.183 11.525 11.525 0 0 1-4.817 6.654z"/></g><g opacity=".36"><path fill="#e9002c" d="M128.957 182.29H78.633c-3.343 0-6.053 2.72-6.053 6.077v30.352c0 3.356 2.71 6.076 6.053 6.076h50.324c3.343 0 6.053-2.72 6.053-6.076v-30.352c0-3.356-2.71-6.077-6.053-6.077z"/></g><g opacity=".36"><path fill="#fff" d="M109.162 220.947a14.193 14.193 0 0 1 4.467 4.211H92.166a14.192 14.192 0 0 1 4.467-4.21 11.525 11.525 0 0 1-4.845-6.758c-.72-2.78-.38-5.73.952-8.271-1.51-1.124-2.4-2.522-2.4-3.995 0-3.779 5.701-6.844 12.737-6.844 7.036 0 12.737 3.065 12.737 6.844 0 1.578-.994 3.026-2.662 4.186a11.569 11.569 0 0 1 .827 8.183 11.525 11.525 0 0 1-4.817 6.654z"/></g></g><g><path fill="url(#w2lld)" d="M378.668 248.68a8.27 8.27 0 0 0-1.933-1.081.353.353 0 0 0-.166-.043 29.825 29.825 0 0 1-3.986-3.451c.248-.205.5-.414.754-.612-1.575-.75-2.43-2.46-3.276-4.006a39.37 39.37 0 0 0-8.683-10.864c-.086-.335-.588-.267-.857-.476a.72.72 0 0 1-.19-.67c.043-.241.15-.46.211-.698a4.74 4.74 0 0 0-.043-1.697c-.06-.57-.036-1.2.337-1.625.122-.14.273-.245.392-.385a1.492 1.492 0 0 0 .269-1.174 4.179 4.179 0 0 0-.273-1.193l3.828-10.478c.894-2.443 1.794-4.939 1.884-7.543.072-2.079-.463-4.265-1.726-5.861.23-.058.46-.115.69-.18-1.493-1.985-1.655-4.61-1.694-7.104a93 93 0 0 0-.126-3.739 13.535 13.535 0 0 0 1.733.634 13.988 13.988 0 0 0 3 .544l-1.346-3.382a4.696 4.696 0 0 1-.416-1.589v-.104a1.625 1.625 0 0 1 0-.188 2.17 2.17 0 0 1 .183-.648c.094-.204.204-.4.33-.587.097-.144.2-.281.305-.422.388-.456.703-.97.933-1.523.094-.279.143-.57.147-.865a4.597 4.597 0 0 0-.08-.886 9.044 9.044 0 0 0-.135-.58c-.036-.115-.069-.234-.108-.36a.724.724 0 0 0-.029-.094c-.028-.09-.06-.176-.09-.263l-.032-.086c-.032-.094-.068-.187-.104-.281l-.021-.058c-.5-1.282-1.16-2.521-1.554-3.825a10.108 10.108 0 0 1-.258-1.08l-.043-.278c0-.08-.026-.159-.036-.234l-.033-.274c0-.087-.017-.173-.025-.26-.007-.086 0-.165 0-.252v-.479-.169-.558c0-.12 0-.238.03-.36v-.17c0-.173.038-.36.067-.519l.086-.468c.097-.433.146-.875.147-1.318v-.256l-.032-.209a.349.349 0 0 1 0-.061c0-.047-.021-.094-.036-.14-.014-.047 0-.047 0-.07l-.043-.132-.021-.062-.058-.14-.021-.043a2.435 2.435 0 0 0-.083-.17 3.804 3.804 0 0 0-.358-.543c-.854-1.132-2.282-1.992-3.065-3.242a7.267 7.267 0 0 1-.879-2.605c-.04-.209-.071-.418-.107-.627-.036-.209-.068-.407-.104-.612-.025-.126-.047-.252-.072-.36a.674.674 0 0 1 0-.083l-.065-.303v-.068l-.075-.314v-.057a5.492 5.492 0 0 0-.086-.328v-.04c-.032-.115-.065-.23-.1-.36v-.021a20.755 20.755 0 0 0-.112-.36c-.043-.123-.082-.246-.129-.36a4.686 4.686 0 0 0-.14-.361 9.616 9.616 0 0 0-1.317-2.349c-1.194-1.538-3.039-2.644-4.962-2.568a9.825 9.825 0 0 0-2.978.756l-2.511.93.7-.324a5.947 5.947 0 0 0-2.132.457 2.071 2.071 0 0 0-1.238 1.7c0 .433.155.861.1 1.29-.089.72-.738 1.189-1.076 1.819a2.325 2.325 0 0 0-.258 1.228V156a.174.174 0 0 1 0 .043v.083a64.104 64.104 0 0 1-3.118-1.441c-1.718-.85-3.462-1.848-4.535-3.462-.359-.519-.61-1.08-.95-1.606a12.665 12.665 0 0 0-1.3-1.57l-3.196-3.477c-.244.465.068 1.012.315 1.47.264.483.463.999.592 1.534a.723.723 0 0 1 0 .533c-.116.141-.267.249-.437.314a1.562 1.562 0 0 0-.66 1.8 1.982 1.982 0 0 0 1.474 1.294c.227.026.45.08.664.162.384.195.567.634.84.969.505.605 1.313.836 2.07 1.034 1.18 1.369 2.41 2.683 3.588 4.052 1.794 2.075 3.62 4.182 5.955 5.587.24.144.488.281.74.407v.126a1.42 1.42 0 0 0 .114.915 1.436 1.436 0 0 0 1.023.501l1.765.317c0 .227-.046.457-.086.684-.025.137-.054.274-.079.411l-.032.18a.063.063 0 0 1 0 .025.41.41 0 0 1-.018.144c-.018.05 0 .033 0 .05v.177a1.328 1.328 0 0 0 0 .17c.06.698.535 1.271.98 1.8.086.098.168.199.25.3a4.264 4.264 0 0 0-.807 1.696 5.599 5.599 0 0 0-.11 1.178 2.085 2.085 0 0 0-.54.814c-.12.43-.165.877-.132 1.322v.523a4.403 4.403 0 0 0 .302 1.837l.075.133c-.391.77-1.055 1.369-1.51 2.104a4.564 4.564 0 0 0 .412 5.198c.359.414.818.814.858 1.361a4.736 4.736 0 0 1-.072.742c-.043.591.23 1.153.376 1.726a1.807 1.807 0 0 1-.143 1.44c-.277.401-.404.887-.359 1.373.13.742-.176 1.48-.226 2.23-.025.324 0 .648-.029.972a5.662 5.662 0 0 1-.28.89l-.025.101c-.645.284-1.284.58-1.898.922-.334.148-.612.401-.792.72a1.876 1.876 0 0 0-.04.998c.182 1.29.367 2.58.556 3.873-.036 0-.064-.03-.1-.044l.136 1.913c-.014.486.11.966.359 1.383.145.158.277.328.395.508.215.443-.044.962-.237 1.416-.194.454-.259 1.102.165 1.347.223.155.464.283.717.382-.527 2.161-.043 4.467.445 6.657l1.109 5.014c.145.712.228 1.435.247 2.161v.314c.055.996.23 1.982.524 2.935.578 1.956.025 4.323.205 6.434a19.52 19.52 0 0 0 .61 3.036c1.26 5.007 2.379 9.921 2.813 15.072a3.78 3.78 0 0 0 1.794 1.264c-.054.634 0 1.355 0 1.726-.003.305-.051.609-.144.9a2.147 2.147 0 0 1-1.36 1.164 6.406 6.406 0 0 1-.556.158l.208-.18a4.627 4.627 0 0 0-3.448.598c-.326.169-.572.46-.685.811-.043.332.043.669.24.94a4.277 4.277 0 0 0 2.408 1.718c.97.257 1.967.396 2.97.414l1.841.108a.504.504 0 0 0 .122.656c.195.146.428.232.671.248a8.55 8.55 0 0 0 2.271.033.886.886 0 0 0 .52-.187.345.345 0 0 0 .11-.251.342.342 0 0 0-.11-.25.552.552 0 0 0 .503-.36c.07-.213.092-.438.065-.66-.047-.86-.126-2.114-.571-2.881a.71.71 0 0 0-.804-.36 31.985 31.985 0 0 1-.51-4.64c.46-.174.909-.378 1.343-.609-1.281-2.071-1.317-4.704-.915-7.118.162-.76.282-1.53.359-2.305.086-1.538-.144-3.289-.998-4.564a16.301 16.301 0 0 1 4.065 3.692c1.794 2.349 2.9 5.205 5.102 7.165l.88-.847c.47.793.91 1.603 1.323 2.425.327.606.583 1.248.765 1.912a8.81 8.81 0 0 1 .071 3.084 31.462 31.462 0 0 1-.222 1.624 4.53 4.53 0 0 1-.158.678.521.521 0 0 0-.05-.202c-.14-.245-.506-.133-.718.032-.373.284-.68.645-.9 1.059-.122.2-.178.433-.162.667a.98.98 0 0 0 .513.655c.965.569 2.178.159 3.23-.263.286-.102.558-.24.81-.41.51-.36.807-.998 1.324-1.362.277-.153.545-.324.8-.511.481-.44.535-1.185.872-1.747.585-.966 1.89-1.211 2.4-2.234.546-1.152-.143-2.579-1.037-3.317z"/></g><g><path fill="#a1616a" d="M356.212 253.284c0 .302-.047.602-.14.89a2.16 2.16 0 0 1-1.364 1.145c-.577.202-1.19.267-1.793.44a1.555 1.555 0 0 0-.696.36c-.51.515-.209 1.466.401 1.855s1.385.36 2.11.328a27.807 27.807 0 0 0 4.564-.652c.542-.126 1.173-.382 1.26-.93a1.446 1.446 0 0 0-.044-.522 30.787 30.787 0 0 1-.581-5.68c0-.123-3.025-.202-3.308-.022-.614.403-.373 2.143-.41 2.788z"/></g><g><path fill="#a1616a" d="M369.678 246.622c.498.832.968 1.679 1.41 2.547a7.055 7.055 0 0 1 .836 4.924c-.061.537-.137 1.08-.223 1.603-.086.522-.226 1.117-.67 1.42a1.545 1.545 0 0 0 1.327.118c.43-.167.826-.411 1.17-.72 2.231-1.848 3.917-4.535 3.99-7.442a1.135 1.135 0 0 0-.123-.656 1.272 1.272 0 0 0-.39-.36 30.056 30.056 0 0 1-4.618-3.894.428.428 0 0 0-.64-.13c-.857.433-2.288 1.048-2.647 2.025.244.127.445.324.578.565z"/></g><g><path fill="#3f3d56" d="M359.296 256.317c-1.877.792-3.918 1.08-5.935 1.336a.815.815 0 0 1-.717-.133.549.549 0 0 1-.047-.609c.111-.188.259-.352.434-.482l1.35-1.131a4.649 4.649 0 0 0-3.445.59 1.357 1.357 0 0 0-.685.8c-.043.328.043.66.24.926a4.255 4.255 0 0 0 2.408 1.693c.969.256 1.965.394 2.967.41l1.833.108a.502.502 0 0 0 .122.649c.199.14.432.224.675.241a8.85 8.85 0 0 0 2.267.033.88.88 0 0 0 .52-.188.327.327 0 0 0 0-.49.54.54 0 0 0 .5-.36c.07-.21.094-.432.067-.652-.05-.846-.125-2.082-.57-2.831-.445-.75-1.381-.173-1.984.09z"/></g><g><path fill="#3f3d56" d="M378.626 248.844a8.573 8.573 0 0 0-1.93-1.081.23.23 0 0 0-.359.09 19.883 19.883 0 0 0-2.845 5.511c-.359 1.124-.667 2.32-1.435 3.242-.1.12-.255.242-.395.173-.14-.068-.075-.418-.183-.609-.108-.19-.506-.13-.718.036a3.18 3.18 0 0 0-.897 1.045 1.084 1.084 0 0 0-.16.656.967.967 0 0 0 .509.644c.965.562 2.177.159 3.229-.259.285-.101.557-.237.81-.403.506-.36.804-.984 1.32-1.344.278-.15.545-.32.8-.504.482-.436.532-1.171.873-1.722.585-.951 1.887-1.196 2.396-2.205.564-1.134-.125-2.543-1.015-3.27z"/></g><g><path fill="#3f3d56" d="M364.085 196.606c2.049 1.546 2.91 4.287 2.82 6.844-.09 2.558-.993 5.044-1.883 7.443a6604.44 6604.44 0 0 0-3.825 10.338c.147.376.24.771.273 1.174a1.447 1.447 0 0 1-.27 1.156c-.118.14-.268.245-.39.382a2.057 2.057 0 0 0-.338 1.603c.117.551.131 1.119.043 1.675-.06.234-.168.454-.211.692a.688.688 0 0 0 .19.659c.269.205.771.14.857.468a39.025 39.025 0 0 1 8.676 10.717c.843 1.523 1.697 3.216 3.269 3.962a57.998 57.998 0 0 0-4.406 3.894c-2.203-1.934-3.301-4.751-5.099-7.068a16.238 16.238 0 0 0-4.061-3.645c.853 1.26 1.076 2.986.997 4.506a20.474 20.474 0 0 1-.359 2.273c-.402 2.381-.358 4.979.912 7.025-1.364.72-2.932 1.239-4.457 1.026a3.767 3.767 0 0 1-2.425-1.39c-.434-5.083-1.554-9.928-2.813-14.873a18.557 18.557 0 0 1-.606-2.99c-.183-2.104.358-4.42-.208-6.35a11.861 11.861 0 0 1-.52-2.883v-.31a12.055 12.055 0 0 0-.248-2.121l-1.112-4.964c-.485-2.161-.97-4.416-.445-6.567a3.737 3.737 0 0 1-.718-.36c-.423-.245-.359-.879-.161-1.329.197-.45.452-.962.233-1.398a3.272 3.272 0 0 0-.395-.5 2.504 2.504 0 0 1-.359-1.366l-.136-1.887c.787.312 1.443.889 1.855 1.632-1.026-1.596-.517-3.873.237-5.613.14-.534.45-1.008.88-1.35a2.538 2.538 0 0 1 1.513-.551c4.198-.739 9.3-2.515 12.69.046z"/></g><g opacity=".1"><path d="M362.178 207.34s-2.055 1.376-2.055 2.406c0 1.03-.514 10.306-.514 10.306v6.527s.36 3.437 0 4.294c-.358.857 0 4.809 0 5.324 0 .515.514-5.324.514-5.324v-6.185l.513-14.084z"/></g><g><path fill="#a1616a" d="M350.73 159.71l-1.199-.479c-2.44-.983-4.886-1.97-7.254-3.123-1.72-.84-3.46-1.823-4.532-3.415-.359-.511-.606-1.08-.95-1.585a12.38 12.38 0 0 0-1.296-1.549l-3.197-3.429c-.24.457.072.998.32 1.44.261.477.46.986.591 1.514a.701.701 0 0 1-.018.526c-.09.155-.28.22-.437.306a1.537 1.537 0 0 0-.657 1.772 1.978 1.978 0 0 0 1.475 1.275c.226.027.447.081.66.162.384.188.567.624.843.955.502.598 1.31.825 2.063 1.02 1.18 1.35 2.411 2.647 3.588 3.998 1.794 2.046 3.617 4.124 5.949 5.511.83.51 1.74.875 2.69 1.08.313-2.022.768-4.02 1.36-5.979z"/></g><g opacity=".15"><path d="M350.73 159.71l-1.199-.479c-2.44-.983-4.886-1.97-7.254-3.123-1.72-.84-3.46-1.823-4.532-3.415-.359-.511-.606-1.08-.95-1.585a12.38 12.38 0 0 0-1.296-1.549l-3.197-3.429c-.24.457.072.998.32 1.44.261.477.46.986.591 1.514a.701.701 0 0 1-.018.526c-.09.155-.28.22-.437.306a1.537 1.537 0 0 0-.657 1.772 1.978 1.978 0 0 0 1.475 1.275c.226.027.447.081.66.162.384.188.567.624.843.955.502.598 1.31.825 2.063 1.02 1.18 1.35 2.411 2.647 3.588 3.998 1.794 2.046 3.617 4.124 5.949 5.511.83.51 1.74.875 2.69 1.08.313-2.022.768-4.02 1.36-5.979z"/></g><g><path fill="#ff6f61" d="M348.534 166.538a1.43 1.43 0 0 1-1.023-.494 1.399 1.399 0 0 1-.111-.9c.206-1.966.64-3.9 1.292-5.764.58 1.08 1.725 1.707 2.809 2.277.966.54 1.974 1.002 3.014 1.38-.248-.084-.897 3.94-1.256 4.189-.456.32-1.546-.109-2.049-.199z"/></g><g><path fill="#a1616a" d="M351.315 165.344c3.024 0 5.475-2.461 5.475-5.497s-2.451-5.497-5.475-5.497c-3.024 0-5.475 2.461-5.475 5.497s2.451 5.497 5.475 5.497z"/></g><g><path fill="#fbbebe" d="M350.21 164.401s3.588 3.09 2.052 5.151c-1.535 2.06-2.396 3.437-.34 3.602 2.055.166 8.894-3.436 8.894-3.436s-6.33-5.155-5.303-8.245c1.026-3.091-5.303 2.928-5.303 2.928z"/></g><g><path fill="#ff6f61" d="M353.648 169.236a4.247 4.247 0 0 0-2.019 1.14 4.273 4.273 0 0 0-1.124 2.033c-.401 1.856.456 3.912-.358 5.63-.38.811-1.077 1.416-1.561 2.162a4.445 4.445 0 0 0 .412 5.13c.36.407.815.803.854 1.343a4.59 4.59 0 0 1-.071.72c-.043.584.23 1.135.358 1.7a1.75 1.75 0 0 1-.143 1.41 2.038 2.038 0 0 0-.359 1.354c.13.72-.176 1.458-.226 2.197-.025.32 0 .641-.029.962a5.503 5.503 0 0 1-.19.893l-.455 1.7a18.727 18.727 0 0 0 7.825 1.402c2.407-.047 4.779-.548 7.133-1.045.717-.151 1.435-.303 2.152-.497-1.489-1.96-1.65-4.55-1.69-7.01-.065-4.097-.37-8.187-.915-12.247.718-1.37 1.041-2.882 1.339-4.413.134-.612.191-1.24.168-1.866-.075-1.322-.67-2.547-1.259-3.735-.535-1.081-1.12-2.223-2.314-2.688a1.82 1.82 0 0 0-1.794.195c-.908.684-.635 1.866-.868 2.882-.305 1.304-1.504 2.244-2.785 2.626a9.078 9.078 0 0 1-2.927.273.515.515 0 0 1-.479-.599.52.52 0 0 1 .12-.258c.427-.475.85-.951 1.205-1.394z"/></g><g><path fill="#a1616a" d="M357.894 190.49c-2.027 1.664-4.076 3.343-6.419 4.52-1.37.689-2.83 1.2-4.173 1.942-.336.146-.615.4-.793.72a1.808 1.808 0 0 0-.04.984l.597 4.11c.161 1.113 1.227 1.823 2.091 2.522a1.49 1.49 0 0 1 .054-.994c.062-.105.129-.206.201-.303a2.812 2.812 0 0 0 .287-1.93 10.644 10.644 0 0 1-.226-1.982.654.654 0 0 1 .276-.576c2.91-1.405 6.042-2.482 8.97-3.819a9.4 9.4 0 0 0 2.181-1.242 3.36 3.36 0 0 0 1.267-2.108.441.441 0 0 0-.054-.324.452.452 0 0 0-.219-.13c-1.299-.471-2.687-.915-4-1.39z"/></g><g opacity=".1"><path d="M352.261 173.235c-1.008.17-2.063.692-2.407 1.66a3.677 3.677 0 0 0-.133 1.301 4.37 4.37 0 0 0 .301 1.801c.173.316.379.613.614.886 2.407 3.098 3.613 6.989 5.96 10.133.207.278.588.638.47.966-.043.08-.08.163-.112.248a.524.524 0 0 0 .172.458c.126.113.223.255.284.414.043.166-.065.382-.233.36.28.875 1.144 1.383 1.959 1.801 1.36.688 2.87 1.228 4.38 1.08.284-1.141.682-2.43.52-3.601a9.33 9.33 0 0 0-.871-2.55l-1.02-2.234c-.867-1.906-1.743-3.826-2.952-5.533a8.356 8.356 0 0 1-1.076-1.769c-.309-.806-1.163-1.372-1.676-2.067-.768-1.034-1.554-2.086-2.59-2.846-.427-.295-1.088-.594-1.59-.508z"/></g><g><path fill="#ff6f61" d="M352.261 172.727c-1.008.17-2.063.692-2.407 1.66a3.67 3.67 0 0 0-.133 1.301 4.37 4.37 0 0 0 .301 1.801c.173.316.379.613.614.886 2.407 3.098 3.613 6.988 5.96 10.133.207.277.588.638.47.965-.043.08-.08.164-.112.249a.524.524 0 0 0 .172.458c.126.113.223.255.284.414.043.165-.065.382-.233.36.28.875 1.144 1.383 1.959 1.801 1.36.688 2.87 1.228 4.38 1.08.284-1.141.682-2.43.52-3.601a9.329 9.329 0 0 0-.871-2.55l-1.02-2.234c-.867-1.906-1.743-3.826-2.952-5.537a8.244 8.244 0 0 1-1.076-1.765c-.309-.807-1.163-1.372-1.676-2.067-.768-1.034-1.553-2.086-2.59-2.846-.427-.292-1.088-.602-1.59-.508z"/></g><g><path fill="#3f3d56" d="M349.966 150.816a6.079 6.079 0 0 0-2.131.45 2.046 2.046 0 0 0-1.235 1.683c0 .425.155.846.1 1.271-.092.7-.738 1.171-1.076 1.802-.58 1.08-.129 2.449.628 3.41.757.963 1.794 1.687 2.555 2.63a6.822 6.822 0 0 1 1.414 5.472 4.273 4.273 0 0 0-.14 1.142c.06.688.534 1.253.98 1.78a81.3 81.3 0 0 1 6.178 8.252 22.044 22.044 0 0 1 1.52 2.608c.446.936.78 1.938 1.4 2.766a7.213 7.213 0 0 0 2.049 1.765 14.419 14.419 0 0 0 6.562 2.126l-1.342-3.34a3.85 3.85 0 0 1-.402-1.855c.147-1.2 1.357-1.992 1.751-3.133.21-.757.185-1.56-.072-2.302-.473-1.693-1.435-3.217-1.933-4.896a10.029 10.029 0 0 1-.291-4.553 7.139 7.139 0 0 0 .212-2.017c-.248-2.042-2.637-3.019-3.743-4.755-.717-1.113-.85-2.485-1.076-3.79-.359-1.901-.965-3.8-2.153-5.316-1.187-1.517-3.032-2.604-4.958-2.522a9.924 9.924 0 0 0-2.975.75l-2.511.915"/></g><g opacity=".1"><g opacity=".01"><path d="M361.174 155.084c.216 1.174.36 2.406.9 3.454-.074-.407-.139-.818-.214-1.221a15.414 15.414 0 0 0-.84-2.997c.065.267.108.519.154.764z"/></g><g opacity=".01"><path d="M365.797 165.654a10.027 10.027 0 0 0 .291 4.553c.124.4.267.793.43 1.178a9.876 9.876 0 0 1-.035-3.498 7.138 7.138 0 0 0 .211-2.017 3.169 3.169 0 0 0-.678-1.56c-.04.447-.143.897-.219 1.344z"/></g><g opacity=".01"><path d="M368.707 177.33c-.14-.49-.312-.971-.513-1.44a3.17 3.17 0 0 1-.1 1.513c-.392 1.142-1.605 1.934-1.752 3.134-.022.643.118 1.28.406 1.855l.269.67a1.984 1.984 0 0 1 0-.292c.147-1.2 1.356-1.992 1.75-3.134a3.883 3.883 0 0 0-.06-2.305z"/></g><g opacity=".01"><path d="M361.525 183.603a7.213 7.213 0 0 1-2.048-1.765c-.618-.828-.955-1.83-1.4-2.763a21.795 21.795 0 0 0-1.521-2.611 81.296 81.296 0 0 0-6.178-8.253l-.234-.281a2.68 2.68 0 0 0-.06.72c.06.688.534 1.254.979 1.78a81.295 81.295 0 0 1 6.178 8.252 22.042 22.042 0 0 1 1.522 2.608c.444.937.778 1.938 1.399 2.767a7.213 7.213 0 0 0 2.048 1.765 14.42 14.42 0 0 0 6.563 2.125l-.904-2.251a14.428 14.428 0 0 1-6.344-2.093z"/></g><g opacity=".01"><path d="M348.123 159.823c-.775-.943-1.794-1.664-2.555-2.626-.068-.09-.132-.183-.197-.277-.02.92.293 1.817.883 2.522.753.965 1.794 1.685 2.554 2.63.301.368.561.77.775 1.195a6.811 6.811 0 0 0-1.46-3.444z"/></g></g><g><path fill="#325cfd" d="M343.227 113.89l-1.815-1.834a.962.962 0 0 0-1.054-.212.961.961 0 0 0-.313.212l-11.396 11.33-4.818-4.878a.954.954 0 0 0-1.356 0l-1.834 1.819a.982.982 0 0 0 0 1.376l7.316 7.402a.974.974 0 0 0 1.37 0l13.9-13.854a.967.967 0 0 0 0-1.361z"/></g><g><path fill="#325cfd" d="M237.747 181.61l-1.815-1.834a.96.96 0 0 0-1.367 0l-11.396 11.33-4.818-4.878a.954.954 0 0 0-1.356 0l-1.834 1.8a.982.982 0 0 0 0 1.377l7.316 7.402a.974.974 0 0 0 1.37 0l13.9-13.854a.967.967 0 0 0 0-1.343z"/></g></g></g></svg>