<svg width="475" height="201" viewBox="0 0 475 201" fill="none" xmlns="http://www.w3.org/2000/svg">
<path opacity="0.1" d="M360 179.276L431.439 108L360 36.7242L381.78 15L475 108L381.78 201L360 179.276Z" fill="#ECEFF1"/>
<path opacity="0.1" d="M155 113H184.084V84H155V113ZM301 84H271.916V113H301V84ZM213.458 113H242.542V84H213.458V113Z" fill="#ECEFF1"/>
<path opacity="0.1" d="M115 179.159L43.488 107.5L114.927 35.841L93.1471 14L0 107.5L93.2197 201L115 179.159Z" fill="#ECEFF1"/>
<path d="M360 166.159L431.439 94.5L360 22.841L381.78 1L475 94.5L381.78 188L360 166.159Z" fill="#E9002C"/>
<path d="M155 99H184.084V70H155V99ZM301 70H271.916V99H301V70ZM213.458 99H242.542V70H213.458V99Z" fill="#E9002C"/>
<path d="M115 165.159L43.488 93.5L114.927 21.841L93.1471 0L0 93.5L93.2197 187L115 165.159Z" fill="#E9002C"/>
</svg>
