<svg xmlns="http://www.w3.org/2000/svg" width="361" height="271" viewBox="0 0 361 271"><g><g><g/><g><path fill="#e9002c" d="M336.198 111.35H0v159.653h336.198z"/></g><g><path fill="#f0f0f0" d="M280.616 176.02H55.58v94.978h225.036z"/></g><g><path fill="#3f3d56" d="M280.616 181.82H55.58v.905h225.036z"/></g><g><path fill="#3f3d56" d="M59.638 180.8a1.62 1.62 0 1 0-.001-3.239 1.62 1.62 0 0 0 .001 3.239z"/></g><g><path fill="#3f3d56" d="M65.188 180.8a1.62 1.62 0 1 0-.001-3.239 1.62 1.62 0 0 0 .001 3.239z"/></g><g><path fill="#3f3d56" d="M70.738 180.8a1.62 1.62 0 1 0-.001-3.239 1.62 1.62 0 0 0 .001 3.239z"/></g><g><path fill="#e9002c" d="M179.863 224.5l2.396 4.859 5.357.779-3.877 3.782.915 5.34-4.791-2.522-4.792 2.522.915-5.34-3.876-3.782 5.357-.78z"/></g><g><path fill="#e9002c" d="M201.423 224.5l2.396 4.859 5.357.779-3.877 3.782.915 5.34-4.791-2.522-4.792 2.522.915-5.34-3.876-3.782 5.357-.78z"/></g><g><path fill="#e9002c" d="M222.973 224.5l2.396 4.859 5.357.779-3.877 3.782.915 5.34-4.791-2.522-4.792 2.522.915-5.34-3.876-3.782 5.357-.78z"/></g><g><path fill="#e9002c" d="M244.533 224.5l2.396 4.859 5.357.779-3.877 3.782.915 5.34-4.791-2.522-4.792 2.522.915-5.34-3.876-3.782 5.357-.78z"/></g><g><path fill="#e9002c" d="M266.083 224.5l2.396 4.859 5.357.779-3.877 3.782.915 5.34-4.791-2.522-4.792 2.522.915-5.34-3.876-3.782 5.357-.78z"/></g><g><path fill="#3f3d56" d="M158.615 204.06H70.95v55.63h87.665z"/></g><g opacity=".1"><path d="M88.822 111.35L0 172.38v-31.266l43.317-29.764z"/></g><g opacity=".1"><path d="M189.839 111.35L0 241.791v-31.27l144.335-99.171z"/></g><g><path fill="#f0f0f0" d="M51.355 156.87l-6.085-6.53 6.523-6.09 6.085 6.53zm-5.115-6.496l5.148 5.524 5.52-5.153-5.148-5.524z"/></g><g><path fill="#3f3d56" d="M252.15 152.758h-8.92v-8.928h8.92zm-8.234-.686h7.548v-7.555h-7.548z"/></g><g><path fill="#f0f0f0" d="M307.414 228.957a4.556 4.556 0 0 0 4.555-4.559 4.556 4.556 0 0 0-4.555-4.558 4.556 4.556 0 0 0-4.554 4.558 4.556 4.556 0 0 0 4.554 4.559z"/></g><g><path fill="#2f2e41" d="M307.417 237.567a13.166 13.166 0 0 1-12.155-8.13 13.18 13.18 0 0 1 2.852-14.35 13.153 13.153 0 0 1 14.338-2.855 13.16 13.16 0 0 1 5.904 4.85 13.177 13.177 0 0 1 2.218 7.316 13.189 13.189 0 0 1-3.858 9.308 13.166 13.166 0 0 1-9.3 3.86zm0-25.324a12.153 12.153 0 0 0-11.911 14.527 12.159 12.159 0 0 0 3.323 6.224 12.143 12.143 0 0 0 13.235 2.635 12.147 12.147 0 0 0 5.451-4.477 12.163 12.163 0 0 0 2.047-6.754 12.175 12.175 0 0 0-3.562-8.59 12.153 12.153 0 0 0-8.583-3.565z"/></g><g><path fill="#fff" d="M103.482 247.495c2.092 7.74 9.257 12.534 9.257 12.534s3.774-7.755 1.682-15.495c-2.092-7.74-9.257-12.534-9.257-12.534s-3.774 7.755-1.682 15.495z"/></g><g><path fill="#e9002c" d="M106.556 245.833c5.74 5.593 6.442 14.191 6.442 14.191s-8.606-.47-14.346-6.063-6.442-14.191-6.442-14.191 8.606.47 14.347 6.063z"/></g><g><path fill="#fff" d="M122.511 247.495c-2.092 7.74-9.257 12.534-9.257 12.534s-3.774-7.755-1.682-15.495c2.092-7.74 9.257-12.534 9.257-12.534s3.774 7.755 1.682 15.495z"/></g><g><path fill="#e9002c" d="M119.442 245.833c-5.74 5.593-6.442 14.191-6.442 14.191s8.606-.47 14.346-6.063 6.442-14.191 6.442-14.191-8.606.47-14.346 6.063z"/></g><g><path fill="#f2f2f2" d="M291.76 8.62h-35.48v41.372h35.48z"/></g><g><path fill="#3f3d56" d="M279.697 111.823l-.493-.482a25.211 25.211 0 0 0 5.051-8.843c1.676-5.049 2.495-13.022-3.124-22.336-5.748-9.529-6.007-17.269-5.212-22.084.866-5.239 3.073-8.176 3.167-8.298l.547.419c-.022.028-2.21 2.95-3.04 8.033-.767 4.692-.5 12.245 5.128 21.574 5.762 9.552 4.909 17.746 3.178 22.938-1.875 5.626-5.066 8.94-5.202 9.079z"/></g><g><path fill="#3f3d56" d="M305.543 50.337H255.94V.69h49.603zm-48.914-.69h48.225V1.38H256.63z"/></g><g><path fill="#3f3d56" d="M296.583 15.17H266.27v.69h30.313z"/></g><g><path fill="#3f3d56" d="M296.583 22.75H266.27v.69h30.313z"/></g><g><path fill="#3f3d56" d="M296.583 30.34H266.27v.69h30.313z"/></g><g><path fill="#f2f2f2" d="M347.22 38.61h-35.48v41.372h35.48z"/></g><g><path fill="#3f3d56" d="M335.157 141.823l-.493-.482a25.21 25.21 0 0 0 5.051-8.843c1.676-5.049 2.495-13.022-3.124-22.336-5.748-9.529-6.007-17.269-5.212-22.084.866-5.239 3.073-8.176 3.167-8.298l.547.419c-.022.028-2.21 2.95-3.04 8.033-.767 4.692-.5 12.245 5.128 21.574 5.762 9.552 4.909 17.746 3.178 22.938-1.875 5.626-5.066 8.94-5.202 9.079z"/></g><g><path fill="#3f3d56" d="M361.003 80.326H311.4V30.68h49.603zm-48.914-.69h48.225V31.37H312.09z"/></g><g><path fill="#3f3d56" d="M352.043 45.16H321.73v.69h30.313z"/></g><g><path fill="#3f3d56" d="M352.043 52.75H321.73v.69h30.313z"/></g><g><path fill="#3f3d56" d="M352.043 60.33H321.73v.69h30.313z"/></g><g><path fill="#f2f2f2" d="M83.36 7.93H47.88v41.372h35.48z"/></g><g><path fill="#3f3d56" d="M71.297 111.133l-.493-.482a25.21 25.21 0 0 0 5.051-8.843c1.676-5.049 2.495-13.022-3.124-22.335-5.748-9.53-6.007-17.27-5.212-22.085.866-5.239 3.073-8.176 3.167-8.298l.547.419c-.022.028-2.21 2.95-3.04 8.033-.767 4.692-.5 12.245 5.128 21.574 5.762 9.552 4.909 17.746 3.178 22.938-1.875 5.626-5.066 8.94-5.202 9.079z"/></g><g><path fill="#3f3d56" d="M97.143 49.647H47.54V0h49.603zm-48.914-.69h48.225V.69H48.23z"/></g><g><path fill="#3f3d56" d="M88.183 14.48H57.87v.69h30.313z"/></g><g><path fill="#3f3d56" d="M88.183 22.07H57.87v.69h30.313z"/></g><g><path fill="#3f3d56" d="M88.183 29.65H57.87v.69h30.313z"/></g><g><path fill="#f0f0f0" d="M161.713 126.24l2.396 4.859 5.357.779-3.877 3.782.915 5.34-4.791-2.521-4.792 2.52.915-5.34-3.876-3.781 5.357-.78z"/></g><g><path fill="#2f2e41" d="M170.378 16.69c8.279 0 14.99 7.454 14.99 16.65V45.02h-3.59l-2.079-4.328.52 4.328h-23.074l-1.89-3.935.473 3.935h-2.598V35.85c0-10.581 7.722-19.159 17.248-19.159z"/></g><g><path fill="#2f2e41" d="M187.55 93.02l9.204 3.915 31.98 26.021a9.427 9.427 0 0 1 2.071 5.066c.23 2.994 9.894 18.653 6.442 20.726-3.45 2.072-15.875 8.29-16.565 4.145-.69-4.145-4.372-21.877-4.372-21.877l-30.83-27.633z"/></g><g><path fill="#2f2e41" d="M223.67 149.431l3.911 11.514s-4.141 4.375-2.07 8.06v12.665h3.22l.921-6.678s3.669 6.594 5.522 6.678c3.884.177 11.577 1.56 11.807-.512.23-2.073-5.825-4.093-5.825-4.093l-6.442-17.732-2.761-10.823z"/></g><g><path fill="#2f2e41" d="M163.617 90.023s-2.071 20.265 3.91 23.95c5.983 3.684 32.442 15.428 32.442 15.428s-11.274 10.593-8.973 13.126c2.3 2.533 12.654 9.442 14.035 8.06 1.38-1.382 16.795-17.962 14.955-23.258-1.841-5.297-27.38-22.568-27.38-22.568l-2.99-10.823-.92-8.75-9.664-6.218z"/></g><g><path fill="#ffb9b9" d="M174.162 42.84c5.297 0 9.591-4.298 9.591-9.6s-4.294-9.6-9.591-9.6c-5.298 0-9.592 4.298-9.592 9.6s4.294 9.6 9.592 9.6z"/></g><g><path fill="#ffb9b9" d="M166.729 37.17s.46 8.75-6.672 11.514c-7.133 2.763 17.716 20.725 17.716 20.725V49.375s-3.222-3.454 0-8.75z"/></g><g><path fill="#ffb9b9" d="M151.43 78.28l1.84 8.98 5.522 30.858s-4.601 13.126 1.611 12.896c6.212-.23 3.221-14.277 3.221-14.277l-3.221-25.561v-9.902z"/></g><g><path fill="#ffb9b9" d="M191.001 73.9l2.07 8.06 9.434 22.797s6.442 10.824 1.15 10.593c-5.291-.23-5.291-10.593-5.291-10.593L187.55 86.335V75.973z"/></g><g><path fill="#2f2e41" d="M192.606 141.15l-7.592 7.139s-5.292-1.152-7.363 5.066a676.34 676.34 0 0 1-3.451 10.132l2.76 1.612 3.452-4.836s2.07 8.75 4.142 9.442c2.07.69 12.424 5.296 11.503 0l-5.061-7.37s-.69-8.29 1.38-8.98c2.07-.691 7.593-7.6 7.593-7.6z"/></g><g><path fill="#3f3d56" d="M163.26 97.16s21.628-7.83 23.008-7.14c1.028.455 2.122.74 3.24.842l-.019-3.144s-7.132-2.533-11.044-.921c-3.91 1.612-15.875 8.75-15.875 8.75z"/></g><g><path fill="#d0cde1" d="M176.392 64.81s-6.212-7.138-8.052-11.513a11.3 11.3 0 0 0-5.972-5.877s-13.815 3.114-13.585 8.64c.23 5.527 8.743 14.047 8.743 14.047s-1.15 30.627 5.061 30.167a13.342 13.342 0 0 0 2.762-5.527c.69-3.224 22.087-6.678 22.087-6.678s1.84 3.224 2.07 1.842c.23-1.381-1.84-35.232-1.84-35.232l-10.972-7.259z"/></g><g><path fill="#d0cde1" d="M150.55 53.836l-.155.087a3.175 3.175 0 0 0-1.62 2.771l.002 17.09a3.205 3.205 0 0 1-1.138 2.437c-.887.754-1.709 1.842-.013 2.407 2.761.922 13.575 5.527 13.805 3.915.23-1.612.69-3.454 0-3.454-.54 0-3.76-16.513-6.347-23.573a3.178 3.178 0 0 0-3.23-2.076 3.173 3.173 0 0 0-1.305.396z"/></g><g><path fill="#d0cde1" d="M184.56 53.87l3.221.921 3.681 15.89s4.372.92 2.991 2.532c-1.38 1.612-7.132 5.758-7.132 5.758z"/></g><g><path fill="#2f2e41" d="M166.115 21.278a7.863 7.863 0 0 1 6.202-3.168h.295c5.674 0 10.273 5.139 10.273 11.478h-1.901l-.307-2.34-.45 2.34H168.95l-.945-1.98.236 1.98h-2.218c-1.035 5.145.452 10.29 4.462 15.435h-3.779l-1.89-3.958.473 3.958h-7.203l-1.417-9.103c0-6.817 3.958-12.598 9.445-14.642z"/></g></g></g></svg>