<svg xmlns="http://www.w3.org/2000/svg" width="359" height="273" viewBox="0 0 359 273"><defs><linearGradient id="m2uta" x1="173.33" x2="173.33" y1="255.62" y2="62.71" gradientUnits="userSpaceOnUse"><stop offset="0" stop-color="gray" stop-opacity=".25"/><stop offset=".54" stop-color="gray" stop-opacity=".12"/><stop offset="1" stop-color="gray" stop-opacity=".1"/></linearGradient></defs><g><g><g/><g opacity=".1"><path fill="#325cfd" d="M354.434 78.748c-.063.293-.122.586-.191.876-2.157 9.967-5.682 19.571-10.923 28.391-.175.294-.349.587-.526.88a81.603 81.603 0 0 1-12.315 15.575c-2.611 2.583-5.458 5.037-8.845 6.807-4.745 2.484-10.292 3.492-15.744 4.316-5.662.86-11.404 1.578-17.128 2.352-2.035.271-4.057.557-6.067.86-5.531.821-11.022 1.77-16.382 3.028-6.626 1.552-13.048 3.585-19.114 6.445-.485.219-.964.452-1.437.698a82.115 82.115 0 0 0-3.509 1.852c-.233.135-.463.254-.69.386-.684.382-1.355.774-2.026 1.169l-.026.017c-.444.26-.881.527-1.315.794-2.48 1.509-4.906 3.084-7.333 4.668l-1.526.989-2.364 1.532c-.46.3-.931.6-1.394.896-.329.218-.658.435-1.016.659a132.849 132.849 0 0 1-6.544 3.898 72.79 72.79 0 0 1-11.318 5.113l-.052.02a51.4 51.4 0 0 1-6.011 1.7 44.265 44.265 0 0 1-3.542.629 37.858 37.858 0 0 1-9.601.136c-6.271-.729-12.147-3.14-18.414-3.954-12.903-1.648-25.434 3.66-37.568 7.818a217.41 217.41 0 0 1-9.016 2.87c-2.013.596-4.032 1.16-6.067 1.704a227.955 227.955 0 0 1-38.045 6.685c-5.37.527-10.773.647-16.161.359a59.31 59.31 0 0 1-6.064-.659c-6.806-1.054-13.152-3.265-18.275-7.315-4.196-3.324-7.198-7.657-9.484-12.19a53.27 53.27 0 0 1-5.231-16.768 51.917 51.917 0 0 1-.368-3.604 51.687 51.687 0 0 1 2.262-19.06c2.17-6.893 5.787-13.509 7.379-20.454.065-.295.128-.588.187-.88.217-1.055.379-2.121.483-3.193.813-8.533-2.301-16.853-4.744-25.198a134.443 134.443 0 0 1-1.01-3.654c-2.262-8.824-2.89-18.27-.875-27.077.063-.293.138-.586.21-.876a39.675 39.675 0 0 1 7.439-15.265c3.775-4.745 8.73-8.695 14.024-12.164a102.904 102.904 0 0 1 8.004-4.742 106.451 106.451 0 0 1 6.063-2.995C78.813 5.244 97.737 1.544 116.45 2.362c.986.042 1.973.095 2.96.167.986.073 2.064.159 3.097.254 12.054 1.173 23.783 4.003 35.43 7.097 3.903 1.038 7.8 2.102 11.693 3.147 1.733.46 3.462.922 5.195 1.37 8.487 2.198 17.099 4.188 25.819 5.674 2.019.35 4.04.668 6.064.955a173.338 173.338 0 0 0 21.205 1.803c2.76.054 5.521.03 8.283-.073 1.395-.05 2.79-.126 4.186-.227 14.419-1.018 28.355-4.425 42.313-7.608 2.019-.461 4.041-.916 6.067-1.364a347.513 347.513 0 0 1 7.983-1.677c16.616-3.272 31.426-1.39 46.874 5.36 3.512 1.533 7.02 3.384 9.171 6.26 2.15 2.877 2.689 6.41 3.091 9.82.568 4.856.94 9.775 1.081 14.72 0 .29 0 .583.02.877.224 9.99-.519 20.075-2.548 29.83z"/></g><g opacity=".1"><path fill="#325cfd" d="M206.703 170.945l-.052.02a51.596 51.596 0 0 1-6.011 1.7v-33.347h.247l.286.017.516.029.825.099.378.037.411.042h.063l.727.089.154.02.352.05.503.072 1.207-.053.164.03c.066 0 .135.02.204.033v-30.889h.026zm-5.014-31.584l-.516-.03-.286-.016h-.247v.003h.247l.286.017.516.029.825.099zm-79.177-30.467v71.286a231.23 231.23 0 0 1-6.067 1.704v-72.99H62.22v80.041a71.214 71.214 0 0 1-6.064-.659v-79.382H32.438a43.4 43.4 0 0 0 .188-.88h23.53v-28.39H28.364a68.06 68.06 0 0 1-.253-.877h28.045V48.893H26.48c.062-.293.138-.587.21-.877h29.466v-32.17a119.443 119.443 0 0 1 6.064-2.995v35.165h54.235V2.39c.987.043 1.973.096 2.96.168 1.032.073 2.065.157 3.097.254v45.204h77.405l.187-.168L157.939 9.88c3.903 1.038 7.8 2.102 11.693 3.147l31.005 27.923v-20.88c2.016.35 4.038.669 6.063.956v20.886l21.206-19.09c2.76.057 5.521.033 8.283-.072l-27.598 24.849-.283.25.187.168h74.196V14.91c2.019-.47 4.041-.924 6.066-1.364v34.47h68.201c.02.29.02.584.02.877h-68.221v29.854h65.672c-.062.293-.121.586-.19.876h-65.482v28.391h54.558c-.174.294-.348.587-.526.88h-54.032v29.057c-2.027.272-4.05.557-6.066.853v-29.91H244.36l-.145-.88h38.476v-28.39h-65.169c-.116-.076-.234-.156-.356-.228l-.157-.102-.204-.125c-.119-.07-.237-.139-.362-.205-.125-.066-.201-.112-.306-.168l-.072-.04h-9.362v-.01h75.988V48.894h-74.922l-1.066.8v27.499l-.253.099-.266.125h-.02l-.056.03-.167.088-.168.09a9.177 9.177 0 0 0-.493.29l-.158.105-.329.21c-.424.284-.842.58-1.273.857-.108.07-.217.139-.328.201-.234.139-.474.27-.721.389a2.759 2.759 0 0 1-.328.142l-.178.069-.164.056a7.704 7.704 0 0 1-1.161.305v-.625h-78.128v28.391h61.884c.003.03.024.055.033.086.089.264.178.524.263.788h.003c-.085-.264-.177-.528-.266-.788.089.264.178.524.263.788h15.948v.006zm119.089 0l.714-.88h.815v.88zM62.219 78.747h54.226V48.893H62.22zm54.226 29.267v-28.39H62.22v28.39zm6.067-29.267h78.128V48.893h-78.128zm78.128 29.267V80.248a8.485 8.485 0 0 1-.023.005v27.755h-16.221v.006zm30.482.88c.039-.293.075-.586.115-.88h-.007l-.115.88z"/></g><g opacity=".1"><path fill="#325cfd" d="M88.296 28.338h.47a.954.954 0 0 1-.575-.768c0-.606.904-1.1 2.009-1.1h14.06c1.105 0 2.006.494 2.006 1.1 0 .603-.901 1.1-2.006 1.1h-.47a.943.943 0 0 1 .575.765c0 .518-.657.953-1.535 1.068h4.048c1.101 0 2.005.494 2.005 1.1 0 .607-.904 1.1-2.006 1.1H92.814c-1.102 0-2.006-.497-2.006-1.1 0-.517.658-.949 1.536-1.067h-4.048c-1.105 0-2.006-.494-2.006-1.1 0-.607.901-1.098 2.006-1.098z"/></g><g opacity=".1"><path fill="#325cfd" d="M240.686 38.808h.47a.954.954 0 0 1-.572-.768c0-.606.9-1.1 2.006-1.1h14.06c1.105 0 2.01.494 2.01 1.1 0 .603-.905 1.098-2.01 1.098h-.467a.954.954 0 0 1 .572.767c0 .518-.657.953-1.535 1.068h4.048c1.104 0 2.005.494 2.005 1.1 0 .607-.9 1.1-2.005 1.1h-14.06c-1.106 0-2.01-.497-2.01-1.1 0-.517.658-.952 1.536-1.067h-4.048c-1.102 0-2.006-.494-2.006-1.1 0-.607.904-1.098 2.006-1.098z"/></g><g opacity=".1"><path fill="#325cfd" d="M66.72 83.608h.466a.95.95 0 0 1-.572-.768c0-.602.904-1.1 2.006-1.1h14.063c1.102 0 2.006.498 2.006 1.1 0 .607-.904 1.1-2.006 1.1h-.47a.941.941 0 0 1 .572.765c0 .518-.657.953-1.535 1.068h4.047c1.105 0 2.01.497 2.01 1.1 0 .603-.905 1.1-2.01 1.1H71.25c-1.105 0-2.006-.493-2.006-1.1 0-.514.658-.949 1.536-1.067h-4.06c-1.106 0-2.01-.494-2.01-1.1 0-.607.917-1.098 2.01-1.098z"/></g><g opacity=".1"><path fill="#325cfd" d="M331.465 201.017c2.362-11.582-26.557-27.284-64.592-35.072-38.035-7.789-70.783-4.714-73.145 6.867-2.362 11.581 26.556 27.284 64.592 35.072 38.035 7.788 70.783 4.714 73.145-6.867z"/></g><g><path fill="#3a3768" d="M254.66 126.806s3.739-18.388 18.013-16.685c0 0 9.864.68 11.893 7.15v14.303z"/></g><g><path fill="#d48a9b" d="M332.825 133.62l-127.112-10.56-16.313 3.407 1.02 22.816 1.11.135 1.267 34.263 124.731 22.474 13.258-11.239v-37.142l1.697-.998z"/></g><g opacity=".05"><path d="M332.997 133.62l-.342 23.156-13.764 6.47-.171-24.18z"/></g><g opacity=".05"><path d="M330.787 157.8l.168 36.44L317.7 205.48l.852-42.23z"/></g><g opacity=".05"><path d="M191.705 150.79l126.951 15.522.066-2.946L191.61 149.63z"/></g><g opacity=".05"><path d="M330.787 159.138V157.8l-12.577 5.562v2.952z"/></g><g><path fill="#efc6cd" d="M189.23 126.467l16.313-3.407 127.112 10.56-14.274 5.446z"/></g><g opacity=".1"><path d="M319.115 134.28l6.238.409-10.339 3.1-5.264-.379z"/></g><g><path fill="#fff" d="M319.115 134.01l6.238.409-10.339 3.103-5.264-.382z"/></g><g><path fill="#d3dae1" d="M318.37 134.71c.247-.105.506.096.77.145.15.03.305 0 .457.03.305.04.608.244.9.141"/></g><g><path fill="#d3dae1" d="M318.05 134.89c.243-.105.506.093.77.145.15.027.305 0 .456.027.306.043.609.247.901.145"/></g><g><path fill="#d3dae1" d="M317.3 135.27c.247-.105.51.093.773.142.148.03.306 0 .453.03.31.043.612.247.901.142"/></g><g opacity=".1"><path d="M292.155 131.2l6.238.412-10.339 3.1-5.264-.382z"/></g><g><path fill="#fff" d="M292.155 130.93l6.238.409-10.339 3.1-5.264-.379z"/></g><g><path fill="#d3dae1" d="M291.4 131.63c.247-.105.506.093.77.145.15.027.305 0 .456.027.306.043.609.247.901.145"/></g><g><path fill="#d3dae1" d="M291.08 131.82c.243-.105.506.093.77.142.15.03.305 0 .456.03.306.043.609.247.901.142"/></g><g><path fill="#d3dae1" d="M290.34 132.19c.247-.105.51.096.773.145.148.03.306 0 .453.03.31.04.612.247.901.141"/></g><g opacity=".1"><path d="M305.085 132.74l6.24.409-10.337 3.103-5.268-.382z"/></g><g><path fill="#fff" d="M305.085 132.47l6.24.409-10.337 3.1-5.268-.382z"/></g><g><path fill="#d3dae1" d="M304.34 133.17c.247-.105.51.093.773.142.148.03.302 0 .453.03.306.04.612.247.901.142"/></g><g><path fill="#d3dae1" d="M304.01 133.36c.247-.105.51.096.773.145.148.03.302 0 .454.03.305.04.611.247.9.141"/></g><g><path fill="#d3dae1" d="M303.27 133.73c.243-.105.506.093.77.145.15.027.305 0 .457.027.305.043.608.247.9.145"/></g><g opacity=".1"><path fill="#325cfd" d="M163.86 260.745c36.771 0 66.579-6.148 66.579-13.732 0-7.585-29.808-13.733-66.58-13.733-36.77 0-66.579 6.148-66.579 13.733 0 7.584 29.809 13.732 66.58 13.732z"/></g><g><path fill="url(#m2uta)" d="M236.016 144.115l-6.116 6.26-2.374 3.077-1.315 6.738-.388 1.977-.329 1.736c-.072.485-.132.857-.174 1.088-.431 2.458-1.151 13.284-1.151 13.284a26.808 26.808 0 0 1-4.012 1.552l-.108.593c-.822 4.791-1.128 13.387-1.128 13.387s2.808 4.29 1.726 7.311c-1.082 3.021 1.006 8.01 1.006 8.01s.648 19.683-.575 21.65c-1.223 1.967.286 9.838.286 9.838a12.83 12.83 0 0 1-.26.613c.033.105.066.215.099.329.572 1.898 1.417 4.722 1.746 5.799.503 1.687-2.016 3.094-4.965 3.727-2.95.632-6.833 3.512-6.833 3.512s-7.48 1.545-12.587.843c-5.107-.701-4.232-6.115-.287-7.449 2.743-.926 5.551-3.193 7.017-4.511l.03-.023a59.977 59.977 0 0 1-.082-4.204c-2.453-.883-5.59 1.077-5.59 1.077s-10.358-.21-13.81-1.265c-3.453-1.054.503-6.257 6.116-5.762 2.058.178 3.426-.257 4.36-.883.134-.093.256-.188.375-.284-.375-.224-.582-.448-.566-.659.145-1.828 2.16-4.57 2.16-4.57s-3.166-1.973-2.518-2.879c.647-.906-.865-3.295-.865-3.295s-.507-8.646-1.151-10.543c-.645-1.898-1.726-7.661-1.726-7.661s-.07-4.708-.07-6.817c0-2.108-.506-17.571-.506-17.571l-.066-9.779a6.071 6.071 0 0 0-2.522 2.541s.385-4.992.865-11.582l-.072-.016.141-.936c.31-4.28.661-9.146.967-13.73l-.605-1.077.868-5.433-10.115 2.007a2.3 2.3 0 0 1-.966.19c-1.329-.035-1.71-1.594-1.776-3.034-.33.298-.727.51-1.157.62-.438 1.219-2.536 2.369-2.536 2.369l-6.185-4.172s.398-.385.895-.774c-1.52-.006-5.383-.04-6.074-.207-.585-.145-3.847.487-7.253 1.084.09.963.11 1.932.059 2.9a19.033 19.033 0 0 0 .098 4.964l2.601 8.422-.693.237 2.324 4.54s4.413 6.092-.766 8.435c-4.113 1.861-4.9-7.74-5.05-11.772l-.158.052.89 21.937 1.152 20.902-.385 15.746s.095 3.951-2.207 8.623c-2.301 4.672.48 7.307.48 7.307-.042.096-.092.185-.138.274 2.006 1.351 5.074 2.613 9.826 4.507 6.81 2.715 3.357 3.654 3.357 3.654s-11.216 4.217-14.863.936c-3.646-3.282-6.33-2.343-6.33-2.343s-6.33.096-7.579-.375c-.733-.274-.339-2.587.112-4.448.026-1.753.043-6.386-.493-8.86-.671-3.091-.579-16.115-.194-17.71.384-1.594.575-4.688.575-4.688s-.29-3.654.194-5.433a2.784 2.784 0 0 0-.717-2.765l-.052-.046s-2.111 7.015-2.878 8.237c-.766 1.223-1.068 7.308-1.15 8.435-.083 1.127-4.028 10.497-4.028 10.497s-1.562 4.32-1.848 5.539c-.287 1.219-1.437 4.685-1.437 4.685l-4.176 7.907.128.33 3.758 9.766s.865 4.504-3.548 4.688c-4.412.185-10.167-4.688-10.167-4.688l-.286-5.061s-.385.191-1.15-.936c-.517-.754.226-3.874.769-5.851.04-.142.075-.274.111-.399l-.21-.31c-1.437-2.168-2.111-9.746-2.111-9.746s5.287-.095 3.946-5.061c-1.342-4.965 1.15-8.81 1.055-10.497-.095-1.687 1.151-7.212 1.822-8.056.67-.843.575-4.415.385-6.375-.191-1.96-.096-8.896-.096-8.896s.194-3.09 1.151-4.497c.957-1.407.576-5.437.576-5.437s1.821-.935.575-10.026c-1.246-9.09 2.012-20.899 2.012-20.899l.109-1.647.036-.547a18.353 18.353 0 0 0-3.525-1.048s-1.798-12.51-1.078-15.251c.72-2.742-1.076-10.254-1.51-12.932-.434-2.679 1.224-10.05 3.236-11.246 2.012-1.196 4.89-5.202 6.616-6.398 1.453-1.005 3.061-2.31 3.531-2.698l.138-.113s.287-2.17 1.437-3.294a.248.248 0 0 1 .056-.033c-.042-.31-.095-.616-.154-.92a8.477 8.477 0 0 1-2.134-.658c-.888-3.058-5.153-4.03-6.452-6.943a4.222 4.222 0 0 1-.233-2.747c.184-.719.562-1.44.398-2.165-.053-.237-.165-.458-.237-.692a3.446 3.446 0 0 1-.115-1.203 7.967 7.967 0 0 1 1.591-4.395c.839-1.113 1.996-2.066 2.361-3.4.047-.299.15-.586.303-.847.165-.194.373-.348.608-.448a8.375 8.375 0 0 1 2.867-.83c1.076-.109 2.164-.01 3.233-.162 1.49-.214 2.87-.906 4.353-1.143 1.996-.323 4.213.399 5.501 1.852l-.049-.132a4.35 4.35 0 0 1 1.036 1.809c.091.477.213.948.365 1.41.253.6.746 1.097.894 1.73a1.768 1.768 0 0 1-.621 1.7.872.872 0 0 1-.086.069l.112.125a10.381 10.381 0 0 1 2.443 6.689v.28a10.433 10.433 0 0 1-3.794 8.026c-.865 3.08-.536 6.616.03 9.436a.384.384 0 0 1 .193-.03c.02 0 .056.04.106.12.309.042 1.519 1.778 1.74 2.55 0 0 .334.573.844 1.462 1.144.9 3.084 2.965 4.433 7.16 2.012 6.28 4.698 16.961 4.698 16.961s.073.485.188 1.282c.394.19.767.422 1.111.692 0 0 1.51.988 2.23.843.72-.145 1.943.844 1.943.844l3.453.702 6.76.349-.02.431c.093-.042.188-.085.293-.128a10.41 10.41 0 0 1 2.762-.778l.05-.023.062-.03a5.137 5.137 0 0 1 2.63-.352c1.635.074 3.26.294 4.854.66l-.053-.35c1.809.422 8.056-.142 8.056-.142l3.029-2.665c.31-1.334.708-2.646 1.19-3.928 0 0 2.374-12.72 2.447-13.564.072-.844 1.585-3.938 3.09-4.85 1.507-.913 6.577-4.36 6.577-4.36l.046.175.076-.164a20.224 20.224 0 0 0-.69-7.124c-.06-.224-.123-.445-.185-.659a10.912 10.912 0 0 1-4.33-4.004 10.941 10.941 0 0 1-1.618-5.676 10.744 10.744 0 0 1 2.18-6.497h-.099c-.562.006-1.21-.036-1.582-.422a.986.986 0 0 1-.174-.191c-.352-.514-.085-1.2.267-1.723.351-.524.802-1.025.831-1.648.03-.622-.374-1.172-.726-1.7-.352-.527-.635-1.196-.352-1.76l.717.044.02.066 4.304.25c.832.065 1.668.08 2.502.043.658-.043 1.315-.152 1.973-.227a20.144 20.144 0 0 1 7.53.563c2.177.586 4.294 1.578 5.83 3.2a14.417 14.417 0 0 1 2.17 3.205c.326.566.585 1.169.77 1.796.181.806.22 1.638.115 2.458-.392 4.016-2.312 7.74-4.541 11.133-.447.678-.98 1.4-1.782 1.581-.36.066-.729.057-1.086-.026a3.747 3.747 0 0 1-.259-.063c.086.566.214 1.124.381 1.67.411-.157.921.165 1.45.732a12.372 12.372 0 0 1 1.973 2.666l-.059.115a34.79 34.79 0 0 1 1.118 2.109s8.628 3.657 9.924 5.624c1.295 1.967 1.078 5.977 1.223 6.184.145.208 1.44 2.455.865 4.283a12.036 12.036 0 0 0-.385 2.926c.069 1.582.023 2.636.023 2.636l-.214 2.109s2.812 5.967 3.522 12.22c.72 6.257-.75 9.565-.75 9.565zm-93.569-48.223a.293.293 0 0 1-.063-.04c.004.025.01.05.017.073zm60.276 7.816l-.394.83 1.173-1.318-.864.863.236-.517zm-5.948 12.497l-.464 1.387c.253-.679.497-1.331.724-1.934z"/></g><g><path fill="#585b8a" d="M178.169 135.372s-.806 5.374 1.611 5.443c2.417.07 4.031-4.144 4.031-4.144l-.986-3.371z"/></g><g opacity=".2"><path d="M178.169 135.372s-.806 5.374 1.611 5.443c2.417.07 4.031-4.144 4.031-4.144l-.986-3.371z"/></g><g><path fill="#636992" d="M124.031 251.69c-4.3.189-9.91-4.681-9.91-4.681l-.28-5.058s-.371.188-1.121-.935c-.503-.755.22-3.882.75-5.849.256-.962.467-1.647.467-1.647l9.437 2.53.45 1.196 3.663 9.76s.842 4.497-3.456 4.685z"/></g><g><path fill="#636992" d="M167.389 237.363s-10.933 4.214-14.468.936c-3.535-3.278-6.169-2.343-6.169-2.343s-6.169.096-7.385-.375c-.717-.274-.329-2.616.118-4.481.303-1.288.631-2.353.631-2.353s10.746-3.654 12.43-1.406a8.067 8.067 0 0 0 1.792 1.713c1.947 1.41 4.988 2.688 9.799 4.655 6.616 2.715 3.252 3.654 3.252 3.654z"/></g><g><path fill="#ffd6d6" d="M157.58 151.77l2.989 5.993s4.3 6.089-.747 8.428c-5.047 2.34-4.952-13.482-4.952-13.482z"/></g><g><path fill="#dce6f2" d="M145.06 99.8s3.272 1.5 5.235 7.772c1.963 6.274 4.58 16.952 4.58 16.952s1.776 12.079 1.493 15.077a19.475 19.475 0 0 0 .095 4.962l2.523 8.428-5.048 1.78-7.757-29.779z"/></g><g opacity=".05"><path d="M145.06 99.8s3.272 1.5 5.235 7.772c1.963 6.274 4.58 16.952 4.58 16.952s1.776 12.079 1.493 15.077a19.475 19.475 0 0 0 .095 4.962l2.523 8.428-5.048 1.78-7.757-29.779z"/></g><g opacity=".1"><path d="M123.374 236.057l.45 1.196-.552 1.058c-2.15.935-7.477.188-7.477.188s-.987-1.256-2.335-3.322c.256-.962.467-1.647.467-1.647z"/></g><g opacity=".1"><path d="M154.684 229.495c-2.725 6.188-11.992 3.891-14.566 3.117-.425-.128-.658-.214-.658-.214s.016-.504.023-1.298c.303-1.288.631-2.353.631-2.353s10.746-3.654 12.43-1.406a8.067 8.067 0 0 0 1.792 1.713c.103.157.22.305.348.441z"/></g><g><path fill="#565988" d="M154.214 221.63c-2.242 4.68.47 7.305.47 7.305-2.725 6.184-11.991 3.891-14.566 3.114-.424-.125-.658-.211-.658-.211s.188-6.465-.467-9.555c-.654-3.09-.562-16.105-.187-17.696.375-1.592.559-4.686.559-4.686s-.28-3.65.187-5.43a2.81 2.81 0 0 0-.697-2.76l-.049-.05s-2.055 7.025-2.805 8.237c-.75 1.213-1.026 7.305-1.121 8.428-.096 1.124-3.926 10.49-3.926 10.49s-1.493 4.307-1.773 5.523c-.28 1.216-1.404 4.685-1.404 4.685l-4.505 8.712c-2.15.935-7.477.187-7.477.187s-1.026-1.318-2.43-3.466c-1.404-2.148-2.055-9.736-2.055-9.736s5.14-.095 3.83-5.057c-1.308-4.962 1.122-8.804 1.03-10.491-.092-1.687 1.121-7.209 1.776-8.052.654-.844.559-4.402.371-6.37-.187-1.966-.092-8.895-.092-8.895s.188-3.09 1.121-4.494c.934-1.404.563-5.433.563-5.433s1.772-.936.559-10.02c-1.214-9.084 1.973-20.882 1.973-20.882l.108-1.648.171-2.668s26.73-1.687 28.88.372a7.104 7.104 0 0 1 1.365 1.96 19.53 19.53 0 0 1 1.546 4.985l1.12 28.375 1.122 20.882-.375 15.733s.082 3.927-2.163 8.613z"/></g><g opacity=".1"><path d="M146.287 165.63l-2.805 60.868-3.367 5.548c-.424-.125-.658-.21-.658-.21s.188-6.465-.467-9.555c-.654-3.09-.562-16.105-.187-17.697.375-1.591.56-4.685.56-4.685s-.28-3.65.186-5.43a2.81 2.81 0 0 0-.697-2.76l.046-.33z"/></g><g opacity=".1"><path d="M116.084 231s7.29-2.904 8.411-1.978c1.122.926-8.595 2.34-8.595 2.34z"/></g><g opacity=".1"><path d="M152.07 223.32c-.28.096-7.382 2.636-6.727 5.338"/></g><g><path fill="#ffd6d6" d="M129.87 84.77s2.38 5.76 1.121 8.712c-1.26 2.952 13.597 8.006 13.597 8.006s-4.344-11.238-.138-17.561-14.58.843-14.58.843z"/></g><g><path fill="#505484" d="M216.862 251.503c-2.874.633-6.658 3.513-6.658 3.513s-7.29 1.545-12.269.843c-4.978-.702-4.133-6.112-.28-7.446 2.674-.923 5.413-3.2 6.843-4.504.632-.583 1.007-.989 1.007-.989l13.951-2.81.543 1.858c.56 1.901 1.384 4.722 1.7 5.796.49 1.703-1.963 3.107-4.837 3.74z"/></g><g><path fill="#505484" d="M213.287 240.686s-5.889.632-8.342-.771c-2.453-1.404-5.958.843-5.958.843s-10.095-.21-13.458-1.265c-3.364-1.054.49-6.26 5.958-5.76 1.992.182 3.34-.256 4.251-.882a4.488 4.488 0 0 0 1.852-2.781l11.837.702 1.644 4.204z"/></g><g opacity=".1"><path d="M211.244 236.893s-13.758-2.253-15.514-4.042a4.488 4.488 0 0 0 1.851-2.781l11.838.702 1.644 4.204z"/></g><g><path fill="#575988" d="M190.85 158.023l.141 20.576s.49 15.452.49 17.56c0 2.11.07 6.811.07 6.811s1.052 5.76 1.683 7.657c.631 1.898 1.121 10.544 1.121 10.544s1.473 2.388.842 3.294c-.631.906 2.453 2.88 2.453 2.88s-1.973 2.741-2.101 4.567c-.128 1.825 15.698 4.418 15.698 4.418l-6.166-63.349-4.909-15.871z"/></g><g opacity=".1"><path d="M190.85 158.023l.141 20.576s.49 15.452.49 17.56c0 2.11.07 6.811.07 6.811s1.052 5.76 1.683 7.657c.631 1.898 1.121 10.544 1.121 10.544s1.473 2.388.842 3.294c-.631.906 2.453 2.88 2.453 2.88s-1.973 2.741-2.101 4.567c-.128 1.825 15.698 4.418 15.698 4.418l-6.166-63.349-4.909-15.871z"/></g><g opacity=".1"><path d="M219.99 241.985c-4.58 10.942-15.474 2.497-15.474 2.497s0-.21-.026-.573c.631-.583 1.006-.989 1.006-.989l13.952-2.81s.227.797.543 1.875z"/></g><g><path fill="#575988" d="M220.154 241.045c-4.489 11.531-15.632 2.88-15.632 2.88s-.352-5.97.352-8.709c.703-2.738-.773-10.958-.773-10.958s-.842-7.305-1.611-8.989c-.77-1.683-.7-5.057-.7-5.337 0-.28.279-2.53-.353-4.076-.63-1.545-.986-5.337-.986-5.337s0-5.338-.631-8.498l-2.174-10.872-3.926-22.267 1.226-.21 21.976-3.862s4.136 21.087 2.732 23.248c-.302.474-.569 1.512-.789 2.85-.802 4.784-1.102 13.374-1.102 13.374s2.733 4.283 1.684 7.304c-1.049 3.021.986 8.006.986 8.006s.632 19.667-.562 21.634c-1.193 1.967.283 9.819.283 9.819z"/></g><g><path fill="#d28690" d="M218.049 97.27s-19.907 14.046-15.422 7.022c2.417-3.783 1.973-8.6 1.026-12.237a28.912 28.912 0 0 0-1.973-5.367s16.915-7.21 14.672-.748a12.126 12.126 0 0 0-.658 4.692 12.536 12.536 0 0 0 2.355 6.638z"/></g><g><path fill="#d28690" d="M182.208 129.436s-8.41-2.435-9.812-.046c-1.4 2.389.421 7.63 2.96 8.474 2.538.843 8.365-2.857 8.365-2.857z"/></g><g><path fill="#585b8a" d="M191.838 125.3l-3.505 3.232s-6.1.56-7.853.139c0 0 1.615 10.816-.7 12.15l14.159-2.879z"/></g><g opacity=".1"><path d="M191.838 125.3l-3.505 3.232s-6.1.56-7.853.139c0 0 1.615 10.816-.7 12.15l14.159-2.879z"/></g><g opacity=".1"><path d="M146.833 78.87c0 2.796-1.109 5.478-3.082 7.455a10.512 10.512 0 0 1-7.44 3.088c-5.4-2.6-10.523-4.715-10.523-10.543a10.562 10.562 0 0 1 2.928-7.723 10.522 10.522 0 0 1 7.586-3.237 10.504 10.504 0 0 1 7.586 3.237 10.546 10.546 0 0 1 2.928 7.723z"/></g><g><path fill="#ffd6d6" d="M146.835 78.587c.002 2.48-.87 4.88-2.463 6.778a10.485 10.485 0 0 1-13.326 2.322 10.519 10.519 0 0 1-4.602-5.547 10.543 10.543 0 0 1 .044-7.214 10.518 10.518 0 0 1 4.67-5.49 10.485 10.485 0 0 1 13.296 2.486 10.557 10.557 0 0 1 2.381 6.665z"/></g><g opacity=".1"><path d="M152.96 143.053a23.77 23.77 0 0 1-3.26 1.694s-5.326-.775-6.096.138c-.769.913-7.563 1.265-7.563 1.265s-10.374-.49-11.916-1.825a6.31 6.31 0 0 0-1.575-.936l.171-2.668s26.73-1.687 28.88.372a7.103 7.103 0 0 1 1.358 1.96z"/></g><g><path fill="#dce6f2" d="M154.26 141.171c-.21 1.193-4.556 3.018-4.556 3.018s-5.327-.77-6.097.142c-.77.913-7.563 1.265-7.563 1.265s-10.374-.494-11.916-1.828c-1.542-1.335-4.979-1.977-4.979-1.977s-1.752-12.5-1.049-15.239c.704-2.738-1.052-10.256-1.473-12.925-.42-2.669 1.19-10.043 3.154-11.235 1.963-1.193 4.768-5.2 6.448-6.392 1.417-1.005 2.982-2.307 3.44-2.699l.134-.112s.283-2.178 1.404-3.295c1.122-1.117 11.424 7.094 11.424 7.094s.072.633.772-.56c.158-.267 1.516 1.697 1.753 2.527 0 0 5.606 9.835 5.958 11.861.352 2.027 1.822 8.64 2.101 10.254.073.415.191 1.871.33 3.822.025.382.048.787.078 1.209.207 3.235.43 7.367.566 10.49 0 .356.03.699.039 1.028.071 1.183.082 2.369.033 3.552z"/></g><g opacity=".1"><path d="M118.67 115.81s3.854 4.705 5.116 4.705"/></g><g opacity=".1"><path d="M126.786 125.93s-6.31 6.883-5.469 8.148"/></g><g opacity=".1"><path d="M122.16 139.625s7.234-7.937 7.563-10.675"/></g><g opacity=".1"><path d="M131.27 140.187s8.342-4.425 9.043-7.937"/></g><g opacity=".1"><path d="M141.857 97.486l-1.157 2.807 1.927.913 1.894 5.304s5.222 10.465 5.011 15.908c-.21 5.443.947 13.624.947 13.624l3.012-.56-1.42-16.01a23.131 23.131 0 0 0-1.835-7.186c-2.407-5.522-6.886-15.716-7.168-15.716-.385 0-.116.142-.116.142z"/></g><g><path fill="#575989" d="M142.137 97.203l-1.157 2.81 1.93.913 1.89 5.304s5.223 10.465 5.012 15.908c-.21 5.443.947 13.624.947 13.624l3.015-.56-1.423-16.01a23.04 23.04 0 0 0-1.832-7.186c-2.407-5.525-6.885-15.716-7.165-15.716-.388 0-.118.142-.118.142z"/></g><g><path fill="#ffd6d6" d="M176.274 138.478c-1.466-.112-4.985-1.894-6.382-2.636l-.592-.33v.001l.072-5.44a9.53 9.53 0 0 1 1.072-.543c1.868-.818 5.699-1.928 7.62 1.647 2.59 4.794.068 7.426-1.79 7.301z"/></g><g opacity=".1"><path d="M144.452 71.927c-.15.095-.316.163-.49.201-1.22.267-2.607-.784-3.653-.109-.638.415-.786 1.275-.871 2.033l-.447 3.928a4.854 4.854 0 0 1-.29 1.354c-.516 1.183-1.933 1.74-3.225 1.72a1.921 1.921 0 0 1-1.391-.462c-.227-.23-.349-.553-.599-.764-1.644-1.38-2.144 2.003-1.71 2.965.698 1.572 3.174 3.088 2.134 5.084-.174.325-.44.591-.762.768a10.518 10.518 0 0 1-4.175-2.487 10.546 10.546 0 0 1-3.114-8.94 10.53 10.53 0 0 1 5.3-7.839 10.506 10.506 0 0 1 13.293 2.548z"/></g><g><path fill="#353045" d="M133.201 79.809c.247.208.372.53.599.761.384.331.884.497 1.39.461 1.293.02 2.71-.533 3.223-1.723a4.7 4.7 0 0 0 .293-1.35l.447-3.928c.085-.758.23-1.618.871-2.033 1.046-.659 2.433.376 3.653.109a1.786 1.786 0 0 0 1.316-2.063c-.142-.629-.622-1.127-.869-1.726a11.3 11.3 0 0 1-.358-1.407c-.68-2.557-3.676-3.993-6.28-3.565-1.447.24-2.792.932-4.242 1.143-1.04.152-2.101.053-3.15.165-.975.1-1.922.381-2.795.827-.23.102-.432.255-.592.448-.15.26-.25.547-.296.844-.352 1.317-1.483 2.29-2.302 3.4a8.112 8.112 0 0 0-1.558 4.385c-.033.404.005.811.111 1.203.07.23.178.454.23.692.162.721-.207 1.443-.387 2.161a4.33 4.33 0 0 0 .23 2.748c1.262 2.91 5.422 3.881 6.287 6.935a6.893 6.893 0 0 0 2.446.66c.849.016 1.763-.35 2.157-1.104 1.036-1.977-1.437-3.513-2.134-5.081-.437-.965.053-4.346 1.71-2.962z"/></g><g opacity=".1"><path d="M216.365 85.94a12.128 12.128 0 0 0-.657 4.692c-.507.431-1.06-.86-1.645-.528-1.604.93-3.459 3.14-5.445 3.14a10.89 10.89 0 0 1-4.955-1.19 28.912 28.912 0 0 0-1.973-5.366s16.918-7.21 14.675-.748z"/></g><g><path fill="#d28690" d="M219.543 81.728c0 2.168-.641 4.287-1.843 6.089a10.941 10.941 0 0 1-4.908 4.036 10.917 10.917 0 0 1-11.919-2.376 10.979 10.979 0 0 1-2.37-11.942 10.954 10.954 0 0 1 4.028-4.918 10.921 10.921 0 0 1 13.81 1.362 10.958 10.958 0 0 1 3.202 7.75z"/></g><g><path fill="#f0f3f7" d="M219.073 99.711s-2.059 2.247-2.338 2.432c-.28.184-6.248 25.37-6.353 25.663-.105.293-7.106 23.034-7.106 23.034l-11.216 5.525.937-27.815 8.22-22.938s2.713-3.09 3.552-4.214c.838-1.124 11.308-7.868 11.308-7.868l1.789 3.693z"/></g><g opacity=".1"><path d="M217.594 97.783l-12.897 9.252-.207-5.08c.842-1.124 11.308-7.865 11.308-7.865z"/></g><g><path fill="#f0f3f7" d="M217.877 97.223l-12.896 9.252-.201-5.077c.842-1.127 11.308-7.868 11.308-7.868z"/></g><g><path fill="#585b8a" d="M204.345 99.13l.431 2.26-2.884 2.936 2.302-5.163s-4.932 3.443-6.412 4.356c-1.48.912-2.96 4.003-3.015 4.846-.056.844-2.384 13.555-2.384 13.555s-1.753 4.705-1.26 6.04c.494 1.334-2.663 43.405-2.663 43.405a6.257 6.257 0 0 1 4.215-3.239l-1.124-24.862s1.368-16.54 1.437-16.751l3.19-9.799z"/></g><g opacity=".1"><path d="M205.057 101.67l-.224 4.613s-3.12 9.868-4.17 11.482c-1.048 1.615-4.24 11.239-4.24 11.239l-1.8 16.717-3.084 1.407-1.519-2.804 2.525-16.144s4.765-13.624 5.469-15.03l3.515-7.42z"/></g><g><path fill="#663d5c" d="M204.777 101.39l-.22 4.613s-3.12 9.868-4.173 11.482c-1.052 1.615-4.239 11.239-4.239 11.239l-1.788 16.714-3.085 1.404-1.542-2.807 2.525-16.145s4.765-13.627 5.465-15.03l3.542-7.41z"/></g><g><path fill="#d28690" d="M168.42 136.602l6.027 4.181s4.252-2.389 1.776-3.934c-2.476-1.545-4.673-1.779-5.468-1.779-.796 0-2.335 1.532-2.335 1.532z"/></g><g><path fill="#d28690" d="M172.927 128.876a.928.928 0 0 0-.437.794c0 1.281.145 4.675 1.217 3.143 1.315-1.875 1.075-3.558 3.084-2.343a11.846 11.846 0 0 1 3.222 2.966l-.559-4.027s-4.13-2.042-6.527-.533z"/></g><g opacity=".1"><path d="M219.661 178.038c-.302.474-.568 1.512-.789 2.85-12.291 3.693-21.284-4.115-21.284-4.115a107.68 107.68 0 0 1-2.664-11.235c-.22-1.299-.17-3.816.033-6.887l21.975-3.861s4.133 21.07 2.73 23.248z"/></g><g><path fill="#585b8a" d="M232.277 115.176c-.56 1.828-.349 5.548-.349 5.548l-5.047 23.88s-2.453 18.402-2.874 20.86c-.421 2.458-1.121 13.275-1.121 13.275-14.3 7.024-25.32-2.527-25.32-2.527a107.856 107.856 0 0 1-2.663-11.239c-.704-4.171 1.368-20.882 2.348-28.305.292-2.198.49-3.582.49-3.582l3.68-13.696s4.52-11.555 6.204-14.926c1.684-3.37 8.444-10.942 8.444-10.942.839-.534 2.18 1.351 3.177 3.068a35.676 35.676 0 0 1 1.315 2.504s8.411 3.65 9.67 5.6c1.26 1.951 1.053 5.971 1.194 6.182.142.21 1.414 2.474.852 4.3z"/></g><g opacity=".1"><path d="M212.439 106.678s.631 3.723-.987 4.847c-1.562 1.087-13.189 23.996-13.912 25.426.293-2.201.49-3.585.49-3.585l3.68-13.693s4.524-11.555 6.204-14.929c1.68-3.374 8.448-10.942 8.448-10.942.838-.534 2.176 1.351 3.173 3.068-1.503 3.126-4.637 9.037-7.096 9.808z"/></g><g><path fill="#585b8a" d="M212.166 106.398s.628 3.723-.987 4.847c-1.615 1.123-13.186 23.993-13.919 25.422.293-2.197.49-3.58.49-3.58l3.68-13.697s4.52-11.555 6.204-14.926c1.684-3.37 8.444-10.942 8.444-10.942.839-.534 2.18 1.351 3.177 3.068-1.496 3.123-4.633 9.037-7.09 9.808z"/></g><g><path fill="#e9002c" d="M228.843 140.042l-3.955 20.622v.003l-.379 1.974v.003l-.851 4.438-3.634-.77-1.693-.36-23.435-4.975-1.723-.366-3.933-.833.77-5.12.318-2.129 2.838-18.879z"/></g><g><path fill="#d28690" d="M206.97 156.9s-9.322 3.37-7.29 7.374c2.032 4.003 15.07-3.09 15.07-3.09z"/></g><g opacity=".1"><path d="M213.63 185.63c0 .28.352 3.865 1.753 5.127"/></g><g opacity=".1"><path d="M204.24 198.34s1.68 4.636 8.339 6.534"/></g><g opacity=".1"><path d="M219.546 81.73c0 1.926-.506 3.818-1.469 5.486a10.945 10.945 0 0 1-4.013 4.012 5.824 5.824 0 0 1-1.644-1.374c-.477-.58-.848-1.37-.562-2.062.23-.557.838-.91.986-1.486a2.19 2.19 0 0 0-.052-1.061c-.122-.544-.237-1.088-.355-1.628-.102-.461-.283-1.005-.74-1.117-.457-.112-.839.27-1.197.554-.878.695-2.562 1.166-3.617.596-1.056-.57-.76-2.478-.93-3.509a.614.614 0 0 0-.23-.464.958.958 0 0 0-.478-.033c-.569 0-1.026-.511-1.19-1.058a9.122 9.122 0 0 1-.19-1.697c-.063-.57-.27-1.173-.757-1.466a2.334 2.334 0 0 0-1.246-.204l-2.062.023a10.937 10.937 0 0 1 5.475-3.926c2.192-.699 4.547-.688 6.732.032a10.938 10.938 0 0 1 5.439 3.976 10.973 10.973 0 0 1 2.083 6.415z"/></g><g><path fill="#663d5c" d="M210.792 83.049c.359-.283.753-.659 1.197-.55.444.109.635.659.737 1.113l.355 1.625c.105.345.124.71.056 1.064-.168.58-.773.93-1.006 1.486-.286.692.089 1.483.562 2.06a5.916 5.916 0 0 0 3.384 2.025c.346.084.706.092 1.055.024.783-.182 1.315-.903 1.736-1.579 2.174-3.393 4.045-7.113 4.426-11.126a7.152 7.152 0 0 0-.112-2.455 8.244 8.244 0 0 0-.75-1.796 14.497 14.497 0 0 0-2.114-3.205c-1.496-1.615-3.56-2.607-5.682-3.193a19.206 19.206 0 0 0-7.336-.577c-.657.076-1.289.185-1.936.228-.814.038-1.629.024-2.44-.04l-4.84-.29c-.277.564 0 1.233.328 1.76.33.527.737 1.074.71 1.7-.026.626-.47 1.12-.812 1.647-.342.527-.601 1.21-.26 1.723.343.514 1.04.547 1.645.54l2.44-.026c.425-.043.853.03 1.24.215.486.293.693.899.756 1.466.013.57.077 1.138.19 1.696.168.547.622 1.065 1.19 1.058a.886.886 0 0 1 .477.036.605.605 0 0 1 .23.462c.172 1.03-.144 2.935.931 3.509 1.075.573 2.766.095 3.644-.6z"/></g><g opacity=".1"><path d="M224.692 104.7a5.351 5.351 0 0 0-3.45.814 5.369 5.369 0 0 0-2.189 2.794c-1.315 3.753-3.508 10.523-2.96 13.199.773 3.792 1.684 10.115 1.684 10.115s3.996 2.306 1.973 4.632c-2.022 2.326-2.594 5.621-2.594 5.621s-2.595 1.124-3.154 3.513c-.559 2.388-4.347 5.686-4.347 5.686l-5.675 5.69s9.391 9.555 11.285 10.043l5.817-6.814 6.869-9.13 5.958-6.26s1.401-3.294.7-9.555c-.7-6.26-3.436-12.22-3.436-12.22l.21-2.109s.645-15.106-6.69-16.019z"/></g><g><path fill="#585b8a" d="M225.25 104.7a5.351 5.351 0 0 0-3.447.816 5.369 5.369 0 0 0-2.187 2.791c-1.315 3.753-3.508 10.524-2.959 13.2.77 3.791 1.68 10.114 1.68 10.114s3.996 2.307 1.973 4.633c-2.022 2.326-2.59 5.62-2.59 5.62s-2.595 1.124-3.158 3.513c-.562 2.389-4.343 5.687-4.343 5.687l-5.679 5.69s9.391 9.555 11.285 10.042l5.817-6.813 6.852-9.13 5.959-6.26s1.404-3.295.7-9.555c-.703-6.26-3.433-12.22-3.433-12.22l.21-2.11s.655-15.106-6.68-16.019z"/></g><g opacity=".1"><path d="M219.38 126.07s5.958 7.301 8.484 5.687"/></g><g opacity=".1"><path d="M221.62 120.45c.631.21 5.82 7.446 8.484 6.59"/></g><g opacity=".1"><path d="M223.1 132.88s.352 4.145 4.627 3.581"/></g><g opacity=".1"><path d="M204.202 99.45l-2.312 5.163 2.887-2.936z"/></g><g><path fill="#f0f3f7" d="M204.202 99.17l-2.312 5.163 2.887-2.936z"/></g><g opacity=".3"><path d="M194.896 160.978l-1.723-.366-3.163-5.954.319-2.128z"/></g><g opacity=".3"><path d="M224.887 160.67l-.378 1.974v.003l-4.486 3.667-1.693-.36z"/></g><g opacity=".1"><path d="M154.225 137.625c-.868.145-1.71.277-2.48.376-4.274.563-14.441-4.494-14.441-4.494s-12.407-10.395-15.981-20.227c-3.574-9.831 4.275-11.307 4.275-11.307 2.959-1.687 9.394 3.018 10.305 3.792.91.774 1.683 2.738 1.611 4.003-.072 1.265 2.104 2.88 2.104 2.88s3.716 6.46 4.627 7.162c.91.702 1.121 1.335 1.4 2.53.28 1.197 2.733 2.179 3.785 2.106 1.053-.072 2.302.353 2.302.913 0 .451 1.03.675 1.875.748.25 3.601.496 8.32.618 11.518z"/></g><g opacity=".1"><path d="M154.183 136.601c-.658.105-1.289.201-1.88.28-4.276.564-14.44-4.494-14.44-4.494s-12.406-10.395-15.98-20.227c-3.574-9.831 4.275-11.307 4.275-11.307 2.959-1.687 9.39 3.018 10.301 3.792.911.774 1.684 2.738 1.615 4.003-.069 1.265 2.101 2.88 2.101 2.88s3.716 6.46 4.627 7.163c.91.701 1.121 1.334 1.404 2.53.282 1.196 2.732 2.174 3.784 2.105 1.053-.069 2.302.353 2.302.913 0 .33.585.55 1.237.659.026.382.049.787.078 1.21.217 3.238.441 7.37.576 10.493z"/></g><g opacity=".1"><path d="M170.444 129.53l-.266 6.313h-.286l-.592-.33.072-5.44a9.53 9.53 0 0 1 1.072-.543z"/></g><g><path fill="#dce6f2" d="M125.598 101.411s-7.85 1.476-4.275 11.308c3.574 9.832 15.98 20.23 15.98 20.23s10.164 5.054 14.442 4.494c4.278-.56 10.792-2.036 11.634-1.825.842.21 6.52.21 6.52.21l.28-6.589-6.576-.352-3.364-.702s-1.194-.988-1.894-.843c-.7.144-2.17-.844-2.17-.844s-1.125-.913-1.973-.913c-.849 0-2.453-.21-2.453-.77s-1.263-.99-2.302-.913c-1.04.076-3.522-.913-3.811-2.122-.29-1.21-.49-1.825-1.4-2.527-.912-.702-4.627-7.166-4.627-7.166s-2.174-1.615-2.105-2.877c.07-1.262-.7-3.232-1.611-4.006-.91-.775-7.356-5.476-10.295-3.793z"/></g><g opacity=".1"><path d="M145.782 124.03s-3.016 3.021-2.246 3.581"/></g><g opacity=".1"><path d="M149.003 126.42s-3.926 3.021-2.874 3.232"/></g><g opacity=".1"><path d="M142.34 130.9c.562.283 8.901 5.272 12.058 5.2"/></g><g opacity=".1"><path d="M142.912 97.552s-1.473 4.846-2.035 4.846c-.44 0-7.84-6.003-10.927-8.527l.135-.112s.28-2.178 1.4-3.294c1.122-1.117 11.427 7.087 11.427 7.087z"/></g><g><path fill="#dce6f2" d="M142.622 96.992s-1.47 4.846-2.032 4.846c-.444 0-7.842-6.003-10.93-8.527l.135-.112s.283-2.178 1.404-3.294c1.121-1.117 11.423 7.087 11.423 7.087z"/></g><g opacity=".15"><g opacity=".02"><path d="M122.78 81.33c.986 2.257 3.703 3.35 5.278 5.15"/></g><g opacity=".02"><path d="M132.83 86.524c-.39.755-1.315 1.12-2.156 1.104a6.283 6.283 0 0 1-2.164-.553c.248.365.436.768.559 1.192.768.37 1.597.593 2.446.66.852.02 1.766-.347 2.157-1.104.629-1.203-.026-2.231-.792-3.203a2.096 2.096 0 0 1-.05 1.904z"/></g><g opacity=".02"><path d="M145.032 70.015c-.141-.632-.621-1.13-.868-1.726-.151-.461-.27-.933-.358-1.41a4.372 4.372 0 0 0-1.01-1.809c.066.162.122.328.168.498.092.48.215.952.368 1.416.247.597.727 1.094.868 1.727a1.792 1.792 0 0 1-1.315 2.062c-1.217.267-2.604-.787-3.65-.108-.641.411-.79 1.271-.875 2.03a854.487 854.487 0 0 1-.447 3.93 4.72 4.72 0 0 1-.29 1.35c-.515 1.187-1.933 1.744-3.225 1.724a1.934 1.934 0 0 1-1.388-.461 9.186 9.186 0 0 0-.601-.765c-1.644-1.384-2.144 2-1.71 2.966.217.434.487.84.802 1.209-.362-1.088.145-4.218 1.75-2.877.213.243.413.499.598.765.386.329.885.494 1.39.461 1.293.02 2.71-.537 3.227-1.723a4.72 4.72 0 0 0 .289-1.354l.447-3.928c.086-.758.234-1.617.871-2.03 1.05-.678 2.437.376 3.654.106a1.782 1.782 0 0 0 1.305-2.053z"/></g></g><g opacity=".1"><path d="M217.83 91.055c-.35.065-.71.056-1.056-.027a5.917 5.917 0 0 1-3.38-2.023c-.477-.58-.852-1.37-.562-2.062.23-.557.835-.906.986-1.486.069-.354.05-.72-.056-1.064l-.355-1.625c-.102-.461-.28-1.005-.737-1.113-.457-.11-.838.266-1.196.55-.878.695-2.565 1.17-3.617.596-1.053-.573-.76-2.478-.931-3.509a.617.617 0 0 0-.23-.461.935.935 0 0 0-.48-.036c-.57 0-1.023-.511-1.19-1.058a9.371 9.371 0 0 1-.188-1.697c-.066-.567-.27-1.173-.76-1.466a2.36 2.36 0 0 0-1.24-.214l-2.44.026c-.6 0-1.314-.04-1.643-.54-.329-.501-.086-1.213.26-1.723.345-.511.782-1.018.812-1.648.03-.629-.378-1.173-.71-1.7a3.05 3.05 0 0 1-.415-.942l-.7-.043c-.273.56 0 1.229.329 1.76.328.53.74 1.074.71 1.696-.03.623-.467 1.124-.812 1.648-.346.524-.599 1.209-.257 1.723.342.514 1.036.55 1.644.543l2.44-.03c.425-.04.854.035 1.24.218.49.294.697.9.76 1.466.01.57.074 1.139.19 1.697.165.544.622 1.065 1.19 1.055a.962.962 0 0 1 .477.036.62.62 0 0 1 .23.464c.171 1.028-.144 2.936.931 3.51 1.075.573 2.752.098 3.617-.597.358-.283.756-.659 1.2-.554.444.106.635.66.733 1.114l.359 1.628c.104.345.122.71.052 1.064-.164.577-.772.93-1.002 1.483-.287.692.085 1.486.562 2.062a5.917 5.917 0 0 0 3.403 2.023c.346.083.706.092 1.056.026a2.48 2.48 0 0 0 1.368-1.04c-.18.124-.38.216-.592.27z"/></g><g opacity=".1"><path fill="#325cfd" d="M66.978 236.565c4.389 0 7.947-.548 7.947-1.223s-3.558-1.222-7.947-1.222c-4.39 0-7.948.547-7.948 1.222 0 .675 3.558 1.223 7.948 1.223z"/></g><g opacity=".1"><path fill="#e9002c" d="M344.478 204.785c4.389 0 7.947-.548 7.947-1.223s-3.558-1.222-7.947-1.222c-4.39 0-7.948.547-7.948 1.222 0 .675 3.558 1.223 7.948 1.223z"/></g><g opacity=".1"><path fill="#325cfd" d="M263.447 256.357c12.713 0 23.018-1.584 23.018-3.538 0-1.955-10.305-3.539-23.018-3.539-12.712 0-23.017 1.584-23.017 3.539 0 1.954 10.305 3.538 23.017 3.538z"/></g><g opacity=".1"><path fill="#325cfd" d="M328.884 240.592c9.915 0 17.953-1.236 17.953-2.761 0-1.525-8.038-2.761-17.953-2.761-9.916 0-17.954 1.236-17.954 2.761 0 1.525 8.038 2.761 17.954 2.761z"/></g><g opacity=".1"><path fill="#325cfd" d="M325.925 270.024c16.815 0 30.446-2.096 30.446-4.682 0-2.586-13.63-4.682-30.445-4.682-16.815 0-30.446 2.096-30.446 4.682 0 2.586 13.63 4.682 30.445 4.682z"/></g><g opacity=".1"><path fill="#325cfd" d="M32.958 272.997c12.712 0 23.017-1.584 23.017-3.538 0-1.955-10.305-3.539-23.017-3.539-12.713 0-23.018 1.584-23.018 3.539 0 1.954 10.305 3.538 23.018 3.538z"/></g><g><path fill="#e9002c" d="M67.342 196.42s.9 1.18-.414 2.965c-1.316 1.786-2.4 3.295-1.973 4.396 0 0 1.973-3.295 3.617-3.355 1.644-.059.549-2.016-1.23-4.006z"/></g><g opacity=".1"><path d="M67.343 196.42c.08.113.143.237.185.369 1.578 1.858 2.416 3.588.9 3.624-1.41.04-3.104 2.57-3.508 3.21.012.049.028.097.046.144 0 0 1.973-3.294 3.617-3.354 1.644-.059.54-2.003-1.24-3.993z"/></g><g><path fill="#ffd037" d="M69.02 197.917c0 .415-.049.751-.105.751-.056 0-.105-.33-.105-.751 0-.422.06-.218.115-.218.056 0 .096-.197.096.218z"/></g><g><path fill="#ffd037" d="M69.589 198.417c-.362.197-.68.33-.707.267-.027-.063.243-.25.608-.452.365-.2.22-.052.247 0 .026.053.217-.016-.148.185z"/></g><g><path fill="#e9002c" d="M62.58 196.42s-.9 1.18.415 2.965c1.315 1.786 2.404 3.295 1.973 4.396 0 0-1.973-3.295-3.6-3.355-1.628-.059-.576-2.016 1.213-4.006z"/></g><g opacity=".1"><path d="M62.588 196.42c-.079.114-.14.238-.184.369-1.578 1.858-2.417 3.588-.901 3.624 1.41.04 3.104 2.57 3.512 3.21-.014.049-.03.097-.05.144 0 0-1.973-3.294-3.6-3.354-1.628-.059-.566-2.003 1.223-3.993z"/></g><g><path fill="#ffd037" d="M60.91 197.917c0 .415.046.751.102.751.056 0 .106-.33.106-.751 0-.422-.06-.218-.116-.218-.056 0-.092-.197-.092.218z"/></g><g><path fill="#ffd037" d="M60.331 198.417c.365.197.68.33.71.267.03-.063-.246-.25-.611-.452-.365-.2-.22-.052-.247 0-.026.053-.217-.016.148.185z"/></g><g opacity=".1"><path fill="#325cfd" d="M64.964 212.793c5.2 0 9.414-.648 9.414-1.447 0-.798-4.215-1.446-9.414-1.446-5.2 0-9.414.648-9.414 1.446 0 .8 4.215 1.447 9.414 1.447z"/></g><g><path fill="#65617d" d="M69.806 202.18l-.046.37-.063.52-.026.217-.063.52-.03.218-.062.52-.72 5.932c-.062.527-.924.939-1.973.939h-3.729c-1.039 0-1.9-.412-1.973-.94l-.72-5.93-.062-.52-.026-.218-.066-.52-.027-.218-.062-.52-.046-.37c-.036-.3.43-.55 1.02-.55h7.658c.585 0 1.052.25 1.016.55z"/></g><g><path fill="#9d9cb5" d="M69.762 202.55l-.063.52h-9.477l-.062-.52z"/></g><g><path fill="#9d9cb5" d="M69.674 203.29l-.062.52h-9.296l-.066-.52z"/></g><g><path fill="#9d9cb5" d="M69.583 204.03l-.066.52h-9.115l-.062-.52z"/></g><g><path fill="#e9002c" d="M338.208 191.85s-1.124 5.245 3.877 5.865l.31-.583s-3.878-3.654-4.187-5.282z"/></g><g><path fill="#e9002c" d="M343.994 197.094l-1.164.248-.115.026s-3.104-2.524-3.065-8.158c.415.83.912 1.618 1.483 2.35 1.23 1.63 2.628 3.805 2.861 5.534z"/></g><g><path fill="#e9002c" d="M344.383 197.635a.728.728 0 0 1-.625.083c-2.985-.699-1.973-10.448-1.973-10.448.165.076.33 1.318 1.033 2.92 1.2 2.81 2.525 6.74 1.565 7.445z"/></g><g><path fill="#e9002c" d="M351 191.85s.194 5.245-4.808 5.865l-.312-.593s4.81-3.644 5.12-5.272z"/></g><g><path fill="#e9002c" d="M349.57 189.22c.04 5.634-3.99 8.158-3.99 8.158l-.12-.026-1.16-.248c.23-1.73 1.644-3.904 2.857-5.535a12.661 12.661 0 0 1 2.414-2.349z"/></g><g><path fill="#e9002c" d="M345.445 197.125a1.815 1.815 0 0 1-.657.51c-.08.036-.162.064-.247.083-.733.171-.987-.36-.947-1.262.069-1.605 1.075-4.389 1.973-6.474a8.092 8.092 0 0 1 1.874-2.712s-.046 7.588-1.996 9.855z"/></g><g><path fill="#e9002c" d="M344.61 183.85s-3.335 11.861-.464 13.634"/></g><g opacity=".1"><path d="M338.208 191.85s-1.124 5.245 3.877 5.865l.31-.583s-3.878-3.654-4.187-5.282z"/></g><g opacity=".1"><path d="M343.994 197.094l-1.164.248-.115.026s-3.104-2.524-3.065-8.158c.415.83.912 1.618 1.483 2.35 1.23 1.63 2.628 3.805 2.861 5.534z"/></g><g opacity=".1"><path d="M344.383 197.635a.728.728 0 0 1-.625.083c-2.985-.699-1.973-10.448-1.973-10.448.165.076.33 1.318 1.033 2.92 1.2 2.81 2.525 6.74 1.565 7.445z"/></g><g opacity=".1"><path d="M351 191.85s.194 5.245-4.808 5.865l-.312-.593s4.81-3.644 5.12-5.272z"/></g><g opacity=".1"><path d="M349.57 189.22c.04 5.634-3.99 8.158-3.99 8.158l-.12-.026-1.16-.248c.23-1.73 1.644-3.904 2.857-5.535a12.661 12.661 0 0 1 2.414-2.349z"/></g><g opacity=".1"><path d="M345.445 197.125a1.815 1.815 0 0 1-.657.51c-.08.036-.162.064-.247.083-.733.171-.987-.36-.947-1.262.069-1.605 1.075-4.389 1.973-6.474a8.092 8.092 0 0 1 1.874-2.712s-.046 7.588-1.996 9.855z"/></g><g opacity=".1"><path d="M344.61 183.85s-3.335 11.861-.464 13.634"/></g><g><path fill="#e9002c" d="M338.209 191.85s-.658 5.245 4.34 5.865l.31-.583s-4.341-3.654-4.65-5.282z"/></g><g><path fill="#e9002c" d="M344.457 197.095l-1.164.247-.115.026s-3.567-2.524-3.538-8.148c0 0 .914.988 1.947 2.35 1.24 1.62 2.637 3.795 2.87 5.525z"/></g><g opacity=".1"><path d="M344.45 197.095l-1.163.247c-1.102-.968-1.54-3.499-1.697-5.782 1.23 1.63 2.627 3.805 2.86 5.535z"/></g><g><path fill="#e9002c" d="M344.847 197.635a.735.735 0 0 1-.628.083c-2.986-.699-2.44-10.448-2.44-10.448.165.076.809 1.318 1.496 2.92 1.207 2.81 2.529 6.74 1.572 7.445z"/></g><g><path fill="#e9002c" d="M351 191.85s.657 5.245-4.34 5.865l-.31-.583s4.34-3.654 4.65-5.282z"/></g><g><path fill="#e9002c" d="M349.567 189.22c.04 5.634-3.528 8.158-3.528 8.158l-.115-.026-1.164-.248c.23-1.73 1.644-3.904 2.86-5.535a34.95 34.95 0 0 1 1.947-2.349z"/></g><g opacity=".1"><path d="M347.62 191.56c-.15 2.128-.538 4.471-1.482 5.565a1.673 1.673 0 0 1-.214.217l-1.164-.247c.23-1.73 1.631-3.904 2.86-5.535z"/></g><g><path fill="#e9002c" d="M345.905 197.125c-.176.22-.402.395-.658.51-.078.036-.16.063-.243.083-.737.171-.987-.36-.95-1.262.072-1.605 1.078-4.389 1.972-6.474.658-1.5 1.253-2.636 1.411-2.712 0-.003.418 7.588-1.532 9.855z"/></g><g opacity=".1"><path d="M344.849 197.636a.788.788 0 0 1-.474-.151c-1.404-.877-1.434-4.165-1.098-7.295 1.207 2.81 2.528 6.741 1.572 7.446z"/></g><g opacity=".1"><path d="M345.911 197.123c-.16.353-.378.537-.657.51a.883.883 0 0 1-.398-.15 2.128 2.128 0 0 1-.796-1.029c.072-1.604 1.079-4.388 1.973-6.474.322 2.89.43 5.954-.122 7.143z"/></g><g><path fill="#e9002c" d="M344.604 183.85s-2.867 11.861 0 13.634"/></g><g><path fill="#4b4770" d="M350.11 196.9h-11.94v1.98h1.822l.046.234.73 3.845h6.941l.73-3.845.043-.234h1.628z"/></g><g opacity=".1"><path d="M350.11 196.9h-11.94v1.98h1.822l.046.234.73 3.845h6.941l.73-3.845.043-.234h1.628z"/></g><g><path fill="#4b4770" d="M349.102 198.06l-.2 1.051-.73 3.845h-6.941l-.73-3.845-.201-1.051z"/></g><g opacity=".1"><path d="M349.102 198.06l-.2 1.051H340.5l-.201-1.051z"/></g><g><path fill="#4b4770" d="M350.58 196.9h-11.94v1.98h11.94z"/></g><g><path fill="#e9002c" d="M45.838 230.782a5.75 5.75 0 0 0-.75 1.416c-.046.122-.092.264-.138.399a1.432 1.432 0 0 0-.26-.092 3.61 3.61 0 0 0-1.174-.099c0-.155.02-.33.023-.484.05-1.737-.154-4.155-1.808-3.13-1.585.988-.454 2.635.569 3.69.089.092.177.178.263.26-.934.659-1.112 2.217-1.266 3.835-.155 1.618-1.526 3.387-2.437 4.392-.092.102-.174.194-.256.28a3.336 3.336 0 0 0-2.647-.682c-.036-.142-.08-.29-.122-.445-.736-2.665-2.265-7.281-4.215-8.293l.256-.33c.829-1.083 1.763-2.698.385-3.11-1.378-.411-1.503 1.398-1.427 2.755.013.171.026.333.04.484a2.012 2.012 0 0 0-1.441.705l-.214-.253c-1.118-1.318-3.166-3.417-3.788-1.832-.578 1.476 1.227 3.394 2.496 4.504l.079.069c-.852 3.463 2.867 6.286 4.87 7.522l.26.158c-2.763 3.262-4.47 9.377-4.47 9.377l7.735 1.384s5.13-4.435 4.472-8.6h.052c5.127-1.027 6.29-6.503 5.492-9.755l.092-.037a5.805 5.805 0 0 0 2.374-1.798c1.433-1.994-1.565-4.247-3.045-2.29z"/></g><g opacity=".1"><path d="M45.838 230.782a5.75 5.75 0 0 0-.75 1.416c-.046.122-.092.264-.138.399a1.432 1.432 0 0 0-.26-.092 3.61 3.61 0 0 0-1.174-.099c0-.155.02-.33.023-.484.05-1.737-.154-4.155-1.808-3.13-1.585.988-.454 2.635.569 3.69.089.092.177.178.263.26-.934.659-1.112 2.217-1.266 3.835-.155 1.618-1.526 3.387-2.437 4.392-.092.102-.174.194-.256.28a3.336 3.336 0 0 0-2.647-.682c-.036-.142-.08-.29-.122-.445-.736-2.665-2.265-7.281-4.215-8.293l.256-.33c.829-1.083 1.763-2.698.385-3.11-1.378-.411-1.503 1.398-1.427 2.755.013.171.026.333.04.484a2.012 2.012 0 0 0-1.441.705l-.214-.253c-1.118-1.318-3.166-3.417-3.788-1.832-.578 1.476 1.227 3.394 2.496 4.504l.079.069c-.852 3.463 2.867 6.286 4.87 7.522l.26.158c-2.763 3.262-4.47 9.377-4.47 9.377l7.735 1.384s5.13-4.435 4.472-8.6h.052c5.127-1.027 6.29-6.503 5.492-9.755l.092-.037a5.805 5.805 0 0 0 2.374-1.798c1.433-1.994-1.565-4.247-3.045-2.29z"/></g><g><path fill="#e9002c" d="M30.439 233.033l-.904 2.636s-.503-.356-1.138-.916c-1.27-1.11-3.074-3.028-2.496-4.504.622-1.585 2.67.507 3.788 1.832.45.527.75.952.75.952z"/></g><g><path fill="#e9002c" d="M32.349 231.508c-.275.363-.57.71-.882 1.042a13.93 13.93 0 0 1-.16-1.397c-.076-1.358.068-3.16 1.426-2.755 1.358.405.444 2.026-.384 3.11z"/></g><g><path fill="#e9002c" d="M44.026 231.926c-.026.873-.112 1.571-.112 1.571a11.49 11.49 0 0 1-1.128-1.011c-1.022-1.064-2.153-2.705-.568-3.69 1.637-1.028 1.84 1.393 1.808 3.13z"/></g><g><path fill="#e9002c" d="M49.355 233.066a5.805 5.805 0 0 1-2.374 1.799c-.26.112-.525.209-.796.29l-1.065-1.5c.112-.495.26-.981.44-1.456a5.75 5.75 0 0 1 .75-1.416c1.473-1.958 4.479.296 3.045 2.283z"/></g><g opacity=".1"><path d="M29.692 232.09c.45.527.75.936.75.936l-.904 2.636s-.503-.356-1.138-.916c.141-.85.491-1.65 1.02-2.33.088-.109.183-.22.272-.326z"/></g><g opacity=".1"><path d="M32.342 231.506c-.274.363-.568.71-.88 1.041a13.929 13.929 0 0 1-.162-1.397c.376.008.74.132 1.042.356z"/></g><g><path fill="#e9002c" d="M36.788 242.03l-2.249.99s-.49-.238-1.197-.68c-2.364-1.456-7.116-5.123-3.946-9.446 3.17-4.322 5.843 3.43 6.905 7.223a41.28 41.28 0 0 1 .487 1.914z"/></g><g opacity=".1"><path d="M42.77 232.48c.327-.338.77-.538 1.24-.56-.027.873-.112 1.572-.112 1.572-.398-.312-.775-.65-1.128-1.012z"/></g><g opacity=".1"><path d="M46.981 234.865c-.26.113-.525.21-.796.29l-1.065-1.499c.112-.495.26-.982.44-1.456.681.402 1.188 1.404 1.421 2.665z"/></g><g><path fill="#e9002c" d="M41.392 244.66c-.122.026-.25.05-.378.069-7.54 1.147-2.486-2.93-2.486-2.93s.329-.329.799-.826c.91-1.005 2.279-2.764 2.437-4.392.236-2.448.51-4.745 3.393-4.072 2.831.665 3.374 10.718-3.765 12.15z"/></g><g><path fill="#d4dfec" d="M41.256 263.47H26.85v3.796h14.406z"/></g><g><path fill="#d4dfec" d="M43.382 251.13H24.56v13.245h18.822z"/></g><g opacity=".1"><path d="M41.256 263.47H26.85v3.796h14.406z"/></g><g opacity=".1"><path d="M43.382 251.13H24.56v13.245h18.822z"/></g><g><path fill="#d4dfec" d="M42.206 263.47H27.8v3.796h14.406z"/></g><g opacity=".1"><path d="M36.31 240.12c.328 1.133.486 1.911.486 1.911l-2.25.988s-.489-.237-1.196-.678c.881-1.117 1.874-1.96 2.96-2.221z"/></g><g opacity=".1"><path d="M41.392 244.657c-.122.026-.25.05-.378.07-7.54 1.146-2.486-2.93-2.486-2.93s.329-.33.799-.827c1.407 1.13 1.99 2.402 2.065 3.687z"/></g><g><path fill="#e9002c" d="M29.14 251.886s4.222-15.156 10.144-10.48c5.922 4.675-2.41 11.86-2.41 11.86z"/></g><g opacity=".1"><path d="M31.264 235.749a.474.474 0 1 0-.001-.948.474.474 0 0 0 0 .948z"/></g><g opacity=".1"><path d="M31.224 237.959a.474.474 0 1 0-.001-.948.474.474 0 0 0 0 .948z"/></g><g opacity=".1"><path d="M44.964 236.189a.474.474 0 1 0-.001-.948.474.474 0 0 0 0 .948z"/></g><g opacity=".1"><path d="M33.913 247.539a.474.474 0 1 0 0-.948.474.474 0 0 0 0 .948z"/></g><g opacity=".1"><path d="M43.974 239.859a.474.474 0 1 0-.001-.948.474.474 0 0 0 0 .948z"/></g><g opacity=".1"><path d="M39.084 244.769a.474.474 0 1 0-.001-.948.474.474 0 0 0 0 .948z"/></g><g opacity=".1"><path d="M32.883 236.699a.474.474 0 1 0 0-.948.474.474 0 0 0 0 .948z"/></g><g opacity=".1"><path d="M43.663 237.609a.474.474 0 1 0 0-.948.474.474 0 0 0 0 .948z"/></g><g opacity=".1"><path d="M42.044 241.289a.474.474 0 1 0-.001-.948.474.474 0 0 0 0 .948z"/></g><g opacity=".1"><path d="M37.074 247.179a.474.474 0 1 0-.001-.948.474.474 0 0 0 0 .948z"/></g><g opacity=".1"><path d="M36.044 244.849a.474.474 0 1 0-.001-.948.474.474 0 0 0 0 .948z"/></g><g opacity=".1"><path d="M33.593 239.589a.474.474 0 1 0 0-.948.474.474 0 0 0 0 .948z"/></g><g opacity=".1"><path d="M42.206 263.47H27.8v1.387h14.406z"/></g><g><path fill="#d4dfec" d="M44.332 251.13H25.51v13.245h18.822z"/></g><g opacity=".1"><path d="M37.703 249.309a.474.474 0 1 0 0-.948.474.474 0 0 0 0 .948z"/></g><g opacity=".1"><path d="M34.864 249.909a.474.474 0 1 0-.001-.948.474.474 0 0 0 0 .948z"/></g><g opacity=".1"><path fill="#325cfd" d="M16.44 20.583c1.899 0 3.439-1.543 3.439-3.447a3.443 3.443 0 0 0-3.44-3.446c-1.9 0-3.439 1.543-3.439 3.446a3.443 3.443 0 0 0 3.44 3.447z"/></g><g opacity=".1"><path fill="#325cfd" d="M346.763 130.175a4.608 4.608 0 0 0 4.604-4.612 4.608 4.608 0 0 0-4.604-4.613 4.608 4.608 0 0 0-4.603 4.613 4.608 4.608 0 0 0 4.603 4.612z"/></g><g opacity=".1"><path fill="#325cfd" d="M355.64 119.045a3.364 3.364 0 0 0 3.361-3.368 3.364 3.364 0 0 0-3.36-3.367 3.364 3.364 0 0 0-3.361 3.367 3.364 3.364 0 0 0 3.36 3.368z"/></g><g opacity=".1"><path fill="#325cfd" d="M22.363 9.225a4.608 4.608 0 0 0 4.604-4.612A4.608 4.608 0 0 0 22.363 0a4.608 4.608 0 0 0-4.603 4.613 4.608 4.608 0 0 0 4.603 4.612z"/></g><g opacity=".1"><path fill="#325cfd" d="M4.603 30.315a4.608 4.608 0 0 0 4.604-4.612 4.608 4.608 0 0 0-4.604-4.613A4.608 4.608 0 0 0 0 25.703a4.608 4.608 0 0 0 4.603 4.612z"/></g></g></g></svg>