<svg width="480" height="173" viewBox="0 0 480 173" fill="none" xmlns="http://www.w3.org/2000/svg">
<path d="M97.3232 50.0772L239.061 0V173L97.3232 170.053V50.0772Z" fill="white"/>
<path opacity="0.7" d="M97.3232 50.0772L239.061 0V173L97.3232 170.053V50.0772Z" fill="#E9002C"/>
<path d="M0 78.6467L80.8617 50.0774V170.053H0V78.6467Z" fill="white"/>
<path opacity="0.7" d="M0 78.6467L80.8617 50.0774V170.053H0V78.6467Z" fill="#E9002C"/>
<path d="M239.061 0L380.794 50.0772V170.053L239.061 173V0Z" fill="white"/>
<path d="M239.061 0L380.794 50.0772V170.053L239.061 173V0Z" fill="#E9002C"/>
<path d="M479.582 79.0062L397.701 50.0774V170.053H479.582V79.0062Z" fill="white"/>
<path d="M479.582 79.0062L397.701 50.0774V170.053H479.582V79.0062Z" fill="#E9002C"/>
<path d="M47.1195 99.4751C46.5455 99.4751 46.0784 100.256 46.0784 101.219V122.931C46.1087 125.074 45.6026 127.19 44.6057 129.087C43.6759 130.716 42.2522 131.75 40.8908 131.75H40.001C38.6662 131.75 37.3582 130.756 36.3349 129.003C35.2681 127.11 34.7116 124.974 34.7199 122.803V94.7883C34.6921 93.2396 35.0923 91.7133 35.8767 90.3766C36.6197 89.2049 37.594 88.5569 38.6173 88.5569C39.6406 88.5569 40.5793 89.2049 41.2867 90.3677C42.037 91.7252 42.4146 93.2563 42.3812 94.806V120.965C42.3812 122.874 41.4914 124.56 40.4414 124.56C39.5516 124.56 38.555 123.122 38.555 120.965V106.026C38.555 105.067 38.0879 104.282 37.5139 104.282C36.94 104.282 36.4684 105.067 36.4684 106.026V120.948C36.4684 124.915 38.1768 127.907 40.4414 127.907C41.5448 127.907 42.5636 127.223 43.2977 125.976C44.1187 124.43 44.522 122.697 44.4678 120.948V94.7883C44.5136 92.3744 43.9131 89.992 42.7282 87.8867C41.6249 86.0449 40.1522 85.0374 38.5817 85.0374C37.0112 85.0374 35.5386 86.0449 34.4218 87.8867C33.234 89.9954 32.6348 92.3833 32.6867 94.8016V122.812C32.6867 126.021 33.5053 129.278 34.8667 131.524C36.2282 133.77 38.0701 135.075 39.9565 135.075H40.8685C42.7149 135.075 44.5657 133.77 45.9449 131.488C46.659 130.284 47.1968 128.984 47.5421 127.627C47.9408 126.091 48.1411 124.51 48.1383 122.923V101.175C48.1383 100.212 47.6934 99.4307 47.1017 99.4307L47.1195 99.4751Z" fill="white"/>
<path d="M185.703 70.893L181.454 76.5252C181.419 76.5777 181.369 76.6187 181.31 76.6432C181.252 76.6676 181.187 76.6744 181.125 76.6628L176.734 75.6154C176.651 75.5839 176.578 75.5298 176.525 75.4591C176.471 75.3885 176.439 75.3042 176.431 75.2159L175.648 69.4151C175.625 69.2595 175.661 69.1009 175.751 68.9712L179.991 63.3479C180.149 63.1222 180.226 62.8492 180.208 62.574C180.191 62.2989 180.079 62.038 179.893 61.8345C179.09 61.0349 178.018 60.5605 176.885 60.503C176.823 60.4961 176.76 60.4961 176.698 60.503C175.515 60.5918 172.979 61.4661 171.021 64.2134C169.121 66.8764 167.133 71.7851 168.895 77.2708C169.104 77.9321 169.339 78.8065 168.637 79.7341C167.934 80.6617 149.75 103.257 149.75 103.257C148.046 105.197 148.171 108.783 149.75 110.869C150.086 111.345 150.528 111.737 151.041 112.014C151.555 112.292 152.126 112.446 152.709 112.466C153.277 112.456 153.833 112.3 154.323 112.013C154.813 111.726 155.221 111.318 155.507 110.829C155.507 110.829 172.476 86.9507 173.304 85.8634C173.415 85.6815 173.568 85.5289 173.751 85.4184C173.934 85.308 174.14 85.2429 174.354 85.2287C174.647 85.2438 174.93 85.3475 175.163 85.5261C176.066 86.141 177.136 86.4648 178.229 86.4537C180.765 86.4537 183.43 84.9003 185.058 82.7521C186.737 80.5924 187.714 77.9719 187.856 75.2425C187.913 73.753 187.564 72.2761 186.847 70.9685C186.799 70.8613 186.724 70.7689 186.628 70.7008C186.533 70.6327 186.421 70.5915 186.304 70.5815C186.187 70.5715 186.069 70.5931 185.964 70.644C185.858 70.6949 185.768 70.7733 185.703 70.8708V70.893ZM153.67 108.152C153.567 108.308 153.428 108.436 153.264 108.524C153.099 108.613 152.916 108.659 152.729 108.659C152.542 108.659 152.359 108.613 152.194 108.524C152.03 108.436 151.89 108.308 151.788 108.152C151.539 107.785 151.406 107.353 151.406 106.91C151.406 106.467 151.539 106.034 151.788 105.667C151.89 105.511 152.03 105.384 152.194 105.295C152.359 105.207 152.542 105.16 152.729 105.16C152.916 105.16 153.099 105.207 153.264 105.295C153.428 105.384 153.567 105.511 153.67 105.667C153.919 106.034 154.053 106.466 154.054 106.909C154.054 107.352 153.922 107.785 153.674 108.152H153.67Z" fill="white"/>
<path d="M336.132 81.7798C334.957 68.2342 325.752 57.6799 314.554 57.6799C307.142 57.6799 300.615 62.2913 296.695 69.3349C295.492 68.7125 294.158 68.3853 292.802 68.3806C287.143 68.3806 282.57 74.5943 282.467 81.5979C276.683 83.888 272.875 90.9183 272.875 98.2947C272.875 107.336 278.766 115.316 286.026 115.316H333.827C341.092 115.316 346.983 107.327 346.983 98.2947C346.983 90.2437 342.294 83.1468 336.132 81.7798ZM325.334 78.673L305.985 102.862C305.736 103.168 305.095 103.851 304.303 103.851C303.964 103.812 303.637 103.7 303.346 103.523C303.054 103.346 302.804 103.108 302.613 102.826L294.493 92.7291C294.381 92.5816 294.32 92.4016 294.32 92.2165C294.32 92.0313 294.381 91.8513 294.493 91.7038L297.069 88.4994C297.115 88.4346 297.176 88.3814 297.246 88.3437C297.316 88.3059 297.394 88.2848 297.474 88.2819C297.554 88.2845 297.632 88.3055 297.702 88.3432C297.772 88.3809 297.833 88.4344 297.879 88.4994L304.308 96.4883L321.961 74.3546C322.008 74.2905 322.069 74.2378 322.139 74.2001C322.209 74.1625 322.287 74.141 322.366 74.1371C322.447 74.1375 322.525 74.1575 322.596 74.1955C322.667 74.2334 322.727 74.288 322.771 74.3546L325.303 77.6167C325.427 77.7608 325.497 77.9429 325.503 78.1327C325.509 78.3225 325.449 78.5086 325.334 78.6597V78.673Z" fill="white"/>
<path d="M453.306 103.23C455.736 103.23 457.707 100.609 457.707 97.3758C457.707 94.1427 455.736 91.5217 453.306 91.5217C450.876 91.5217 448.906 94.1427 448.906 97.3758C448.906 100.609 450.876 103.23 453.306 103.23Z" fill="white"/>
<path d="M453.306 105.489C452.821 105.487 452.339 105.409 451.878 105.259L447.536 111.148C447.5 111.198 447.48 111.258 447.48 111.319C447.48 111.381 447.5 111.441 447.536 111.49L454.437 121.254C454.665 121.585 454.787 121.976 454.787 122.377C454.787 122.778 454.665 123.17 454.437 123.5C454.339 123.633 454.212 123.743 454.065 123.82C453.919 123.897 453.757 123.939 453.591 123.944C453.426 123.939 453.265 123.897 453.119 123.82C452.973 123.743 452.847 123.634 452.75 123.5L445.877 113.736C445.862 113.714 445.842 113.696 445.819 113.683C445.795 113.671 445.769 113.664 445.743 113.664C445.717 113.664 445.691 113.671 445.667 113.683C445.644 113.696 445.624 113.714 445.61 113.736L443.932 116.008C442.531 117.899 440.671 117.615 438.669 117.628C436.667 117.642 434.723 116.505 433.299 114.588L431.688 112.404C431.674 112.382 431.654 112.364 431.631 112.352C431.607 112.339 431.581 112.333 431.555 112.333C431.529 112.333 431.503 112.339 431.479 112.352C431.456 112.364 431.436 112.382 431.422 112.404L424.548 122.169C424.45 122.302 424.323 122.411 424.177 122.488C424.03 122.565 423.868 122.608 423.702 122.612C423.537 122.608 423.376 122.566 423.23 122.489C423.084 122.412 422.958 122.302 422.862 122.169C422.633 121.838 422.511 121.447 422.511 121.046C422.511 120.645 422.633 120.253 422.862 119.923L429.762 110.159C429.793 110.107 429.809 110.048 429.809 109.988C429.809 109.928 429.793 109.869 429.762 109.817L419.89 96.4487C419.769 96.2889 419.578 96.3999 419.578 96.6173V123.371C419.578 125.519 420.913 127.277 422.51 127.277L454.775 128.609C456.39 128.609 457.707 126.833 457.707 124.703V102.986C456.599 104.526 455.042 105.489 453.306 105.489Z" fill="white"/>
<path d="M447.211 97.3759C447.205 96.0377 447.461 94.7112 447.963 93.4702L422.501 92.1387C422.155 92.1472 421.815 92.2278 421.502 92.3753C421.19 92.5229 420.911 92.7341 420.686 92.9953L435.069 112.479C435.462 113.075 435.992 113.567 436.616 113.914C437.239 114.262 437.937 114.455 438.651 114.477C439.986 114.477 441.285 115.102 442.237 113.811L449.613 103.816C448.15 102.329 447.211 99.9989 447.211 97.3759Z" fill="white"/>
<g opacity="0.1">
<path opacity="0.1" d="M346.55 101.574C346.813 101.091 346.995 100.558 347.209 100.065C347.439 99.6042 347.726 99.1733 348.063 98.7827C347.449 99.3506 346.939 100.02 346.555 100.762C346.323 101.246 346.168 101.761 345.914 102.231L346.239 101.956C346.156 102.07 346.08 102.188 346.012 102.311C346.22 102.088 346.401 101.841 346.55 101.574Z" fill="black"/>
<path opacity="0.1" d="M359.17 124.374C358.055 124.243 356.992 123.826 356.087 123.162C355.955 123.05 355.805 122.961 355.642 122.9C355.446 122.88 355.249 122.918 355.076 123.012C354.903 123.105 354.762 123.249 354.672 123.424C354.629 123.494 354.591 123.567 354.557 123.641C354.696 123.579 354.853 123.564 355.002 123.601C355.166 123.659 355.317 123.748 355.446 123.863C356.351 124.527 357.414 124.943 358.53 125.07C359.486 125.181 360.572 125.022 361.199 124.285C361.278 124.19 361.346 124.088 361.404 123.979C360.726 124.359 359.938 124.498 359.17 124.374Z" fill="black"/>
<path opacity="0.1" d="M352.12 125.466C351.34 125.442 350.569 125.292 349.838 125.022C350.491 124.322 350.99 123.494 351.301 122.59C351.438 121.992 351.477 121.376 351.417 120.765C351.239 117.867 350.233 114.809 347.858 113.127C347.342 112.759 346.696 112.31 346.79 111.685C346.856 111.439 346.97 111.208 347.124 111.006C347.466 110.437 347.657 109.791 347.681 109.128C347.704 108.465 347.558 107.807 347.257 107.215C346.857 106.452 346.207 105.831 345.864 105.041C345.685 104.603 345.604 104.132 345.629 103.66C345.653 103.188 345.783 102.727 346.007 102.311C345.893 102.43 345.773 102.543 345.646 102.648C345.554 102.775 345.455 102.897 345.348 103.012C345.124 103.428 344.995 103.888 344.971 104.359C344.947 104.831 345.029 105.302 345.21 105.737C345.549 106.532 346.198 107.149 346.599 107.912C346.9 108.504 347.045 109.163 347.022 109.827C346.999 110.49 346.807 111.137 346.465 111.707C346.309 111.908 346.197 112.139 346.136 112.386C346.038 113.012 346.688 113.46 347.204 113.824C349.571 115.511 350.58 118.564 350.763 121.462C350.824 122.074 350.787 122.691 350.652 123.291C350.34 124.195 349.84 125.022 349.183 125.719C349.917 125.989 350.689 126.139 351.47 126.162C351.861 126.169 352.247 126.082 352.598 125.91C352.948 125.738 353.253 125.485 353.486 125.173C353.512 125.128 353.539 125.084 353.561 125.039C353.129 125.31 352.63 125.458 352.12 125.466Z" fill="black"/>
</g>
<path opacity="0.1" d="M22.9168 121.756L22.4404 121.409C22.4917 121.426 22.541 121.449 22.5873 121.476C22.6875 121.53 22.7778 121.601 22.8544 121.685L23.0058 121.822L22.9168 121.756Z" fill="black"/>
</svg>
