<svg width="258" height="254" viewBox="0 0 258 254" fill="none" xmlns="http://www.w3.org/2000/svg">
<g opacity="0.5">
<path opacity="0.5" d="M168.202 11.1198H0V236.865H168.202V11.1198Z" fill="url(#paint0_linear)"/>
</g>
<path d="M165.138 14.1842H2.19043V232.055H165.138V14.1842Z" fill="#F2F2F2"/>
<path d="M70.9629 23.3698H14.8955V25.1192H70.9629V23.3698Z" fill="#E0E0E0"/>
<path opacity="0.7" d="M70.9629 31.2443H14.8955V32.9937H70.9629V31.2443Z" fill="#E9002C"/>
<path d="M135.353 23.3698H79.2852V25.1192H135.353V23.3698Z" fill="#E0E0E0"/>
<path d="M144.111 73.2465H88.0439V74.9959H144.111V73.2465Z" fill="#E0E0E0"/>
<path d="M145.428 78.0565H89.3604V79.806H145.428V78.0565Z" fill="#E0E0E0"/>
<path d="M148.057 82.8705H91.9893V84.62H148.057V82.8705Z" fill="#E0E0E0"/>
<path d="M144.111 150.68H88.0439V152.43H144.111V150.68Z" fill="#E0E0E0"/>
<path d="M145.428 155.494H89.3604V157.243H145.428V155.494Z" fill="#E0E0E0"/>
<path d="M148.057 160.304H91.9893V162.054H148.057V160.304Z" fill="#E0E0E0"/>
<g opacity="0.5">
<path opacity="0.5" d="M74.9046 55.3059H15.334V115.679H74.9046V55.3059Z" fill="url(#paint1_linear)"/>
</g>
<path d="M74.3419 56.6208H15.709V114.368H74.3419V56.6208Z" fill="#F5F5F5"/>
<g opacity="0.5">
<path opacity="0.5" d="M72.4625 60.1199H17.7754V97.7428H72.4625V60.1199Z" fill="url(#paint2_linear)"/>
</g>
<path d="M72.0845 60.5582H18.1514V96.87H72.0845V60.5582Z" fill="white"/>
<path opacity="0.4" d="M13.5788 95.5588L27.1605 74.5577L32.8543 83.7433L45.1195 71.0587L55.6331 83.7433L64.8301 64.9337L88.4828 102.557L11.8271 99.9306L13.5788 95.5588Z" fill="#E9002C"/>
<path opacity="0.4" d="M24.0915 69.7438C26.2687 69.7438 28.0337 67.981 28.0337 65.8065C28.0337 63.632 26.2687 61.8693 24.0915 61.8693C21.9144 61.8693 20.1494 63.632 20.1494 65.8065C20.1494 67.981 21.9144 69.7438 24.0915 69.7438Z" fill="#E9002C"/>
<g opacity="0.5">
<path opacity="0.5" d="M74.9046 132.743H15.334V193.117H74.9046V132.743Z" fill="url(#paint3_linear)"/>
</g>
<path d="M74.3419 134.055H15.709V191.802H74.3419V134.055Z" fill="#F5F5F5"/>
<g opacity="0.5">
<path opacity="0.5" d="M72.4625 137.557H17.7754V175.18H72.4625V137.557Z" fill="url(#paint4_linear)"/>
</g>
<path d="M72.0845 137.992H18.1514V174.304H72.0845V137.992Z" fill="white"/>
<path opacity="0.4" d="M13.5788 172.993L27.1605 151.991L32.8543 161.181L45.1195 148.492L55.6331 161.181L64.8301 142.367L88.4828 179.99L11.8271 177.368L13.5788 172.993Z" fill="#BDBDBD"/>
<path opacity="0.4" d="M24.0915 147.181C26.2687 147.181 28.0337 145.418 28.0337 143.244C28.0337 141.07 26.2687 139.307 24.0915 139.307C21.9144 139.307 20.1494 141.07 20.1494 143.244C20.1494 145.418 21.9144 147.181 24.0915 147.181Z" fill="#BDBDBD"/>
<g opacity="0.5">
<path opacity="0.5" d="M68.9221 0.000103242L24.6943 221.382L189.696 254L233.923 32.6186L68.9221 0.000103242Z" fill="url(#paint5_linear)"/>
</g>
<path d="M70.3001 3.39697L27.7803 217.089L187.602 248.811L230.122 35.1192L70.3001 3.39697Z" fill="white"/>
<path d="M193.381 38.0782L79.957 15.5653L79.6156 17.2812L193.039 39.7941L193.381 38.0782Z" fill="#E0E0E0"/>
<path d="M161.106 200.281L47.6826 177.768L47.3412 179.484L160.765 201.997L161.106 200.281Z" fill="#E0E0E0"/>
<path d="M133.362 205.03L45.7158 187.634L45.3744 189.35L133.02 206.746L133.362 205.03Z" fill="#E0E0E0"/>
<path opacity="0.7" d="M76.4031 203.987L43.7529 197.506L43.4115 199.222L76.0616 205.703L76.4031 203.987Z" fill="#E9002C"/>
<path opacity="0.7" d="M134.699 36.6926L77.9893 25.4365L77.6478 27.1524L134.358 38.4085L134.699 36.6926Z" fill="#E9002C"/>
<path d="M178.281 55.6L76.0303 35.3047L75.6888 37.0206L177.94 57.3159L178.281 55.6Z" fill="#E0E0E0"/>
<path opacity="0.7" d="M98.9815 50.1217L74.0645 45.176L73.723 46.8919L98.6401 51.8376L98.9815 50.1217Z" fill="#3AD29F"/>
<path d="M185.527 77.5583L72.1035 55.0454L71.7621 56.7613L185.186 79.2742L185.527 77.5583Z" fill="#E0E0E0"/>
<g opacity="0.5">
<path opacity="0.5" d="M82.141 96.7418L70.4844 155.089L172.321 175.22L183.977 116.873L82.141 96.7418Z" fill="url(#paint6_linear)"/>
</g>
<path d="M183.206 117.244L82.6729 97.2897L71.3173 154.359L171.85 174.314L183.206 117.244Z" fill="white"/>
<path d="M183.562 87.4309L70.1387 64.918L69.7972 66.6339L183.221 89.1468L183.562 87.4309Z" fill="#E0E0E0"/>
<path d="M104.124 109.576L91.6641 107.103L83.3821 148.726L95.8425 151.199L104.124 109.576Z" fill="#E9002C"/>
<path d="M123.733 127.742L111.272 125.269L105.723 153.161L118.183 155.634L123.733 127.742Z" fill="#3AD29F"/>
<path d="M143.515 145.051L131.055 142.577L128.067 157.594L140.527 160.068L143.515 145.051Z" fill="#F55F44"/>
<path d="M168.929 134.037L156.469 131.564L150.406 162.031L162.867 164.504L168.929 134.037Z" fill="#FDD835"/>
<path d="M205.283 93.4608C199.879 87.8466 193.405 83.3688 186.242 80.2909C179.079 77.213 171.371 75.5972 163.574 75.5385C155.776 75.4799 148.046 76.9796 140.837 79.9494C133.628 82.9192 127.087 87.2991 121.599 92.8314C99.4688 115.114 99.0937 151.396 120.74 174.15C130.249 184.147 142.994 190.46 156.717 191.973C170.44 193.485 184.256 190.099 195.719 182.414L237.987 226.323C238.51 226.866 239.228 227.18 239.983 227.195C240.738 227.209 241.467 226.924 242.012 226.402L252.544 216.287C253.088 215.764 253.402 215.047 253.417 214.294C253.431 213.54 253.146 212.811 252.623 212.267L210.366 168.362C218.468 157.272 222.4 143.685 221.47 129.988C220.541 116.29 214.81 103.358 205.283 93.4608ZM192.118 164.058C186.155 169.783 178.626 173.614 170.484 175.066C162.341 176.518 153.95 175.525 146.372 172.214C138.794 168.903 132.369 163.422 127.91 156.464C123.451 149.507 121.157 141.384 121.32 133.125C121.483 124.865 124.094 116.839 128.824 110.062C133.553 103.284 140.189 98.0598 147.891 95.0489C155.594 92.038 164.017 91.3759 172.096 93.1463C180.176 94.9168 187.548 99.0402 193.281 104.995C197.088 108.95 200.077 113.614 202.079 118.722C204.081 123.83 205.055 129.283 204.947 134.767C204.839 140.252 203.651 145.661 201.45 150.687C199.248 155.713 196.077 160.256 192.118 164.058Z" fill="url(#paint7_linear)"/>
<path d="M132.157 122.325C127.454 122.325 127.446 129.627 132.157 129.627C136.868 129.627 136.868 122.325 132.157 122.325Z" fill="url(#paint8_linear)"/>
<path d="M164.943 98.9378C152.284 98.6531 140.765 104.995 134.64 114.571C132.641 117.695 138.316 120.456 140.304 117.347C145.375 109.42 155.011 104.385 165.434 104.647C176.357 104.92 186.296 111.162 191.559 119.823C193.554 123.108 198.787 120.122 196.81 116.856C190.411 106.366 178.018 99.2487 164.943 98.9378Z" fill="url(#paint9_linear)"/>
<path d="M209.87 91.2432C204.466 85.629 197.992 81.1512 190.828 78.0733C183.665 74.9954 175.958 73.3796 168.161 73.321C160.363 73.2623 152.633 74.7621 145.424 77.7319C138.215 80.7017 131.674 85.0816 126.186 90.6139C104.056 112.896 103.681 149.178 125.327 171.932C134.837 181.929 147.581 188.242 161.304 189.753C175.027 191.265 188.843 187.878 200.306 180.193L242.57 224.106C243.093 224.649 243.811 224.962 244.566 224.977C245.321 224.992 246.051 224.707 246.595 224.184L257.127 214.07C257.671 213.547 257.985 212.83 258 212.076C258.015 211.322 257.729 210.593 257.206 210.05L214.938 166.141C223.041 155.053 226.975 141.468 226.048 127.771C225.121 114.075 219.394 101.142 209.87 91.2432ZM196.705 161.81C190.742 167.536 183.213 171.366 175.071 172.818C166.928 174.27 158.537 173.278 150.959 169.967C143.381 166.656 136.956 161.175 132.497 154.217C128.038 147.259 125.744 139.137 125.907 130.877C126.07 122.618 128.681 114.592 133.41 107.814C138.14 101.037 144.776 95.8123 152.478 92.8014C160.181 89.7905 168.604 89.1284 176.683 90.8988C184.763 92.6693 192.135 96.7927 197.868 102.748C201.674 106.702 204.664 111.366 206.666 116.475C208.668 121.583 209.642 127.035 209.534 132.52C209.426 138.004 208.238 143.414 206.037 148.439C203.835 153.465 200.664 158.008 196.705 161.81Z" fill="#E9002C"/>
<path d="M136.744 120.104C132.041 120.104 132.033 127.405 136.744 127.405C141.455 127.405 141.455 120.104 136.744 120.104Z" fill="#E9002C"/>
<path d="M169.531 96.7203C156.872 96.4356 145.353 102.778 139.228 112.353C137.229 115.477 142.904 118.238 144.892 115.129C149.963 107.202 159.599 102.167 170.022 102.429C180.945 102.703 190.884 108.944 196.147 117.605C198.142 120.891 203.375 117.905 201.398 114.638C194.988 104.119 182.61 97.0012 169.531 96.7203Z" fill="#E9002C"/>
<defs>
<linearGradient id="paint0_linear" x1="84.1011" y1="236.865" x2="84.1011" y2="11.1198" gradientUnits="userSpaceOnUse">
<stop stop-color="#808080" stop-opacity="0.25"/>
<stop offset="0.54" stop-color="#808080" stop-opacity="0.12"/>
<stop offset="1" stop-color="#808080" stop-opacity="0.1"/>
</linearGradient>
<linearGradient id="paint1_linear" x1="16363.9" y1="24767.4" x2="16363.9" y2="15037.6" gradientUnits="userSpaceOnUse">
<stop stop-color="#808080" stop-opacity="0.25"/>
<stop offset="0.54" stop-color="#808080" stop-opacity="0.12"/>
<stop offset="1" stop-color="#808080" stop-opacity="0.1"/>
</linearGradient>
<linearGradient id="paint2_linear" x1="15026.1" y1="13658.6" x2="15026.1" y2="9880.09" gradientUnits="userSpaceOnUse">
<stop stop-color="#808080" stop-opacity="0.25"/>
<stop offset="0.54" stop-color="#808080" stop-opacity="0.12"/>
<stop offset="1" stop-color="#808080" stop-opacity="0.1"/>
</linearGradient>
<linearGradient id="paint3_linear" x1="16363.9" y1="37324.7" x2="16363.9" y2="27594.9" gradientUnits="userSpaceOnUse">
<stop stop-color="#808080" stop-opacity="0.25"/>
<stop offset="0.54" stop-color="#808080" stop-opacity="0.12"/>
<stop offset="1" stop-color="#808080" stop-opacity="0.1"/>
</linearGradient>
<linearGradient id="paint4_linear" x1="15026.1" y1="21513.1" x2="15026.1" y2="17734.6" gradientUnits="userSpaceOnUse">
<stop stop-color="#808080" stop-opacity="0.25"/>
<stop offset="0.54" stop-color="#808080" stop-opacity="0.12"/>
<stop offset="1" stop-color="#808080" stop-opacity="0.1"/>
</linearGradient>
<linearGradient id="paint5_linear" x1="127536" y1="156397" x2="147169" y2="57081.6" gradientUnits="userSpaceOnUse">
<stop stop-color="#808080" stop-opacity="0.25"/>
<stop offset="0.54" stop-color="#808080" stop-opacity="0.12"/>
<stop offset="1" stop-color="#808080" stop-opacity="0.1"/>
</linearGradient>
<linearGradient id="paint6_linear" x1="28766.9" y1="65844.6" x2="31960.6" y2="49689.5" gradientUnits="userSpaceOnUse">
<stop stop-color="#808080" stop-opacity="0.25"/>
<stop offset="0.54" stop-color="#808080" stop-opacity="0.12"/>
<stop offset="1" stop-color="#808080" stop-opacity="0.1"/>
</linearGradient>
<linearGradient id="paint7_linear" x1="179.084" y1="227.196" x2="179.084" y2="75.539" gradientUnits="userSpaceOnUse">
<stop stop-color="#B3B3B3" stop-opacity="0.25"/>
<stop offset="0.54" stop-color="#B3B3B3" stop-opacity="0.1"/>
<stop offset="1" stop-color="#B3B3B3" stop-opacity="0.05"/>
</linearGradient>
<linearGradient id="paint8_linear" x1="132.157" y1="129.623" x2="132.157" y2="122.325" gradientUnits="userSpaceOnUse">
<stop stop-opacity="0.12"/>
<stop offset="0.55" stop-opacity="0.09"/>
<stop offset="1" stop-opacity="0.02"/>
</linearGradient>
<linearGradient id="paint9_linear" x1="48980.8" y1="10918.2" x2="48980.8" y2="9588.38" gradientUnits="userSpaceOnUse">
<stop stop-opacity="0.12"/>
<stop offset="0.55" stop-opacity="0.09"/>
<stop offset="1" stop-opacity="0.02"/>
</linearGradient>
</defs>
</svg>
