<svg width="287" height="323" viewBox="0 0 287 323" fill="none" xmlns="http://www.w3.org/2000/svg">
<g filter="url(#filter0_d)">
<path d="M97.6822 293H51.916L97.6822 188.628H143.5L97.6822 293Z" fill="#ECEFF1"/>
<path d="M189.318 293H235.084L189.318 188.628H143.5L189.318 293Z" fill="#ECEFF1"/>
<path d="M253.826 125.622C245.697 71.5209 198.999 30 142.62 30C80.494 30 30.0684 80.4256 30.0684 142.552C30.0684 204.678 80.494 255.051 142.62 255.051C198.999 255.051 245.749 213.582 253.877 159.429C254.706 153.89 255.12 148.246 255.12 142.5C255.12 136.805 254.706 131.162 253.826 125.622Z" fill="#E9002C"/>
<path d="M142.62 225.438C188.397 225.438 225.506 188.329 225.506 142.552C225.506 96.7748 188.397 59.6653 142.62 59.6653C96.8429 59.6653 59.7334 96.7748 59.7334 142.552C59.7334 188.329 96.8429 225.438 142.62 225.438Z" fill="white"/>
<path d="M142.62 195.773C172.013 195.773 195.841 171.945 195.841 142.552C195.841 113.158 172.013 89.3303 142.62 89.3303C113.226 89.3303 89.3984 113.158 89.3984 142.552C89.3984 171.945 113.226 195.773 142.62 195.773Z" fill="#E9002C"/>
<path d="M142.621 166.108C155.63 166.108 166.177 155.561 166.177 142.551C166.177 129.542 155.63 118.995 142.621 118.995C129.611 118.995 119.064 129.542 119.064 142.551C119.064 155.561 129.611 166.108 142.621 166.108Z" fill="white"/>
<path opacity="0.2" d="M255.12 142.552C255.12 148.298 254.706 153.941 253.877 159.481H249.839L243.316 146.9H146.348C144.277 146.9 142.568 145.244 142.568 143.121V141.982C142.568 139.911 144.225 138.203 146.348 138.203H243.316L249.839 125.622H253.826C254.706 131.162 255.12 136.805 255.12 142.552Z" fill="#41596B"/>
<path d="M232.961 33.1062L206.868 59.1991L212.667 77.371L230.838 83.1694L256.931 57.0247L238.811 51.2263L232.961 33.1062Z" fill="#ECEFF1"/>
<path d="M239.744 49.4662C238.035 47.7577 235.291 47.7577 233.583 49.4662L143.448 139.601C141.74 141.309 141.74 144.053 143.448 145.761C145.157 147.47 147.901 147.47 149.609 145.761L239.744 55.627C241.452 53.9185 241.452 51.1746 239.744 49.4662Z" fill="#111115"/>
</g>
<defs>
<filter id="filter0_d" x="-18" y="0" width="323" height="323" filterUnits="userSpaceOnUse" color-interpolation-filters="sRGB">
<feFlood flood-opacity="0" result="BackgroundImageFix"/>
<feColorMatrix in="SourceAlpha" type="matrix" values="0 0 0 0 0 0 0 0 0 0 0 0 0 0 0 0 0 0 127 0"/>
<feOffset/>
<feGaussianBlur stdDeviation="15"/>
<feColorMatrix type="matrix" values="0 0 0 0 0 0 0 0 0 0 0 0 0 0 0 0 0 0 0.25 0"/>
<feBlend mode="normal" in2="BackgroundImageFix" result="effect1_dropShadow"/>
<feBlend mode="normal" in="SourceGraphic" in2="effect1_dropShadow" result="shape"/>
</filter>
</defs>
</svg>
