<svg xmlns="http://www.w3.org/2000/svg" width="364" height="276" viewBox="0 0 364 276"><g><g><g/><g><path fill="#e6e6e6" d="M277.296 266.08c-.05-.08-1.212-2.026-1.615-6.066-.37-3.707-.132-9.956 3.101-18.671 6.127-16.512-1.411-29.834-1.489-29.967l.372-.216a33.115 33.115 0 0 1 3.114 8.839 38.635 38.635 0 0 1-1.594 21.494c-6.116 16.483-1.569 24.286-1.522 24.363z"/></g><g><path fill="#3f3d56" d="M274.894 210.4a2.797 2.797 0 0 0 2.794-2.8c0-1.547-1.251-2.8-2.794-2.8a2.797 2.797 0 0 0-2.794 2.8c0 1.546 1.25 2.8 2.794 2.8z"/></g><g><path fill="#3f3d56" d="M283.704 220.74a2.797 2.797 0 0 0 2.794-2.8c0-1.547-1.251-2.8-2.794-2.8a2.797 2.797 0 0 0-2.794 2.8c0 1.546 1.25 2.8 2.794 2.8z"/></g><g><path fill="#e6e6e6" d="M277.694 227.63a2.797 2.797 0 0 0 2.794-2.8c0-1.547-1.251-2.8-2.794-2.8a2.797 2.797 0 0 0-2.794 2.8c0 1.546 1.25 2.8 2.794 2.8z"/></g><g><path fill="#e6e6e6" d="M284.994 233.45a2.797 2.797 0 0 0 2.794-2.8c0-1.547-1.251-2.8-2.794-2.8a2.797 2.797 0 0 0-2.794 2.8c0 1.546 1.25 2.8 2.794 2.8z"/></g><g><path fill="#3f3d56" d="M275.544 242.49a2.797 2.797 0 0 0 2.794-2.8c0-1.547-1.251-2.8-2.794-2.8a2.797 2.797 0 0 0-2.794 2.8c0 1.546 1.25 2.8 2.794 2.8z"/></g><g><path fill="#e6e6e6" d="M278.977 266.18s-2.794-6.892 5.588-12.06"/></g><g><path fill="#e6e6e6" d="M275.543 266.056s-1.271-7.328-11.113-7.266"/></g><g><path fill="#3f3d56" d="M294.853 276.005c38.021 0 68.843-3.11 68.843-6.948 0-3.837-30.822-6.947-68.843-6.947-38.02 0-68.843 3.11-68.843 6.947s30.822 6.948 68.843 6.948z"/></g><g><path fill="#3f3d56" d="M288.957 0H0v185.436h288.957z"/></g><g><path fill="#e9002c" d="M8.995 8.4a2.278 2.278 0 0 0 2.276-2.28c0-1.26-1.02-2.28-2.276-2.28A2.278 2.278 0 0 0 6.72 6.12c0 1.259 1.019 2.28 2.275 2.28z"/></g><g><path fill="#e9002c" d="M17.635 8.4a2.278 2.278 0 0 0 2.276-2.28c0-1.26-1.02-2.28-2.276-2.28a2.278 2.278 0 0 0-2.275 2.28c0 1.259 1.019 2.28 2.275 2.28z"/></g><g><path fill="#e9002c" d="M26.275 8.4a2.278 2.278 0 0 0 2.276-2.28c0-1.26-1.02-2.28-2.276-2.28A2.278 2.278 0 0 0 24 6.12c0 1.259 1.019 2.28 2.275 2.28z"/></g><g><path fill="#e6e6e6" d="M223.71 76.06h-49.49v2.847h49.49z"/></g><g><path fill="#e9002c" d="M250.643 86.44H174.22v2.847h76.423z"/></g><g><path fill="#e6e6e6" d="M236.503 96.22H174.22v2.847h62.283z"/></g><g><path fill="#e6e6e6" d="M210.58 105.97h-36.36v2.847h36.36z"/></g><g><path fill="#e6e6e6" d="M229.097 115.72H174.22v2.847h54.877z"/></g><g><path fill="#e6e6e6" d="M157.73 75.04h-6.06v6.072h6.06z"/></g><g><path fill="#e9002c" d="M157.73 84.83h-6.06v6.072h6.06z"/></g><g><path fill="#e6e6e6" d="M157.73 94.61h-6.06v6.072h6.06z"/></g><g><path fill="#e6e6e6" d="M157.73 104.39h-6.06v6.072h6.06z"/></g><g><path fill="#e6e6e6" d="M157.73 114.18h-6.06v6.072h6.06z"/></g><g><path fill="#ff6584" d="M230.967 114.03H217.29a48.03 48.03 0 0 1 0-16.34h13.677a29.46 29.46 0 0 0 0 16.34z"/></g><g><path fill="#e9002c" d="M75.595 127.45c20.294 0 36.745-16.485 36.745-36.82S95.89 53.81 75.595 53.81c-20.294 0-36.745 16.485-36.745 36.82s16.451 36.82 36.745 36.82z"/></g><g><path fill="#fff" d="M77.647 55.895H73.54V51.78h4.107zm-3.286-.823h2.465v-2.469H74.36z"/></g><g><path fill="#fff" d="M98.687 53.42H76.92v.823h21.767z"/></g><g><path fill="#fff" d="M98.685 54.694a.856.856 0 1 0-.001-1.712.856.856 0 0 0 .001 1.712z"/></g><g><path fill="#fff" d="M74.046 53.42H52.69v.823h21.356z"/></g><g><path fill="#fff" d="M52.685 54.694a.856.856 0 1 0-.001-1.712.856.856 0 0 0 .001 1.712z"/></g><g><path fill="#fff" d="M114.297 92.595h-4.107V88.48h4.107zm-3.286-.823h2.465v-2.469h-2.465z"/></g><g><path fill="#fff" d="M112.651 92.28h-.821v21.4h.821z"/></g><g><path fill="#fff" d="M112.245 114.534a.856.856 0 1 0-.001-1.712.856.856 0 0 0 .001 1.712z"/></g><g><path fill="#fff" d="M112.651 67.59h-.821v21.4h.821z"/></g><g><path fill="#fff" d="M112.245 68.444a.856.856 0 1 0-.001-1.712.856.856 0 0 0 .001 1.712z"/></g><g><path fill="#fff" d="M40.777 92.595H36.67V88.48h4.107zm-3.286-.823h2.465v-2.469H37.49z"/></g><g><path fill="#fff" d="M39.141 92.28h-.821v21.4h.821z"/></g><g><path fill="#fff" d="M38.725 114.534a.856.856 0 1 0-.001-1.712.856.856 0 0 0 .001 1.712z"/></g><g><path fill="#fff" d="M39.141 66.76h-.821v22.223h.821z"/></g><g><path fill="#fff" d="M38.725 68.444a.856.856 0 1 0-.001-1.712.856.856 0 0 0 .001 1.712z"/></g><g><path fill="#fff" d="M77.647 129.555H73.54v-4.115h4.107zm-3.286-.823h2.465v-2.469H74.36z"/></g><g><path fill="#fff" d="M99.097 127.09H77.33v.823h21.767z"/></g><g><path fill="#fff" d="M98.685 128.354a.856.856 0 1 0-.001-1.712.856.856 0 0 0 .001 1.712z"/></g><g><path fill="#fff" d="M74.046 127.09H52.69v.823h21.356z"/></g><g><path fill="#fff" d="M52.685 128.354a.856.856 0 1 0-.001-1.712.856.856 0 0 0 .001 1.712z"/></g><g><path fill="#e6e6e6" d="M96.007 146.363H80.085a55.913 55.913 0 0 1 0-19.023h15.922a34.294 34.294 0 0 0 0 19.023z"/></g><g><path fill="#fbbebe" d="M306.749 142.44l-3.729 13.876s-1.864 11.207 1.332 11.474c3.196.266 2.397-11.208 2.397-11.208l6.124-9.606z"/></g><g><path fill="#2f2e41" d="M334.443 149.695v-4.347l-25.293-1.708-4 25.617s-.532 25.54 1.332 38.58c1.864 13.042 5.592 43.472 5.592 43.472h17.043l-4.26-63.305 19.173 63.305 19.972-2.445-23.167-74.716s.266-13.857-6.392-24.453z"/></g><g><path fill="#2f2e41" d="M314.2 248.37l-1.064 8.272-1.598 5.87s-7.456 1.602-2.93 4.27c4.528 2.668 8.789 0 8.789 0l3.461-4.803v8.272h5.326V258.51l-3.994-8.806z"/></g><g><path fill="#2f2e41" d="M347.22 248.37l-1.064 8.272-1.598 5.87s-7.456 1.602-2.93 4.27c4.528 2.668 8.789 0 8.789 0l3.461-4.803v8.272h5.326V258.51l-3.994-8.806z"/></g><g><path fill="#fbbebe" d="M323.924 99.075c5 0 9.054-4.062 9.054-9.073 0-5.01-4.053-9.072-9.054-9.072-5 0-9.054 4.062-9.054 9.072 0 5.011 4.054 9.073 9.054 9.073z"/></g><g><path fill="#fbbebe" d="M329.919 93.87l7.456 9.072-9.054 3.47-4.261-8.54z"/></g><g><path fill="#e6e6e6" d="M325.386 103.482l1.287-.355s6.702-4.182 8.566-3.915c1.864.267 7.722 6.138 6.657 14.143-1.065 8.005 1.065 37.89-3.195 36.823-4.261-1.067-5.593-1.867-5.593-1.867l-5.06-2.402-4.793 1.334s-2.929-1.868-5.326-1.334c-2.396.534-10.119-2.135-10.119-2.135z"/></g><g><path fill="#e6e6e6" d="M327.273 104.336s-6.019-2.857-8.682 1.412c-2.663 4.27-10.12 26.951-10.12 26.951l-3.461 10.407 8.522 5.07 16.776-30.954s2.452-9.229-3.035-12.886z"/></g><g><path fill="#2f2e41" d="M322.974 91.418c-.569-.878-.281-2.072-.68-3.039-.627-1.519-2.575-1.875-4.21-2.013a12.522 12.522 0 0 0-3.26.009 3.128 3.128 0 0 0-2.262 1.643c-.242.486-.18-1.037-.026-2.991a9.458 9.458 0 0 1 2.241-5.407 9.426 9.426 0 0 1 5.059-3.062c1.99-.46 4.041-.798 6.07-.56 2.028.24 4.05 1.117 5.316 2.723.578.734.987 1.6 1.633 2.274 1.135 1.187 2.817 1.619 4.362 2.169A13.155 13.155 0 0 1 342 85.929a7.153 7.153 0 0 1 2.312 4.912c.033 2.168-1.343 4.405-3.56 4.832-.386.068-.75.225-1.064.46-2.117 1.645.298 3.367.281 5.219-.014 1.545-1.73 2.552-3.27 2.624a6.2 6.2 0 0 1-3.973-1.348 6.221 6.221 0 0 1-2.21-3.573c-.232-1.268-.053-2.57.098-3.85.173-1.466-2.977-4.917-.896-2.388.406.48.68 1.06.796 1.679.346 2.02-1.49 2.7-2.647 3.82a4.807 4.807 0 0 0-1.16 4.946 5.543 5.543 0 0 1-1.005-6.996c.373-.573.853-1.071 1.206-1.656.552-.913.704-2.899-.84-2.844-1.102.039-2.247.958-3.094-.348z"/></g><g opacity=".2"><path d="M327.12 126.297l-12.25 19.424 11.594-21.391z"/></g><g><path fill="#e9002c" d="M247.138 248.52H227.01v20.169h20.128z"/></g><g><path fill="#e6e6e6" d="M250.545 260.04H240.5v10.065h10.045z"/></g><g><path fill="#e6e6e6" d="M280.422 175.644H8.54V13.09h271.882zm-271.06-.823H279.6V13.913H9.361z"/></g></g></g></svg>