<svg xmlns="http://www.w3.org/2000/svg" width="403" height="257" viewBox="0 0 403 257"><g><g><g/><g><path fill="#3f3d56" d="M98.156 257.003c54.211 0 98.157-5.725 98.157-12.786 0-7.062-43.946-12.787-98.157-12.787C43.946 231.43 0 237.155 0 244.217c0 7.061 43.946 12.786 98.156 12.786z"/></g><g><path fill="#f2f2f2" d="M357.737 115.29h-84.118L229.4 186.957a83.629 83.629 0 0 0 44.219 12.571c46.457 0 84.118-37.714 84.118-84.238z"/></g><g><path fill="#3f3d56" d="M154.702 236.257c12.344 0 22.351-10.021 22.351-22.383 0-12.363-10.007-22.384-22.351-22.384-12.345 0-22.352 10.021-22.352 22.384 0 12.362 10.007 22.383 22.352 22.383z"/></g><g><path fill="#ffb9b9" d="M112.716 51.02s.798 7.992-1.596 11.188c-2.394 3.197 5.985 23.176 5.985 23.176l11.97-22.377s-3.99-2.397-1.595-9.19z"/></g><g opacity=".1"><path d="M112.716 51.02s.798 7.992-1.596 11.188c-2.394 3.197 5.985 23.176 5.985 23.176l11.97-22.377s-3.99-2.397-1.595-9.19z"/></g><g><path fill="#ffb9b9" d="M148.626 91.37l.4 16.382-15.163 24.375-2.793-9.19 8.38-16.384s-2.794-7.592-1.996-11.987c.798-4.395 11.172-3.197 11.172-3.197z"/></g><g><path fill="#ffb9b9" d="M86.389 88.98l-.399 16.382 15.162 24.375 2.793-9.19-8.379-16.384s2.793-7.592 1.995-11.987c-.798-4.395-11.172-3.197-11.172-3.197z"/></g><g><path fill="#2f2e41" d="M97.56 115.35l-1.596 3.996a20.1 20.1 0 0 0-6.384 15.584l-4.788 49.547s-3.192 3.597-1.995 7.992c0 0-2.793 14.784-1.197 19.58 0 0-6.783 12.386.399 13.186 7.182.799 9.576.799 10.374-1.998s1.995-13.187 1.995-13.187l17.557-62.334 2.793 38.76s-2.793 10.388-1.995 13.185c.798 2.798-5.586 22.776-2.793 24.774 2.793 1.998 10.773 2.797 11.172 1.199.399-1.598.798-11.588.798-11.588s3.99-8.79 4.788-11.587c.798-2.798 1.596-18.381 1.596-18.381l7.182-45.952s1.596-12.387-2.394-14.784l-1.596-7.193z"/></g><g><path fill="#2f2e41" d="M80.801 222.84l-1.596 7.992s-8.379 13.186-.399 13.186c7.98 0 8.778-3.996 8.778-3.996v-3.596s3.99-1.998 3.99-2.398c0-.4-1.196-9.99-1.196-9.99z"/></g><g><path fill="#2f2e41" d="M119.903 222.84l1.596 7.992s8.38 13.186.4 13.186-8.779-3.996-8.779-3.996v-3.596s-3.99-1.998-3.99-2.398c0-.4 1.197-9.99 1.197-9.99z"/></g><g><path fill="#ffb9b9" d="M121.577 59.664c5.814 0 10.527-4.72 10.527-10.542s-4.713-10.542-10.527-10.542c-5.814 0-10.527 4.72-10.527 10.542s4.713 10.542 10.527 10.542z"/></g><g><path fill="#d0cde1" d="M117.91 76.992s-5.985-9.99-5.585-12.387c.245-1.374.238-2.78-.02-4.152l-3.572 2.154L93.97 69.4l5.985 19.979s-1.596 4.395-1.596 7.592.798 6.793 0 7.992c-.798 1.198-1.197 3.196-.399 4.794a5.08 5.08 0 0 1 .4 3.197s-5.587 3.197-2.395 3.996c2.103.464 4.281.464 6.384 0 0 0 .4-1.199 3.591.4 3.192 1.598 19.95 1.997 19.95 1.997s10.774.4 10.375-1.198c-.399-1.599 1.995-20.379 1.995-20.379l5.586-26.372-12.768-7.992-4.124-3.646-1.063 5.644z"/></g><g><path fill="#d0cde1" d="M96.756 69.8h-2.793S79.798 86.782 83.79 89.58c3.99 2.796 17.755 4.994 17.755 4.994S100.347 69.8 96.756 69.8z"/></g><g><path fill="#d0cde1" d="M140.248 71.4h3.591s9.577 22.377 6.384 23.176c-3.192.799-14.763 3.196-14.763 1.998 0-1.2 4.788-25.174 4.788-25.174z"/></g><g><path fill="#2f2e41" d="M111.133 49.071s-1.142-1.715-.702-3.563c.262-1.05.366-2.132.307-3.212.491-1.6 1.108-3.16 1.845-4.663.923-1.671.483-2.375 3.383-2.903s1.713-4.312 9.357-.22a2.242 2.242 0 0 0 2.328.88c1.581-.308 2.153 1.891 2.153 1.891s1.054-.616 1.45.264c.395.88 3.214-.528 3.214 5.411 0 5.94-3.208 11.244-3.208 11.244s.235-9.99-4.993-11.002c-5.227-1.012-10.85-3.96-12.212-.176a28.86 28.86 0 0 1-2.922 6.05z"/></g><g><path fill="#3f3d56" d="M270.768 191.718a84.227 84.227 0 0 1-44.429-12.631l-.339-.21.21-.34 44.336-71.857h84.739v.4c0 46.67-37.914 84.638-84.517 84.638zm-43.67-13.101a83.429 83.429 0 0 0 43.67 12.301c46.03 0 83.504-37.392 83.718-83.439h-83.495z"/></g><g><path fill="#f2f2f2" d="M169.18 103.16a84.274 84.274 0 0 0 10.64 41.032 84.126 84.126 0 0 0 29.26 30.635l44.218-71.667-73.046-41.8a83.943 83.943 0 0 0-11.072 41.8z"/></g><g><path fill="#3f3d56" d="M215.978 172.523l-.34-.211a84.67 84.67 0 0 1-37.477-51.144 84.784 84.784 0 0 1 8.514-62.862l.198-.346 73.75 42.203zM187.17 59.05a83.984 83.984 0 0 0-8.236 61.921 83.87 83.87 0 0 0 36.785 50.45l43.792-70.974z"/></g><g><path fill="#e9002c" d="M295.134 8.04L277 90.31h84.118c0-40.289-28.244-73.965-65.984-82.27z"/></g><g><path fill="#3f3d56" d="M355.284 95.345H270.27L288.597 12.2l.39.086a84.526 84.526 0 0 1 47.667 29.65 84.74 84.74 0 0 1 18.63 53.01zm-84.02-.8h83.22c-.187-38.77-27.559-72.899-65.28-81.392z"/></g><g><path fill="#f2f2f2" d="M259.006 0a83.994 83.994 0 0 0-42.229 11.37 84.147 84.147 0 0 0-30.817 31.068l73.046 41.8 18.134-82.27A84.292 84.292 0 0 0 259.006 0z"/></g><g><path fill="#3f3d56" d="M262.834 91.634L188.97 49.366l.199-.347a84.659 84.659 0 0 1 39.149-35.371 84.505 84.505 0 0 1 52.462-5.29l.39.086zm-.546-1.233L280.22 9.055a83.708 83.708 0 0 0-51.578 5.324 83.86 83.86 0 0 0-38.58 34.692z"/></g><g><path fill="#3f3d56" d="M306.34 67.376l-.58-.548L349.541 20.3h35.637v.8h-35.292z"/></g><g><path fill="#e9002c" d="M403 26.41h-42.06v1.428H403z"/></g><g><path fill="#e9002c" d="M403 32.48h-42.06v1.428H403z"/></g><g><path fill="#e9002c" d="M403 38.55h-42.06v1.428H403z"/></g><g><path fill="#e9002c" d="M388.64 203.03h-42.06v1.428h42.06z"/></g><g><path fill="#e9002c" d="M388.64 209.1h-42.06v1.428h42.06z"/></g><g><path fill="#e9002c" d="M388.64 215.16h-42.06v1.428h42.06z"/></g><g><path fill="#3f3d56" d="M370.683 195.867h-42.105l-.12-.173-32.718-47.55.657-.454 32.6 47.377h41.686z"/></g><g><path fill="#2f2e41" d="M22.805 224.828c-1.33 11.664 5.83 22.06 5.83 22.06s9.316-8.513 10.645-20.177c1.33-11.664-5.83-22.061-5.83-22.061s-9.316 8.514-10.645 20.178z"/></g><g><path fill="#e9002c" d="M27.885 224.227c4.79 10.714 1.107 22.793 1.107 22.793s-11.451-5.292-16.242-16.006c-4.791-10.715-1.108-22.794-1.108-22.794s11.452 5.292 16.243 16.007z"/></g></g></g></svg>