<svg xmlns="http://www.w3.org/2000/svg" width="705" height="404" viewBox="0 0 705 404"><g><g><g transform="rotate(180 352.5 202)"><path fill="#325cfd" d="M0 0h503c111.561 0 202 90.439 202 202 0 111.562-90.439 202-202 202H0z"/></g><g><g/><g><path fill="#f2f2f2" d="M494.693 318.353c57.523 0 104.154-46.686 104.154-104.276 0-57.59-46.631-104.277-104.154-104.277-57.522 0-104.153 46.686-104.153 104.277 0 57.59 46.631 104.276 104.153 104.276z"/></g><g><path fill="#ff6584" d="M201.505 142.644c21.967 0 39.775-17.829 39.775-39.822C241.28 80.83 223.472 63 201.505 63s-39.775 17.829-39.775 39.822c0 21.993 17.808 39.822 39.775 39.822z"/></g><g><path fill="#f2f2f2" d="M272.853 276.893c57.523 0 104.154-46.686 104.154-104.276 0-57.59-46.631-104.277-104.154-104.277-57.522 0-104.153 46.686-104.153 104.277 0 57.59 46.631 104.276 104.153 104.276z"/></g><g><path fill="#3f3d56" d="M267.935 282.636c63.184 0 114.405-2.757 114.405-6.158 0-3.4-51.221-6.158-114.405-6.158-63.184 0-114.405 2.757-114.405 6.158 0 3.401 51.22 6.158 114.405 6.158z"/></g><g opacity=".1"><path d="M244.971 280.944c47.332 0 85.701-1.902 85.701-4.247 0-2.346-38.369-4.247-85.7-4.247-47.332 0-85.702 1.901-85.702 4.247 0 2.345 38.37 4.247 85.701 4.247z"/></g><g><path fill="#3f3d56" d="M490.595 326.158c63.184 0 114.405-3.033 114.405-6.774s-51.221-6.774-114.405-6.774c-63.184 0-114.405 3.033-114.405 6.774s51.22 6.774 114.405 6.774z"/></g><g opacity=".1"><path d="M467.631 324.283c47.332 0 85.701-2.091 85.701-4.671s-38.369-4.672-85.7-4.672c-47.332 0-85.702 2.092-85.702 4.672 0 2.58 38.37 4.671 85.701 4.671z"/></g><g><path fill="#3f3d56" d="M309.387 307.27c40.321 0 73.008-1.655 73.008-3.695s-32.687-3.695-73.008-3.695c-40.32 0-73.007 1.654-73.007 3.695 0 2.04 32.687 3.695 73.007 3.695z"/></g><g><path fill="#3f3d56" d="M180.225 293.045c19.454 0 35.225-.798 35.225-1.782 0-.985-15.771-1.783-35.225-1.783S145 290.278 145 291.263c0 .984 15.77 1.782 35.225 1.782z"/></g><g><path fill="#3f3d56" d="M535.749 349.996c36.207 0 65.559-1.486 65.559-3.318 0-1.833-29.352-3.318-65.56-3.318-36.206 0-65.558 1.485-65.558 3.318 0 1.832 29.352 3.318 65.559 3.318z"/></g><g><path fill="#3f3d56" d="M528.727 240.76H397.51v78.002h131.217z"/></g><g><path fill="#e9002c" d="M439.744 310.148c16.305 0 29.524-13.234 29.524-29.56 0-16.324-13.219-29.558-29.524-29.558-16.306 0-29.524 13.234-29.524 29.559 0 16.325 13.218 29.559 29.524 29.559z"/></g><g><path fill="#e9002c" d="M488.131 253.08h-9.841v9.853h9.841z"/></g><g opacity=".5"><path fill="#e9002c" d="M500.441 253.08H490.6v9.853h9.841z"/></g><g opacity=".2"><path fill="#e9002c" d="M512.741 253.08H502.9v9.853h9.841z"/></g><g><path fill="#2f2e41" d="M488.131 265.4h-9.841v9.853h9.841z"/></g><g opacity=".5"><path fill="#2f2e41" d="M500.441 265.4H490.6v9.853h9.841z"/></g><g opacity=".2"><path fill="#2f2e41" d="M512.741 265.4H502.9v9.853h9.841z"/></g><g><path fill="#ff6584" d="M488.131 277.71h-9.841v9.853h9.841z"/></g><g opacity=".5"><path fill="#ff6584" d="M500.441 277.71H490.6v9.853h9.841z"/></g><g opacity=".2"><path fill="#ff6584" d="M512.741 277.71H502.9v9.853h9.841z"/></g><g opacity=".5"><path fill="#3f3d56" d="M439.75 251.03v59.118c16.306 0 30.344-13.234 30.344-29.56 0-16.324-14.038-29.558-30.344-29.558z"/></g><g><path fill="#ffb9b9" d="M556.82 246.31s17.223 7.8 11.072 16.832c-6.15 9.032-24.603 26.275-25.013 29.97-.41 3.694-2.87 6.978-2.87 6.978s-8.201-8.62-7.381-9.442c.82-.82 9.02-8.621 9.43-10.674.41-2.052 12.713-18.063 12.713-18.063l-11.072-9.853z"/></g><g opacity=".1"><path d="M556.82 246.31s17.223 7.8 11.072 16.832c-6.15 9.032-24.603 26.275-25.013 29.97-.41 3.694-2.87 6.978-2.87 6.978s-8.201-8.62-7.381-9.442c.82-.82 9.02-8.621 9.43-10.674.41-2.052 12.713-18.063 12.713-18.063l-11.072-9.853z"/></g><g><path fill="#ffb9b9" d="M535.09 263.548s11.892 4.927 11.072 12.727c-.82 7.8 14.351 29.97 14.351 29.97s1.64 5.336 1.23 6.978c-.41 1.642 10.662 1.232 10.662 1.232v-3.695s-8.611-14.78-9.431-18.885c-.82-4.105-5.741-20.116-5.741-20.116s-1.64-14.369-9.841-14.369a15.362 15.362 0 0 0-12.302 6.158z"/></g><g><path fill="#2f2e41" d="M535.706 226.39s24.603 20.116 23.783 21.759c-.82 1.642-12.712 7.8-14.762 8.21-2.05.41-16.557-29.969-16.557-29.969z"/></g><g opacity=".1"><path d="M535.706 226.39s24.603 20.116 23.783 21.759c-.82 1.642-12.712 7.8-14.762 8.21-2.05.41-16.557-29.969-16.557-29.969z"/></g><g><path fill="#2f2e41" d="M509.052 230.501s-2.46 11.085 4.1 15.6c6.561 4.517 17.633 22.17 18.863 22.17 1.23 0 18.862-9.442 18.042-11.085-.82-1.642-9.841-16.01-9.841-16.01l-2.87-15.19s-25.014-.822-28.294 4.515z"/></g><g><path fill="#ffb9b9" d="M535.7 194.37l3.69 23.811 6.561 16.832s9.842 10.264 4.1 11.085c-5.74.82-9.02-11.085-9.02-11.085l-5.331-9.853z"/></g><g opacity=".1"><path d="M535.7 194.37l3.69 23.811 6.561 16.832s9.842 10.264 4.1 11.085c-5.74.82-9.02-11.085-9.02-11.085l-5.331-9.853z"/></g><g><path fill="#ffb9b9" d="M521.96 167.89s0 8.621-2.87 9.442c-2.87.822 11.481 11.906 11.481 11.906s-1.64-14.369 4.1-18.064z"/></g><g opacity=".1"><path d="M521.96 167.89s0 8.621-2.87 9.442c-2.87.822 11.481 11.906 11.481 11.906s-1.64-14.369 4.1-18.064z"/></g><g><path fill="#ffb9b9" d="M528.521 174.875c5.209 0 9.431-4.228 9.431-9.443 0-5.214-4.222-9.442-9.43-9.442-5.21 0-9.432 4.228-9.432 9.442 0 5.215 4.223 9.443 9.431 9.443z"/></g><g><path fill="#e9002c" d="M528.932 185.135s-8.611-10.674-9.842-10.263c-1.23.41-10.25 9.442-11.071 12.316-.82 2.873-2.46 23.4-1.23 27.506 1.23 4.105 1.23 14.78.82 15.6-.41.821-2.87 2.874-.41 2.874s11.071-6.158 16.812-4.926c5.74 1.231 13.532-.411 13.942-1.232.41-.821-.41-22.17 0-23.811.41-1.642-.82-9.853-1.23-11.495-.41-1.642-.41-8.211-4.51-9.853l-1.75-.173-.097 4.06z"/></g><g><path fill="#ffb9b9" d="M510.89 206.48s.82 12.727 6.97 18.064c6.152 5.337 19.273 14.368 20.094 16.01.82 1.643 8.61 10.264 10.25 6.57a6.15 6.15 0 0 0 .33-3.64 9.06 9.06 0 0 0-4.061-5.918l-3.65-2.348-18.042-18.885-.82-9.853z"/></g><g><path fill="#2f2e41" d="M534.475 289.208s-4.716-1.026-6.356 1.848c-1.64 2.873 1.64 10.674 1.64 10.674s9.432 19.705 11.072 17.242c1.64-2.463-1.23-11.495-1.23-11.495s4.1-9.032 2.46-9.442c-1.64-.41-7.586-3.9-7.586-8.827z"/></g><g><path fill="#2f2e41" d="M563.382 312.814s-2.46-1.231-2.87 0c-.41 1.232-2.87 7.39 0 8.211 2.87.821 31.164 1.642 30.344 0-.82-1.642-5.331-3.695-8.201-4.516-2.87-.82-10.252-6.979-10.252-6.979s-4.1 5.337-9.02 3.284z"/></g><g><path fill="#2f2e41" d="M538.024 157.934a2.528 2.528 0 0 0-1.095-1.432 5.81 5.81 0 0 0-.232-1.89c-.602-1.783-2.03-1.68-3.377-2.469-.584-.342-.548-.645-.852-1.206a4.475 4.475 0 0 0-1.723-1.76c-.864-.552-1.777-1.12-2.799-1.19-2.148-.146-3.795 1.877-5.848 2.526-.905.286-1.878.298-2.788.569-.91.27-1.817.916-1.953 1.857-.062.434.048.88-.015 1.313-.127.863-.883 1.467-1.389 2.177-1.119 1.569-.99 3.786-.096 5.493.189.353.405.691.646 1.011.074.807.306 1.592.681 2.31.895 1.707 2.435 2.983 4.044 4.043a9.566 9.566 0 0 1-.239-1.724c-.023-.194.003-.39.073-.572.18-.375.653-.474 1.014-.68.747-.425 1.04-1.366 1.062-2.227.022-.86-.16-1.723-.07-2.579a1.41 1.41 0 0 1 .482-1.036c.275-.158.59-.233.908-.217 1.532-.063 3.132-.09 4.483-.816.436-.29.904-.527 1.396-.707 1.148-.3 2.321.506 2.983 1.492.662.986.992 2.16 1.602 3.179.611 1.018 1.666 1.927 2.846 1.806a.47.47 0 0 0 .353-.157.53.53 0 0 0 .065-.3l.066-4.518a6.837 6.837 0 0 0-.228-2.296z"/></g><g><path fill="#e9002c" d="M514.578 185.55s9.022 4.105 8.612 12.727c-.41 8.621 2.46 9.442-4.511 10.263-6.971.821-8.611 0-9.021.821-.41.821-2.87-18.885-1.23-20.937 1.64-2.053 6.15-2.874 6.15-2.874z"/></g><g><path fill="#2f2e41" d="M333.132 115.965c7.247 0 13.121-5.882 13.121-13.138 0-7.255-5.874-13.137-13.121-13.137-7.247 0-13.122 5.882-13.122 13.137 0 7.256 5.875 13.138 13.122 13.138z"/></g><g><path fill="#2f2e41" d="M341.95 246.72l-7.38 20.116s-6.151 4.927-2.46 6.569c3.69 1.642 11.07-1.642 11.07-1.642l5.741-14.78-.82-10.263z"/></g><g opacity=".1"><path d="M341.95 246.72l-7.38 20.116s-6.151 4.927-2.46 6.569c3.69 1.642 11.07-1.642 11.07-1.642l5.741-14.78-.82-10.263z"/></g><g><path fill="#575a89" d="M342.565 127.45l6.15.821s2.87 22.58 1.64 24.222c-1.23 1.642-7.38 8.21-9.84 6.569-2.461-1.643 2.05-31.612 2.05-31.612z"/></g><g><path fill="#a0616a" d="M283.723 168.71s-8.611 3.695-10.252 4.105c-1.64.41-4.1 4.516-1.23 5.337 2.87.822 13.942-7.39 13.942-7.39z"/></g><g><path fill="#2f2e41" d="M344.82 254.93l4.51 16.833s.41 6.158 2.46 6.569c2.051.41 8.202-2.053 8.202-2.874 0-.821-2.46-7.39-2.46-7.39s0-4.926-2.46-6.979c-2.461-2.053-4.678-8.929-4.678-8.929z"/></g><g><path fill="#2f2e41" d="M350.562 216.34c.829 1.934.726 15.962-.18 25.297-.439 4.537-1.066 7.965-1.87 8.367l-5.876-1.47-2.325-.582-.062-5.108-.348-28.146-6.971-29.148v-7.39l17.632 1.642 2.797 4.397.074.12s-4.1 29.147-2.87 32.021z"/></g><g opacity=".1"><path d="M346.872 225.372c.877 1.318 2.341 9.208 3.51 16.265-.439 4.537-1.066 7.965-1.87 8.367l-5.876-1.47c-.09-.188-.18-.385-.275-.582-.75-1.577-1.455-3.318-2.112-5.108l-.348-28.146-6.971-29.148v-7.39l17.632 1.642 2.797 4.397-16.328-1.113 3.69 16.012 4.51 16.832s0 6.979 1.64 9.442z"/></g><g><path fill="#2f2e41" d="M317.753 161.737s-5.74 12.727 2.46 30.38a359.094 359.094 0 0 1 13.532 33.664s2.87 13.548 6.971 22.17c4.101 8.62 3.28 9.031 3.28 9.031l6.562-3.695s-3.69-25.453-5.331-27.917c-1.64-2.463-1.64-9.442-1.64-9.442l-4.51-16.832-3.691-16.011 18.042 1.232s0-23.401-8.201-27.917z"/></g><g><path fill="#a0616a" d="M324.52 108.98s0 6.569-2.05 6.98c-2.05.41-6.151.41-7.381 2.462-1.23 2.053 9.431 29.149 9.431 29.149l11.071-6.98 3.691-18.474s-5.33-3.284-5.33-4.926v-7.39z"/></g><g opacity=".1"><path d="M324.52 108.98s0 6.569-2.05 6.98c-2.05.41-6.151.41-7.381 2.462-1.23 2.053 9.431 29.149 9.431 29.149l11.071-6.98 3.691-18.474s-5.33-3.284-5.33-4.926v-7.39z"/></g><g><path fill="#a0616a" d="M330.881 116.166c5.436 0 9.842-4.412 9.842-9.853 0-5.442-4.407-9.853-9.842-9.853-5.435 0-9.841 4.411-9.841 9.853 0 5.441 4.406 9.853 9.841 9.853z"/></g><g><path fill="#575a89" d="M325.753 139.36s-3.69-23.4-4.51-23.4c-.82 0-12.302 2.463-13.123 2.874-.82.41-3.69 4.105-3.69 4.105l5.74 16.422s2.461 11.495 4.101 13.548c1.64 2.052 4.92 7.8 3.28 8.62-1.64.822-3.28 2.053-1.64 2.053s15.172-2.463 15.993-1.231c.82 1.231 14.351-4.516 14.351-4.927 0-.41-1.64-19.706-1.64-19.706l4.1-9.442-12.3-8.621z"/></g><g><path fill="#575a89" d="M308.533 120.89l-4.1 2.053s-11.482 26.274-12.302 26.685c-.82.41-4.92 8.21-5.33 9.853-.41 1.642-1.23 6.979-2.46 7.8-.66.448-1.345.86-2.051 1.231 0 0 2.46 4.106 3.69 4.106s5.331-5.748 5.331-5.748 9.021 5.748 11.482 1.232c2.46-4.516 8.61-33.254 8.61-33.254z"/></g><g><path fill="#a0616a" d="M340.717 133.41s-5.74-13.958-9.021-12.316c-3.28 1.642 2.46 11.495 6.15 13.138z"/></g><g opacity=".1"><path d="M334.98 133.822l5.753-1.302 1.218 6.229s5.33 9.442 4.1 13.547c-1.23 4.106-8.61 10.674-11.071 6.98-2.46-3.695-4.51-9.443-2.87-12.727 1.64-3.285 4.1-11.085 2.87-12.727z"/></g><g><path fill="#575a89" d="M336.21 132.992l5.753-1.302 1.218 6.229s5.33 9.442 4.1 13.547c-1.23 4.106-8.61 10.674-11.071 6.98-2.46-3.695-4.51-9.443-2.87-12.727 1.64-3.285 4.1-11.085 2.87-12.727z"/></g><g><path fill="#2f2e41" d="M342.457 104.334c1.105-2.362-1.99-6.147-6.912-8.456-4.922-2.308-9.807-2.265-10.912.096-1.105 2.361 1.99 6.147 6.911 8.455 4.922 2.308 9.808 2.266 10.913-.095z"/></g><g><path fill="#2f2e41" d="M340.93 97.485c3.171 0 5.742-2.573 5.742-5.747a5.744 5.744 0 0 0-5.741-5.748 5.744 5.744 0 0 0-5.741 5.748 5.744 5.744 0 0 0 5.74 5.747z"/></g><g><path fill="#2f2e41" d="M335.598 89.688c0-1.418.524-2.786 1.47-3.84a5.738 5.738 0 0 1 3.656-1.874 5.734 5.734 0 0 0-5.865 3.37 5.753 5.753 0 0 0 3.484 7.815c.768.247 1.58.33 2.381.242a5.738 5.738 0 0 1-3.656-1.874 5.751 5.751 0 0 1-1.47-3.84z"/></g><g><path fill="#3f3d56" d="M315.089 176.72H171.57v99.76h143.519z"/></g><g><path fill="#f2f2f2" d="M201.922 186.57H183.06v18.885h18.862z"/></g><g><path fill="#e9002c" d="M201.922 217.36H183.06v18.885h18.862z"/></g><g><path fill="#f2f2f2" d="M201.922 248.15H183.06v18.885h18.862z"/></g><g><path fill="#f2f2f2" d="M300.742 192.52H210.94v1.642h89.802z"/></g><g><path fill="#f2f2f2" d="M238.824 197.86H210.94v1.642h27.884z"/></g><g><path fill="#f2f2f2" d="M300.742 223.32H210.94v1.642h89.802z"/></g><g><path fill="#f2f2f2" d="M238.824 228.65H210.94v1.642h27.884z"/></g><g><path fill="#f2f2f2" d="M300.742 254.11H210.94v1.642h89.802z"/></g><g><path fill="#f2f2f2" d="M238.824 259.44H210.94v1.642h27.884z"/></g><g><path fill="#e9002c" d="M550.876 337.627c0 8.357-4.962 11.275-11.083 11.275a19.28 19.28 0 0 1-1.267-.044c-5.525-.39-9.816-3.459-9.816-11.23 0-8.042 10.264-18.19 11.037-18.943l.001-.001.045-.044s11.083 10.631 11.083 18.987z"/></g><g><path fill="#3f3d56" d="M539.385 347.624l4.053-5.67-4.064 6.293-.01.65c-.283-.006-.565-.02-.842-.039l.436-8.36-.003-.065.007-.011.042-.79-4.074-6.31 4.086 5.717.01.167.33-6.316-3.488-6.519 3.53 5.41.345-13.096v-.045.044l-.056 10.327 3.472-4.094-3.487 4.984-.091 5.655 3.242-5.428-3.256 6.26-.05 3.145 4.705-7.555-4.724 8.652z"/></g><g><path fill="#e9002c" d="M191.256 280.558c0 8.357-4.962 11.274-11.083 11.274a19.92 19.92 0 0 1-1.267-.044c-5.525-.39-9.816-3.459-9.816-11.23 0-8.042 10.264-18.19 11.037-18.943l.001-.001.045-.044s11.083 10.631 11.083 18.987z"/></g><g><path fill="#3f3d56" d="M179.765 290.554l4.053-5.67-4.064 6.293-.01.65a17.48 17.48 0 0 1-.842-.039l.436-8.36-.003-.065.007-.011.042-.79-4.074-6.31 4.086 5.717.01.167.33-6.316-3.488-6.519 3.53 5.41.345-13.096v-.045.044l-.056 10.327 3.472-4.094-3.487 4.984-.092 5.655 3.243-5.428-3.256 6.26-.05 3.145 4.705-7.555-4.724 8.652z"/></g></g></g></g></svg>